G04 #@! TF.GenerationSoftware,KiCad,Pcbnew,5.0.1*
G04 #@! TF.CreationDate,2019-02-08T09:42:00-06:00*
G04 #@! TF.ProjectId,tomato_timer,746F6D61746F5F74696D65722E6B6963,rev?*
G04 #@! TF.SameCoordinates,Original*
G04 #@! TF.FileFunction,Soldermask,Bot*
G04 #@! TF.FilePolarity,Negative*
%FSLAX46Y46*%
G04 Gerber Fmt 4.6, Leading zero omitted, Abs format (unit mm)*
G04 Created by KiCad (PCBNEW 5.0.1) date Fri 08 Feb 2019 09:42:00 AM CST*
%MOMM*%
%LPD*%
G01*
G04 APERTURE LIST*
%ADD10C,0.100000*%
G04 APERTURE END LIST*
D10*
G36*
X163033054Y-110233506D02*
X163033056Y-110233507D01*
X163033057Y-110233507D01*
X163139777Y-110277712D01*
X163321964Y-110353176D01*
X163581975Y-110526910D01*
X163803090Y-110748025D01*
X163976824Y-111008036D01*
X164096494Y-111296946D01*
X164157500Y-111603643D01*
X164157500Y-111916357D01*
X164106316Y-112173678D01*
X164096493Y-112223057D01*
X164062375Y-112305426D01*
X163976824Y-112511964D01*
X163803090Y-112771975D01*
X163581975Y-112993090D01*
X163321964Y-113166824D01*
X163139777Y-113242288D01*
X163033057Y-113286493D01*
X163033056Y-113286493D01*
X163033054Y-113286494D01*
X162726357Y-113347500D01*
X162413643Y-113347500D01*
X162106946Y-113286494D01*
X162106944Y-113286493D01*
X162106943Y-113286493D01*
X162000223Y-113242288D01*
X161818036Y-113166824D01*
X161558025Y-112993090D01*
X161336910Y-112771975D01*
X161163176Y-112511964D01*
X161077625Y-112305426D01*
X161043507Y-112223057D01*
X161033685Y-112173678D01*
X160982500Y-111916357D01*
X160982500Y-111603643D01*
X161043506Y-111296946D01*
X161163176Y-111008036D01*
X161336910Y-110748025D01*
X161558025Y-110526910D01*
X161818036Y-110353176D01*
X162000223Y-110277712D01*
X162106943Y-110233507D01*
X162106944Y-110233507D01*
X162106946Y-110233506D01*
X162413643Y-110172500D01*
X162726357Y-110172500D01*
X163033054Y-110233506D01*
X163033054Y-110233506D01*
G37*
G36*
X179229377Y-110501026D02*
X179314698Y-110526908D01*
X179373015Y-110544598D01*
X179439203Y-110579977D01*
X179505391Y-110615355D01*
X179621422Y-110710578D01*
X179621423Y-110710580D01*
X179621425Y-110710581D01*
X179678556Y-110780196D01*
X179716645Y-110826608D01*
X179761594Y-110910701D01*
X179787402Y-110958984D01*
X179801926Y-111006864D01*
X179830974Y-111102622D01*
X179842000Y-111214574D01*
X179842000Y-112305426D01*
X179830974Y-112417378D01*
X179812963Y-112476751D01*
X179787402Y-112561016D01*
X179787105Y-112561571D01*
X179716645Y-112693392D01*
X179621422Y-112809422D01*
X179505392Y-112904645D01*
X179421299Y-112949594D01*
X179373016Y-112975402D01*
X179325136Y-112989926D01*
X179229378Y-113018974D01*
X179080000Y-113033686D01*
X178930623Y-113018974D01*
X178834865Y-112989926D01*
X178786985Y-112975402D01*
X178738702Y-112949594D01*
X178654609Y-112904645D01*
X178538579Y-112809422D01*
X178443356Y-112693392D01*
X178372896Y-112561571D01*
X178372599Y-112561016D01*
X178347038Y-112476751D01*
X178329027Y-112417378D01*
X178318001Y-112305426D01*
X178318000Y-111214575D01*
X178329026Y-111102623D01*
X178371521Y-110962537D01*
X178372598Y-110958985D01*
X178407976Y-110892798D01*
X178443355Y-110826609D01*
X178538578Y-110710578D01*
X178538580Y-110710577D01*
X178538581Y-110710575D01*
X178654606Y-110615357D01*
X178654608Y-110615355D01*
X178738701Y-110570406D01*
X178786984Y-110544598D01*
X178845301Y-110526908D01*
X178930622Y-110501026D01*
X179080000Y-110486314D01*
X179229377Y-110501026D01*
X179229377Y-110501026D01*
G37*
G36*
X176689377Y-110501026D02*
X176774698Y-110526908D01*
X176833015Y-110544598D01*
X176899203Y-110579977D01*
X176965391Y-110615355D01*
X177081422Y-110710578D01*
X177081423Y-110710580D01*
X177081425Y-110710581D01*
X177138556Y-110780196D01*
X177176645Y-110826608D01*
X177221594Y-110910701D01*
X177247402Y-110958984D01*
X177261926Y-111006864D01*
X177290974Y-111102622D01*
X177302000Y-111214574D01*
X177302000Y-112305426D01*
X177290974Y-112417378D01*
X177272963Y-112476751D01*
X177247402Y-112561016D01*
X177247105Y-112561571D01*
X177176645Y-112693392D01*
X177081422Y-112809422D01*
X176965392Y-112904645D01*
X176881299Y-112949594D01*
X176833016Y-112975402D01*
X176785136Y-112989926D01*
X176689378Y-113018974D01*
X176540000Y-113033686D01*
X176390623Y-113018974D01*
X176294865Y-112989926D01*
X176246985Y-112975402D01*
X176198702Y-112949594D01*
X176114609Y-112904645D01*
X175998579Y-112809422D01*
X175903356Y-112693392D01*
X175832896Y-112561571D01*
X175832599Y-112561016D01*
X175807038Y-112476751D01*
X175789027Y-112417378D01*
X175778001Y-112305426D01*
X175778000Y-111214575D01*
X175789026Y-111102623D01*
X175831521Y-110962537D01*
X175832598Y-110958985D01*
X175867976Y-110892798D01*
X175903355Y-110826609D01*
X175998578Y-110710578D01*
X175998580Y-110710577D01*
X175998581Y-110710575D01*
X176114606Y-110615357D01*
X176114608Y-110615355D01*
X176198701Y-110570406D01*
X176246984Y-110544598D01*
X176305301Y-110526908D01*
X176390622Y-110501026D01*
X176540000Y-110486314D01*
X176689377Y-110501026D01*
X176689377Y-110501026D01*
G37*
G36*
X186849377Y-110501026D02*
X186934698Y-110526908D01*
X186993015Y-110544598D01*
X187059203Y-110579977D01*
X187125391Y-110615355D01*
X187241422Y-110710578D01*
X187241423Y-110710580D01*
X187241425Y-110710581D01*
X187298556Y-110780196D01*
X187336645Y-110826608D01*
X187381594Y-110910701D01*
X187407402Y-110958984D01*
X187421926Y-111006864D01*
X187450974Y-111102622D01*
X187462000Y-111214574D01*
X187462000Y-112305426D01*
X187450974Y-112417378D01*
X187432963Y-112476751D01*
X187407402Y-112561016D01*
X187407105Y-112561571D01*
X187336645Y-112693392D01*
X187241422Y-112809422D01*
X187125392Y-112904645D01*
X187041299Y-112949594D01*
X186993016Y-112975402D01*
X186945136Y-112989926D01*
X186849378Y-113018974D01*
X186700000Y-113033686D01*
X186550623Y-113018974D01*
X186454865Y-112989926D01*
X186406985Y-112975402D01*
X186358702Y-112949594D01*
X186274609Y-112904645D01*
X186158579Y-112809422D01*
X186063356Y-112693392D01*
X185992896Y-112561571D01*
X185992599Y-112561016D01*
X185967038Y-112476751D01*
X185949027Y-112417378D01*
X185938001Y-112305426D01*
X185938000Y-111214575D01*
X185949026Y-111102623D01*
X185991521Y-110962537D01*
X185992598Y-110958985D01*
X186027976Y-110892798D01*
X186063355Y-110826609D01*
X186158578Y-110710578D01*
X186158580Y-110710577D01*
X186158581Y-110710575D01*
X186274606Y-110615357D01*
X186274608Y-110615355D01*
X186358701Y-110570406D01*
X186406984Y-110544598D01*
X186465301Y-110526908D01*
X186550622Y-110501026D01*
X186700000Y-110486314D01*
X186849377Y-110501026D01*
X186849377Y-110501026D01*
G37*
G36*
X181769377Y-110501026D02*
X181854698Y-110526908D01*
X181913015Y-110544598D01*
X181979203Y-110579977D01*
X182045391Y-110615355D01*
X182161422Y-110710578D01*
X182161423Y-110710580D01*
X182161425Y-110710581D01*
X182218556Y-110780196D01*
X182256645Y-110826608D01*
X182301594Y-110910701D01*
X182327402Y-110958984D01*
X182341926Y-111006864D01*
X182370974Y-111102622D01*
X182382000Y-111214574D01*
X182382000Y-112305426D01*
X182370974Y-112417378D01*
X182352963Y-112476751D01*
X182327402Y-112561016D01*
X182327105Y-112561571D01*
X182256645Y-112693392D01*
X182161422Y-112809422D01*
X182045392Y-112904645D01*
X181961299Y-112949594D01*
X181913016Y-112975402D01*
X181865136Y-112989926D01*
X181769378Y-113018974D01*
X181620000Y-113033686D01*
X181470623Y-113018974D01*
X181374865Y-112989926D01*
X181326985Y-112975402D01*
X181278702Y-112949594D01*
X181194609Y-112904645D01*
X181078579Y-112809422D01*
X180983356Y-112693392D01*
X180912896Y-112561571D01*
X180912599Y-112561016D01*
X180887038Y-112476751D01*
X180869027Y-112417378D01*
X180858001Y-112305426D01*
X180858000Y-111214575D01*
X180869026Y-111102623D01*
X180911521Y-110962537D01*
X180912598Y-110958985D01*
X180947976Y-110892798D01*
X180983355Y-110826609D01*
X181078578Y-110710578D01*
X181078580Y-110710577D01*
X181078581Y-110710575D01*
X181194606Y-110615357D01*
X181194608Y-110615355D01*
X181278701Y-110570406D01*
X181326984Y-110544598D01*
X181385301Y-110526908D01*
X181470622Y-110501026D01*
X181620000Y-110486314D01*
X181769377Y-110501026D01*
X181769377Y-110501026D01*
G37*
G36*
X184309377Y-110501026D02*
X184394698Y-110526908D01*
X184453015Y-110544598D01*
X184519203Y-110579977D01*
X184585391Y-110615355D01*
X184701422Y-110710578D01*
X184701423Y-110710580D01*
X184701425Y-110710581D01*
X184758556Y-110780196D01*
X184796645Y-110826608D01*
X184841594Y-110910701D01*
X184867402Y-110958984D01*
X184881926Y-111006864D01*
X184910974Y-111102622D01*
X184922000Y-111214574D01*
X184922000Y-112305426D01*
X184910974Y-112417378D01*
X184892963Y-112476751D01*
X184867402Y-112561016D01*
X184867105Y-112561571D01*
X184796645Y-112693392D01*
X184701422Y-112809422D01*
X184585392Y-112904645D01*
X184501299Y-112949594D01*
X184453016Y-112975402D01*
X184405136Y-112989926D01*
X184309378Y-113018974D01*
X184160000Y-113033686D01*
X184010623Y-113018974D01*
X183914865Y-112989926D01*
X183866985Y-112975402D01*
X183818702Y-112949594D01*
X183734609Y-112904645D01*
X183618579Y-112809422D01*
X183523356Y-112693392D01*
X183452896Y-112561571D01*
X183452599Y-112561016D01*
X183427038Y-112476751D01*
X183409027Y-112417378D01*
X183398001Y-112305426D01*
X183398000Y-111214575D01*
X183409026Y-111102623D01*
X183451521Y-110962537D01*
X183452598Y-110958985D01*
X183487976Y-110892798D01*
X183523355Y-110826609D01*
X183618578Y-110710578D01*
X183618580Y-110710577D01*
X183618581Y-110710575D01*
X183734606Y-110615357D01*
X183734608Y-110615355D01*
X183818701Y-110570406D01*
X183866984Y-110544598D01*
X183925301Y-110526908D01*
X184010622Y-110501026D01*
X184160000Y-110486314D01*
X184309377Y-110501026D01*
X184309377Y-110501026D01*
G37*
G36*
X189389377Y-110501026D02*
X189474698Y-110526908D01*
X189533015Y-110544598D01*
X189599203Y-110579977D01*
X189665391Y-110615355D01*
X189781422Y-110710578D01*
X189781423Y-110710580D01*
X189781425Y-110710581D01*
X189838556Y-110780196D01*
X189876645Y-110826608D01*
X189921594Y-110910701D01*
X189947402Y-110958984D01*
X189961926Y-111006864D01*
X189990974Y-111102622D01*
X190002000Y-111214574D01*
X190002000Y-112305426D01*
X189990974Y-112417378D01*
X189972963Y-112476751D01*
X189947402Y-112561016D01*
X189947105Y-112561571D01*
X189876645Y-112693392D01*
X189781422Y-112809422D01*
X189665392Y-112904645D01*
X189581299Y-112949594D01*
X189533016Y-112975402D01*
X189485136Y-112989926D01*
X189389378Y-113018974D01*
X189240000Y-113033686D01*
X189090623Y-113018974D01*
X188994865Y-112989926D01*
X188946985Y-112975402D01*
X188898702Y-112949594D01*
X188814609Y-112904645D01*
X188698579Y-112809422D01*
X188603356Y-112693392D01*
X188532896Y-112561571D01*
X188532599Y-112561016D01*
X188507038Y-112476751D01*
X188489027Y-112417378D01*
X188478001Y-112305426D01*
X188478000Y-111214575D01*
X188489026Y-111102623D01*
X188531521Y-110962537D01*
X188532598Y-110958985D01*
X188567976Y-110892798D01*
X188603355Y-110826609D01*
X188698578Y-110710578D01*
X188698580Y-110710577D01*
X188698581Y-110710575D01*
X188814606Y-110615357D01*
X188814608Y-110615355D01*
X188898701Y-110570406D01*
X188946984Y-110544598D01*
X189005301Y-110526908D01*
X189090622Y-110501026D01*
X189240000Y-110486314D01*
X189389377Y-110501026D01*
X189389377Y-110501026D01*
G37*
G36*
X191929377Y-110501026D02*
X192014698Y-110526908D01*
X192073015Y-110544598D01*
X192139203Y-110579977D01*
X192205391Y-110615355D01*
X192321422Y-110710578D01*
X192321423Y-110710580D01*
X192321425Y-110710581D01*
X192378556Y-110780196D01*
X192416645Y-110826608D01*
X192461594Y-110910701D01*
X192487402Y-110958984D01*
X192501926Y-111006864D01*
X192530974Y-111102622D01*
X192542000Y-111214574D01*
X192542000Y-112305426D01*
X192530974Y-112417378D01*
X192512963Y-112476751D01*
X192487402Y-112561016D01*
X192487105Y-112561571D01*
X192416645Y-112693392D01*
X192321422Y-112809422D01*
X192205392Y-112904645D01*
X192121299Y-112949594D01*
X192073016Y-112975402D01*
X192025136Y-112989926D01*
X191929378Y-113018974D01*
X191780000Y-113033686D01*
X191630623Y-113018974D01*
X191534865Y-112989926D01*
X191486985Y-112975402D01*
X191438702Y-112949594D01*
X191354609Y-112904645D01*
X191238579Y-112809422D01*
X191143356Y-112693392D01*
X191072896Y-112561571D01*
X191072599Y-112561016D01*
X191047038Y-112476751D01*
X191029027Y-112417378D01*
X191018001Y-112305426D01*
X191018000Y-111214575D01*
X191029026Y-111102623D01*
X191071521Y-110962537D01*
X191072598Y-110958985D01*
X191107976Y-110892798D01*
X191143355Y-110826609D01*
X191238578Y-110710578D01*
X191238580Y-110710577D01*
X191238581Y-110710575D01*
X191354606Y-110615357D01*
X191354608Y-110615355D01*
X191438701Y-110570406D01*
X191486984Y-110544598D01*
X191545301Y-110526908D01*
X191630622Y-110501026D01*
X191780000Y-110486314D01*
X191929377Y-110501026D01*
X191929377Y-110501026D01*
G37*
G36*
X204629377Y-110501026D02*
X204714698Y-110526908D01*
X204773015Y-110544598D01*
X204839203Y-110579977D01*
X204905391Y-110615355D01*
X205021422Y-110710578D01*
X205021423Y-110710580D01*
X205021425Y-110710581D01*
X205078556Y-110780196D01*
X205116645Y-110826608D01*
X205161594Y-110910701D01*
X205187402Y-110958984D01*
X205201926Y-111006864D01*
X205230974Y-111102622D01*
X205242000Y-111214574D01*
X205242000Y-112305426D01*
X205230974Y-112417378D01*
X205212963Y-112476751D01*
X205187402Y-112561016D01*
X205187105Y-112561571D01*
X205116645Y-112693392D01*
X205021422Y-112809422D01*
X204905392Y-112904645D01*
X204821299Y-112949594D01*
X204773016Y-112975402D01*
X204725136Y-112989926D01*
X204629378Y-113018974D01*
X204480000Y-113033686D01*
X204330623Y-113018974D01*
X204234865Y-112989926D01*
X204186985Y-112975402D01*
X204138702Y-112949594D01*
X204054609Y-112904645D01*
X203938579Y-112809422D01*
X203843356Y-112693392D01*
X203772896Y-112561571D01*
X203772599Y-112561016D01*
X203747038Y-112476751D01*
X203729027Y-112417378D01*
X203718001Y-112305426D01*
X203718000Y-111214575D01*
X203729026Y-111102623D01*
X203771521Y-110962537D01*
X203772598Y-110958985D01*
X203807976Y-110892798D01*
X203843355Y-110826609D01*
X203938578Y-110710578D01*
X203938580Y-110710577D01*
X203938581Y-110710575D01*
X204054606Y-110615357D01*
X204054608Y-110615355D01*
X204138701Y-110570406D01*
X204186984Y-110544598D01*
X204245301Y-110526908D01*
X204330622Y-110501026D01*
X204480000Y-110486314D01*
X204629377Y-110501026D01*
X204629377Y-110501026D01*
G37*
G36*
X194469377Y-110501026D02*
X194554698Y-110526908D01*
X194613015Y-110544598D01*
X194679203Y-110579977D01*
X194745391Y-110615355D01*
X194861422Y-110710578D01*
X194861423Y-110710580D01*
X194861425Y-110710581D01*
X194918556Y-110780196D01*
X194956645Y-110826608D01*
X195001594Y-110910701D01*
X195027402Y-110958984D01*
X195041926Y-111006864D01*
X195070974Y-111102622D01*
X195082000Y-111214574D01*
X195082000Y-112305426D01*
X195070974Y-112417378D01*
X195052963Y-112476751D01*
X195027402Y-112561016D01*
X195027105Y-112561571D01*
X194956645Y-112693392D01*
X194861422Y-112809422D01*
X194745392Y-112904645D01*
X194661299Y-112949594D01*
X194613016Y-112975402D01*
X194565136Y-112989926D01*
X194469378Y-113018974D01*
X194320000Y-113033686D01*
X194170623Y-113018974D01*
X194074865Y-112989926D01*
X194026985Y-112975402D01*
X193978702Y-112949594D01*
X193894609Y-112904645D01*
X193778579Y-112809422D01*
X193683356Y-112693392D01*
X193612896Y-112561571D01*
X193612599Y-112561016D01*
X193587038Y-112476751D01*
X193569027Y-112417378D01*
X193558001Y-112305426D01*
X193558000Y-111214575D01*
X193569026Y-111102623D01*
X193611521Y-110962537D01*
X193612598Y-110958985D01*
X193647976Y-110892798D01*
X193683355Y-110826609D01*
X193778578Y-110710578D01*
X193778580Y-110710577D01*
X193778581Y-110710575D01*
X193894606Y-110615357D01*
X193894608Y-110615355D01*
X193978701Y-110570406D01*
X194026984Y-110544598D01*
X194085301Y-110526908D01*
X194170622Y-110501026D01*
X194320000Y-110486314D01*
X194469377Y-110501026D01*
X194469377Y-110501026D01*
G37*
G36*
X212249377Y-110501026D02*
X212334698Y-110526908D01*
X212393015Y-110544598D01*
X212459202Y-110579976D01*
X212525391Y-110615355D01*
X212641422Y-110710578D01*
X212641423Y-110710580D01*
X212641425Y-110710581D01*
X212698556Y-110780196D01*
X212736645Y-110826608D01*
X212781594Y-110910701D01*
X212807402Y-110958984D01*
X212821926Y-111006864D01*
X212850974Y-111102622D01*
X212862000Y-111214574D01*
X212862000Y-112305426D01*
X212850974Y-112417378D01*
X212832963Y-112476751D01*
X212807402Y-112561016D01*
X212807105Y-112561571D01*
X212736645Y-112693392D01*
X212641422Y-112809422D01*
X212525392Y-112904645D01*
X212441299Y-112949594D01*
X212393016Y-112975402D01*
X212345136Y-112989926D01*
X212249378Y-113018974D01*
X212100000Y-113033686D01*
X211950623Y-113018974D01*
X211854865Y-112989926D01*
X211806985Y-112975402D01*
X211758702Y-112949594D01*
X211674609Y-112904645D01*
X211558579Y-112809422D01*
X211463356Y-112693392D01*
X211392896Y-112561571D01*
X211392599Y-112561016D01*
X211367038Y-112476751D01*
X211349027Y-112417378D01*
X211338001Y-112305426D01*
X211338000Y-111214575D01*
X211349026Y-111102623D01*
X211391521Y-110962537D01*
X211392598Y-110958985D01*
X211427977Y-110892797D01*
X211463355Y-110826609D01*
X211558578Y-110710578D01*
X211558580Y-110710577D01*
X211558581Y-110710575D01*
X211674606Y-110615357D01*
X211674608Y-110615355D01*
X211758701Y-110570406D01*
X211806984Y-110544598D01*
X211865301Y-110526908D01*
X211950622Y-110501026D01*
X212100000Y-110486314D01*
X212249377Y-110501026D01*
X212249377Y-110501026D01*
G37*
G36*
X209709377Y-110501026D02*
X209794698Y-110526908D01*
X209853015Y-110544598D01*
X209919203Y-110579977D01*
X209985391Y-110615355D01*
X210101422Y-110710578D01*
X210101423Y-110710580D01*
X210101425Y-110710581D01*
X210158556Y-110780196D01*
X210196645Y-110826608D01*
X210241594Y-110910701D01*
X210267402Y-110958984D01*
X210281926Y-111006864D01*
X210310974Y-111102622D01*
X210322000Y-111214574D01*
X210322000Y-112305426D01*
X210310974Y-112417378D01*
X210292963Y-112476751D01*
X210267402Y-112561016D01*
X210267105Y-112561571D01*
X210196645Y-112693392D01*
X210101422Y-112809422D01*
X209985392Y-112904645D01*
X209901299Y-112949594D01*
X209853016Y-112975402D01*
X209805136Y-112989926D01*
X209709378Y-113018974D01*
X209560000Y-113033686D01*
X209410623Y-113018974D01*
X209314865Y-112989926D01*
X209266985Y-112975402D01*
X209218702Y-112949594D01*
X209134609Y-112904645D01*
X209018579Y-112809422D01*
X208923356Y-112693392D01*
X208852896Y-112561571D01*
X208852599Y-112561016D01*
X208827038Y-112476751D01*
X208809027Y-112417378D01*
X208798001Y-112305426D01*
X208798000Y-111214575D01*
X208809026Y-111102623D01*
X208851521Y-110962537D01*
X208852598Y-110958985D01*
X208887976Y-110892798D01*
X208923355Y-110826609D01*
X209018578Y-110710578D01*
X209018580Y-110710577D01*
X209018581Y-110710575D01*
X209134606Y-110615357D01*
X209134608Y-110615355D01*
X209218701Y-110570406D01*
X209266984Y-110544598D01*
X209325301Y-110526908D01*
X209410622Y-110501026D01*
X209560000Y-110486314D01*
X209709377Y-110501026D01*
X209709377Y-110501026D01*
G37*
G36*
X199549377Y-110501026D02*
X199634698Y-110526908D01*
X199693015Y-110544598D01*
X199759202Y-110579976D01*
X199825391Y-110615355D01*
X199941422Y-110710578D01*
X199941423Y-110710580D01*
X199941425Y-110710581D01*
X199998556Y-110780196D01*
X200036645Y-110826608D01*
X200081594Y-110910701D01*
X200107402Y-110958984D01*
X200121926Y-111006864D01*
X200150974Y-111102622D01*
X200162000Y-111214574D01*
X200162000Y-112305426D01*
X200150974Y-112417378D01*
X200132963Y-112476751D01*
X200107402Y-112561016D01*
X200107105Y-112561571D01*
X200036645Y-112693392D01*
X199941422Y-112809422D01*
X199825392Y-112904645D01*
X199741299Y-112949594D01*
X199693016Y-112975402D01*
X199645136Y-112989926D01*
X199549378Y-113018974D01*
X199400000Y-113033686D01*
X199250623Y-113018974D01*
X199154865Y-112989926D01*
X199106985Y-112975402D01*
X199058702Y-112949594D01*
X198974609Y-112904645D01*
X198858579Y-112809422D01*
X198763356Y-112693392D01*
X198692896Y-112561571D01*
X198692599Y-112561016D01*
X198667038Y-112476751D01*
X198649027Y-112417378D01*
X198638001Y-112305426D01*
X198638000Y-111214575D01*
X198649026Y-111102623D01*
X198691521Y-110962537D01*
X198692598Y-110958985D01*
X198727976Y-110892798D01*
X198763355Y-110826609D01*
X198858578Y-110710578D01*
X198858580Y-110710577D01*
X198858581Y-110710575D01*
X198974606Y-110615357D01*
X198974608Y-110615355D01*
X199058701Y-110570406D01*
X199106984Y-110544598D01*
X199165301Y-110526908D01*
X199250622Y-110501026D01*
X199400000Y-110486314D01*
X199549377Y-110501026D01*
X199549377Y-110501026D01*
G37*
G36*
X202089377Y-110501026D02*
X202174698Y-110526908D01*
X202233015Y-110544598D01*
X202299202Y-110579976D01*
X202365391Y-110615355D01*
X202481422Y-110710578D01*
X202481423Y-110710580D01*
X202481425Y-110710581D01*
X202538556Y-110780196D01*
X202576645Y-110826608D01*
X202621594Y-110910701D01*
X202647402Y-110958984D01*
X202661926Y-111006864D01*
X202690974Y-111102622D01*
X202702000Y-111214574D01*
X202702000Y-112305426D01*
X202690974Y-112417378D01*
X202672963Y-112476751D01*
X202647402Y-112561016D01*
X202647105Y-112561571D01*
X202576645Y-112693392D01*
X202481422Y-112809422D01*
X202365392Y-112904645D01*
X202281299Y-112949594D01*
X202233016Y-112975402D01*
X202185136Y-112989926D01*
X202089378Y-113018974D01*
X201940000Y-113033686D01*
X201790623Y-113018974D01*
X201694865Y-112989926D01*
X201646985Y-112975402D01*
X201598702Y-112949594D01*
X201514609Y-112904645D01*
X201398579Y-112809422D01*
X201303356Y-112693392D01*
X201232896Y-112561571D01*
X201232599Y-112561016D01*
X201207038Y-112476751D01*
X201189027Y-112417378D01*
X201178001Y-112305426D01*
X201178000Y-111214575D01*
X201189026Y-111102623D01*
X201231521Y-110962537D01*
X201232598Y-110958985D01*
X201267976Y-110892798D01*
X201303355Y-110826609D01*
X201398578Y-110710578D01*
X201398580Y-110710577D01*
X201398581Y-110710575D01*
X201514606Y-110615357D01*
X201514608Y-110615355D01*
X201598701Y-110570406D01*
X201646984Y-110544598D01*
X201705301Y-110526908D01*
X201790622Y-110501026D01*
X201940000Y-110486314D01*
X202089377Y-110501026D01*
X202089377Y-110501026D01*
G37*
G36*
X207169377Y-110501026D02*
X207254698Y-110526908D01*
X207313015Y-110544598D01*
X207379203Y-110579977D01*
X207445391Y-110615355D01*
X207561422Y-110710578D01*
X207561423Y-110710580D01*
X207561425Y-110710581D01*
X207618556Y-110780196D01*
X207656645Y-110826608D01*
X207701594Y-110910701D01*
X207727402Y-110958984D01*
X207741926Y-111006864D01*
X207770974Y-111102622D01*
X207782000Y-111214574D01*
X207782000Y-112305426D01*
X207770974Y-112417378D01*
X207752963Y-112476751D01*
X207727402Y-112561016D01*
X207727105Y-112561571D01*
X207656645Y-112693392D01*
X207561422Y-112809422D01*
X207445392Y-112904645D01*
X207361299Y-112949594D01*
X207313016Y-112975402D01*
X207265136Y-112989926D01*
X207169378Y-113018974D01*
X207020000Y-113033686D01*
X206870623Y-113018974D01*
X206774865Y-112989926D01*
X206726985Y-112975402D01*
X206678702Y-112949594D01*
X206594609Y-112904645D01*
X206478579Y-112809422D01*
X206383356Y-112693392D01*
X206312896Y-112561571D01*
X206312599Y-112561016D01*
X206287038Y-112476751D01*
X206269027Y-112417378D01*
X206258001Y-112305426D01*
X206258000Y-111214575D01*
X206269026Y-111102623D01*
X206311521Y-110962537D01*
X206312598Y-110958985D01*
X206347976Y-110892798D01*
X206383355Y-110826609D01*
X206478578Y-110710578D01*
X206478580Y-110710577D01*
X206478581Y-110710575D01*
X206594606Y-110615357D01*
X206594608Y-110615355D01*
X206678701Y-110570406D01*
X206726984Y-110544598D01*
X206785301Y-110526908D01*
X206870622Y-110501026D01*
X207020000Y-110486314D01*
X207169377Y-110501026D01*
X207169377Y-110501026D01*
G37*
G36*
X151571770Y-110715372D02*
X151687689Y-110738429D01*
X151869678Y-110813811D01*
X152033463Y-110923249D01*
X152172751Y-111062537D01*
X152282189Y-111226322D01*
X152357571Y-111408311D01*
X152396000Y-111601509D01*
X152396000Y-111798491D01*
X152357571Y-111991689D01*
X152282189Y-112173678D01*
X152172751Y-112337463D01*
X152033463Y-112476751D01*
X151869678Y-112586189D01*
X151687689Y-112661571D01*
X151571770Y-112684628D01*
X151494493Y-112700000D01*
X151297507Y-112700000D01*
X151220230Y-112684628D01*
X151104311Y-112661571D01*
X150922322Y-112586189D01*
X150758537Y-112476751D01*
X150619249Y-112337463D01*
X150509811Y-112173678D01*
X150434429Y-111991689D01*
X150396000Y-111798491D01*
X150396000Y-111601509D01*
X150434429Y-111408311D01*
X150509811Y-111226322D01*
X150619249Y-111062537D01*
X150758537Y-110923249D01*
X150922322Y-110813811D01*
X151104311Y-110738429D01*
X151220230Y-110715372D01*
X151297507Y-110700000D01*
X151494493Y-110700000D01*
X151571770Y-110715372D01*
X151571770Y-110715372D01*
G37*
G36*
X158071770Y-110715372D02*
X158187689Y-110738429D01*
X158369678Y-110813811D01*
X158533463Y-110923249D01*
X158672751Y-111062537D01*
X158782189Y-111226322D01*
X158857571Y-111408311D01*
X158896000Y-111601509D01*
X158896000Y-111798491D01*
X158857571Y-111991689D01*
X158782189Y-112173678D01*
X158672751Y-112337463D01*
X158533463Y-112476751D01*
X158369678Y-112586189D01*
X158187689Y-112661571D01*
X158071770Y-112684628D01*
X157994493Y-112700000D01*
X157797507Y-112700000D01*
X157720230Y-112684628D01*
X157604311Y-112661571D01*
X157422322Y-112586189D01*
X157258537Y-112476751D01*
X157119249Y-112337463D01*
X157009811Y-112173678D01*
X156934429Y-111991689D01*
X156896000Y-111798491D01*
X156896000Y-111601509D01*
X156934429Y-111408311D01*
X157009811Y-111226322D01*
X157119249Y-111062537D01*
X157258537Y-110923249D01*
X157422322Y-110813811D01*
X157604311Y-110738429D01*
X157720230Y-110715372D01*
X157797507Y-110700000D01*
X157994493Y-110700000D01*
X158071770Y-110715372D01*
X158071770Y-110715372D01*
G37*
G36*
X166921687Y-110615355D02*
X167037689Y-110638429D01*
X167219678Y-110713811D01*
X167383463Y-110823249D01*
X167522751Y-110962537D01*
X167632189Y-111126322D01*
X167707571Y-111308311D01*
X167746000Y-111501509D01*
X167746000Y-111698491D01*
X167707571Y-111891689D01*
X167632189Y-112073678D01*
X167522751Y-112237463D01*
X167383463Y-112376751D01*
X167219678Y-112486189D01*
X167037689Y-112561571D01*
X166921770Y-112584628D01*
X166844493Y-112600000D01*
X166647507Y-112600000D01*
X166570230Y-112584628D01*
X166454311Y-112561571D01*
X166272322Y-112486189D01*
X166108537Y-112376751D01*
X165969249Y-112237463D01*
X165859811Y-112073678D01*
X165784429Y-111891689D01*
X165746000Y-111698491D01*
X165746000Y-111501509D01*
X165784429Y-111308311D01*
X165859811Y-111126322D01*
X165969249Y-110962537D01*
X166108537Y-110823249D01*
X166272322Y-110713811D01*
X166454311Y-110638429D01*
X166570313Y-110615355D01*
X166647507Y-110600000D01*
X166844493Y-110600000D01*
X166921687Y-110615355D01*
X166921687Y-110615355D01*
G37*
G36*
X173421687Y-110615355D02*
X173537689Y-110638429D01*
X173719678Y-110713811D01*
X173883463Y-110823249D01*
X174022751Y-110962537D01*
X174132189Y-111126322D01*
X174207571Y-111308311D01*
X174246000Y-111501509D01*
X174246000Y-111698491D01*
X174207571Y-111891689D01*
X174132189Y-112073678D01*
X174022751Y-112237463D01*
X173883463Y-112376751D01*
X173719678Y-112486189D01*
X173537689Y-112561571D01*
X173421770Y-112584628D01*
X173344493Y-112600000D01*
X173147507Y-112600000D01*
X173070230Y-112584628D01*
X172954311Y-112561571D01*
X172772322Y-112486189D01*
X172608537Y-112376751D01*
X172469249Y-112237463D01*
X172359811Y-112073678D01*
X172284429Y-111891689D01*
X172246000Y-111698491D01*
X172246000Y-111501509D01*
X172284429Y-111308311D01*
X172359811Y-111126322D01*
X172469249Y-110962537D01*
X172608537Y-110823249D01*
X172772322Y-110713811D01*
X172954311Y-110638429D01*
X173070313Y-110615355D01*
X173147507Y-110600000D01*
X173344493Y-110600000D01*
X173421687Y-110615355D01*
X173421687Y-110615355D01*
G37*
G36*
X187500000Y-108625000D02*
X186000000Y-108625000D01*
X186000000Y-107375000D01*
X187500000Y-107375000D01*
X187500000Y-108625000D01*
X187500000Y-108625000D01*
G37*
G36*
X190000000Y-108625000D02*
X188500000Y-108625000D01*
X188500000Y-107375000D01*
X190000000Y-107375000D01*
X190000000Y-108625000D01*
X190000000Y-108625000D01*
G37*
G36*
X199565934Y-106946664D02*
X199720627Y-107010740D01*
X199859847Y-107103764D01*
X199978236Y-107222153D01*
X200071260Y-107361373D01*
X200135336Y-107516066D01*
X200168000Y-107680281D01*
X200168000Y-107847719D01*
X200135336Y-108011934D01*
X200071260Y-108166627D01*
X199978236Y-108305847D01*
X199859847Y-108424236D01*
X199720627Y-108517260D01*
X199565934Y-108581336D01*
X199401719Y-108614000D01*
X199234281Y-108614000D01*
X199070066Y-108581336D01*
X198915373Y-108517260D01*
X198776153Y-108424236D01*
X198657764Y-108305847D01*
X198564740Y-108166627D01*
X198500664Y-108011934D01*
X198468000Y-107847719D01*
X198468000Y-107680281D01*
X198500664Y-107516066D01*
X198564740Y-107361373D01*
X198657764Y-107222153D01*
X198776153Y-107103764D01*
X198915373Y-107010740D01*
X199070066Y-106946664D01*
X199234281Y-106914000D01*
X199401719Y-106914000D01*
X199565934Y-106946664D01*
X199565934Y-106946664D01*
G37*
G36*
X215103054Y-105153506D02*
X215103056Y-105153507D01*
X215103057Y-105153507D01*
X215209777Y-105197712D01*
X215391964Y-105273176D01*
X215651975Y-105446910D01*
X215873090Y-105668025D01*
X216046824Y-105928036D01*
X216046824Y-105928037D01*
X216165196Y-106213811D01*
X216166494Y-106216946D01*
X216227500Y-106523643D01*
X216227500Y-106836357D01*
X216174310Y-107103762D01*
X216166493Y-107143057D01*
X216133730Y-107222153D01*
X216046824Y-107431964D01*
X215873090Y-107691975D01*
X215651975Y-107913090D01*
X215391964Y-108086824D01*
X215211508Y-108161571D01*
X215103057Y-108206493D01*
X215103056Y-108206493D01*
X215103054Y-108206494D01*
X214796357Y-108267500D01*
X214483643Y-108267500D01*
X214176946Y-108206494D01*
X214176944Y-108206493D01*
X214176943Y-108206493D01*
X214068492Y-108161571D01*
X213888036Y-108086824D01*
X213628025Y-107913090D01*
X213406910Y-107691975D01*
X213233176Y-107431964D01*
X213146270Y-107222153D01*
X213113507Y-107143057D01*
X213105691Y-107103762D01*
X213052500Y-106836357D01*
X213052500Y-106523643D01*
X213113506Y-106216946D01*
X213114805Y-106213811D01*
X213233176Y-105928037D01*
X213233176Y-105928036D01*
X213406910Y-105668025D01*
X213628025Y-105446910D01*
X213888036Y-105273176D01*
X214070223Y-105197712D01*
X214176943Y-105153507D01*
X214176944Y-105153507D01*
X214176946Y-105153506D01*
X214483643Y-105092500D01*
X214796357Y-105092500D01*
X215103054Y-105153506D01*
X215103054Y-105153506D01*
G37*
G36*
X158071770Y-106215372D02*
X158187689Y-106238429D01*
X158369678Y-106313811D01*
X158533463Y-106423249D01*
X158672751Y-106562537D01*
X158782189Y-106726322D01*
X158857571Y-106908311D01*
X158896000Y-107101509D01*
X158896000Y-107298491D01*
X158857571Y-107491689D01*
X158782189Y-107673678D01*
X158672751Y-107837463D01*
X158533463Y-107976751D01*
X158369678Y-108086189D01*
X158187689Y-108161571D01*
X158071770Y-108184628D01*
X157994493Y-108200000D01*
X157797507Y-108200000D01*
X157720230Y-108184628D01*
X157604311Y-108161571D01*
X157422322Y-108086189D01*
X157258537Y-107976751D01*
X157119249Y-107837463D01*
X157009811Y-107673678D01*
X156934429Y-107491689D01*
X156896000Y-107298491D01*
X156896000Y-107101509D01*
X156934429Y-106908311D01*
X157009811Y-106726322D01*
X157119249Y-106562537D01*
X157258537Y-106423249D01*
X157422322Y-106313811D01*
X157604311Y-106238429D01*
X157720230Y-106215372D01*
X157797507Y-106200000D01*
X157994493Y-106200000D01*
X158071770Y-106215372D01*
X158071770Y-106215372D01*
G37*
G36*
X151571770Y-106215372D02*
X151687689Y-106238429D01*
X151869678Y-106313811D01*
X152033463Y-106423249D01*
X152172751Y-106562537D01*
X152282189Y-106726322D01*
X152357571Y-106908311D01*
X152396000Y-107101509D01*
X152396000Y-107298491D01*
X152357571Y-107491689D01*
X152282189Y-107673678D01*
X152172751Y-107837463D01*
X152033463Y-107976751D01*
X151869678Y-108086189D01*
X151687689Y-108161571D01*
X151571770Y-108184628D01*
X151494493Y-108200000D01*
X151297507Y-108200000D01*
X151220230Y-108184628D01*
X151104311Y-108161571D01*
X150922322Y-108086189D01*
X150758537Y-107976751D01*
X150619249Y-107837463D01*
X150509811Y-107673678D01*
X150434429Y-107491689D01*
X150396000Y-107298491D01*
X150396000Y-107101509D01*
X150434429Y-106908311D01*
X150509811Y-106726322D01*
X150619249Y-106562537D01*
X150758537Y-106423249D01*
X150922322Y-106313811D01*
X151104311Y-106238429D01*
X151220230Y-106215372D01*
X151297507Y-106200000D01*
X151494493Y-106200000D01*
X151571770Y-106215372D01*
X151571770Y-106215372D01*
G37*
G36*
X166921770Y-106115372D02*
X167037689Y-106138429D01*
X167219678Y-106213811D01*
X167383463Y-106323249D01*
X167522751Y-106462537D01*
X167632189Y-106626322D01*
X167707571Y-106808311D01*
X167727462Y-106908311D01*
X167746000Y-107001507D01*
X167746000Y-107198493D01*
X167741293Y-107222156D01*
X167707571Y-107391689D01*
X167632189Y-107573678D01*
X167522751Y-107737463D01*
X167383463Y-107876751D01*
X167219678Y-107986189D01*
X167037689Y-108061571D01*
X166921770Y-108084628D01*
X166844493Y-108100000D01*
X166647507Y-108100000D01*
X166570230Y-108084628D01*
X166454311Y-108061571D01*
X166272322Y-107986189D01*
X166108537Y-107876751D01*
X165969249Y-107737463D01*
X165859811Y-107573678D01*
X165784429Y-107391689D01*
X165750707Y-107222156D01*
X165746000Y-107198493D01*
X165746000Y-107001507D01*
X165764538Y-106908311D01*
X165784429Y-106808311D01*
X165859811Y-106626322D01*
X165969249Y-106462537D01*
X166108537Y-106323249D01*
X166272322Y-106213811D01*
X166454311Y-106138429D01*
X166570230Y-106115372D01*
X166647507Y-106100000D01*
X166844493Y-106100000D01*
X166921770Y-106115372D01*
X166921770Y-106115372D01*
G37*
G36*
X173421770Y-106115372D02*
X173537689Y-106138429D01*
X173719678Y-106213811D01*
X173883463Y-106323249D01*
X174022751Y-106462537D01*
X174132189Y-106626322D01*
X174207571Y-106808311D01*
X174227462Y-106908311D01*
X174246000Y-107001507D01*
X174246000Y-107198493D01*
X174241293Y-107222156D01*
X174207571Y-107391689D01*
X174132189Y-107573678D01*
X174022751Y-107737463D01*
X173883463Y-107876751D01*
X173719678Y-107986189D01*
X173537689Y-108061571D01*
X173421770Y-108084628D01*
X173344493Y-108100000D01*
X173147507Y-108100000D01*
X173070230Y-108084628D01*
X172954311Y-108061571D01*
X172772322Y-107986189D01*
X172608537Y-107876751D01*
X172469249Y-107737463D01*
X172359811Y-107573678D01*
X172284429Y-107391689D01*
X172250707Y-107222156D01*
X172246000Y-107198493D01*
X172246000Y-107001507D01*
X172264538Y-106908311D01*
X172284429Y-106808311D01*
X172359811Y-106626322D01*
X172469249Y-106462537D01*
X172608537Y-106323249D01*
X172772322Y-106213811D01*
X172954311Y-106138429D01*
X173070230Y-106115372D01*
X173147507Y-106100000D01*
X173344493Y-106100000D01*
X173421770Y-106115372D01*
X173421770Y-106115372D01*
G37*
G36*
X183055934Y-102374664D02*
X183210627Y-102438740D01*
X183349847Y-102531764D01*
X183468236Y-102650153D01*
X183561260Y-102789373D01*
X183625336Y-102944066D01*
X183658000Y-103108281D01*
X183658000Y-103275719D01*
X183625336Y-103439934D01*
X183561260Y-103594627D01*
X183468236Y-103733847D01*
X183349847Y-103852236D01*
X183210627Y-103945260D01*
X183055934Y-104009336D01*
X182891719Y-104042000D01*
X182724281Y-104042000D01*
X182560066Y-104009336D01*
X182405373Y-103945260D01*
X182266153Y-103852236D01*
X182147764Y-103733847D01*
X182054740Y-103594627D01*
X181990664Y-103439934D01*
X181958000Y-103275719D01*
X181958000Y-103108281D01*
X181990664Y-102944066D01*
X182054740Y-102789373D01*
X182147764Y-102650153D01*
X182266153Y-102531764D01*
X182405373Y-102438740D01*
X182560066Y-102374664D01*
X182724281Y-102342000D01*
X182891719Y-102342000D01*
X183055934Y-102374664D01*
X183055934Y-102374664D01*
G37*
G36*
X163430000Y-98350000D02*
X161430000Y-98350000D01*
X161430000Y-96650000D01*
X163430000Y-96650000D01*
X163430000Y-98350000D01*
X163430000Y-98350000D01*
G37*
G36*
X159430000Y-98350000D02*
X157430000Y-98350000D01*
X157430000Y-96650000D01*
X159430000Y-96650000D01*
X159430000Y-98350000D01*
X159430000Y-98350000D01*
G37*
G36*
X173662000Y-95762000D02*
X172138000Y-95762000D01*
X172138000Y-94238000D01*
X173662000Y-94238000D01*
X173662000Y-95762000D01*
X173662000Y-95762000D01*
G37*
G36*
X151035379Y-94250000D02*
X151122267Y-94267283D01*
X151260942Y-94324724D01*
X151385750Y-94408118D01*
X151491882Y-94514250D01*
X151575276Y-94639058D01*
X151632717Y-94777734D01*
X151662000Y-94924948D01*
X151662000Y-95075052D01*
X151632717Y-95222266D01*
X151575276Y-95360942D01*
X151491882Y-95485750D01*
X151385750Y-95591882D01*
X151385747Y-95591884D01*
X151260942Y-95675276D01*
X151122267Y-95732717D01*
X151073195Y-95742478D01*
X150975052Y-95762000D01*
X150824948Y-95762000D01*
X150726805Y-95742478D01*
X150677733Y-95732717D01*
X150539058Y-95675276D01*
X150414253Y-95591884D01*
X150414250Y-95591882D01*
X150308118Y-95485750D01*
X150224724Y-95360942D01*
X150167283Y-95222266D01*
X150138000Y-95075052D01*
X150138000Y-94924948D01*
X150167283Y-94777734D01*
X150224724Y-94639058D01*
X150308118Y-94514250D01*
X150414250Y-94408118D01*
X150539058Y-94324724D01*
X150677733Y-94267283D01*
X150764621Y-94250000D01*
X150824948Y-94238000D01*
X150975052Y-94238000D01*
X151035379Y-94250000D01*
X151035379Y-94250000D01*
G37*
G36*
X171055000Y-95750000D02*
X169805000Y-95750000D01*
X169805000Y-94250000D01*
X171055000Y-94250000D01*
X171055000Y-95750000D01*
X171055000Y-95750000D01*
G37*
G36*
X173073195Y-92257522D02*
X173122267Y-92267283D01*
X173260942Y-92324724D01*
X173385750Y-92408118D01*
X173491882Y-92514250D01*
X173491884Y-92514253D01*
X173575276Y-92639058D01*
X173632717Y-92777733D01*
X173662000Y-92924950D01*
X173662000Y-93075050D01*
X173632717Y-93222267D01*
X173575276Y-93360942D01*
X173491882Y-93485750D01*
X173385750Y-93591882D01*
X173385747Y-93591884D01*
X173260942Y-93675276D01*
X173122267Y-93732717D01*
X173073195Y-93742478D01*
X172975052Y-93762000D01*
X172824948Y-93762000D01*
X172726805Y-93742478D01*
X172677733Y-93732717D01*
X172539058Y-93675276D01*
X172414253Y-93591884D01*
X172414250Y-93591882D01*
X172308118Y-93485750D01*
X172224724Y-93360942D01*
X172167283Y-93222267D01*
X172138000Y-93075050D01*
X172138000Y-92924950D01*
X172167283Y-92777733D01*
X172224724Y-92639058D01*
X172308116Y-92514253D01*
X172308118Y-92514250D01*
X172414250Y-92408118D01*
X172539058Y-92324724D01*
X172677733Y-92267283D01*
X172726805Y-92257522D01*
X172824948Y-92238000D01*
X172975052Y-92238000D01*
X173073195Y-92257522D01*
X173073195Y-92257522D01*
G37*
G36*
X151073195Y-92257522D02*
X151122267Y-92267283D01*
X151260942Y-92324724D01*
X151385750Y-92408118D01*
X151491882Y-92514250D01*
X151491884Y-92514253D01*
X151575276Y-92639058D01*
X151632717Y-92777733D01*
X151662000Y-92924950D01*
X151662000Y-93075050D01*
X151632717Y-93222267D01*
X151575276Y-93360942D01*
X151491882Y-93485750D01*
X151385750Y-93591882D01*
X151385747Y-93591884D01*
X151260942Y-93675276D01*
X151122267Y-93732717D01*
X151073195Y-93742478D01*
X150975052Y-93762000D01*
X150824948Y-93762000D01*
X150726805Y-93742478D01*
X150677733Y-93732717D01*
X150539058Y-93675276D01*
X150414253Y-93591884D01*
X150414250Y-93591882D01*
X150308118Y-93485750D01*
X150224724Y-93360942D01*
X150167283Y-93222267D01*
X150138000Y-93075050D01*
X150138000Y-92924950D01*
X150167283Y-92777733D01*
X150224724Y-92639058D01*
X150308116Y-92514253D01*
X150308118Y-92514250D01*
X150414250Y-92408118D01*
X150539058Y-92324724D01*
X150677733Y-92267283D01*
X150726805Y-92257522D01*
X150824948Y-92238000D01*
X150975052Y-92238000D01*
X151073195Y-92257522D01*
X151073195Y-92257522D01*
G37*
G36*
X171055000Y-93250000D02*
X169805000Y-93250000D01*
X169805000Y-91750000D01*
X171055000Y-91750000D01*
X171055000Y-93250000D01*
X171055000Y-93250000D01*
G37*
G36*
X173073195Y-90257522D02*
X173122267Y-90267283D01*
X173260942Y-90324724D01*
X173385750Y-90408118D01*
X173491882Y-90514250D01*
X173491884Y-90514253D01*
X173575276Y-90639058D01*
X173632717Y-90777733D01*
X173662000Y-90924950D01*
X173662000Y-91075050D01*
X173632717Y-91222267D01*
X173575276Y-91360942D01*
X173491882Y-91485750D01*
X173385750Y-91591882D01*
X173385747Y-91591884D01*
X173260942Y-91675276D01*
X173122267Y-91732717D01*
X173073195Y-91742478D01*
X172975052Y-91762000D01*
X172824948Y-91762000D01*
X172726805Y-91742478D01*
X172677733Y-91732717D01*
X172539058Y-91675276D01*
X172414253Y-91591884D01*
X172414250Y-91591882D01*
X172308118Y-91485750D01*
X172224724Y-91360942D01*
X172167283Y-91222267D01*
X172138000Y-91075050D01*
X172138000Y-90924950D01*
X172167283Y-90777733D01*
X172224724Y-90639058D01*
X172308116Y-90514253D01*
X172308118Y-90514250D01*
X172414250Y-90408118D01*
X172539058Y-90324724D01*
X172677733Y-90267283D01*
X172726805Y-90257522D01*
X172824948Y-90238000D01*
X172975052Y-90238000D01*
X173073195Y-90257522D01*
X173073195Y-90257522D01*
G37*
G36*
X151073195Y-90257522D02*
X151122267Y-90267283D01*
X151260942Y-90324724D01*
X151385750Y-90408118D01*
X151491882Y-90514250D01*
X151491884Y-90514253D01*
X151575276Y-90639058D01*
X151632717Y-90777733D01*
X151662000Y-90924950D01*
X151662000Y-91075050D01*
X151632717Y-91222267D01*
X151575276Y-91360942D01*
X151491882Y-91485750D01*
X151385750Y-91591882D01*
X151385747Y-91591884D01*
X151260942Y-91675276D01*
X151122267Y-91732717D01*
X151073195Y-91742478D01*
X150975052Y-91762000D01*
X150824948Y-91762000D01*
X150726805Y-91742478D01*
X150677733Y-91732717D01*
X150539058Y-91675276D01*
X150414253Y-91591884D01*
X150414250Y-91591882D01*
X150308118Y-91485750D01*
X150224724Y-91360942D01*
X150167283Y-91222267D01*
X150138000Y-91075050D01*
X150138000Y-90924950D01*
X150167283Y-90777733D01*
X150224724Y-90639058D01*
X150308116Y-90514253D01*
X150308118Y-90514250D01*
X150414250Y-90408118D01*
X150539058Y-90324724D01*
X150677733Y-90267283D01*
X150726805Y-90257522D01*
X150824948Y-90238000D01*
X150975052Y-90238000D01*
X151073195Y-90257522D01*
X151073195Y-90257522D01*
G37*
G36*
X192682303Y-90399018D02*
X192682305Y-90399019D01*
X192682306Y-90399019D01*
X192796048Y-90446132D01*
X192796049Y-90446133D01*
X192898417Y-90514533D01*
X192985467Y-90601583D01*
X192985469Y-90601586D01*
X193053868Y-90703952D01*
X193100981Y-90817694D01*
X193125000Y-90938443D01*
X193125000Y-91061557D01*
X193100981Y-91182306D01*
X193053868Y-91296048D01*
X193053867Y-91296049D01*
X192985467Y-91398417D01*
X192898417Y-91485467D01*
X192898414Y-91485469D01*
X192796048Y-91553868D01*
X192682306Y-91600981D01*
X192682305Y-91600981D01*
X192682303Y-91600982D01*
X192561559Y-91625000D01*
X192438441Y-91625000D01*
X192317697Y-91600982D01*
X192317695Y-91600981D01*
X192317694Y-91600981D01*
X192203952Y-91553868D01*
X192101586Y-91485469D01*
X192101583Y-91485467D01*
X192014533Y-91398417D01*
X191946133Y-91296049D01*
X191946132Y-91296048D01*
X191899019Y-91182306D01*
X191875000Y-91061557D01*
X191875000Y-90938443D01*
X191899019Y-90817694D01*
X191946132Y-90703952D01*
X192014531Y-90601586D01*
X192014533Y-90601583D01*
X192101583Y-90514533D01*
X192203951Y-90446133D01*
X192203952Y-90446132D01*
X192317694Y-90399019D01*
X192317695Y-90399019D01*
X192317697Y-90399018D01*
X192438441Y-90375000D01*
X192561559Y-90375000D01*
X192682303Y-90399018D01*
X192682303Y-90399018D01*
G37*
G36*
X197682303Y-90399018D02*
X197682305Y-90399019D01*
X197682306Y-90399019D01*
X197796048Y-90446132D01*
X197796049Y-90446133D01*
X197898417Y-90514533D01*
X197985467Y-90601583D01*
X197985469Y-90601586D01*
X198053868Y-90703952D01*
X198100981Y-90817694D01*
X198125000Y-90938443D01*
X198125000Y-91061557D01*
X198100981Y-91182306D01*
X198053868Y-91296048D01*
X198053867Y-91296049D01*
X197985467Y-91398417D01*
X197898417Y-91485467D01*
X197898414Y-91485469D01*
X197796048Y-91553868D01*
X197682306Y-91600981D01*
X197682305Y-91600981D01*
X197682303Y-91600982D01*
X197561559Y-91625000D01*
X197438441Y-91625000D01*
X197317697Y-91600982D01*
X197317695Y-91600981D01*
X197317694Y-91600981D01*
X197203952Y-91553868D01*
X197101586Y-91485469D01*
X197101583Y-91485467D01*
X197014533Y-91398417D01*
X196946133Y-91296049D01*
X196946132Y-91296048D01*
X196899019Y-91182306D01*
X196875000Y-91061557D01*
X196875000Y-90938443D01*
X196899019Y-90817694D01*
X196946132Y-90703952D01*
X197014531Y-90601586D01*
X197014533Y-90601583D01*
X197101583Y-90514533D01*
X197203951Y-90446133D01*
X197203952Y-90446132D01*
X197317694Y-90399019D01*
X197317695Y-90399019D01*
X197317697Y-90399018D01*
X197438441Y-90375000D01*
X197561559Y-90375000D01*
X197682303Y-90399018D01*
X197682303Y-90399018D01*
G37*
G36*
X173073195Y-88257522D02*
X173122267Y-88267283D01*
X173260942Y-88324724D01*
X173385750Y-88408118D01*
X173491882Y-88514250D01*
X173575276Y-88639058D01*
X173632717Y-88777734D01*
X173662000Y-88924948D01*
X173662000Y-89075052D01*
X173632717Y-89222266D01*
X173575276Y-89360942D01*
X173491882Y-89485750D01*
X173385750Y-89591882D01*
X173385747Y-89591884D01*
X173260942Y-89675276D01*
X173122267Y-89732717D01*
X173073195Y-89742478D01*
X172975052Y-89762000D01*
X172824948Y-89762000D01*
X172726805Y-89742478D01*
X172677733Y-89732717D01*
X172539058Y-89675276D01*
X172414253Y-89591884D01*
X172414250Y-89591882D01*
X172308118Y-89485750D01*
X172224724Y-89360942D01*
X172167283Y-89222266D01*
X172138000Y-89075052D01*
X172138000Y-88924948D01*
X172167283Y-88777734D01*
X172224724Y-88639058D01*
X172308118Y-88514250D01*
X172414250Y-88408118D01*
X172539058Y-88324724D01*
X172677733Y-88267283D01*
X172726805Y-88257522D01*
X172824948Y-88238000D01*
X172975052Y-88238000D01*
X173073195Y-88257522D01*
X173073195Y-88257522D01*
G37*
G36*
X151073195Y-88257522D02*
X151122267Y-88267283D01*
X151260942Y-88324724D01*
X151385750Y-88408118D01*
X151491882Y-88514250D01*
X151575276Y-88639058D01*
X151632717Y-88777734D01*
X151662000Y-88924948D01*
X151662000Y-89075052D01*
X151632717Y-89222266D01*
X151575276Y-89360942D01*
X151491882Y-89485750D01*
X151385750Y-89591882D01*
X151385747Y-89591884D01*
X151260942Y-89675276D01*
X151122267Y-89732717D01*
X151073195Y-89742478D01*
X150975052Y-89762000D01*
X150824948Y-89762000D01*
X150726805Y-89742478D01*
X150677733Y-89732717D01*
X150539058Y-89675276D01*
X150414253Y-89591884D01*
X150414250Y-89591882D01*
X150308118Y-89485750D01*
X150224724Y-89360942D01*
X150167283Y-89222266D01*
X150138000Y-89075052D01*
X150138000Y-88924948D01*
X150167283Y-88777734D01*
X150224724Y-88639058D01*
X150308118Y-88514250D01*
X150414250Y-88408118D01*
X150539058Y-88324724D01*
X150677733Y-88267283D01*
X150726805Y-88257522D01*
X150824948Y-88238000D01*
X150975052Y-88238000D01*
X151073195Y-88257522D01*
X151073195Y-88257522D01*
G37*
G36*
X214813195Y-88157522D02*
X214862267Y-88167283D01*
X215000942Y-88224724D01*
X215125750Y-88308118D01*
X215231882Y-88414250D01*
X215315276Y-88539058D01*
X215372717Y-88677734D01*
X215402000Y-88824948D01*
X215402000Y-88975052D01*
X215372717Y-89122266D01*
X215315276Y-89260942D01*
X215231882Y-89385750D01*
X215125750Y-89491882D01*
X215125747Y-89491884D01*
X215000942Y-89575276D01*
X214862267Y-89632717D01*
X214813195Y-89642478D01*
X214715052Y-89662000D01*
X214564948Y-89662000D01*
X214466805Y-89642478D01*
X214417733Y-89632717D01*
X214279058Y-89575276D01*
X214154253Y-89491884D01*
X214154250Y-89491882D01*
X214048118Y-89385750D01*
X213964724Y-89260942D01*
X213907283Y-89122266D01*
X213878000Y-88975052D01*
X213878000Y-88824948D01*
X213907283Y-88677734D01*
X213964724Y-88539058D01*
X214048118Y-88414250D01*
X214154250Y-88308118D01*
X214279058Y-88224724D01*
X214417733Y-88167283D01*
X214466805Y-88157522D01*
X214564948Y-88138000D01*
X214715052Y-88138000D01*
X214813195Y-88157522D01*
X214813195Y-88157522D01*
G37*
G36*
X212273195Y-88157522D02*
X212322267Y-88167283D01*
X212460942Y-88224724D01*
X212585750Y-88308118D01*
X212691882Y-88414250D01*
X212775276Y-88539058D01*
X212832717Y-88677734D01*
X212862000Y-88824948D01*
X212862000Y-88975052D01*
X212832717Y-89122266D01*
X212775276Y-89260942D01*
X212691882Y-89385750D01*
X212585750Y-89491882D01*
X212585747Y-89491884D01*
X212460942Y-89575276D01*
X212322267Y-89632717D01*
X212273195Y-89642478D01*
X212175052Y-89662000D01*
X212024948Y-89662000D01*
X211926805Y-89642478D01*
X211877733Y-89632717D01*
X211739058Y-89575276D01*
X211614253Y-89491884D01*
X211614250Y-89491882D01*
X211508118Y-89385750D01*
X211424724Y-89260942D01*
X211367283Y-89122266D01*
X211338000Y-88975052D01*
X211338000Y-88824948D01*
X211367283Y-88677734D01*
X211424724Y-88539058D01*
X211508118Y-88414250D01*
X211614250Y-88308118D01*
X211739058Y-88224724D01*
X211877733Y-88167283D01*
X211926805Y-88157522D01*
X212024948Y-88138000D01*
X212175052Y-88138000D01*
X212273195Y-88157522D01*
X212273195Y-88157522D01*
G37*
G36*
X173073195Y-86257522D02*
X173122267Y-86267283D01*
X173260942Y-86324724D01*
X173385750Y-86408118D01*
X173491882Y-86514250D01*
X173575276Y-86639058D01*
X173632717Y-86777734D01*
X173662000Y-86924948D01*
X173662000Y-87075052D01*
X173632717Y-87222266D01*
X173575276Y-87360942D01*
X173491882Y-87485750D01*
X173385750Y-87591882D01*
X173385747Y-87591884D01*
X173260942Y-87675276D01*
X173122267Y-87732717D01*
X173073195Y-87742478D01*
X172975052Y-87762000D01*
X172824948Y-87762000D01*
X172726805Y-87742478D01*
X172677733Y-87732717D01*
X172539058Y-87675276D01*
X172414253Y-87591884D01*
X172414250Y-87591882D01*
X172308118Y-87485750D01*
X172224724Y-87360942D01*
X172167283Y-87222266D01*
X172138000Y-87075052D01*
X172138000Y-86924948D01*
X172167283Y-86777734D01*
X172224724Y-86639058D01*
X172308118Y-86514250D01*
X172414250Y-86408118D01*
X172539058Y-86324724D01*
X172677733Y-86267283D01*
X172726805Y-86257522D01*
X172824948Y-86238000D01*
X172975052Y-86238000D01*
X173073195Y-86257522D01*
X173073195Y-86257522D01*
G37*
G36*
X151073195Y-86257522D02*
X151122267Y-86267283D01*
X151260942Y-86324724D01*
X151385750Y-86408118D01*
X151491882Y-86514250D01*
X151575276Y-86639058D01*
X151632717Y-86777734D01*
X151662000Y-86924948D01*
X151662000Y-87075052D01*
X151632717Y-87222266D01*
X151575276Y-87360942D01*
X151491882Y-87485750D01*
X151385750Y-87591882D01*
X151385747Y-87591884D01*
X151260942Y-87675276D01*
X151122267Y-87732717D01*
X151073195Y-87742478D01*
X150975052Y-87762000D01*
X150824948Y-87762000D01*
X150726805Y-87742478D01*
X150677733Y-87732717D01*
X150539058Y-87675276D01*
X150414253Y-87591884D01*
X150414250Y-87591882D01*
X150308118Y-87485750D01*
X150224724Y-87360942D01*
X150167283Y-87222266D01*
X150138000Y-87075052D01*
X150138000Y-86924948D01*
X150167283Y-86777734D01*
X150224724Y-86639058D01*
X150308118Y-86514250D01*
X150414250Y-86408118D01*
X150539058Y-86324724D01*
X150677733Y-86267283D01*
X150726805Y-86257522D01*
X150824948Y-86238000D01*
X150975052Y-86238000D01*
X151073195Y-86257522D01*
X151073195Y-86257522D01*
G37*
G36*
X212273195Y-85617522D02*
X212322267Y-85627283D01*
X212438132Y-85675276D01*
X212460942Y-85684724D01*
X212585750Y-85768118D01*
X212691882Y-85874250D01*
X212775276Y-85999058D01*
X212832717Y-86137734D01*
X212862000Y-86284948D01*
X212862000Y-86435052D01*
X212832717Y-86582266D01*
X212775276Y-86720942D01*
X212691882Y-86845750D01*
X212585750Y-86951882D01*
X212585747Y-86951884D01*
X212460942Y-87035276D01*
X212322267Y-87092717D01*
X212273195Y-87102478D01*
X212175052Y-87122000D01*
X212024948Y-87122000D01*
X211926805Y-87102478D01*
X211877733Y-87092717D01*
X211739058Y-87035276D01*
X211614253Y-86951884D01*
X211614250Y-86951882D01*
X211508118Y-86845750D01*
X211424724Y-86720942D01*
X211367283Y-86582266D01*
X211338000Y-86435052D01*
X211338000Y-86284948D01*
X211367283Y-86137734D01*
X211424724Y-85999058D01*
X211508118Y-85874250D01*
X211614250Y-85768118D01*
X211739058Y-85684724D01*
X211761868Y-85675276D01*
X211877733Y-85627283D01*
X211926805Y-85617522D01*
X212024948Y-85598000D01*
X212175052Y-85598000D01*
X212273195Y-85617522D01*
X212273195Y-85617522D01*
G37*
G36*
X214813195Y-85617522D02*
X214862267Y-85627283D01*
X214978132Y-85675276D01*
X215000942Y-85684724D01*
X215125750Y-85768118D01*
X215231882Y-85874250D01*
X215315276Y-85999058D01*
X215372717Y-86137734D01*
X215402000Y-86284948D01*
X215402000Y-86435052D01*
X215372717Y-86582266D01*
X215315276Y-86720942D01*
X215231882Y-86845750D01*
X215125750Y-86951882D01*
X215125747Y-86951884D01*
X215000942Y-87035276D01*
X214862267Y-87092717D01*
X214813195Y-87102478D01*
X214715052Y-87122000D01*
X214564948Y-87122000D01*
X214466805Y-87102478D01*
X214417733Y-87092717D01*
X214279058Y-87035276D01*
X214154253Y-86951884D01*
X214154250Y-86951882D01*
X214048118Y-86845750D01*
X213964724Y-86720942D01*
X213907283Y-86582266D01*
X213878000Y-86435052D01*
X213878000Y-86284948D01*
X213907283Y-86137734D01*
X213964724Y-85999058D01*
X214048118Y-85874250D01*
X214154250Y-85768118D01*
X214279058Y-85684724D01*
X214301868Y-85675276D01*
X214417733Y-85627283D01*
X214466805Y-85617522D01*
X214564948Y-85598000D01*
X214715052Y-85598000D01*
X214813195Y-85617522D01*
X214813195Y-85617522D01*
G37*
G36*
X151073195Y-84257522D02*
X151122267Y-84267283D01*
X151260942Y-84324724D01*
X151385750Y-84408118D01*
X151491882Y-84514250D01*
X151575276Y-84639058D01*
X151632717Y-84777734D01*
X151662000Y-84924948D01*
X151662000Y-85075052D01*
X151632717Y-85222266D01*
X151575276Y-85360942D01*
X151491882Y-85485750D01*
X151385750Y-85591882D01*
X151385747Y-85591884D01*
X151260942Y-85675276D01*
X151122267Y-85732717D01*
X151073195Y-85742478D01*
X150975052Y-85762000D01*
X150824948Y-85762000D01*
X150726805Y-85742478D01*
X150677733Y-85732717D01*
X150539058Y-85675276D01*
X150414253Y-85591884D01*
X150414250Y-85591882D01*
X150308118Y-85485750D01*
X150224724Y-85360942D01*
X150167283Y-85222266D01*
X150138000Y-85075052D01*
X150138000Y-84924948D01*
X150167283Y-84777734D01*
X150224724Y-84639058D01*
X150308118Y-84514250D01*
X150414250Y-84408118D01*
X150539058Y-84324724D01*
X150677733Y-84267283D01*
X150726805Y-84257522D01*
X150824948Y-84238000D01*
X150975052Y-84238000D01*
X151073195Y-84257522D01*
X151073195Y-84257522D01*
G37*
G36*
X173073195Y-84257522D02*
X173122267Y-84267283D01*
X173260942Y-84324724D01*
X173385750Y-84408118D01*
X173491882Y-84514250D01*
X173575276Y-84639058D01*
X173632717Y-84777734D01*
X173662000Y-84924948D01*
X173662000Y-85075052D01*
X173632717Y-85222266D01*
X173575276Y-85360942D01*
X173491882Y-85485750D01*
X173385750Y-85591882D01*
X173385747Y-85591884D01*
X173260942Y-85675276D01*
X173122267Y-85732717D01*
X173073195Y-85742478D01*
X172975052Y-85762000D01*
X172824948Y-85762000D01*
X172726805Y-85742478D01*
X172677733Y-85732717D01*
X172539058Y-85675276D01*
X172414253Y-85591884D01*
X172414250Y-85591882D01*
X172308118Y-85485750D01*
X172224724Y-85360942D01*
X172167283Y-85222266D01*
X172138000Y-85075052D01*
X172138000Y-84924948D01*
X172167283Y-84777734D01*
X172224724Y-84639058D01*
X172308118Y-84514250D01*
X172414250Y-84408118D01*
X172539058Y-84324724D01*
X172677733Y-84267283D01*
X172726805Y-84257522D01*
X172824948Y-84238000D01*
X172975052Y-84238000D01*
X173073195Y-84257522D01*
X173073195Y-84257522D01*
G37*
G36*
X212260767Y-83075050D02*
X212322267Y-83087283D01*
X212460942Y-83144724D01*
X212585750Y-83228118D01*
X212691882Y-83334250D01*
X212775276Y-83459058D01*
X212832717Y-83597734D01*
X212862000Y-83744948D01*
X212862000Y-83895052D01*
X212832717Y-84042266D01*
X212775276Y-84180942D01*
X212691882Y-84305750D01*
X212585750Y-84411882D01*
X212585747Y-84411884D01*
X212460942Y-84495276D01*
X212322267Y-84552717D01*
X212273195Y-84562478D01*
X212175052Y-84582000D01*
X212024948Y-84582000D01*
X211926805Y-84562478D01*
X211877733Y-84552717D01*
X211739058Y-84495276D01*
X211614253Y-84411884D01*
X211614250Y-84411882D01*
X211508118Y-84305750D01*
X211424724Y-84180942D01*
X211367283Y-84042266D01*
X211338000Y-83895052D01*
X211338000Y-83744948D01*
X211367283Y-83597734D01*
X211424724Y-83459058D01*
X211508118Y-83334250D01*
X211614250Y-83228118D01*
X211739058Y-83144724D01*
X211877733Y-83087283D01*
X211939233Y-83075050D01*
X212024948Y-83058000D01*
X212175052Y-83058000D01*
X212260767Y-83075050D01*
X212260767Y-83075050D01*
G37*
G36*
X214800767Y-83075050D02*
X214862267Y-83087283D01*
X215000942Y-83144724D01*
X215125750Y-83228118D01*
X215231882Y-83334250D01*
X215315276Y-83459058D01*
X215372717Y-83597734D01*
X215402000Y-83744948D01*
X215402000Y-83895052D01*
X215372717Y-84042266D01*
X215315276Y-84180942D01*
X215231882Y-84305750D01*
X215125750Y-84411882D01*
X215125747Y-84411884D01*
X215000942Y-84495276D01*
X214862267Y-84552717D01*
X214813195Y-84562478D01*
X214715052Y-84582000D01*
X214564948Y-84582000D01*
X214466805Y-84562478D01*
X214417733Y-84552717D01*
X214279058Y-84495276D01*
X214154253Y-84411884D01*
X214154250Y-84411882D01*
X214048118Y-84305750D01*
X213964724Y-84180942D01*
X213907283Y-84042266D01*
X213878000Y-83895052D01*
X213878000Y-83744948D01*
X213907283Y-83597734D01*
X213964724Y-83459058D01*
X214048118Y-83334250D01*
X214154250Y-83228118D01*
X214279058Y-83144724D01*
X214417733Y-83087283D01*
X214479233Y-83075050D01*
X214564948Y-83058000D01*
X214715052Y-83058000D01*
X214800767Y-83075050D01*
X214800767Y-83075050D01*
G37*
G36*
X173073195Y-82257522D02*
X173122267Y-82267283D01*
X173260942Y-82324724D01*
X173385750Y-82408118D01*
X173491882Y-82514250D01*
X173575276Y-82639058D01*
X173632717Y-82777734D01*
X173662000Y-82924948D01*
X173662000Y-83075052D01*
X173632717Y-83222266D01*
X173575276Y-83360942D01*
X173491882Y-83485750D01*
X173385750Y-83591882D01*
X173385747Y-83591884D01*
X173260942Y-83675276D01*
X173122267Y-83732717D01*
X173073195Y-83742478D01*
X172975052Y-83762000D01*
X172824948Y-83762000D01*
X172726805Y-83742478D01*
X172677733Y-83732717D01*
X172539058Y-83675276D01*
X172414253Y-83591884D01*
X172414250Y-83591882D01*
X172308118Y-83485750D01*
X172224724Y-83360942D01*
X172167283Y-83222266D01*
X172138000Y-83075052D01*
X172138000Y-82924948D01*
X172167283Y-82777734D01*
X172224724Y-82639058D01*
X172308118Y-82514250D01*
X172414250Y-82408118D01*
X172539058Y-82324724D01*
X172677733Y-82267283D01*
X172726805Y-82257522D01*
X172824948Y-82238000D01*
X172975052Y-82238000D01*
X173073195Y-82257522D01*
X173073195Y-82257522D01*
G37*
G36*
X151073195Y-82257522D02*
X151122267Y-82267283D01*
X151260942Y-82324724D01*
X151385750Y-82408118D01*
X151491882Y-82514250D01*
X151575276Y-82639058D01*
X151632717Y-82777734D01*
X151662000Y-82924948D01*
X151662000Y-83075052D01*
X151632717Y-83222266D01*
X151575276Y-83360942D01*
X151491882Y-83485750D01*
X151385750Y-83591882D01*
X151385747Y-83591884D01*
X151260942Y-83675276D01*
X151122267Y-83732717D01*
X151073195Y-83742478D01*
X150975052Y-83762000D01*
X150824948Y-83762000D01*
X150726805Y-83742478D01*
X150677733Y-83732717D01*
X150539058Y-83675276D01*
X150414253Y-83591884D01*
X150414250Y-83591882D01*
X150308118Y-83485750D01*
X150224724Y-83360942D01*
X150167283Y-83222266D01*
X150138000Y-83075052D01*
X150138000Y-82924948D01*
X150167283Y-82777734D01*
X150224724Y-82639058D01*
X150308118Y-82514250D01*
X150414250Y-82408118D01*
X150539058Y-82324724D01*
X150677733Y-82267283D01*
X150726805Y-82257522D01*
X150824948Y-82238000D01*
X150975052Y-82238000D01*
X151073195Y-82257522D01*
X151073195Y-82257522D01*
G37*
G36*
X151073195Y-80257522D02*
X151122267Y-80267283D01*
X151260942Y-80324724D01*
X151385750Y-80408118D01*
X151491882Y-80514250D01*
X151575276Y-80639058D01*
X151632717Y-80777734D01*
X151662000Y-80924948D01*
X151662000Y-81075052D01*
X151632717Y-81222266D01*
X151575276Y-81360942D01*
X151491882Y-81485750D01*
X151385750Y-81591882D01*
X151385747Y-81591884D01*
X151260942Y-81675276D01*
X151122267Y-81732717D01*
X151073195Y-81742478D01*
X150975052Y-81762000D01*
X150824948Y-81762000D01*
X150726805Y-81742478D01*
X150677733Y-81732717D01*
X150539058Y-81675276D01*
X150414253Y-81591884D01*
X150414250Y-81591882D01*
X150308118Y-81485750D01*
X150224724Y-81360942D01*
X150167283Y-81222266D01*
X150138000Y-81075052D01*
X150138000Y-80924948D01*
X150167283Y-80777734D01*
X150224724Y-80639058D01*
X150308118Y-80514250D01*
X150414250Y-80408118D01*
X150539058Y-80324724D01*
X150677733Y-80267283D01*
X150726805Y-80257522D01*
X150824948Y-80238000D01*
X150975052Y-80238000D01*
X151073195Y-80257522D01*
X151073195Y-80257522D01*
G37*
G36*
X173073195Y-80257522D02*
X173122267Y-80267283D01*
X173260942Y-80324724D01*
X173385750Y-80408118D01*
X173491882Y-80514250D01*
X173575276Y-80639058D01*
X173632717Y-80777734D01*
X173662000Y-80924948D01*
X173662000Y-81075052D01*
X173632717Y-81222266D01*
X173575276Y-81360942D01*
X173491882Y-81485750D01*
X173385750Y-81591882D01*
X173385747Y-81591884D01*
X173260942Y-81675276D01*
X173122267Y-81732717D01*
X173073195Y-81742478D01*
X172975052Y-81762000D01*
X172824948Y-81762000D01*
X172726805Y-81742478D01*
X172677733Y-81732717D01*
X172539058Y-81675276D01*
X172414253Y-81591884D01*
X172414250Y-81591882D01*
X172308118Y-81485750D01*
X172224724Y-81360942D01*
X172167283Y-81222266D01*
X172138000Y-81075052D01*
X172138000Y-80924948D01*
X172167283Y-80777734D01*
X172224724Y-80639058D01*
X172308118Y-80514250D01*
X172414250Y-80408118D01*
X172539058Y-80324724D01*
X172677733Y-80267283D01*
X172726805Y-80257522D01*
X172824948Y-80238000D01*
X172975052Y-80238000D01*
X173073195Y-80257522D01*
X173073195Y-80257522D01*
G37*
G36*
X215103054Y-77213506D02*
X215103056Y-77213507D01*
X215103057Y-77213507D01*
X215124203Y-77222266D01*
X215391964Y-77333176D01*
X215651975Y-77506910D01*
X215873090Y-77728025D01*
X216046824Y-77988036D01*
X216112984Y-78147762D01*
X216162492Y-78267283D01*
X216166494Y-78276946D01*
X216227500Y-78583643D01*
X216227500Y-78896357D01*
X216166494Y-79203054D01*
X216046824Y-79491964D01*
X215873090Y-79751975D01*
X215651975Y-79973090D01*
X215391964Y-80146824D01*
X215209777Y-80222288D01*
X215103057Y-80266493D01*
X215103056Y-80266493D01*
X215103054Y-80266494D01*
X214796357Y-80327500D01*
X214483643Y-80327500D01*
X214176946Y-80266494D01*
X214176944Y-80266493D01*
X214176943Y-80266493D01*
X214070223Y-80222288D01*
X213888036Y-80146824D01*
X213628025Y-79973090D01*
X213406910Y-79751975D01*
X213233176Y-79491964D01*
X213113506Y-79203054D01*
X213052500Y-78896357D01*
X213052500Y-78583643D01*
X213113506Y-78276946D01*
X213117509Y-78267283D01*
X213167016Y-78147762D01*
X213233176Y-77988036D01*
X213406910Y-77728025D01*
X213628025Y-77506910D01*
X213888036Y-77333176D01*
X214155797Y-77222266D01*
X214176943Y-77213507D01*
X214176944Y-77213507D01*
X214176946Y-77213506D01*
X214483643Y-77152500D01*
X214796357Y-77152500D01*
X215103054Y-77213506D01*
X215103054Y-77213506D01*
G37*
G36*
X151073195Y-78257522D02*
X151122267Y-78267283D01*
X151260942Y-78324724D01*
X151385750Y-78408118D01*
X151491882Y-78514250D01*
X151491884Y-78514253D01*
X151575276Y-78639058D01*
X151632717Y-78777733D01*
X151662000Y-78924950D01*
X151662000Y-79075050D01*
X151635033Y-79210626D01*
X151632717Y-79222266D01*
X151575276Y-79360942D01*
X151491882Y-79485750D01*
X151385750Y-79591882D01*
X151385747Y-79591884D01*
X151260942Y-79675276D01*
X151122267Y-79732717D01*
X151073195Y-79742478D01*
X150975052Y-79762000D01*
X150824948Y-79762000D01*
X150726805Y-79742478D01*
X150677733Y-79732717D01*
X150539058Y-79675276D01*
X150414253Y-79591884D01*
X150414250Y-79591882D01*
X150308118Y-79485750D01*
X150224724Y-79360942D01*
X150167283Y-79222266D01*
X150164968Y-79210626D01*
X150138000Y-79075050D01*
X150138000Y-78924950D01*
X150167283Y-78777733D01*
X150224724Y-78639058D01*
X150308116Y-78514253D01*
X150308118Y-78514250D01*
X150414250Y-78408118D01*
X150539058Y-78324724D01*
X150677733Y-78267283D01*
X150726805Y-78257522D01*
X150824948Y-78238000D01*
X150975052Y-78238000D01*
X151073195Y-78257522D01*
X151073195Y-78257522D01*
G37*
G36*
X173073195Y-78257522D02*
X173122267Y-78267283D01*
X173260942Y-78324724D01*
X173385750Y-78408118D01*
X173491882Y-78514250D01*
X173491884Y-78514253D01*
X173575276Y-78639058D01*
X173632717Y-78777733D01*
X173662000Y-78924950D01*
X173662000Y-79075050D01*
X173635033Y-79210626D01*
X173632717Y-79222266D01*
X173575276Y-79360942D01*
X173491882Y-79485750D01*
X173385750Y-79591882D01*
X173385747Y-79591884D01*
X173260942Y-79675276D01*
X173122267Y-79732717D01*
X173073195Y-79742478D01*
X172975052Y-79762000D01*
X172824948Y-79762000D01*
X172726805Y-79742478D01*
X172677733Y-79732717D01*
X172539058Y-79675276D01*
X172414253Y-79591884D01*
X172414250Y-79591882D01*
X172308118Y-79485750D01*
X172224724Y-79360942D01*
X172167283Y-79222266D01*
X172164968Y-79210626D01*
X172138000Y-79075050D01*
X172138000Y-78924950D01*
X172167283Y-78777733D01*
X172224724Y-78639058D01*
X172308116Y-78514253D01*
X172308118Y-78514250D01*
X172414250Y-78408118D01*
X172539058Y-78324724D01*
X172677733Y-78267283D01*
X172726805Y-78257522D01*
X172824948Y-78238000D01*
X172975052Y-78238000D01*
X173073195Y-78257522D01*
X173073195Y-78257522D01*
G37*
G36*
X207439934Y-77990664D02*
X207594627Y-78054740D01*
X207733847Y-78147764D01*
X207852236Y-78266153D01*
X207945260Y-78405373D01*
X208009336Y-78560066D01*
X208042000Y-78724281D01*
X208042000Y-78891719D01*
X208009336Y-79055934D01*
X207945260Y-79210627D01*
X207852236Y-79349847D01*
X207733847Y-79468236D01*
X207594627Y-79561260D01*
X207439934Y-79625336D01*
X207275719Y-79658000D01*
X207108281Y-79658000D01*
X206944066Y-79625336D01*
X206789373Y-79561260D01*
X206650153Y-79468236D01*
X206531764Y-79349847D01*
X206438740Y-79210627D01*
X206374664Y-79055934D01*
X206342000Y-78891719D01*
X206342000Y-78724281D01*
X206374664Y-78560066D01*
X206438740Y-78405373D01*
X206531764Y-78266153D01*
X206650153Y-78147764D01*
X206789373Y-78054740D01*
X206944066Y-77990664D01*
X207108281Y-77958000D01*
X207275719Y-77958000D01*
X207439934Y-77990664D01*
X207439934Y-77990664D01*
G37*
G36*
X173073195Y-76257522D02*
X173122267Y-76267283D01*
X173260942Y-76324724D01*
X173385750Y-76408118D01*
X173491882Y-76514250D01*
X173491884Y-76514253D01*
X173575276Y-76639058D01*
X173632717Y-76777733D01*
X173662000Y-76924950D01*
X173662000Y-77075050D01*
X173634460Y-77213506D01*
X173632717Y-77222266D01*
X173575276Y-77360942D01*
X173491882Y-77485750D01*
X173385750Y-77591882D01*
X173385747Y-77591884D01*
X173260942Y-77675276D01*
X173122267Y-77732717D01*
X173073195Y-77742478D01*
X172975052Y-77762000D01*
X172824948Y-77762000D01*
X172726805Y-77742478D01*
X172677733Y-77732717D01*
X172539058Y-77675276D01*
X172414253Y-77591884D01*
X172414250Y-77591882D01*
X172308118Y-77485750D01*
X172224724Y-77360942D01*
X172167283Y-77222266D01*
X172165541Y-77213506D01*
X172138000Y-77075050D01*
X172138000Y-76924950D01*
X172167283Y-76777733D01*
X172224724Y-76639058D01*
X172308116Y-76514253D01*
X172308118Y-76514250D01*
X172414250Y-76408118D01*
X172539058Y-76324724D01*
X172677733Y-76267283D01*
X172726805Y-76257522D01*
X172824948Y-76238000D01*
X172975052Y-76238000D01*
X173073195Y-76257522D01*
X173073195Y-76257522D01*
G37*
G36*
X151073195Y-76257522D02*
X151122267Y-76267283D01*
X151260942Y-76324724D01*
X151385750Y-76408118D01*
X151491882Y-76514250D01*
X151491884Y-76514253D01*
X151575276Y-76639058D01*
X151632717Y-76777733D01*
X151662000Y-76924950D01*
X151662000Y-77075050D01*
X151634460Y-77213506D01*
X151632717Y-77222266D01*
X151575276Y-77360942D01*
X151491882Y-77485750D01*
X151385750Y-77591882D01*
X151385747Y-77591884D01*
X151260942Y-77675276D01*
X151122267Y-77732717D01*
X151073195Y-77742478D01*
X150975052Y-77762000D01*
X150824948Y-77762000D01*
X150726805Y-77742478D01*
X150677733Y-77732717D01*
X150539058Y-77675276D01*
X150414253Y-77591884D01*
X150414250Y-77591882D01*
X150308118Y-77485750D01*
X150224724Y-77360942D01*
X150167283Y-77222266D01*
X150165541Y-77213506D01*
X150138000Y-77075050D01*
X150138000Y-76924950D01*
X150167283Y-76777733D01*
X150224724Y-76639058D01*
X150308116Y-76514253D01*
X150308118Y-76514250D01*
X150414250Y-76408118D01*
X150539058Y-76324724D01*
X150677733Y-76267283D01*
X150726805Y-76257522D01*
X150824948Y-76238000D01*
X150975052Y-76238000D01*
X151073195Y-76257522D01*
X151073195Y-76257522D01*
G37*
G36*
X190929934Y-73418664D02*
X191084627Y-73482740D01*
X191223847Y-73575764D01*
X191342236Y-73694153D01*
X191435260Y-73833373D01*
X191499336Y-73988066D01*
X191532000Y-74152281D01*
X191532000Y-74319719D01*
X191499336Y-74483934D01*
X191435260Y-74638627D01*
X191342236Y-74777847D01*
X191223847Y-74896236D01*
X191084627Y-74989260D01*
X190929934Y-75053336D01*
X190765719Y-75086000D01*
X190598281Y-75086000D01*
X190434066Y-75053336D01*
X190279373Y-74989260D01*
X190140153Y-74896236D01*
X190021764Y-74777847D01*
X189928740Y-74638627D01*
X189864664Y-74483934D01*
X189832000Y-74319719D01*
X189832000Y-74152281D01*
X189864664Y-73988066D01*
X189928740Y-73833373D01*
X190021764Y-73694153D01*
X190140153Y-73575764D01*
X190279373Y-73482740D01*
X190434066Y-73418664D01*
X190598281Y-73386000D01*
X190765719Y-73386000D01*
X190929934Y-73418664D01*
X190929934Y-73418664D01*
G37*
G36*
X210103195Y-72797522D02*
X210152267Y-72807283D01*
X210255395Y-72850000D01*
X210290942Y-72864724D01*
X210415750Y-72948118D01*
X210521882Y-73054250D01*
X210605276Y-73179058D01*
X210662717Y-73317734D01*
X210682794Y-73418665D01*
X210692000Y-73464950D01*
X210692000Y-73615050D01*
X210662717Y-73762267D01*
X210605276Y-73900942D01*
X210521882Y-74025750D01*
X210415750Y-74131882D01*
X210415747Y-74131884D01*
X210290942Y-74215276D01*
X210152267Y-74272717D01*
X210103195Y-74282478D01*
X210005052Y-74302000D01*
X209854948Y-74302000D01*
X209756805Y-74282478D01*
X209707733Y-74272717D01*
X209569058Y-74215276D01*
X209444253Y-74131884D01*
X209444250Y-74131882D01*
X209338118Y-74025750D01*
X209254724Y-73900942D01*
X209197283Y-73762267D01*
X209168000Y-73615050D01*
X209168000Y-73464950D01*
X209177207Y-73418665D01*
X209197283Y-73317734D01*
X209254724Y-73179058D01*
X209338118Y-73054250D01*
X209444250Y-72948118D01*
X209569058Y-72864724D01*
X209604605Y-72850000D01*
X209707733Y-72807283D01*
X209756805Y-72797522D01*
X209854948Y-72778000D01*
X210005052Y-72778000D01*
X210103195Y-72797522D01*
X210103195Y-72797522D01*
G37*
G36*
X173175770Y-71015372D02*
X173291689Y-71038429D01*
X173473678Y-71113811D01*
X173637463Y-71223249D01*
X173776751Y-71362537D01*
X173886189Y-71526322D01*
X173961571Y-71708311D01*
X173972250Y-71762000D01*
X174000000Y-71901507D01*
X174000000Y-72098493D01*
X173984628Y-72175770D01*
X173961571Y-72291689D01*
X173886189Y-72473678D01*
X173776751Y-72637463D01*
X173637463Y-72776751D01*
X173473678Y-72886189D01*
X173291689Y-72961571D01*
X173175770Y-72984628D01*
X173098493Y-73000000D01*
X172901507Y-73000000D01*
X172824230Y-72984628D01*
X172708311Y-72961571D01*
X172526322Y-72886189D01*
X172362537Y-72776751D01*
X172223249Y-72637463D01*
X172113811Y-72473678D01*
X172038429Y-72291689D01*
X172015372Y-72175770D01*
X172000000Y-72098493D01*
X172000000Y-71901507D01*
X172027750Y-71762000D01*
X172038429Y-71708311D01*
X172113811Y-71526322D01*
X172223249Y-71362537D01*
X172362537Y-71223249D01*
X172526322Y-71113811D01*
X172708311Y-71038429D01*
X172824230Y-71015372D01*
X172901507Y-71000000D01*
X173098493Y-71000000D01*
X173175770Y-71015372D01*
X173175770Y-71015372D01*
G37*
G36*
X179675770Y-71015372D02*
X179791689Y-71038429D01*
X179973678Y-71113811D01*
X180137463Y-71223249D01*
X180276751Y-71362537D01*
X180386189Y-71526322D01*
X180461571Y-71708311D01*
X180472250Y-71762000D01*
X180500000Y-71901507D01*
X180500000Y-72098493D01*
X180484628Y-72175770D01*
X180461571Y-72291689D01*
X180386189Y-72473678D01*
X180276751Y-72637463D01*
X180137463Y-72776751D01*
X179973678Y-72886189D01*
X179791689Y-72961571D01*
X179675770Y-72984628D01*
X179598493Y-73000000D01*
X179401507Y-73000000D01*
X179324230Y-72984628D01*
X179208311Y-72961571D01*
X179026322Y-72886189D01*
X178862537Y-72776751D01*
X178723249Y-72637463D01*
X178613811Y-72473678D01*
X178538429Y-72291689D01*
X178515372Y-72175770D01*
X178500000Y-72098493D01*
X178500000Y-71901507D01*
X178527750Y-71762000D01*
X178538429Y-71708311D01*
X178613811Y-71526322D01*
X178723249Y-71362537D01*
X178862537Y-71223249D01*
X179026322Y-71113811D01*
X179208311Y-71038429D01*
X179324230Y-71015372D01*
X179401507Y-71000000D01*
X179598493Y-71000000D01*
X179675770Y-71015372D01*
X179675770Y-71015372D01*
G37*
G36*
X167706630Y-71162299D02*
X167866855Y-71210903D01*
X168014520Y-71289831D01*
X168143949Y-71396051D01*
X168250169Y-71525480D01*
X168329097Y-71673145D01*
X168377701Y-71833370D01*
X168394112Y-72000000D01*
X168377701Y-72166630D01*
X168329097Y-72326855D01*
X168250169Y-72474520D01*
X168143949Y-72603949D01*
X168014520Y-72710169D01*
X167866855Y-72789097D01*
X167706630Y-72837701D01*
X167581752Y-72850000D01*
X167498248Y-72850000D01*
X167373370Y-72837701D01*
X167213145Y-72789097D01*
X167065480Y-72710169D01*
X166936051Y-72603949D01*
X166829831Y-72474520D01*
X166750903Y-72326855D01*
X166702299Y-72166630D01*
X166685888Y-72000000D01*
X166702299Y-71833370D01*
X166750903Y-71673145D01*
X166829831Y-71525480D01*
X166936051Y-71396051D01*
X167065480Y-71289831D01*
X167213145Y-71210903D01*
X167373370Y-71162299D01*
X167498248Y-71150000D01*
X167581752Y-71150000D01*
X167706630Y-71162299D01*
X167706630Y-71162299D01*
G37*
G36*
X165850000Y-72850000D02*
X164150000Y-72850000D01*
X164150000Y-71150000D01*
X165850000Y-71150000D01*
X165850000Y-72850000D01*
X165850000Y-72850000D01*
G37*
G36*
X158396000Y-72450000D02*
X154896000Y-72450000D01*
X154896000Y-68950000D01*
X158396000Y-68950000D01*
X158396000Y-72450000D01*
X158396000Y-72450000D01*
G37*
G36*
X210103195Y-70257522D02*
X210152267Y-70267283D01*
X210290942Y-70324724D01*
X210415750Y-70408118D01*
X210521882Y-70514250D01*
X210521884Y-70514253D01*
X210605276Y-70639058D01*
X210662717Y-70777733D01*
X210692000Y-70924950D01*
X210692000Y-71075050D01*
X210662717Y-71222267D01*
X210605276Y-71360942D01*
X210521882Y-71485750D01*
X210415750Y-71591882D01*
X210415747Y-71591884D01*
X210290942Y-71675276D01*
X210152267Y-71732717D01*
X210103195Y-71742478D01*
X210005052Y-71762000D01*
X209854948Y-71762000D01*
X209756805Y-71742478D01*
X209707733Y-71732717D01*
X209569058Y-71675276D01*
X209444253Y-71591884D01*
X209444250Y-71591882D01*
X209338118Y-71485750D01*
X209254724Y-71360942D01*
X209197283Y-71222267D01*
X209168000Y-71075050D01*
X209168000Y-70924950D01*
X209197283Y-70777733D01*
X209254724Y-70639058D01*
X209338116Y-70514253D01*
X209338118Y-70514250D01*
X209444250Y-70408118D01*
X209569058Y-70324724D01*
X209707733Y-70267283D01*
X209756805Y-70257522D01*
X209854948Y-70238000D01*
X210005052Y-70238000D01*
X210103195Y-70257522D01*
X210103195Y-70257522D01*
G37*
G36*
X187333195Y-69257522D02*
X187382267Y-69267283D01*
X187520942Y-69324724D01*
X187645750Y-69408118D01*
X187751882Y-69514250D01*
X187835276Y-69639058D01*
X187892717Y-69777734D01*
X187922000Y-69924948D01*
X187922000Y-70075052D01*
X187892717Y-70222266D01*
X187835276Y-70360942D01*
X187751882Y-70485750D01*
X187645750Y-70591882D01*
X187645747Y-70591884D01*
X187520942Y-70675276D01*
X187382267Y-70732717D01*
X187333195Y-70742478D01*
X187235052Y-70762000D01*
X187084948Y-70762000D01*
X186986805Y-70742478D01*
X186937733Y-70732717D01*
X186799058Y-70675276D01*
X186674253Y-70591884D01*
X186674250Y-70591882D01*
X186568118Y-70485750D01*
X186484724Y-70360942D01*
X186427283Y-70222266D01*
X186398000Y-70075052D01*
X186398000Y-69924948D01*
X186427283Y-69777734D01*
X186484724Y-69639058D01*
X186568118Y-69514250D01*
X186674250Y-69408118D01*
X186799058Y-69324724D01*
X186937733Y-69267283D01*
X186986805Y-69257522D01*
X187084948Y-69238000D01*
X187235052Y-69238000D01*
X187333195Y-69257522D01*
X187333195Y-69257522D01*
G37*
G36*
X184793195Y-69257522D02*
X184842267Y-69267283D01*
X184980942Y-69324724D01*
X185105750Y-69408118D01*
X185211882Y-69514250D01*
X185295276Y-69639058D01*
X185352717Y-69777734D01*
X185382000Y-69924948D01*
X185382000Y-70075052D01*
X185352717Y-70222266D01*
X185295276Y-70360942D01*
X185211882Y-70485750D01*
X185105750Y-70591882D01*
X185105747Y-70591884D01*
X184980942Y-70675276D01*
X184842267Y-70732717D01*
X184793195Y-70742478D01*
X184695052Y-70762000D01*
X184544948Y-70762000D01*
X184446805Y-70742478D01*
X184397733Y-70732717D01*
X184259058Y-70675276D01*
X184134253Y-70591884D01*
X184134250Y-70591882D01*
X184028118Y-70485750D01*
X183944724Y-70360942D01*
X183887283Y-70222266D01*
X183858000Y-70075052D01*
X183858000Y-69924948D01*
X183887283Y-69777734D01*
X183944724Y-69639058D01*
X184028118Y-69514250D01*
X184134250Y-69408118D01*
X184259058Y-69324724D01*
X184397733Y-69267283D01*
X184446805Y-69257522D01*
X184544948Y-69238000D01*
X184695052Y-69238000D01*
X184793195Y-69257522D01*
X184793195Y-69257522D01*
G37*
G36*
X189873195Y-69257522D02*
X189922267Y-69267283D01*
X190060942Y-69324724D01*
X190185750Y-69408118D01*
X190291882Y-69514250D01*
X190375276Y-69639058D01*
X190432717Y-69777734D01*
X190462000Y-69924948D01*
X190462000Y-70075052D01*
X190432717Y-70222266D01*
X190375276Y-70360942D01*
X190291882Y-70485750D01*
X190185750Y-70591882D01*
X190185747Y-70591884D01*
X190060942Y-70675276D01*
X189922267Y-70732717D01*
X189873195Y-70742478D01*
X189775052Y-70762000D01*
X189624948Y-70762000D01*
X189526805Y-70742478D01*
X189477733Y-70732717D01*
X189339058Y-70675276D01*
X189214253Y-70591884D01*
X189214250Y-70591882D01*
X189108118Y-70485750D01*
X189024724Y-70360942D01*
X188967283Y-70222266D01*
X188938000Y-70075052D01*
X188938000Y-69924948D01*
X188967283Y-69777734D01*
X189024724Y-69639058D01*
X189108118Y-69514250D01*
X189214250Y-69408118D01*
X189339058Y-69324724D01*
X189477733Y-69267283D01*
X189526805Y-69257522D01*
X189624948Y-69238000D01*
X189775052Y-69238000D01*
X189873195Y-69257522D01*
X189873195Y-69257522D01*
G37*
G36*
X192413195Y-69257522D02*
X192462267Y-69267283D01*
X192600942Y-69324724D01*
X192725750Y-69408118D01*
X192831882Y-69514250D01*
X192915276Y-69639058D01*
X192972717Y-69777734D01*
X193002000Y-69924948D01*
X193002000Y-70075052D01*
X192972717Y-70222266D01*
X192915276Y-70360942D01*
X192831882Y-70485750D01*
X192725750Y-70591882D01*
X192725747Y-70591884D01*
X192600942Y-70675276D01*
X192462267Y-70732717D01*
X192413195Y-70742478D01*
X192315052Y-70762000D01*
X192164948Y-70762000D01*
X192066805Y-70742478D01*
X192017733Y-70732717D01*
X191879058Y-70675276D01*
X191754253Y-70591884D01*
X191754250Y-70591882D01*
X191648118Y-70485750D01*
X191564724Y-70360942D01*
X191507283Y-70222266D01*
X191478000Y-70075052D01*
X191478000Y-69924948D01*
X191507283Y-69777734D01*
X191564724Y-69639058D01*
X191648118Y-69514250D01*
X191754250Y-69408118D01*
X191879058Y-69324724D01*
X192017733Y-69267283D01*
X192066805Y-69257522D01*
X192164948Y-69238000D01*
X192315052Y-69238000D01*
X192413195Y-69257522D01*
X192413195Y-69257522D01*
G37*
G36*
X210103195Y-67717522D02*
X210152267Y-67727283D01*
X210290942Y-67784724D01*
X210415750Y-67868118D01*
X210521882Y-67974250D01*
X210521884Y-67974253D01*
X210605276Y-68099058D01*
X210651300Y-68210169D01*
X210662717Y-68237734D01*
X210692000Y-68384948D01*
X210692000Y-68535052D01*
X210662717Y-68682266D01*
X210605276Y-68820942D01*
X210521882Y-68945750D01*
X210415750Y-69051882D01*
X210415747Y-69051884D01*
X210290942Y-69135276D01*
X210152267Y-69192717D01*
X210103195Y-69202478D01*
X210005052Y-69222000D01*
X209854948Y-69222000D01*
X209756805Y-69202478D01*
X209707733Y-69192717D01*
X209569058Y-69135276D01*
X209444253Y-69051884D01*
X209444250Y-69051882D01*
X209338118Y-68945750D01*
X209254724Y-68820942D01*
X209197283Y-68682266D01*
X209168000Y-68535052D01*
X209168000Y-68384948D01*
X209197283Y-68237734D01*
X209208701Y-68210169D01*
X209254724Y-68099058D01*
X209338116Y-67974253D01*
X209338118Y-67974250D01*
X209444250Y-67868118D01*
X209569058Y-67784724D01*
X209707733Y-67727283D01*
X209756805Y-67717522D01*
X209854948Y-67698000D01*
X210005052Y-67698000D01*
X210103195Y-67717522D01*
X210103195Y-67717522D01*
G37*
G36*
X179675770Y-66515372D02*
X179791689Y-66538429D01*
X179973678Y-66613811D01*
X180137463Y-66723249D01*
X180276751Y-66862537D01*
X180386189Y-67026322D01*
X180461571Y-67208311D01*
X180484628Y-67324230D01*
X180500000Y-67401507D01*
X180500000Y-67598493D01*
X180484628Y-67675770D01*
X180461571Y-67791689D01*
X180386189Y-67973678D01*
X180276751Y-68137463D01*
X180137463Y-68276751D01*
X179973678Y-68386189D01*
X179791689Y-68461571D01*
X179675770Y-68484628D01*
X179598493Y-68500000D01*
X179401507Y-68500000D01*
X179324230Y-68484628D01*
X179208311Y-68461571D01*
X179026322Y-68386189D01*
X178862537Y-68276751D01*
X178723249Y-68137463D01*
X178613811Y-67973678D01*
X178538429Y-67791689D01*
X178515372Y-67675770D01*
X178500000Y-67598493D01*
X178500000Y-67401507D01*
X178515372Y-67324230D01*
X178538429Y-67208311D01*
X178613811Y-67026322D01*
X178723249Y-66862537D01*
X178862537Y-66723249D01*
X179026322Y-66613811D01*
X179208311Y-66538429D01*
X179324230Y-66515372D01*
X179401507Y-66500000D01*
X179598493Y-66500000D01*
X179675770Y-66515372D01*
X179675770Y-66515372D01*
G37*
G36*
X173175770Y-66515372D02*
X173291689Y-66538429D01*
X173473678Y-66613811D01*
X173637463Y-66723249D01*
X173776751Y-66862537D01*
X173886189Y-67026322D01*
X173961571Y-67208311D01*
X173984628Y-67324230D01*
X174000000Y-67401507D01*
X174000000Y-67598493D01*
X173984628Y-67675770D01*
X173961571Y-67791689D01*
X173886189Y-67973678D01*
X173776751Y-68137463D01*
X173637463Y-68276751D01*
X173473678Y-68386189D01*
X173291689Y-68461571D01*
X173175770Y-68484628D01*
X173098493Y-68500000D01*
X172901507Y-68500000D01*
X172824230Y-68484628D01*
X172708311Y-68461571D01*
X172526322Y-68386189D01*
X172362537Y-68276751D01*
X172223249Y-68137463D01*
X172113811Y-67973678D01*
X172038429Y-67791689D01*
X172015372Y-67675770D01*
X172000000Y-67598493D01*
X172000000Y-67401507D01*
X172015372Y-67324230D01*
X172038429Y-67208311D01*
X172113811Y-67026322D01*
X172223249Y-66862537D01*
X172362537Y-66723249D01*
X172526322Y-66613811D01*
X172708311Y-66538429D01*
X172824230Y-66515372D01*
X172901507Y-66500000D01*
X173098493Y-66500000D01*
X173175770Y-66515372D01*
X173175770Y-66515372D01*
G37*
G36*
X165780000Y-68350000D02*
X164080000Y-68350000D01*
X164080000Y-66650000D01*
X165780000Y-66650000D01*
X165780000Y-68350000D01*
X165780000Y-68350000D01*
G37*
G36*
X167636630Y-66662299D02*
X167796855Y-66710903D01*
X167944520Y-66789831D01*
X168073949Y-66896051D01*
X168180169Y-67025480D01*
X168259097Y-67173145D01*
X168307701Y-67333370D01*
X168324112Y-67500000D01*
X168307701Y-67666630D01*
X168259097Y-67826855D01*
X168180169Y-67974520D01*
X168073949Y-68103949D01*
X167944520Y-68210169D01*
X167796855Y-68289097D01*
X167636630Y-68337701D01*
X167511752Y-68350000D01*
X167428248Y-68350000D01*
X167303370Y-68337701D01*
X167143145Y-68289097D01*
X166995480Y-68210169D01*
X166866051Y-68103949D01*
X166759831Y-67974520D01*
X166680903Y-67826855D01*
X166632299Y-67666630D01*
X166615888Y-67500000D01*
X166632299Y-67333370D01*
X166680903Y-67173145D01*
X166759831Y-67025480D01*
X166866051Y-66896051D01*
X166995480Y-66789831D01*
X167143145Y-66710903D01*
X167303370Y-66662299D01*
X167428248Y-66650000D01*
X167511752Y-66650000D01*
X167636630Y-66662299D01*
X167636630Y-66662299D01*
G37*
G36*
X207000000Y-67850000D02*
X205000000Y-67850000D01*
X205000000Y-66150000D01*
X207000000Y-66150000D01*
X207000000Y-67850000D01*
X207000000Y-67850000D01*
G37*
G36*
X203000000Y-67850000D02*
X201000000Y-67850000D01*
X201000000Y-66150000D01*
X203000000Y-66150000D01*
X203000000Y-67850000D01*
X203000000Y-67850000D01*
G37*
G36*
X155396000Y-67750000D02*
X151896000Y-67750000D01*
X151896000Y-64250000D01*
X155396000Y-64250000D01*
X155396000Y-67750000D01*
X155396000Y-67750000D01*
G37*
G36*
X161396000Y-67750000D02*
X157896000Y-67750000D01*
X157896000Y-64250000D01*
X161396000Y-64250000D01*
X161396000Y-67750000D01*
X161396000Y-67750000D01*
G37*
G36*
X164303054Y-61973506D02*
X164303056Y-61973507D01*
X164303057Y-61973507D01*
X164409777Y-62017712D01*
X164591964Y-62093176D01*
X164851975Y-62266910D01*
X165073090Y-62488025D01*
X165246824Y-62748036D01*
X165366494Y-63036946D01*
X165427500Y-63343643D01*
X165427500Y-63656357D01*
X165366494Y-63963054D01*
X165246824Y-64251964D01*
X165073090Y-64511975D01*
X164851975Y-64733090D01*
X164591964Y-64906824D01*
X164409777Y-64982288D01*
X164303057Y-65026493D01*
X164303056Y-65026493D01*
X164303054Y-65026494D01*
X163996357Y-65087500D01*
X163683643Y-65087500D01*
X163376946Y-65026494D01*
X163376944Y-65026493D01*
X163376943Y-65026493D01*
X163270223Y-64982288D01*
X163088036Y-64906824D01*
X162828025Y-64733090D01*
X162606910Y-64511975D01*
X162433176Y-64251964D01*
X162313506Y-63963054D01*
X162252500Y-63656357D01*
X162252500Y-63343643D01*
X162313506Y-63036946D01*
X162433176Y-62748036D01*
X162606910Y-62488025D01*
X162828025Y-62266910D01*
X163088036Y-62093176D01*
X163270223Y-62017712D01*
X163376943Y-61973507D01*
X163376944Y-61973507D01*
X163376946Y-61973506D01*
X163683643Y-61912500D01*
X163996357Y-61912500D01*
X164303054Y-61973506D01*
X164303054Y-61973506D01*
G37*
G36*
X175165377Y-62241026D02*
X175250698Y-62266908D01*
X175309015Y-62284598D01*
X175375203Y-62319977D01*
X175441391Y-62355355D01*
X175557422Y-62450578D01*
X175557423Y-62450580D01*
X175557425Y-62450581D01*
X175614556Y-62520196D01*
X175652645Y-62566608D01*
X175697594Y-62650701D01*
X175723402Y-62698984D01*
X175737926Y-62746864D01*
X175766974Y-62842622D01*
X175778000Y-62954574D01*
X175778000Y-64045426D01*
X175766974Y-64157378D01*
X175738877Y-64250000D01*
X175723402Y-64301016D01*
X175697594Y-64349299D01*
X175652645Y-64433392D01*
X175557422Y-64549422D01*
X175441392Y-64644645D01*
X175357299Y-64689594D01*
X175309016Y-64715402D01*
X175261136Y-64729926D01*
X175165378Y-64758974D01*
X175016000Y-64773686D01*
X174866623Y-64758974D01*
X174770865Y-64729926D01*
X174722985Y-64715402D01*
X174674702Y-64689594D01*
X174590609Y-64644645D01*
X174474579Y-64549422D01*
X174379356Y-64433392D01*
X174334407Y-64349299D01*
X174308599Y-64301016D01*
X174293124Y-64250000D01*
X174265027Y-64157378D01*
X174254001Y-64045426D01*
X174254000Y-62954575D01*
X174265026Y-62842623D01*
X174308598Y-62698986D01*
X174308598Y-62698985D01*
X174343977Y-62632797D01*
X174379355Y-62566609D01*
X174474578Y-62450578D01*
X174474580Y-62450577D01*
X174474581Y-62450575D01*
X174590606Y-62355357D01*
X174590608Y-62355355D01*
X174674701Y-62310406D01*
X174722984Y-62284598D01*
X174781301Y-62266908D01*
X174866622Y-62241026D01*
X175016000Y-62226314D01*
X175165377Y-62241026D01*
X175165377Y-62241026D01*
G37*
G36*
X172625377Y-62241026D02*
X172710698Y-62266908D01*
X172769015Y-62284598D01*
X172835203Y-62319977D01*
X172901391Y-62355355D01*
X173017422Y-62450578D01*
X173017423Y-62450580D01*
X173017425Y-62450581D01*
X173074556Y-62520196D01*
X173112645Y-62566608D01*
X173157594Y-62650701D01*
X173183402Y-62698984D01*
X173197926Y-62746864D01*
X173226974Y-62842622D01*
X173238000Y-62954574D01*
X173238000Y-64045426D01*
X173226974Y-64157378D01*
X173198877Y-64250000D01*
X173183402Y-64301016D01*
X173157594Y-64349299D01*
X173112645Y-64433392D01*
X173017422Y-64549422D01*
X172901392Y-64644645D01*
X172817299Y-64689594D01*
X172769016Y-64715402D01*
X172721136Y-64729926D01*
X172625378Y-64758974D01*
X172476000Y-64773686D01*
X172326623Y-64758974D01*
X172230865Y-64729926D01*
X172182985Y-64715402D01*
X172134702Y-64689594D01*
X172050609Y-64644645D01*
X171934579Y-64549422D01*
X171839356Y-64433392D01*
X171794407Y-64349299D01*
X171768599Y-64301016D01*
X171753124Y-64250000D01*
X171725027Y-64157378D01*
X171714001Y-64045426D01*
X171714000Y-62954575D01*
X171725026Y-62842623D01*
X171768598Y-62698986D01*
X171768598Y-62698985D01*
X171803977Y-62632797D01*
X171839355Y-62566609D01*
X171934578Y-62450578D01*
X171934580Y-62450577D01*
X171934581Y-62450575D01*
X172050606Y-62355357D01*
X172050608Y-62355355D01*
X172134701Y-62310406D01*
X172182984Y-62284598D01*
X172241301Y-62266908D01*
X172326622Y-62241026D01*
X172476000Y-62226314D01*
X172625377Y-62241026D01*
X172625377Y-62241026D01*
G37*
G36*
X190405377Y-62241026D02*
X190490698Y-62266908D01*
X190549015Y-62284598D01*
X190615202Y-62319976D01*
X190681391Y-62355355D01*
X190797422Y-62450578D01*
X190797423Y-62450580D01*
X190797425Y-62450581D01*
X190854556Y-62520196D01*
X190892645Y-62566608D01*
X190937594Y-62650701D01*
X190963402Y-62698984D01*
X190977926Y-62746864D01*
X191006974Y-62842622D01*
X191018000Y-62954574D01*
X191018000Y-64045426D01*
X191006974Y-64157378D01*
X190978877Y-64250000D01*
X190963402Y-64301016D01*
X190937594Y-64349299D01*
X190892645Y-64433392D01*
X190797422Y-64549422D01*
X190681392Y-64644645D01*
X190597299Y-64689594D01*
X190549016Y-64715402D01*
X190501136Y-64729926D01*
X190405378Y-64758974D01*
X190256000Y-64773686D01*
X190106623Y-64758974D01*
X190010865Y-64729926D01*
X189962985Y-64715402D01*
X189914702Y-64689594D01*
X189830609Y-64644645D01*
X189714579Y-64549422D01*
X189619356Y-64433392D01*
X189574407Y-64349299D01*
X189548599Y-64301016D01*
X189533124Y-64250000D01*
X189505027Y-64157378D01*
X189494001Y-64045426D01*
X189494000Y-62954575D01*
X189505026Y-62842623D01*
X189548598Y-62698986D01*
X189548598Y-62698985D01*
X189583977Y-62632797D01*
X189619355Y-62566609D01*
X189714578Y-62450578D01*
X189714580Y-62450577D01*
X189714581Y-62450575D01*
X189830606Y-62355357D01*
X189830608Y-62355355D01*
X189914701Y-62310406D01*
X189962984Y-62284598D01*
X190021301Y-62266908D01*
X190106622Y-62241026D01*
X190256000Y-62226314D01*
X190405377Y-62241026D01*
X190405377Y-62241026D01*
G37*
G36*
X212249377Y-62241026D02*
X212334698Y-62266908D01*
X212393015Y-62284598D01*
X212459202Y-62319976D01*
X212525391Y-62355355D01*
X212641422Y-62450578D01*
X212641423Y-62450580D01*
X212641425Y-62450581D01*
X212698556Y-62520196D01*
X212736645Y-62566608D01*
X212781594Y-62650701D01*
X212807402Y-62698984D01*
X212821926Y-62746864D01*
X212850974Y-62842622D01*
X212862000Y-62954574D01*
X212862000Y-64045426D01*
X212850974Y-64157378D01*
X212822877Y-64250000D01*
X212807402Y-64301016D01*
X212781594Y-64349299D01*
X212736645Y-64433392D01*
X212641422Y-64549422D01*
X212525392Y-64644645D01*
X212441299Y-64689594D01*
X212393016Y-64715402D01*
X212345136Y-64729926D01*
X212249378Y-64758974D01*
X212100000Y-64773686D01*
X211950623Y-64758974D01*
X211854865Y-64729926D01*
X211806985Y-64715402D01*
X211758702Y-64689594D01*
X211674609Y-64644645D01*
X211558579Y-64549422D01*
X211463356Y-64433392D01*
X211418407Y-64349299D01*
X211392599Y-64301016D01*
X211377124Y-64250000D01*
X211349027Y-64157378D01*
X211338001Y-64045426D01*
X211338000Y-62954575D01*
X211349026Y-62842623D01*
X211392598Y-62698986D01*
X211392598Y-62698985D01*
X211427977Y-62632797D01*
X211463355Y-62566609D01*
X211558578Y-62450578D01*
X211558580Y-62450577D01*
X211558581Y-62450575D01*
X211674606Y-62355357D01*
X211674608Y-62355355D01*
X211758701Y-62310406D01*
X211806984Y-62284598D01*
X211865301Y-62266908D01*
X211950622Y-62241026D01*
X212100000Y-62226314D01*
X212249377Y-62241026D01*
X212249377Y-62241026D01*
G37*
G36*
X209709377Y-62241026D02*
X209794698Y-62266908D01*
X209853015Y-62284598D01*
X209919202Y-62319976D01*
X209985391Y-62355355D01*
X210101422Y-62450578D01*
X210101423Y-62450580D01*
X210101425Y-62450581D01*
X210158556Y-62520196D01*
X210196645Y-62566608D01*
X210241594Y-62650701D01*
X210267402Y-62698984D01*
X210281926Y-62746864D01*
X210310974Y-62842622D01*
X210322000Y-62954574D01*
X210322000Y-64045426D01*
X210310974Y-64157378D01*
X210282877Y-64250000D01*
X210267402Y-64301016D01*
X210241594Y-64349299D01*
X210196645Y-64433392D01*
X210101422Y-64549422D01*
X209985392Y-64644645D01*
X209901299Y-64689594D01*
X209853016Y-64715402D01*
X209805136Y-64729926D01*
X209709378Y-64758974D01*
X209560000Y-64773686D01*
X209410623Y-64758974D01*
X209314865Y-64729926D01*
X209266985Y-64715402D01*
X209218702Y-64689594D01*
X209134609Y-64644645D01*
X209018579Y-64549422D01*
X208923356Y-64433392D01*
X208878407Y-64349299D01*
X208852599Y-64301016D01*
X208837124Y-64250000D01*
X208809027Y-64157378D01*
X208798001Y-64045426D01*
X208798000Y-62954575D01*
X208809026Y-62842623D01*
X208852598Y-62698986D01*
X208852598Y-62698985D01*
X208887977Y-62632797D01*
X208923355Y-62566609D01*
X209018578Y-62450578D01*
X209018580Y-62450577D01*
X209018581Y-62450575D01*
X209134606Y-62355357D01*
X209134608Y-62355355D01*
X209218701Y-62310406D01*
X209266984Y-62284598D01*
X209325301Y-62266908D01*
X209410622Y-62241026D01*
X209560000Y-62226314D01*
X209709377Y-62241026D01*
X209709377Y-62241026D01*
G37*
G36*
X207169377Y-62241026D02*
X207254698Y-62266908D01*
X207313015Y-62284598D01*
X207379202Y-62319976D01*
X207445391Y-62355355D01*
X207561422Y-62450578D01*
X207561423Y-62450580D01*
X207561425Y-62450581D01*
X207618556Y-62520196D01*
X207656645Y-62566608D01*
X207701594Y-62650701D01*
X207727402Y-62698984D01*
X207741926Y-62746864D01*
X207770974Y-62842622D01*
X207782000Y-62954574D01*
X207782000Y-64045426D01*
X207770974Y-64157378D01*
X207742877Y-64250000D01*
X207727402Y-64301016D01*
X207701594Y-64349299D01*
X207656645Y-64433392D01*
X207561422Y-64549422D01*
X207445392Y-64644645D01*
X207361299Y-64689594D01*
X207313016Y-64715402D01*
X207265136Y-64729926D01*
X207169378Y-64758974D01*
X207020000Y-64773686D01*
X206870623Y-64758974D01*
X206774865Y-64729926D01*
X206726985Y-64715402D01*
X206678702Y-64689594D01*
X206594609Y-64644645D01*
X206478579Y-64549422D01*
X206383356Y-64433392D01*
X206338407Y-64349299D01*
X206312599Y-64301016D01*
X206297124Y-64250000D01*
X206269027Y-64157378D01*
X206258001Y-64045426D01*
X206258000Y-62954575D01*
X206269026Y-62842623D01*
X206312598Y-62698986D01*
X206312598Y-62698985D01*
X206347977Y-62632797D01*
X206383355Y-62566609D01*
X206478578Y-62450578D01*
X206478580Y-62450577D01*
X206478581Y-62450575D01*
X206594606Y-62355357D01*
X206594608Y-62355355D01*
X206678701Y-62310406D01*
X206726984Y-62284598D01*
X206785301Y-62266908D01*
X206870622Y-62241026D01*
X207020000Y-62226314D01*
X207169377Y-62241026D01*
X207169377Y-62241026D01*
G37*
G36*
X204629377Y-62241026D02*
X204714698Y-62266908D01*
X204773015Y-62284598D01*
X204839202Y-62319976D01*
X204905391Y-62355355D01*
X205021422Y-62450578D01*
X205021423Y-62450580D01*
X205021425Y-62450581D01*
X205078556Y-62520196D01*
X205116645Y-62566608D01*
X205161594Y-62650701D01*
X205187402Y-62698984D01*
X205201926Y-62746864D01*
X205230974Y-62842622D01*
X205242000Y-62954574D01*
X205242000Y-64045426D01*
X205230974Y-64157378D01*
X205202877Y-64250000D01*
X205187402Y-64301016D01*
X205161594Y-64349299D01*
X205116645Y-64433392D01*
X205021422Y-64549422D01*
X204905392Y-64644645D01*
X204821299Y-64689594D01*
X204773016Y-64715402D01*
X204725136Y-64729926D01*
X204629378Y-64758974D01*
X204480000Y-64773686D01*
X204330623Y-64758974D01*
X204234865Y-64729926D01*
X204186985Y-64715402D01*
X204138702Y-64689594D01*
X204054609Y-64644645D01*
X203938579Y-64549422D01*
X203843356Y-64433392D01*
X203798407Y-64349299D01*
X203772599Y-64301016D01*
X203757124Y-64250000D01*
X203729027Y-64157378D01*
X203718001Y-64045426D01*
X203718000Y-62954575D01*
X203729026Y-62842623D01*
X203772598Y-62698986D01*
X203772598Y-62698985D01*
X203807977Y-62632797D01*
X203843355Y-62566609D01*
X203938578Y-62450578D01*
X203938580Y-62450577D01*
X203938581Y-62450575D01*
X204054606Y-62355357D01*
X204054608Y-62355355D01*
X204138701Y-62310406D01*
X204186984Y-62284598D01*
X204245301Y-62266908D01*
X204330622Y-62241026D01*
X204480000Y-62226314D01*
X204629377Y-62241026D01*
X204629377Y-62241026D01*
G37*
G36*
X202089377Y-62241026D02*
X202174698Y-62266908D01*
X202233015Y-62284598D01*
X202299202Y-62319976D01*
X202365391Y-62355355D01*
X202481422Y-62450578D01*
X202481423Y-62450580D01*
X202481425Y-62450581D01*
X202538556Y-62520196D01*
X202576645Y-62566608D01*
X202621594Y-62650701D01*
X202647402Y-62698984D01*
X202661926Y-62746864D01*
X202690974Y-62842622D01*
X202702000Y-62954574D01*
X202702000Y-64045426D01*
X202690974Y-64157378D01*
X202662877Y-64250000D01*
X202647402Y-64301016D01*
X202621594Y-64349299D01*
X202576645Y-64433392D01*
X202481422Y-64549422D01*
X202365392Y-64644645D01*
X202281299Y-64689594D01*
X202233016Y-64715402D01*
X202185136Y-64729926D01*
X202089378Y-64758974D01*
X201940000Y-64773686D01*
X201790623Y-64758974D01*
X201694865Y-64729926D01*
X201646985Y-64715402D01*
X201598702Y-64689594D01*
X201514609Y-64644645D01*
X201398579Y-64549422D01*
X201303356Y-64433392D01*
X201258407Y-64349299D01*
X201232599Y-64301016D01*
X201217124Y-64250000D01*
X201189027Y-64157378D01*
X201178001Y-64045426D01*
X201178000Y-62954575D01*
X201189026Y-62842623D01*
X201232598Y-62698986D01*
X201232598Y-62698985D01*
X201267977Y-62632797D01*
X201303355Y-62566609D01*
X201398578Y-62450578D01*
X201398580Y-62450577D01*
X201398581Y-62450575D01*
X201514606Y-62355357D01*
X201514608Y-62355355D01*
X201598701Y-62310406D01*
X201646984Y-62284598D01*
X201705301Y-62266908D01*
X201790622Y-62241026D01*
X201940000Y-62226314D01*
X202089377Y-62241026D01*
X202089377Y-62241026D01*
G37*
G36*
X199549377Y-62241026D02*
X199634698Y-62266908D01*
X199693015Y-62284598D01*
X199759202Y-62319976D01*
X199825391Y-62355355D01*
X199941422Y-62450578D01*
X199941423Y-62450580D01*
X199941425Y-62450581D01*
X199998556Y-62520196D01*
X200036645Y-62566608D01*
X200081594Y-62650701D01*
X200107402Y-62698984D01*
X200121926Y-62746864D01*
X200150974Y-62842622D01*
X200162000Y-62954574D01*
X200162000Y-64045426D01*
X200150974Y-64157378D01*
X200122877Y-64250000D01*
X200107402Y-64301016D01*
X200081594Y-64349299D01*
X200036645Y-64433392D01*
X199941422Y-64549422D01*
X199825392Y-64644645D01*
X199741299Y-64689594D01*
X199693016Y-64715402D01*
X199645136Y-64729926D01*
X199549378Y-64758974D01*
X199400000Y-64773686D01*
X199250623Y-64758974D01*
X199154865Y-64729926D01*
X199106985Y-64715402D01*
X199058702Y-64689594D01*
X198974609Y-64644645D01*
X198858579Y-64549422D01*
X198763356Y-64433392D01*
X198718407Y-64349299D01*
X198692599Y-64301016D01*
X198677124Y-64250000D01*
X198649027Y-64157378D01*
X198638001Y-64045426D01*
X198638000Y-62954575D01*
X198649026Y-62842623D01*
X198692598Y-62698986D01*
X198692598Y-62698985D01*
X198727977Y-62632797D01*
X198763355Y-62566609D01*
X198858578Y-62450578D01*
X198858580Y-62450577D01*
X198858581Y-62450575D01*
X198974606Y-62355357D01*
X198974608Y-62355355D01*
X199058701Y-62310406D01*
X199106984Y-62284598D01*
X199165301Y-62266908D01*
X199250622Y-62241026D01*
X199400000Y-62226314D01*
X199549377Y-62241026D01*
X199549377Y-62241026D01*
G37*
G36*
X194469377Y-62241026D02*
X194554698Y-62266908D01*
X194613015Y-62284598D01*
X194679202Y-62319976D01*
X194745391Y-62355355D01*
X194861422Y-62450578D01*
X194861423Y-62450580D01*
X194861425Y-62450581D01*
X194918556Y-62520196D01*
X194956645Y-62566608D01*
X195001594Y-62650701D01*
X195027402Y-62698984D01*
X195041926Y-62746864D01*
X195070974Y-62842622D01*
X195082000Y-62954574D01*
X195082000Y-64045426D01*
X195070974Y-64157378D01*
X195042877Y-64250000D01*
X195027402Y-64301016D01*
X195001594Y-64349299D01*
X194956645Y-64433392D01*
X194861422Y-64549422D01*
X194745392Y-64644645D01*
X194661299Y-64689594D01*
X194613016Y-64715402D01*
X194565136Y-64729926D01*
X194469378Y-64758974D01*
X194320000Y-64773686D01*
X194170623Y-64758974D01*
X194074865Y-64729926D01*
X194026985Y-64715402D01*
X193978702Y-64689594D01*
X193894609Y-64644645D01*
X193778579Y-64549422D01*
X193683356Y-64433392D01*
X193638407Y-64349299D01*
X193612599Y-64301016D01*
X193597124Y-64250000D01*
X193569027Y-64157378D01*
X193558001Y-64045426D01*
X193558000Y-62954575D01*
X193569026Y-62842623D01*
X193612598Y-62698986D01*
X193612598Y-62698985D01*
X193647977Y-62632797D01*
X193683355Y-62566609D01*
X193778578Y-62450578D01*
X193778580Y-62450577D01*
X193778581Y-62450575D01*
X193894606Y-62355357D01*
X193894608Y-62355355D01*
X193978701Y-62310406D01*
X194026984Y-62284598D01*
X194085301Y-62266908D01*
X194170622Y-62241026D01*
X194320000Y-62226314D01*
X194469377Y-62241026D01*
X194469377Y-62241026D01*
G37*
G36*
X187865377Y-62241026D02*
X187950698Y-62266908D01*
X188009015Y-62284598D01*
X188075202Y-62319976D01*
X188141391Y-62355355D01*
X188257422Y-62450578D01*
X188257423Y-62450580D01*
X188257425Y-62450581D01*
X188314556Y-62520196D01*
X188352645Y-62566608D01*
X188397594Y-62650701D01*
X188423402Y-62698984D01*
X188437926Y-62746864D01*
X188466974Y-62842622D01*
X188478000Y-62954574D01*
X188478000Y-64045426D01*
X188466974Y-64157378D01*
X188438877Y-64250000D01*
X188423402Y-64301016D01*
X188397594Y-64349299D01*
X188352645Y-64433392D01*
X188257422Y-64549422D01*
X188141392Y-64644645D01*
X188057299Y-64689594D01*
X188009016Y-64715402D01*
X187961136Y-64729926D01*
X187865378Y-64758974D01*
X187716000Y-64773686D01*
X187566623Y-64758974D01*
X187470865Y-64729926D01*
X187422985Y-64715402D01*
X187374702Y-64689594D01*
X187290609Y-64644645D01*
X187174579Y-64549422D01*
X187079356Y-64433392D01*
X187034407Y-64349299D01*
X187008599Y-64301016D01*
X186993124Y-64250000D01*
X186965027Y-64157378D01*
X186954001Y-64045426D01*
X186954000Y-62954575D01*
X186965026Y-62842623D01*
X187008598Y-62698986D01*
X187008598Y-62698985D01*
X187043977Y-62632797D01*
X187079355Y-62566609D01*
X187174578Y-62450578D01*
X187174580Y-62450577D01*
X187174581Y-62450575D01*
X187290606Y-62355357D01*
X187290608Y-62355355D01*
X187374701Y-62310406D01*
X187422984Y-62284598D01*
X187481301Y-62266908D01*
X187566622Y-62241026D01*
X187716000Y-62226314D01*
X187865377Y-62241026D01*
X187865377Y-62241026D01*
G37*
G36*
X167545377Y-62241026D02*
X167630698Y-62266908D01*
X167689015Y-62284598D01*
X167755203Y-62319977D01*
X167821391Y-62355355D01*
X167937422Y-62450578D01*
X167937423Y-62450580D01*
X167937425Y-62450581D01*
X167994556Y-62520196D01*
X168032645Y-62566608D01*
X168077594Y-62650701D01*
X168103402Y-62698984D01*
X168117926Y-62746864D01*
X168146974Y-62842622D01*
X168158000Y-62954574D01*
X168158000Y-64045426D01*
X168146974Y-64157378D01*
X168118877Y-64250000D01*
X168103402Y-64301016D01*
X168077594Y-64349299D01*
X168032645Y-64433392D01*
X167937422Y-64549422D01*
X167821392Y-64644645D01*
X167737299Y-64689594D01*
X167689016Y-64715402D01*
X167641136Y-64729926D01*
X167545378Y-64758974D01*
X167396000Y-64773686D01*
X167246623Y-64758974D01*
X167150865Y-64729926D01*
X167102985Y-64715402D01*
X167054702Y-64689594D01*
X166970609Y-64644645D01*
X166854579Y-64549422D01*
X166759356Y-64433392D01*
X166714407Y-64349299D01*
X166688599Y-64301016D01*
X166673124Y-64250000D01*
X166645027Y-64157378D01*
X166634001Y-64045426D01*
X166634000Y-62954575D01*
X166645026Y-62842623D01*
X166688598Y-62698986D01*
X166688598Y-62698985D01*
X166723977Y-62632797D01*
X166759355Y-62566609D01*
X166854578Y-62450578D01*
X166854580Y-62450577D01*
X166854581Y-62450575D01*
X166970606Y-62355357D01*
X166970608Y-62355355D01*
X167054701Y-62310406D01*
X167102984Y-62284598D01*
X167161301Y-62266908D01*
X167246622Y-62241026D01*
X167396000Y-62226314D01*
X167545377Y-62241026D01*
X167545377Y-62241026D01*
G37*
G36*
X170085377Y-62241026D02*
X170170698Y-62266908D01*
X170229015Y-62284598D01*
X170295203Y-62319977D01*
X170361391Y-62355355D01*
X170477422Y-62450578D01*
X170477423Y-62450580D01*
X170477425Y-62450581D01*
X170534556Y-62520196D01*
X170572645Y-62566608D01*
X170617594Y-62650701D01*
X170643402Y-62698984D01*
X170657926Y-62746864D01*
X170686974Y-62842622D01*
X170698000Y-62954574D01*
X170698000Y-64045426D01*
X170686974Y-64157378D01*
X170658877Y-64250000D01*
X170643402Y-64301016D01*
X170617594Y-64349299D01*
X170572645Y-64433392D01*
X170477422Y-64549422D01*
X170361392Y-64644645D01*
X170277299Y-64689594D01*
X170229016Y-64715402D01*
X170181136Y-64729926D01*
X170085378Y-64758974D01*
X169936000Y-64773686D01*
X169786623Y-64758974D01*
X169690865Y-64729926D01*
X169642985Y-64715402D01*
X169594702Y-64689594D01*
X169510609Y-64644645D01*
X169394579Y-64549422D01*
X169299356Y-64433392D01*
X169254407Y-64349299D01*
X169228599Y-64301016D01*
X169213124Y-64250000D01*
X169185027Y-64157378D01*
X169174001Y-64045426D01*
X169174000Y-62954575D01*
X169185026Y-62842623D01*
X169228598Y-62698986D01*
X169228598Y-62698985D01*
X169263977Y-62632797D01*
X169299355Y-62566609D01*
X169394578Y-62450578D01*
X169394580Y-62450577D01*
X169394581Y-62450575D01*
X169510606Y-62355357D01*
X169510608Y-62355355D01*
X169594701Y-62310406D01*
X169642984Y-62284598D01*
X169701301Y-62266908D01*
X169786622Y-62241026D01*
X169936000Y-62226314D01*
X170085377Y-62241026D01*
X170085377Y-62241026D01*
G37*
G36*
X185325377Y-62241026D02*
X185410698Y-62266908D01*
X185469015Y-62284598D01*
X185535202Y-62319976D01*
X185601391Y-62355355D01*
X185717422Y-62450578D01*
X185717423Y-62450580D01*
X185717425Y-62450581D01*
X185774556Y-62520196D01*
X185812645Y-62566608D01*
X185857594Y-62650701D01*
X185883402Y-62698984D01*
X185897926Y-62746864D01*
X185926974Y-62842622D01*
X185938000Y-62954574D01*
X185938000Y-64045426D01*
X185926974Y-64157378D01*
X185898877Y-64250000D01*
X185883402Y-64301016D01*
X185857594Y-64349299D01*
X185812645Y-64433392D01*
X185717422Y-64549422D01*
X185601392Y-64644645D01*
X185517299Y-64689594D01*
X185469016Y-64715402D01*
X185421136Y-64729926D01*
X185325378Y-64758974D01*
X185176000Y-64773686D01*
X185026623Y-64758974D01*
X184930865Y-64729926D01*
X184882985Y-64715402D01*
X184834702Y-64689594D01*
X184750609Y-64644645D01*
X184634579Y-64549422D01*
X184539356Y-64433392D01*
X184494407Y-64349299D01*
X184468599Y-64301016D01*
X184453124Y-64250000D01*
X184425027Y-64157378D01*
X184414001Y-64045426D01*
X184414000Y-62954575D01*
X184425026Y-62842623D01*
X184468598Y-62698986D01*
X184468598Y-62698985D01*
X184503977Y-62632797D01*
X184539355Y-62566609D01*
X184634578Y-62450578D01*
X184634580Y-62450577D01*
X184634581Y-62450575D01*
X184750606Y-62355357D01*
X184750608Y-62355355D01*
X184834701Y-62310406D01*
X184882984Y-62284598D01*
X184941301Y-62266908D01*
X185026622Y-62241026D01*
X185176000Y-62226314D01*
X185325377Y-62241026D01*
X185325377Y-62241026D01*
G37*
G36*
X182785377Y-62241026D02*
X182870698Y-62266908D01*
X182929015Y-62284598D01*
X182995203Y-62319977D01*
X183061391Y-62355355D01*
X183177422Y-62450578D01*
X183177423Y-62450580D01*
X183177425Y-62450581D01*
X183234556Y-62520196D01*
X183272645Y-62566608D01*
X183317594Y-62650701D01*
X183343402Y-62698984D01*
X183357926Y-62746864D01*
X183386974Y-62842622D01*
X183398000Y-62954574D01*
X183398000Y-64045426D01*
X183386974Y-64157378D01*
X183358877Y-64250000D01*
X183343402Y-64301016D01*
X183317594Y-64349299D01*
X183272645Y-64433392D01*
X183177422Y-64549422D01*
X183061392Y-64644645D01*
X182977299Y-64689594D01*
X182929016Y-64715402D01*
X182881136Y-64729926D01*
X182785378Y-64758974D01*
X182636000Y-64773686D01*
X182486623Y-64758974D01*
X182390865Y-64729926D01*
X182342985Y-64715402D01*
X182294702Y-64689594D01*
X182210609Y-64644645D01*
X182094579Y-64549422D01*
X181999356Y-64433392D01*
X181954407Y-64349299D01*
X181928599Y-64301016D01*
X181913124Y-64250000D01*
X181885027Y-64157378D01*
X181874001Y-64045426D01*
X181874000Y-62954575D01*
X181885026Y-62842623D01*
X181928598Y-62698986D01*
X181928598Y-62698985D01*
X181963977Y-62632797D01*
X181999355Y-62566609D01*
X182094578Y-62450578D01*
X182094580Y-62450577D01*
X182094581Y-62450575D01*
X182210606Y-62355357D01*
X182210608Y-62355355D01*
X182294701Y-62310406D01*
X182342984Y-62284598D01*
X182401301Y-62266908D01*
X182486622Y-62241026D01*
X182636000Y-62226314D01*
X182785377Y-62241026D01*
X182785377Y-62241026D01*
G37*
G36*
X180245377Y-62241026D02*
X180330698Y-62266908D01*
X180389015Y-62284598D01*
X180455203Y-62319977D01*
X180521391Y-62355355D01*
X180637422Y-62450578D01*
X180637423Y-62450580D01*
X180637425Y-62450581D01*
X180694556Y-62520196D01*
X180732645Y-62566608D01*
X180777594Y-62650701D01*
X180803402Y-62698984D01*
X180817926Y-62746864D01*
X180846974Y-62842622D01*
X180858000Y-62954574D01*
X180858000Y-64045426D01*
X180846974Y-64157378D01*
X180818877Y-64250000D01*
X180803402Y-64301016D01*
X180777594Y-64349299D01*
X180732645Y-64433392D01*
X180637422Y-64549422D01*
X180521392Y-64644645D01*
X180437299Y-64689594D01*
X180389016Y-64715402D01*
X180341136Y-64729926D01*
X180245378Y-64758974D01*
X180096000Y-64773686D01*
X179946623Y-64758974D01*
X179850865Y-64729926D01*
X179802985Y-64715402D01*
X179754702Y-64689594D01*
X179670609Y-64644645D01*
X179554579Y-64549422D01*
X179459356Y-64433392D01*
X179414407Y-64349299D01*
X179388599Y-64301016D01*
X179373124Y-64250000D01*
X179345027Y-64157378D01*
X179334001Y-64045426D01*
X179334000Y-62954575D01*
X179345026Y-62842623D01*
X179388598Y-62698986D01*
X179388598Y-62698985D01*
X179423977Y-62632797D01*
X179459355Y-62566609D01*
X179554578Y-62450578D01*
X179554580Y-62450577D01*
X179554581Y-62450575D01*
X179670606Y-62355357D01*
X179670608Y-62355355D01*
X179754701Y-62310406D01*
X179802984Y-62284598D01*
X179861301Y-62266908D01*
X179946622Y-62241026D01*
X180096000Y-62226314D01*
X180245377Y-62241026D01*
X180245377Y-62241026D01*
G37*
G36*
X177705377Y-62241026D02*
X177790698Y-62266908D01*
X177849015Y-62284598D01*
X177915203Y-62319977D01*
X177981391Y-62355355D01*
X178097422Y-62450578D01*
X178097423Y-62450580D01*
X178097425Y-62450581D01*
X178154556Y-62520196D01*
X178192645Y-62566608D01*
X178237594Y-62650701D01*
X178263402Y-62698984D01*
X178277926Y-62746864D01*
X178306974Y-62842622D01*
X178318000Y-62954574D01*
X178318000Y-64045426D01*
X178306974Y-64157378D01*
X178278877Y-64250000D01*
X178263402Y-64301016D01*
X178237594Y-64349299D01*
X178192645Y-64433392D01*
X178097422Y-64549422D01*
X177981392Y-64644645D01*
X177897299Y-64689594D01*
X177849016Y-64715402D01*
X177801136Y-64729926D01*
X177705378Y-64758974D01*
X177556000Y-64773686D01*
X177406623Y-64758974D01*
X177310865Y-64729926D01*
X177262985Y-64715402D01*
X177214702Y-64689594D01*
X177130609Y-64644645D01*
X177014579Y-64549422D01*
X176919356Y-64433392D01*
X176874407Y-64349299D01*
X176848599Y-64301016D01*
X176833124Y-64250000D01*
X176805027Y-64157378D01*
X176794001Y-64045426D01*
X176794000Y-62954575D01*
X176805026Y-62842623D01*
X176848598Y-62698986D01*
X176848598Y-62698985D01*
X176883977Y-62632797D01*
X176919355Y-62566609D01*
X177014578Y-62450578D01*
X177014580Y-62450577D01*
X177014581Y-62450575D01*
X177130606Y-62355357D01*
X177130608Y-62355355D01*
X177214701Y-62310406D01*
X177262984Y-62284598D01*
X177321301Y-62266908D01*
X177406622Y-62241026D01*
X177556000Y-62226314D01*
X177705377Y-62241026D01*
X177705377Y-62241026D01*
G37*
G36*
X197009377Y-62241026D02*
X197094698Y-62266908D01*
X197153015Y-62284598D01*
X197219202Y-62319976D01*
X197285391Y-62355355D01*
X197401422Y-62450578D01*
X197401423Y-62450580D01*
X197401425Y-62450581D01*
X197458556Y-62520196D01*
X197496645Y-62566608D01*
X197541594Y-62650701D01*
X197567402Y-62698984D01*
X197581926Y-62746864D01*
X197610974Y-62842622D01*
X197622000Y-62954574D01*
X197622000Y-64045426D01*
X197610974Y-64157378D01*
X197582877Y-64250000D01*
X197567402Y-64301016D01*
X197541594Y-64349299D01*
X197496645Y-64433392D01*
X197401422Y-64549422D01*
X197285392Y-64644645D01*
X197201299Y-64689594D01*
X197153016Y-64715402D01*
X197105136Y-64729926D01*
X197009378Y-64758974D01*
X196860000Y-64773686D01*
X196710623Y-64758974D01*
X196614865Y-64729926D01*
X196566985Y-64715402D01*
X196518702Y-64689594D01*
X196434609Y-64644645D01*
X196318579Y-64549422D01*
X196223356Y-64433392D01*
X196178407Y-64349299D01*
X196152599Y-64301016D01*
X196137124Y-64250000D01*
X196109027Y-64157378D01*
X196098001Y-64045426D01*
X196098000Y-62954575D01*
X196109026Y-62842623D01*
X196152598Y-62698986D01*
X196152598Y-62698985D01*
X196187977Y-62632797D01*
X196223355Y-62566609D01*
X196318578Y-62450578D01*
X196318580Y-62450577D01*
X196318581Y-62450575D01*
X196434606Y-62355357D01*
X196434608Y-62355355D01*
X196518701Y-62310406D01*
X196566984Y-62284598D01*
X196625301Y-62266908D01*
X196710622Y-62241026D01*
X196860000Y-62226314D01*
X197009377Y-62241026D01*
X197009377Y-62241026D01*
G37*
M02*
