M48
;DRILL file {KiCad 5.0.1} date Fri 08 Feb 2019 09:41:14 AM CST
;FORMAT={-:-/ absolute / metric / decimal}
FMAT,2
METRIC,TZ
T1C0.400
T2C0.700
T3C0.762
T4C0.800
T5C0.850
T6C1.000
T7C1.016
T8C1.100
%
G90
G05
M71
T1
X158.43Y-99.5
X161.446Y-105.5
X166.43Y-77.
X169.93Y-76.5
X174.93Y-75.7
X176.329Y-105.601
X176.43Y-104.5
X177.93Y-109.
X180.43Y-76.
X180.43Y-78.875
X180.43Y-81.5
X182.305Y-79.5
X182.305Y-80.5
X183.93Y-77.5
X183.93Y-78.5
X188.43Y-77.5
X188.43Y-78.5
X188.43Y-79.5
X188.43Y-80.5
X199.93Y-69.375
X199.93Y-72.125
T2
X192.5Y-91.
X197.5Y-91.
T3
X209.93Y-68.46
X209.93Y-71.
X209.93Y-73.54
X172.9Y-87.
T4
X150.9Y-77.
X150.9Y-79.
X150.9Y-81.
X150.9Y-83.
X150.9Y-85.
X150.9Y-87.
X150.9Y-89.
X150.9Y-91.
X150.9Y-93.
X150.9Y-95.
X172.9Y-77.
X172.9Y-79.
X172.9Y-81.
X172.9Y-83.
X172.9Y-85.
X172.9Y-89.
X172.9Y-91.
X172.9Y-93.
X172.9Y-95.
T5
X182.808Y-103.192
X190.682Y-74.236
X199.318Y-107.764
X207.192Y-78.808
T6
X165.Y-72.
X167.54Y-72.
X164.93Y-67.5
X167.47Y-67.5
T7
X184.62Y-70.
X187.16Y-70.
X189.7Y-70.
X192.24Y-70.
X167.396Y-63.5
X169.936Y-63.5
X172.476Y-63.5
X175.016Y-63.5
X176.54Y-111.76
X177.556Y-63.5
X179.08Y-111.76
X180.096Y-63.5
X181.62Y-111.76
X182.636Y-63.5
X184.16Y-111.76
X185.176Y-63.5
X186.7Y-111.76
X187.716Y-63.5
X189.24Y-111.76
X190.256Y-63.5
X191.78Y-111.76
X194.32Y-63.5
X194.32Y-111.76
X196.86Y-63.5
X199.4Y-63.5
X199.4Y-111.76
X201.94Y-63.5
X201.94Y-111.76
X204.48Y-63.5
X204.48Y-111.76
X207.02Y-63.5
X207.02Y-111.76
X209.56Y-63.5
X209.56Y-111.76
X212.1Y-63.5
X212.1Y-83.82
X212.1Y-86.36
X212.1Y-88.9
X212.1Y-111.76
X214.64Y-83.82
X214.64Y-86.36
X214.64Y-88.9
T8
X173.Y-67.5
X173.Y-72.
X179.5Y-67.5
X179.5Y-72.
X166.746Y-107.1
X166.746Y-111.6
X173.246Y-107.1
X173.246Y-111.6
X151.396Y-107.2
X151.396Y-111.7
X157.896Y-107.2
X157.896Y-111.7
T6
X153.646Y-65.G85X153.646Y-67.
G05
X155.646Y-70.7G85X157.646Y-70.7
G05
X159.646Y-65.G85X159.646Y-67.
G05
T0
M30
