G04 #@! TF.GenerationSoftware,KiCad,Pcbnew,5.0.1*
G04 #@! TF.CreationDate,2019-02-15T13:26:15-06:00*
G04 #@! TF.ProjectId,tomato_timer,746F6D61746F5F74696D65722E6B6963,rev?*
G04 #@! TF.SameCoordinates,Original*
G04 #@! TF.FileFunction,Copper,L1,Top,Signal*
G04 #@! TF.FilePolarity,Positive*
%FSLAX46Y46*%
G04 Gerber Fmt 4.6, Leading zero omitted, Abs format (unit mm)*
G04 Created by KiCad (PCBNEW 5.0.1) date Fri 15 Feb 2019 01:26:15 PM CST*
%MOMM*%
%LPD*%
G01*
G04 APERTURE LIST*
G04 #@! TA.AperFunction,SMDPad,CuDef*
%ADD10R,2.000000X1.700000*%
G04 #@! TD*
G04 #@! TA.AperFunction,SMDPad,CuDef*
%ADD11R,2.000000X6.300000*%
G04 #@! TD*
G04 #@! TA.AperFunction,ComponentPad*
%ADD12O,1.524000X2.540000*%
G04 #@! TD*
G04 #@! TA.AperFunction,ComponentPad*
%ADD13C,1.524000*%
G04 #@! TD*
G04 #@! TA.AperFunction,ComponentPad*
%ADD14C,2.000000*%
G04 #@! TD*
G04 #@! TA.AperFunction,SMDPad,CuDef*
%ADD15R,1.700000X2.000000*%
G04 #@! TD*
G04 #@! TA.AperFunction,ComponentPad*
%ADD16C,1.250000*%
G04 #@! TD*
G04 #@! TA.AperFunction,ComponentPad*
%ADD17R,1.524000X1.524000*%
G04 #@! TD*
G04 #@! TA.AperFunction,ComponentPad*
%ADD18R,3.500000X3.500000*%
G04 #@! TD*
G04 #@! TA.AperFunction,ComponentPad*
%ADD19R,1.700000X1.700000*%
G04 #@! TD*
G04 #@! TA.AperFunction,ComponentPad*
%ADD20O,1.700000X1.700000*%
G04 #@! TD*
G04 #@! TA.AperFunction,ComponentPad*
%ADD21C,1.700000*%
G04 #@! TD*
G04 #@! TA.AperFunction,SMDPad,CuDef*
%ADD22R,0.800000X1.900000*%
G04 #@! TD*
G04 #@! TA.AperFunction,ComponentPad*
%ADD23O,1.200000X1.700000*%
G04 #@! TD*
G04 #@! TA.AperFunction,ComponentPad*
%ADD24R,1.200000X1.700000*%
G04 #@! TD*
G04 #@! TA.AperFunction,ViaPad*
%ADD25C,0.600000*%
G04 #@! TD*
G04 #@! TA.AperFunction,Conductor*
%ADD26C,0.500000*%
G04 #@! TD*
G04 #@! TA.AperFunction,Conductor*
%ADD27C,0.250000*%
G04 #@! TD*
G04 #@! TA.AperFunction,Conductor*
%ADD28C,1.000000*%
G04 #@! TD*
G04 #@! TA.AperFunction,Conductor*
%ADD29C,0.254000*%
G04 #@! TD*
G04 APERTURE END LIST*
D10*
G04 #@! TO.P,R7,2*
G04 #@! TO.N,/PIXEL_RING_PIN*
X197330000Y-75225000D03*
G04 #@! TO.P,R7,1*
G04 #@! TO.N,Net-(D2-Pad4)*
X201330000Y-75225000D03*
G04 #@! TD*
G04 #@! TO.P,R4,2*
G04 #@! TO.N,/3V3*
X172030019Y-100372801D03*
G04 #@! TO.P,R4,1*
G04 #@! TO.N,/DOUT*
X176030019Y-100372801D03*
G04 #@! TD*
D11*
G04 #@! TO.P,C2,2*
G04 #@! TO.N,/GND*
X153580019Y-78672801D03*
G04 #@! TO.P,C2,1*
G04 #@! TO.N,/5V_IN*
X161080019Y-78672801D03*
G04 #@! TD*
D12*
G04 #@! TO.P,TOMATO_SHIELD1,AD5*
G04 #@! TO.N,N/C*
X212100000Y-111760000D03*
G04 #@! TO.P,TOMATO_SHIELD1,AD4*
G04 #@! TO.N,/VOL_IN*
X209560000Y-111760000D03*
G04 #@! TO.P,TOMATO_SHIELD1,AD3*
G04 #@! TO.N,N/C*
X207020000Y-111760000D03*
G04 #@! TO.P,TOMATO_SHIELD1,AD0*
X199400000Y-111760000D03*
G04 #@! TO.P,TOMATO_SHIELD1,AD1*
G04 #@! TO.N,/BUZZER*
X201940000Y-111760000D03*
G04 #@! TO.P,TOMATO_SHIELD1,AD2*
G04 #@! TO.N,N/C*
X204480000Y-111760000D03*
G04 #@! TO.P,TOMATO_SHIELD1,V_IN*
X194320000Y-111760000D03*
G04 #@! TO.P,TOMATO_SHIELD1,GND2*
G04 #@! TO.N,/GND*
X191780000Y-111760000D03*
G04 #@! TO.P,TOMATO_SHIELD1,GND1*
X189240000Y-111760000D03*
G04 #@! TO.P,TOMATO_SHIELD1,3V3*
G04 #@! TO.N,/3V3*
X184160000Y-111760000D03*
G04 #@! TO.P,TOMATO_SHIELD1,RST*
G04 #@! TO.N,/RESET*
X181620000Y-111760000D03*
G04 #@! TO.P,TOMATO_SHIELD1,0*
G04 #@! TO.N,/RX*
X212100000Y-63500000D03*
G04 #@! TO.P,TOMATO_SHIELD1,1*
G04 #@! TO.N,/TX*
X209560000Y-63500000D03*
G04 #@! TO.P,TOMATO_SHIELD1,2*
G04 #@! TO.N,/BTN_START*
X207020000Y-63500000D03*
G04 #@! TO.P,TOMATO_SHIELD1,3*
G04 #@! TO.N,/BTN_STOP*
X204480000Y-63500000D03*
G04 #@! TO.P,TOMATO_SHIELD1,4*
G04 #@! TO.N,N/C*
X201940000Y-63500000D03*
G04 #@! TO.P,TOMATO_SHIELD1,5*
X199400000Y-63500000D03*
G04 #@! TO.P,TOMATO_SHIELD1,6*
G04 #@! TO.N,/PIXEL_RING_PIN*
X196860000Y-63500000D03*
G04 #@! TO.P,TOMATO_SHIELD1,7*
G04 #@! TO.N,/PIXEL_STRIP_PIN*
X194320000Y-63500000D03*
G04 #@! TO.P,TOMATO_SHIELD1,8*
G04 #@! TO.N,N/C*
X190256000Y-63500000D03*
G04 #@! TO.P,TOMATO_SHIELD1,9*
X187716000Y-63500000D03*
G04 #@! TO.P,TOMATO_SHIELD1,10*
X185176000Y-63500000D03*
G04 #@! TO.P,TOMATO_SHIELD1,11*
X182636000Y-63500000D03*
G04 #@! TO.P,TOMATO_SHIELD1,12*
X180096000Y-63500000D03*
G04 #@! TO.P,TOMATO_SHIELD1,13*
X177556000Y-63500000D03*
G04 #@! TO.P,TOMATO_SHIELD1,GND3*
G04 #@! TO.N,/GND*
X175016000Y-63500000D03*
G04 #@! TO.P,TOMATO_SHIELD1,AREF*
G04 #@! TO.N,N/C*
X172476000Y-63500000D03*
G04 #@! TO.P,TOMATO_SHIELD1,5V*
G04 #@! TO.N,/5V*
X186700000Y-111760000D03*
G04 #@! TO.P,TOMATO_SHIELD1,SDA*
G04 #@! TO.N,N/C*
X169936000Y-63500000D03*
G04 #@! TO.P,TOMATO_SHIELD1,SCL*
X167396000Y-63500000D03*
G04 #@! TO.P,TOMATO_SHIELD1,IO_R*
X179080000Y-111760000D03*
G04 #@! TO.P,TOMATO_SHIELD1,NC*
X176540000Y-111760000D03*
D13*
G04 #@! TO.P,TOMATO_SHIELD1,SP1*
X212100000Y-83820000D03*
G04 #@! TO.P,TOMATO_SHIELD1,SP2*
X214640000Y-83820000D03*
G04 #@! TO.P,TOMATO_SHIELD1,SP3*
X212100000Y-86360000D03*
G04 #@! TO.P,TOMATO_SHIELD1,SP4*
X214640000Y-86360000D03*
G04 #@! TO.P,TOMATO_SHIELD1,SP5*
X212100000Y-88900000D03*
G04 #@! TO.P,TOMATO_SHIELD1,SP6*
X214640000Y-88900000D03*
G04 #@! TD*
D14*
G04 #@! TO.P,SW2,2*
G04 #@! TO.N,/GND*
X179500000Y-67500000D03*
G04 #@! TO.P,SW2,1*
G04 #@! TO.N,/RESET*
X179500000Y-72000000D03*
G04 #@! TO.P,SW2,2*
G04 #@! TO.N,/GND*
X173000000Y-67500000D03*
G04 #@! TO.P,SW2,1*
G04 #@! TO.N,/RESET*
X173000000Y-72000000D03*
G04 #@! TD*
D15*
G04 #@! TO.P,R10,1*
G04 #@! TO.N,/VOL_IN*
X210430000Y-93000000D03*
G04 #@! TO.P,R10,2*
G04 #@! TO.N,Net-(LS1-Pad1)*
X210430000Y-97000000D03*
G04 #@! TD*
D14*
G04 #@! TO.P,SW3,2*
G04 #@! TO.N,/BTN_START*
X173246000Y-107100000D03*
G04 #@! TO.P,SW3,1*
G04 #@! TO.N,/5V*
X173246000Y-111600000D03*
G04 #@! TO.P,SW3,2*
G04 #@! TO.N,/BTN_START*
X166746000Y-107100000D03*
G04 #@! TO.P,SW3,1*
G04 #@! TO.N,/5V*
X166746000Y-111600000D03*
G04 #@! TD*
G04 #@! TO.P,SW4,2*
G04 #@! TO.N,/BTN_STOP*
X157896000Y-107200000D03*
G04 #@! TO.P,SW4,1*
G04 #@! TO.N,/5V*
X157896000Y-111700000D03*
G04 #@! TO.P,SW4,2*
G04 #@! TO.N,/BTN_STOP*
X151396000Y-107200000D03*
G04 #@! TO.P,SW4,1*
G04 #@! TO.N,/5V*
X151396000Y-111700000D03*
G04 #@! TD*
D16*
G04 #@! TO.P,LS1,1*
G04 #@! TO.N,Net-(LS1-Pad1)*
X192500000Y-91000000D03*
G04 #@! TO.P,LS1,2*
G04 #@! TO.N,/VOL_IN*
X197500000Y-91000000D03*
G04 #@! TD*
D13*
G04 #@! TO.P,U1,11*
G04 #@! TO.N,N/C*
X150900000Y-77000000D03*
G04 #@! TO.P,U1,12*
X150900000Y-79000000D03*
G04 #@! TO.P,U1,13*
X150900000Y-81000000D03*
G04 #@! TO.P,U1,14*
X150900000Y-83000000D03*
G04 #@! TO.P,U1,15*
X150900000Y-85000000D03*
G04 #@! TO.P,U1,16*
X150900000Y-87000000D03*
G04 #@! TO.P,U1,17*
X150900000Y-89000000D03*
G04 #@! TO.P,U1,18*
X150900000Y-91000000D03*
G04 #@! TO.P,U1,19*
X150900000Y-93000000D03*
G04 #@! TO.P,U1,20*
X150900000Y-95000000D03*
G04 #@! TO.P,U1,10*
G04 #@! TO.N,/GND*
X172900000Y-77000000D03*
G04 #@! TO.P,U1,9*
G04 #@! TO.N,N/C*
X172900000Y-79000000D03*
G04 #@! TO.P,U1,8*
X172900000Y-81000000D03*
G04 #@! TO.P,U1,7*
X172900000Y-83000000D03*
G04 #@! TO.P,U1,6*
X172900000Y-85000000D03*
G04 #@! TO.P,U1,5*
X172900000Y-87000000D03*
G04 #@! TO.P,U1,4*
X172900000Y-89000000D03*
G04 #@! TO.P,U1,3*
G04 #@! TO.N,/DIN*
X172900000Y-91000000D03*
G04 #@! TO.P,U1,2*
G04 #@! TO.N,/DOUT*
X172900000Y-93000000D03*
D17*
G04 #@! TO.P,U1,1*
G04 #@! TO.N,/3V3*
X172900000Y-95000000D03*
G04 #@! TD*
D18*
G04 #@! TO.P,J1,3*
G04 #@! TO.N,N/C*
X155853000Y-70700000D03*
G04 #@! TO.P,J1,2*
G04 #@! TO.N,/GND*
X152853000Y-66000000D03*
G04 #@! TO.P,J1,1*
G04 #@! TO.N,/5V_IN*
X158853000Y-66000000D03*
G04 #@! TD*
D19*
G04 #@! TO.P,JP2,1*
G04 #@! TO.N,/5V_IN*
X165500000Y-68834000D03*
D20*
G04 #@! TO.P,JP2,2*
G04 #@! TO.N,/5V*
X165500000Y-71374000D03*
G04 #@! TD*
D21*
G04 #@! TO.P,D2,4*
G04 #@! TO.N,Net-(D2-Pad4)*
X207192000Y-78808000D03*
G04 #@! TO.P,D2,1*
G04 #@! TO.N,N/C*
X190682000Y-74236000D03*
G04 #@! TO.P,D2,2*
G04 #@! TO.N,/GND*
X199318000Y-107764000D03*
G04 #@! TO.P,D2,3*
G04 #@! TO.N,/5V_IN*
X182808000Y-103192000D03*
G04 #@! TD*
D13*
G04 #@! TO.P,RV1,2*
G04 #@! TO.N,/VOL_IN*
X208060000Y-70500000D03*
G04 #@! TO.P,RV1,3*
G04 #@! TO.N,/5V*
X208060000Y-73040000D03*
G04 #@! TO.P,RV1,1*
G04 #@! TO.N,Net-(LS1-Pad1)*
X208060000Y-67960000D03*
G04 #@! TD*
D10*
G04 #@! TO.P,R1,1*
G04 #@! TO.N,/5V*
X165500000Y-79500000D03*
G04 #@! TO.P,R1,2*
G04 #@! TO.N,/TX*
X169500000Y-79500000D03*
G04 #@! TD*
D15*
G04 #@! TO.P,R2,2*
G04 #@! TO.N,/3V3*
X178930000Y-95000000D03*
G04 #@! TO.P,R2,1*
G04 #@! TO.N,/DIN*
X178930000Y-91000000D03*
G04 #@! TD*
D10*
G04 #@! TO.P,R3,1*
G04 #@! TO.N,/5V*
X163230019Y-83672801D03*
G04 #@! TO.P,R3,2*
G04 #@! TO.N,/RX*
X167230019Y-83672801D03*
G04 #@! TD*
D15*
G04 #@! TO.P,R8,1*
G04 #@! TO.N,Net-(D1-Pad1)*
X194320000Y-70500000D03*
G04 #@! TO.P,R8,2*
G04 #@! TO.N,/PIXEL_STRIP_PIN*
X194320000Y-66500000D03*
G04 #@! TD*
D22*
G04 #@! TO.P,Q1,3*
G04 #@! TO.N,/TX*
X167500000Y-86500000D03*
G04 #@! TO.P,Q1,2*
G04 #@! TO.N,/DIN*
X168450000Y-89500000D03*
G04 #@! TO.P,Q1,1*
G04 #@! TO.N,/3V3*
X166550000Y-89500000D03*
G04 #@! TD*
G04 #@! TO.P,Q2,1*
G04 #@! TO.N,/3V3*
X160480000Y-89500000D03*
G04 #@! TO.P,Q2,2*
G04 #@! TO.N,/DOUT*
X162380000Y-89500000D03*
G04 #@! TO.P,Q2,3*
G04 #@! TO.N,/RX*
X161430000Y-86500000D03*
G04 #@! TD*
G04 #@! TO.P,Q3,C*
G04 #@! TO.N,Net-(LS1-Pad1)*
X207430000Y-99500000D03*
G04 #@! TO.P,Q3,E*
G04 #@! TO.N,/GND*
X208380000Y-102500000D03*
G04 #@! TO.P,Q3,B*
G04 #@! TO.N,Net-(Q3-PadB)*
X206480000Y-102500000D03*
G04 #@! TD*
D10*
G04 #@! TO.P,R9,2*
G04 #@! TO.N,Net-(Q3-PadB)*
X200030019Y-104672801D03*
G04 #@! TO.P,R9,1*
G04 #@! TO.N,/BUZZER*
X204030019Y-104672801D03*
G04 #@! TD*
D23*
G04 #@! TO.P,D1,3*
G04 #@! TO.N,/GND*
X184930000Y-68500000D03*
G04 #@! TO.P,D1,2*
G04 #@! TO.N,/5V_IN*
X186930000Y-68500000D03*
D24*
G04 #@! TO.P,D1,1*
G04 #@! TO.N,Net-(D1-Pad1)*
X188930000Y-68500000D03*
G04 #@! TD*
D25*
G04 #@! TO.N,/3V3*
X176430000Y-104500000D03*
G04 #@! TO.N,/TX*
X186630000Y-75700000D03*
X183230000Y-75700000D03*
G04 #@! TO.N,/RX*
X188030000Y-76325000D03*
X183230000Y-74900000D03*
G04 #@! TO.N,/BTN_START*
X186630000Y-73300000D03*
X184230000Y-73300000D03*
G04 #@! TO.N,/BTN_STOP*
X161446000Y-105500000D03*
X158430000Y-99500000D03*
X186630000Y-72500000D03*
X183805736Y-72500000D03*
G04 #@! TO.N,/RESET*
X177930000Y-109000000D03*
X176328959Y-105601041D03*
X179500000Y-76000000D03*
G04 #@! TO.N,/PIXEL_RING_PIN*
X197960000Y-69375000D03*
X197960000Y-72125000D03*
G04 #@! TO.N,/GND*
X206430000Y-104500000D03*
G04 #@! TD*
D26*
G04 #@! TO.N,/3V3*
X176500000Y-95000000D02*
X172900000Y-95000000D01*
X176500000Y-95000000D02*
X178930000Y-95000000D01*
X172900000Y-95000000D02*
X161930000Y-95000000D01*
X161930000Y-95000000D02*
X160050000Y-93120000D01*
X161430000Y-88000000D02*
X160480000Y-88950000D01*
X164150000Y-88000000D02*
X161430000Y-88000000D01*
X160480000Y-88950000D02*
X160480000Y-89500000D01*
X166550000Y-89500000D02*
X165650000Y-89500000D01*
X165650000Y-89500000D02*
X164150000Y-88000000D01*
X160050000Y-91380000D02*
X160050000Y-93120000D01*
X160480000Y-90950000D02*
X160050000Y-91380000D01*
X160480000Y-89500000D02*
X160480000Y-90950000D01*
X172030019Y-101722801D02*
X173380019Y-103072801D01*
X172030019Y-100372801D02*
X172030019Y-101722801D01*
X175002801Y-103072801D02*
X176430000Y-104500000D01*
X173380019Y-103072801D02*
X175002801Y-103072801D01*
X172900000Y-95000000D02*
X172900000Y-97402820D01*
X172030019Y-98272801D02*
X172030019Y-100372801D01*
X172900000Y-97402820D02*
X172030019Y-98272801D01*
D27*
G04 #@! TO.N,/TX*
X168930000Y-86500000D02*
X167500000Y-86500000D01*
X169500000Y-79500000D02*
X169500000Y-85930000D01*
X169500000Y-85930000D02*
X168930000Y-86500000D01*
X169500000Y-75630000D02*
X169500000Y-79500000D01*
X182268601Y-75700000D02*
X180518610Y-73950009D01*
X183230000Y-75700000D02*
X182268601Y-75700000D01*
X171179991Y-73950009D02*
X169500000Y-75630000D01*
X180518610Y-73950009D02*
X171179991Y-73950009D01*
X209560000Y-65020000D02*
X209560000Y-63500000D01*
X208580000Y-66000000D02*
X209560000Y-65020000D01*
X206430000Y-66000000D02*
X208580000Y-66000000D01*
X205430000Y-69500000D02*
X205430000Y-67000000D01*
X197302820Y-71000000D02*
X203930000Y-71000000D01*
X196730018Y-71572802D02*
X197302820Y-71000000D01*
X196730018Y-72276804D02*
X196730018Y-71572802D01*
X205430000Y-67000000D02*
X206430000Y-66000000D01*
X191430000Y-75700000D02*
X192230000Y-74900000D01*
X192230000Y-73900000D02*
X192729980Y-73400020D01*
X203930000Y-71000000D02*
X205430000Y-69500000D01*
X192230000Y-74900000D02*
X192230000Y-73900000D01*
X192729980Y-73400020D02*
X195606802Y-73400020D01*
X186630000Y-75700000D02*
X191430000Y-75700000D01*
X195606802Y-73400020D02*
X196730018Y-72276804D01*
G04 #@! TO.N,/RX*
X162080000Y-86500000D02*
X161430000Y-86500000D01*
X165030000Y-86500000D02*
X162080000Y-86500000D01*
X167430000Y-84100000D02*
X165030000Y-86500000D01*
X167430000Y-83000000D02*
X167430000Y-84100000D01*
X204430000Y-71500000D02*
X199430000Y-71500000D01*
X212100000Y-63500000D02*
X212100000Y-64008000D01*
X212100000Y-64008000D02*
X209608000Y-66500000D01*
X209608000Y-66500000D02*
X206930000Y-66500000D01*
X205930000Y-70000000D02*
X204430000Y-71500000D01*
X206930000Y-66500000D02*
X205930000Y-67500000D01*
X205930000Y-67500000D02*
X205930000Y-70000000D01*
X197630000Y-71500000D02*
X197180028Y-71949972D01*
X199430000Y-71500000D02*
X197630000Y-71500000D01*
X197180027Y-72463205D02*
X195743232Y-73900000D01*
X197180028Y-71949972D02*
X197180027Y-72463205D01*
X192680010Y-74249990D02*
X192680009Y-75086401D01*
X195743232Y-73900000D02*
X193030000Y-73900000D01*
X193030000Y-73900000D02*
X192680010Y-74249990D01*
X192680009Y-75086401D02*
X191441420Y-76324990D01*
X191441420Y-76324990D02*
X188030010Y-76324990D01*
X188030010Y-76324990D02*
X188030000Y-76325000D01*
X167430000Y-75100000D02*
X167430000Y-83000000D01*
X169055005Y-73474995D02*
X167430000Y-75100000D01*
X180680006Y-73474995D02*
X169055005Y-73474995D01*
X183230000Y-74900000D02*
X182105011Y-74900000D01*
X182105011Y-74900000D02*
X180680006Y-73474995D01*
D26*
G04 #@! TO.N,/5V*
X166746000Y-111600000D02*
X173246000Y-111600000D01*
X157896000Y-111700000D02*
X151396000Y-111700000D01*
X157896000Y-111700000D02*
X160596000Y-109000000D01*
X164146000Y-109000000D02*
X166746000Y-111600000D01*
X160596000Y-109000000D02*
X164146000Y-109000000D01*
X165500000Y-79500000D02*
X165500000Y-80930000D01*
X174245999Y-110600001D02*
X174245999Y-109184001D01*
X173246000Y-111600000D02*
X174245999Y-110600001D01*
X174245999Y-109184001D02*
X175654990Y-107775010D01*
X175654990Y-107775010D02*
X185205010Y-107775010D01*
X160596000Y-95166000D02*
X160596000Y-109000000D01*
X158930000Y-93500000D02*
X160596000Y-95166000D01*
X186700000Y-109270000D02*
X186700000Y-111760000D01*
X185205010Y-107775010D02*
X186700000Y-109270000D01*
X165500000Y-71374000D02*
X165500000Y-79500000D01*
X165500000Y-82902820D02*
X165500000Y-80930000D01*
X164730019Y-83672801D02*
X165500000Y-82902820D01*
X163230019Y-83672801D02*
X164730019Y-83672801D01*
X160730000Y-83672801D02*
X158930000Y-85472801D01*
X163230019Y-83672801D02*
X160730000Y-83672801D01*
X158930000Y-85472801D02*
X158930000Y-93500000D01*
X186696000Y-79834000D02*
X186696000Y-83566000D01*
X186696000Y-83566000D02*
X186700000Y-111760000D01*
X200315000Y-73040000D02*
X199330000Y-74025000D01*
X208060000Y-73040000D02*
X200315000Y-73040000D01*
X198755000Y-77000000D02*
X189530000Y-77000000D01*
X199330000Y-74025000D02*
X199330000Y-76425000D01*
X189530000Y-77000000D02*
X186696000Y-79834000D01*
X199330000Y-76425000D02*
X198755000Y-77000000D01*
D27*
G04 #@! TO.N,/BTN_START*
X166746000Y-107100000D02*
X173246000Y-107100000D01*
X180930000Y-106000000D02*
X179830000Y-107100000D01*
X180930000Y-102500000D02*
X180930000Y-106000000D01*
X179830000Y-107100000D02*
X173246000Y-107100000D01*
X203430000Y-70500000D02*
X198430000Y-70500000D01*
X207020000Y-65410000D02*
X206930000Y-65500000D01*
X207020000Y-63500000D02*
X207020000Y-65410000D01*
X206930000Y-65500000D02*
X206293590Y-65500000D01*
X206293590Y-65500000D02*
X204930000Y-66863590D01*
X204930000Y-66863590D02*
X204930000Y-69000000D01*
X204930000Y-69000000D02*
X203430000Y-70500000D01*
X183230000Y-101300000D02*
X182130000Y-101300000D01*
X184230000Y-74300000D02*
X184404990Y-74474990D01*
X182130000Y-101300000D02*
X180930000Y-102500000D01*
X184230000Y-73300000D02*
X184230000Y-74300000D01*
X184404990Y-100125010D02*
X183230000Y-101300000D01*
X184404990Y-74474990D02*
X184404990Y-100125010D01*
X196280009Y-72090403D02*
X196280009Y-71250010D01*
X195420403Y-72950009D02*
X196280009Y-72090403D01*
X192680010Y-72950010D02*
X195420403Y-72950009D01*
X198430000Y-70500000D02*
X197030019Y-70500000D01*
X196280009Y-71250010D02*
X197030019Y-70500000D01*
X191880010Y-72150010D02*
X192680010Y-72950010D01*
X186630000Y-73300000D02*
X186755002Y-73300000D01*
X187904992Y-72150010D02*
X191880010Y-72150010D01*
X186755002Y-73300000D02*
X187904992Y-72150010D01*
G04 #@! TO.N,/BTN_STOP*
X152810213Y-107200000D02*
X157896000Y-107200000D01*
X151396000Y-107200000D02*
X152810213Y-107200000D01*
X180430000Y-102363590D02*
X180430000Y-105500000D01*
X180430000Y-105500000D02*
X179430000Y-106500000D01*
X179430000Y-106500000D02*
X175930000Y-106500000D01*
X175930000Y-106500000D02*
X174930000Y-105500000D01*
X174930000Y-105500000D02*
X165930000Y-105500000D01*
X165930000Y-105500000D02*
X161446000Y-105500000D01*
X158430000Y-99500000D02*
X158430000Y-101000000D01*
X157896000Y-101534000D02*
X157896000Y-107200000D01*
X158430000Y-101000000D02*
X157896000Y-101534000D01*
X204480000Y-68450000D02*
X202930000Y-70000000D01*
X204480000Y-63500000D02*
X204480000Y-68450000D01*
X202930000Y-70000000D02*
X197930000Y-70000000D01*
X197930000Y-70000000D02*
X196730000Y-70000000D01*
X196730000Y-70000000D02*
X195830000Y-70900000D01*
X195830000Y-71904002D02*
X195234002Y-72500000D01*
X195830000Y-70900000D02*
X195830000Y-71904002D01*
X195234002Y-72500000D02*
X193030000Y-72500000D01*
X193030000Y-72500000D02*
X192230000Y-71700000D01*
X192230000Y-71700000D02*
X187430000Y-71700000D01*
X187430000Y-71700000D02*
X186630000Y-72500000D01*
X182930000Y-99863590D02*
X182830000Y-99963590D01*
X182830000Y-99963590D02*
X180430000Y-102363590D01*
X183855001Y-98938589D02*
X182830000Y-99963590D01*
X183855001Y-74599999D02*
X183855001Y-98938589D01*
X183805736Y-72500000D02*
X183430000Y-72875736D01*
X183430000Y-74174998D02*
X183855001Y-74599999D01*
X183430000Y-72875736D02*
X183430000Y-74174998D01*
G04 #@! TO.N,/BUZZER*
X201940000Y-109490000D02*
X201940000Y-111760000D01*
X202930000Y-108500000D02*
X201940000Y-109490000D01*
X204030019Y-106572782D02*
X202930000Y-107672801D01*
X204030019Y-104672801D02*
X204030019Y-106572782D01*
X202930000Y-107672801D02*
X202930000Y-108500000D01*
G04 #@! TO.N,/RESET*
X173000000Y-72000000D02*
X179500000Y-72000000D01*
X179868000Y-109500000D02*
X181620000Y-111252000D01*
X181620000Y-111252000D02*
X181620000Y-111760000D01*
X177930000Y-109000000D02*
X178430000Y-109500000D01*
X178430000Y-109500000D02*
X179868000Y-109500000D01*
X176401961Y-105601041D02*
X176328959Y-105601041D01*
X179930000Y-102073002D02*
X176401961Y-105601041D01*
X180056998Y-102073002D02*
X179930000Y-102073002D01*
X179500000Y-82070000D02*
X180330000Y-82900000D01*
X179500000Y-76000000D02*
X179500000Y-82070000D01*
X183230000Y-84000000D02*
X183230000Y-98900000D01*
X180330000Y-82900000D02*
X182130000Y-82900000D01*
X183230000Y-98900000D02*
X180056998Y-102073002D01*
X182130000Y-82900000D02*
X183230000Y-84000000D01*
G04 #@! TO.N,/DIN*
X172900000Y-91000000D02*
X176500000Y-91000000D01*
X171430000Y-89530000D02*
X172900000Y-91000000D01*
X176500000Y-91000000D02*
X178930000Y-91000000D01*
X168450000Y-89500000D02*
X171430000Y-89500000D01*
X171430000Y-89500000D02*
X171430000Y-89530000D01*
G04 #@! TO.N,/DOUT*
X162380000Y-90700000D02*
X162380000Y-89500000D01*
X172900000Y-93000000D02*
X171930000Y-93000000D01*
X171430000Y-91500000D02*
X170930000Y-91000000D01*
X171930000Y-93000000D02*
X171430000Y-92500000D01*
X171430000Y-92500000D02*
X171430000Y-91500000D01*
X170930000Y-91000000D02*
X162680000Y-91000000D01*
X162680000Y-91000000D02*
X162380000Y-90700000D01*
X179557199Y-100372801D02*
X176030019Y-100372801D01*
X181930000Y-98000000D02*
X179557199Y-100372801D01*
X181930000Y-94000000D02*
X181930000Y-98000000D01*
X172900000Y-93000000D02*
X180930000Y-93000000D01*
X180930000Y-93000000D02*
X181930000Y-94000000D01*
G04 #@! TO.N,/PIXEL_RING_PIN*
X196860000Y-63500000D02*
X196860000Y-65020000D01*
X196860000Y-65020000D02*
X196860000Y-66600000D01*
X196860000Y-66600000D02*
X197960000Y-67700000D01*
X197960000Y-67700000D02*
X197960000Y-69375000D01*
X197960000Y-72125000D02*
X197960000Y-72549264D01*
X197330000Y-73179264D02*
X197330000Y-75225000D01*
X197960000Y-72549264D02*
X197330000Y-73179264D01*
G04 #@! TO.N,/PIXEL_STRIP_PIN*
X194320000Y-63500000D02*
X194320000Y-66500000D01*
G04 #@! TO.N,Net-(D2-Pad4)*
X202813000Y-78808000D02*
X207192000Y-78808000D01*
X201330000Y-75225000D02*
X201330000Y-77325000D01*
X201330000Y-77325000D02*
X202813000Y-78808000D01*
D28*
G04 #@! TO.N,/5V_IN*
X161206000Y-77748000D02*
X161206000Y-75794000D01*
X185430000Y-71850000D02*
X185430000Y-100570000D01*
X186930000Y-70350000D02*
X185430000Y-71850000D01*
X185430000Y-100570000D02*
X182808000Y-103192000D01*
X186930000Y-68500000D02*
X186930000Y-70350000D01*
D27*
G04 #@! TO.N,/GND*
X206930000Y-104500000D02*
X206430000Y-104500000D01*
X208380000Y-102500000D02*
X208380000Y-103050000D01*
X208380000Y-103050000D02*
X206930000Y-104500000D01*
D28*
X152853000Y-76895000D02*
X153706000Y-77748000D01*
X152853000Y-66000000D02*
X152853000Y-76895000D01*
D27*
G04 #@! TO.N,Net-(LS1-Pad1)*
X197930000Y-93000000D02*
X194500000Y-93000000D01*
X207930000Y-91500000D02*
X199430000Y-91500000D01*
X194500000Y-93000000D02*
X192500000Y-91000000D01*
X199430000Y-91500000D02*
X197930000Y-93000000D01*
X207930000Y-91500000D02*
X208930000Y-92500000D01*
X208930000Y-92500000D02*
X208930000Y-95500000D01*
X208930000Y-95500000D02*
X210430000Y-97000000D01*
X210430000Y-98250000D02*
X209180000Y-99500000D01*
X210430000Y-97000000D02*
X210430000Y-98250000D01*
X209180000Y-99500000D02*
X207430000Y-99500000D01*
X211930000Y-95500000D02*
X210430000Y-97000000D01*
X211430000Y-91000000D02*
X211930000Y-91500000D01*
X210566410Y-91000000D02*
X211430000Y-91000000D01*
X211930000Y-91500000D02*
X211930000Y-95500000D01*
X209430000Y-89863590D02*
X210566410Y-91000000D01*
X211930000Y-71830000D02*
X211930000Y-72000000D01*
X208060000Y-67960000D02*
X211930000Y-71830000D01*
X211930000Y-79136410D02*
X209430000Y-81636410D01*
X211930000Y-75000000D02*
X211930000Y-79136410D01*
X211930000Y-75000000D02*
X211930000Y-75136410D01*
X211930000Y-72000000D02*
X211930000Y-75000000D01*
X209430000Y-81636410D02*
X209430000Y-89863590D01*
G04 #@! TO.N,Net-(Q3-PadB)*
X206480000Y-102500000D02*
X203430000Y-102500000D01*
X201280019Y-104672801D02*
X202030019Y-103922801D01*
X200030019Y-104672801D02*
X201280019Y-104672801D01*
X202030019Y-103922801D02*
X202030019Y-102972801D01*
X202502820Y-102500000D02*
X203430000Y-102500000D01*
X202030019Y-102972801D02*
X202502820Y-102500000D01*
G04 #@! TO.N,Net-(D1-Pad1)*
X188930000Y-69910000D02*
X188930000Y-68500000D01*
X194320000Y-70500000D02*
X189520000Y-70500000D01*
X189520000Y-70500000D02*
X188930000Y-69910000D01*
G04 #@! TO.N,/VOL_IN*
X208930000Y-89500000D02*
X207930000Y-90500000D01*
X207930000Y-90500000D02*
X198930000Y-90500000D01*
X198430000Y-91000000D02*
X197500000Y-91000000D01*
X198930000Y-90500000D02*
X198430000Y-91000000D01*
X207930000Y-90500000D02*
X209430000Y-90500000D01*
X210430000Y-91500000D02*
X210430000Y-93000000D01*
X209430000Y-90500000D02*
X210430000Y-91500000D01*
X211430000Y-73870000D02*
X211430000Y-74000000D01*
X208060000Y-70500000D02*
X211430000Y-73870000D01*
X211430000Y-74000000D02*
X211430000Y-75000000D01*
X211430000Y-75000000D02*
X211430000Y-79000000D01*
X211430000Y-79000000D02*
X208930000Y-81500000D01*
X208930000Y-81500000D02*
X208930000Y-89500000D01*
X197500000Y-90116117D02*
X197500000Y-91000000D01*
X196883883Y-89500000D02*
X197500000Y-90116117D01*
X205930000Y-100500000D02*
X205930000Y-98500000D01*
X206430000Y-101000000D02*
X205930000Y-100500000D01*
X205930000Y-98500000D02*
X207930000Y-96500000D01*
X192930000Y-92500000D02*
X191930000Y-92500000D01*
X207930000Y-96500000D02*
X207930000Y-93000000D01*
X191930000Y-89500000D02*
X196883883Y-89500000D01*
X207930000Y-93000000D02*
X207430000Y-92500000D01*
X207430000Y-92500000D02*
X199430000Y-92500000D01*
X193930000Y-93500000D02*
X192930000Y-92500000D01*
X199430000Y-92500000D02*
X198430000Y-93500000D01*
X198430000Y-93500000D02*
X193930000Y-93500000D01*
X191930000Y-92500000D02*
X190930000Y-91500000D01*
X190930000Y-91500000D02*
X190930000Y-90500000D01*
X190930000Y-90500000D02*
X191930000Y-89500000D01*
X206430000Y-101000000D02*
X209732000Y-101000000D01*
X209732000Y-101000000D02*
X209986000Y-101254000D01*
X209986000Y-102098000D02*
X209560000Y-102524000D01*
X209986000Y-101254000D02*
X209986000Y-102098000D01*
X209560000Y-111760000D02*
X209560000Y-102524000D01*
G04 #@! TD*
D29*
G04 #@! TO.N,/5V_IN*
G36*
X161903602Y-62367208D02*
X161617500Y-63057917D01*
X161617500Y-63942083D01*
X161955856Y-64758945D01*
X162581055Y-65384144D01*
X163397917Y-65722500D01*
X164282083Y-65722500D01*
X165053708Y-65402882D01*
X167226734Y-65398699D01*
X167396000Y-65432368D01*
X167568575Y-65398041D01*
X169742389Y-65393856D01*
X169936000Y-65432368D01*
X170133395Y-65393103D01*
X172258044Y-65389014D01*
X172476000Y-65432368D01*
X172698216Y-65388166D01*
X174773699Y-65384171D01*
X175016000Y-65432368D01*
X175263037Y-65383229D01*
X177289354Y-65379328D01*
X177556000Y-65432368D01*
X177827858Y-65378292D01*
X179805009Y-65374486D01*
X180096000Y-65432368D01*
X180392679Y-65373355D01*
X182320664Y-65369643D01*
X182636000Y-65432368D01*
X182957500Y-65368417D01*
X184836319Y-65364801D01*
X185176000Y-65432368D01*
X185522321Y-65363480D01*
X187203000Y-65360245D01*
X187203000Y-67085729D01*
X187057000Y-67181269D01*
X187057000Y-68373000D01*
X187077000Y-68373000D01*
X187077000Y-68627000D01*
X187057000Y-68627000D01*
X187057000Y-69818731D01*
X187203000Y-69914271D01*
X187203000Y-70440262D01*
X180042633Y-70455055D01*
X179825222Y-70365000D01*
X179174778Y-70365000D01*
X178951927Y-70457308D01*
X173574891Y-70468416D01*
X173325222Y-70365000D01*
X172674778Y-70365000D01*
X172419346Y-70470804D01*
X166690405Y-70482639D01*
X166570625Y-70303375D01*
X166548967Y-70288904D01*
X166709698Y-70222327D01*
X166888327Y-70043699D01*
X166985000Y-69810310D01*
X166985000Y-69119750D01*
X166826250Y-68961000D01*
X165627000Y-68961000D01*
X165627000Y-68981000D01*
X165373000Y-68981000D01*
X165373000Y-68961000D01*
X164173750Y-68961000D01*
X164015000Y-69119750D01*
X164015000Y-69810310D01*
X164111673Y-70043699D01*
X164290302Y-70222327D01*
X164451033Y-70288904D01*
X164429375Y-70303375D01*
X164101161Y-70794582D01*
X163985908Y-71374000D01*
X164101161Y-71953418D01*
X164429375Y-72444625D01*
X164472772Y-72473622D01*
X163632197Y-73314197D01*
X163604667Y-73355399D01*
X163595000Y-73404000D01*
X163595000Y-80204372D01*
X162715019Y-80974355D01*
X162715019Y-78958551D01*
X162556269Y-78799801D01*
X161207019Y-78799801D01*
X161207019Y-78819801D01*
X160953019Y-78819801D01*
X160953019Y-78799801D01*
X159603769Y-78799801D01*
X159445019Y-78958551D01*
X159445019Y-81913000D01*
X158769000Y-81913000D01*
X158769000Y-75396491D01*
X159445019Y-75396491D01*
X159445019Y-78387051D01*
X159603769Y-78545801D01*
X160953019Y-78545801D01*
X160953019Y-75046551D01*
X161207019Y-75046551D01*
X161207019Y-78545801D01*
X162556269Y-78545801D01*
X162715019Y-78387051D01*
X162715019Y-75396491D01*
X162618346Y-75163102D01*
X162439717Y-74984474D01*
X162206328Y-74887801D01*
X161365769Y-74887801D01*
X161207019Y-75046551D01*
X160953019Y-75046551D01*
X160794269Y-74887801D01*
X159953710Y-74887801D01*
X159720321Y-74984474D01*
X159541692Y-75163102D01*
X159445019Y-75396491D01*
X158769000Y-75396491D01*
X158769000Y-66127000D01*
X158980000Y-66127000D01*
X158980000Y-68226250D01*
X159138750Y-68385000D01*
X160729309Y-68385000D01*
X160962698Y-68288327D01*
X161141327Y-68109699D01*
X161238000Y-67876310D01*
X161238000Y-67857690D01*
X164015000Y-67857690D01*
X164015000Y-68548250D01*
X164173750Y-68707000D01*
X165373000Y-68707000D01*
X165373000Y-67507750D01*
X165627000Y-67507750D01*
X165627000Y-68707000D01*
X166826250Y-68707000D01*
X166985000Y-68548250D01*
X166985000Y-67857690D01*
X166888327Y-67624301D01*
X166709698Y-67445673D01*
X166476309Y-67349000D01*
X165785750Y-67349000D01*
X165627000Y-67507750D01*
X165373000Y-67507750D01*
X165214250Y-67349000D01*
X164523691Y-67349000D01*
X164290302Y-67445673D01*
X164111673Y-67624301D01*
X164015000Y-67857690D01*
X161238000Y-67857690D01*
X161238000Y-67174778D01*
X171365000Y-67174778D01*
X171365000Y-67825222D01*
X171613914Y-68426153D01*
X172073847Y-68886086D01*
X172674778Y-69135000D01*
X173325222Y-69135000D01*
X173926153Y-68886086D01*
X174386086Y-68426153D01*
X174635000Y-67825222D01*
X174635000Y-67174778D01*
X177865000Y-67174778D01*
X177865000Y-67825222D01*
X178113914Y-68426153D01*
X178573847Y-68886086D01*
X179174778Y-69135000D01*
X179825222Y-69135000D01*
X180426153Y-68886086D01*
X180886086Y-68426153D01*
X181009434Y-68128364D01*
X183695000Y-68128364D01*
X183695000Y-68871635D01*
X183766656Y-69231872D01*
X184039615Y-69640385D01*
X184448127Y-69913344D01*
X184930000Y-70009195D01*
X185411872Y-69913344D01*
X185820385Y-69640385D01*
X185937240Y-69465499D01*
X186100875Y-69681933D01*
X186520624Y-69928286D01*
X186612391Y-69943462D01*
X186803000Y-69818731D01*
X186803000Y-68627000D01*
X186783000Y-68627000D01*
X186783000Y-68373000D01*
X186803000Y-68373000D01*
X186803000Y-67181269D01*
X186612391Y-67056538D01*
X186520624Y-67071714D01*
X186100875Y-67318067D01*
X185937240Y-67534502D01*
X185820385Y-67359615D01*
X185411873Y-67086656D01*
X184930000Y-66990805D01*
X184448128Y-67086656D01*
X184039616Y-67359615D01*
X183766656Y-67768127D01*
X183695000Y-68128364D01*
X181009434Y-68128364D01*
X181135000Y-67825222D01*
X181135000Y-67174778D01*
X180886086Y-66573847D01*
X180426153Y-66113914D01*
X179825222Y-65865000D01*
X179174778Y-65865000D01*
X178573847Y-66113914D01*
X178113914Y-66573847D01*
X177865000Y-67174778D01*
X174635000Y-67174778D01*
X174386086Y-66573847D01*
X173926153Y-66113914D01*
X173325222Y-65865000D01*
X172674778Y-65865000D01*
X172073847Y-66113914D01*
X171613914Y-66573847D01*
X171365000Y-67174778D01*
X161238000Y-67174778D01*
X161238000Y-66285750D01*
X161079250Y-66127000D01*
X158980000Y-66127000D01*
X158769000Y-66127000D01*
X158769000Y-63773750D01*
X158980000Y-63773750D01*
X158980000Y-65873000D01*
X161079250Y-65873000D01*
X161238000Y-65714250D01*
X161238000Y-64123690D01*
X161141327Y-63890301D01*
X160962698Y-63711673D01*
X160729309Y-63615000D01*
X159138750Y-63615000D01*
X158980000Y-63773750D01*
X158769000Y-63773750D01*
X158769000Y-62101000D01*
X161637394Y-62101000D01*
X161903602Y-62367208D01*
X161903602Y-62367208D01*
G37*
X161903602Y-62367208D02*
X161617500Y-63057917D01*
X161617500Y-63942083D01*
X161955856Y-64758945D01*
X162581055Y-65384144D01*
X163397917Y-65722500D01*
X164282083Y-65722500D01*
X165053708Y-65402882D01*
X167226734Y-65398699D01*
X167396000Y-65432368D01*
X167568575Y-65398041D01*
X169742389Y-65393856D01*
X169936000Y-65432368D01*
X170133395Y-65393103D01*
X172258044Y-65389014D01*
X172476000Y-65432368D01*
X172698216Y-65388166D01*
X174773699Y-65384171D01*
X175016000Y-65432368D01*
X175263037Y-65383229D01*
X177289354Y-65379328D01*
X177556000Y-65432368D01*
X177827858Y-65378292D01*
X179805009Y-65374486D01*
X180096000Y-65432368D01*
X180392679Y-65373355D01*
X182320664Y-65369643D01*
X182636000Y-65432368D01*
X182957500Y-65368417D01*
X184836319Y-65364801D01*
X185176000Y-65432368D01*
X185522321Y-65363480D01*
X187203000Y-65360245D01*
X187203000Y-67085729D01*
X187057000Y-67181269D01*
X187057000Y-68373000D01*
X187077000Y-68373000D01*
X187077000Y-68627000D01*
X187057000Y-68627000D01*
X187057000Y-69818731D01*
X187203000Y-69914271D01*
X187203000Y-70440262D01*
X180042633Y-70455055D01*
X179825222Y-70365000D01*
X179174778Y-70365000D01*
X178951927Y-70457308D01*
X173574891Y-70468416D01*
X173325222Y-70365000D01*
X172674778Y-70365000D01*
X172419346Y-70470804D01*
X166690405Y-70482639D01*
X166570625Y-70303375D01*
X166548967Y-70288904D01*
X166709698Y-70222327D01*
X166888327Y-70043699D01*
X166985000Y-69810310D01*
X166985000Y-69119750D01*
X166826250Y-68961000D01*
X165627000Y-68961000D01*
X165627000Y-68981000D01*
X165373000Y-68981000D01*
X165373000Y-68961000D01*
X164173750Y-68961000D01*
X164015000Y-69119750D01*
X164015000Y-69810310D01*
X164111673Y-70043699D01*
X164290302Y-70222327D01*
X164451033Y-70288904D01*
X164429375Y-70303375D01*
X164101161Y-70794582D01*
X163985908Y-71374000D01*
X164101161Y-71953418D01*
X164429375Y-72444625D01*
X164472772Y-72473622D01*
X163632197Y-73314197D01*
X163604667Y-73355399D01*
X163595000Y-73404000D01*
X163595000Y-80204372D01*
X162715019Y-80974355D01*
X162715019Y-78958551D01*
X162556269Y-78799801D01*
X161207019Y-78799801D01*
X161207019Y-78819801D01*
X160953019Y-78819801D01*
X160953019Y-78799801D01*
X159603769Y-78799801D01*
X159445019Y-78958551D01*
X159445019Y-81913000D01*
X158769000Y-81913000D01*
X158769000Y-75396491D01*
X159445019Y-75396491D01*
X159445019Y-78387051D01*
X159603769Y-78545801D01*
X160953019Y-78545801D01*
X160953019Y-75046551D01*
X161207019Y-75046551D01*
X161207019Y-78545801D01*
X162556269Y-78545801D01*
X162715019Y-78387051D01*
X162715019Y-75396491D01*
X162618346Y-75163102D01*
X162439717Y-74984474D01*
X162206328Y-74887801D01*
X161365769Y-74887801D01*
X161207019Y-75046551D01*
X160953019Y-75046551D01*
X160794269Y-74887801D01*
X159953710Y-74887801D01*
X159720321Y-74984474D01*
X159541692Y-75163102D01*
X159445019Y-75396491D01*
X158769000Y-75396491D01*
X158769000Y-66127000D01*
X158980000Y-66127000D01*
X158980000Y-68226250D01*
X159138750Y-68385000D01*
X160729309Y-68385000D01*
X160962698Y-68288327D01*
X161141327Y-68109699D01*
X161238000Y-67876310D01*
X161238000Y-67857690D01*
X164015000Y-67857690D01*
X164015000Y-68548250D01*
X164173750Y-68707000D01*
X165373000Y-68707000D01*
X165373000Y-67507750D01*
X165627000Y-67507750D01*
X165627000Y-68707000D01*
X166826250Y-68707000D01*
X166985000Y-68548250D01*
X166985000Y-67857690D01*
X166888327Y-67624301D01*
X166709698Y-67445673D01*
X166476309Y-67349000D01*
X165785750Y-67349000D01*
X165627000Y-67507750D01*
X165373000Y-67507750D01*
X165214250Y-67349000D01*
X164523691Y-67349000D01*
X164290302Y-67445673D01*
X164111673Y-67624301D01*
X164015000Y-67857690D01*
X161238000Y-67857690D01*
X161238000Y-67174778D01*
X171365000Y-67174778D01*
X171365000Y-67825222D01*
X171613914Y-68426153D01*
X172073847Y-68886086D01*
X172674778Y-69135000D01*
X173325222Y-69135000D01*
X173926153Y-68886086D01*
X174386086Y-68426153D01*
X174635000Y-67825222D01*
X174635000Y-67174778D01*
X177865000Y-67174778D01*
X177865000Y-67825222D01*
X178113914Y-68426153D01*
X178573847Y-68886086D01*
X179174778Y-69135000D01*
X179825222Y-69135000D01*
X180426153Y-68886086D01*
X180886086Y-68426153D01*
X181009434Y-68128364D01*
X183695000Y-68128364D01*
X183695000Y-68871635D01*
X183766656Y-69231872D01*
X184039615Y-69640385D01*
X184448127Y-69913344D01*
X184930000Y-70009195D01*
X185411872Y-69913344D01*
X185820385Y-69640385D01*
X185937240Y-69465499D01*
X186100875Y-69681933D01*
X186520624Y-69928286D01*
X186612391Y-69943462D01*
X186803000Y-69818731D01*
X186803000Y-68627000D01*
X186783000Y-68627000D01*
X186783000Y-68373000D01*
X186803000Y-68373000D01*
X186803000Y-67181269D01*
X186612391Y-67056538D01*
X186520624Y-67071714D01*
X186100875Y-67318067D01*
X185937240Y-67534502D01*
X185820385Y-67359615D01*
X185411873Y-67086656D01*
X184930000Y-66990805D01*
X184448128Y-67086656D01*
X184039616Y-67359615D01*
X183766656Y-67768127D01*
X183695000Y-68128364D01*
X181009434Y-68128364D01*
X181135000Y-67825222D01*
X181135000Y-67174778D01*
X180886086Y-66573847D01*
X180426153Y-66113914D01*
X179825222Y-65865000D01*
X179174778Y-65865000D01*
X178573847Y-66113914D01*
X178113914Y-66573847D01*
X177865000Y-67174778D01*
X174635000Y-67174778D01*
X174386086Y-66573847D01*
X173926153Y-66113914D01*
X173325222Y-65865000D01*
X172674778Y-65865000D01*
X172073847Y-66113914D01*
X171613914Y-66573847D01*
X171365000Y-67174778D01*
X161238000Y-67174778D01*
X161238000Y-66285750D01*
X161079250Y-66127000D01*
X158980000Y-66127000D01*
X158769000Y-66127000D01*
X158769000Y-63773750D01*
X158980000Y-63773750D01*
X158980000Y-65873000D01*
X161079250Y-65873000D01*
X161238000Y-65714250D01*
X161238000Y-64123690D01*
X161141327Y-63890301D01*
X160962698Y-63711673D01*
X160729309Y-63615000D01*
X159138750Y-63615000D01*
X158980000Y-63773750D01*
X158769000Y-63773750D01*
X158769000Y-62101000D01*
X161637394Y-62101000D01*
X161903602Y-62367208D01*
G04 #@! TD*
M02*
