G04 #@! TF.GenerationSoftware,KiCad,Pcbnew,5.0.1*
G04 #@! TF.CreationDate,2019-02-08T09:42:00-06:00*
G04 #@! TF.ProjectId,tomato_timer,746F6D61746F5F74696D65722E6B6963,rev?*
G04 #@! TF.SameCoordinates,Original*
G04 #@! TF.FileFunction,Copper,L2,Bot,Signal*
G04 #@! TF.FilePolarity,Positive*
%FSLAX46Y46*%
G04 Gerber Fmt 4.6, Leading zero omitted, Abs format (unit mm)*
G04 Created by KiCad (PCBNEW 5.0.1) date Fri 08 Feb 2019 09:42:00 AM CST*
%MOMM*%
%LPD*%
G01*
G04 APERTURE LIST*
G04 #@! TA.AperFunction,SMDPad,CuDef*
%ADD10R,1.500000X1.250000*%
G04 #@! TD*
G04 #@! TA.AperFunction,SMDPad,CuDef*
%ADD11R,1.250000X1.500000*%
G04 #@! TD*
G04 #@! TA.AperFunction,ComponentPad*
%ADD12C,1.524000*%
G04 #@! TD*
G04 #@! TA.AperFunction,ComponentPad*
%ADD13O,1.700000X1.700000*%
G04 #@! TD*
G04 #@! TA.AperFunction,ComponentPad*
%ADD14R,1.700000X1.700000*%
G04 #@! TD*
G04 #@! TA.AperFunction,ComponentPad*
%ADD15C,2.000000*%
G04 #@! TD*
G04 #@! TA.AperFunction,ComponentPad*
%ADD16C,1.250000*%
G04 #@! TD*
G04 #@! TA.AperFunction,ComponentPad*
%ADD17R,1.524000X1.524000*%
G04 #@! TD*
G04 #@! TA.AperFunction,ComponentPad*
%ADD18R,3.500000X3.500000*%
G04 #@! TD*
G04 #@! TA.AperFunction,ComponentPad*
%ADD19C,1.700000*%
G04 #@! TD*
G04 #@! TA.AperFunction,ComponentPad*
%ADD20O,1.524000X2.540000*%
G04 #@! TD*
G04 #@! TA.AperFunction,SMDPad,CuDef*
%ADD21R,2.000000X1.700000*%
G04 #@! TD*
G04 #@! TA.AperFunction,ViaPad*
%ADD22C,0.600000*%
G04 #@! TD*
G04 #@! TA.AperFunction,Conductor*
%ADD23C,0.500000*%
G04 #@! TD*
G04 #@! TA.AperFunction,Conductor*
%ADD24C,0.250000*%
G04 #@! TD*
G04 #@! TA.AperFunction,Conductor*
%ADD25C,1.000000*%
G04 #@! TD*
G04 #@! TA.AperFunction,Conductor*
%ADD26C,0.254000*%
G04 #@! TD*
G04 APERTURE END LIST*
D10*
G04 #@! TO.P,C3,1*
G04 #@! TO.N,/GND*
X189250000Y-108000000D03*
G04 #@! TO.P,C3,2*
G04 #@! TO.N,/5V*
X186750000Y-108000000D03*
G04 #@! TD*
D11*
G04 #@! TO.P,C1,1*
G04 #@! TO.N,/GND*
X170430000Y-92500000D03*
G04 #@! TO.P,C1,2*
G04 #@! TO.N,/3V3*
X170430000Y-95000000D03*
G04 #@! TD*
D12*
G04 #@! TO.P,D1,3*
G04 #@! TO.N,/5V_IN*
X184620000Y-70000000D03*
G04 #@! TO.P,D1,2*
G04 #@! TO.N,/GND_IN*
X187160000Y-70000000D03*
G04 #@! TO.P,D1,4*
G04 #@! TO.N,Net-(D1-Pad4)*
X189700000Y-70000000D03*
G04 #@! TO.P,D1,1*
G04 #@! TO.N,N/C*
X192240000Y-70000000D03*
G04 #@! TD*
D13*
G04 #@! TO.P,JP1,2*
G04 #@! TO.N,/GND*
X167470000Y-67500000D03*
D14*
G04 #@! TO.P,JP1,1*
G04 #@! TO.N,/GND_IN*
X164930000Y-67500000D03*
G04 #@! TD*
D15*
G04 #@! TO.P,SW2,2*
G04 #@! TO.N,/GND*
X179500000Y-67500000D03*
G04 #@! TO.P,SW2,1*
G04 #@! TO.N,/RESET*
X179500000Y-72000000D03*
G04 #@! TO.P,SW2,2*
G04 #@! TO.N,/GND*
X173000000Y-67500000D03*
G04 #@! TO.P,SW2,1*
G04 #@! TO.N,/RESET*
X173000000Y-72000000D03*
G04 #@! TD*
G04 #@! TO.P,SW3,2*
G04 #@! TO.N,/BTN_START*
X173246000Y-107100000D03*
G04 #@! TO.P,SW3,1*
G04 #@! TO.N,/5V*
X173246000Y-111600000D03*
G04 #@! TO.P,SW3,2*
G04 #@! TO.N,/BTN_START*
X166746000Y-107100000D03*
G04 #@! TO.P,SW3,1*
G04 #@! TO.N,/5V*
X166746000Y-111600000D03*
G04 #@! TD*
G04 #@! TO.P,SW4,2*
G04 #@! TO.N,/BTN_STOP*
X157896000Y-107200000D03*
G04 #@! TO.P,SW4,1*
G04 #@! TO.N,/5V*
X157896000Y-111700000D03*
G04 #@! TO.P,SW4,2*
G04 #@! TO.N,/BTN_STOP*
X151396000Y-107200000D03*
G04 #@! TO.P,SW4,1*
G04 #@! TO.N,/5V*
X151396000Y-111700000D03*
G04 #@! TD*
D16*
G04 #@! TO.P,LS1,1*
G04 #@! TO.N,/GND*
X192500000Y-91000000D03*
G04 #@! TO.P,LS1,2*
G04 #@! TO.N,Net-(LS1-Pad2)*
X197500000Y-91000000D03*
G04 #@! TD*
D12*
G04 #@! TO.P,U1,11*
G04 #@! TO.N,N/C*
X150900000Y-77000000D03*
G04 #@! TO.P,U1,12*
X150900000Y-79000000D03*
G04 #@! TO.P,U1,13*
X150900000Y-81000000D03*
G04 #@! TO.P,U1,14*
X150900000Y-83000000D03*
G04 #@! TO.P,U1,15*
X150900000Y-85000000D03*
G04 #@! TO.P,U1,16*
X150900000Y-87000000D03*
G04 #@! TO.P,U1,17*
X150900000Y-89000000D03*
G04 #@! TO.P,U1,18*
X150900000Y-91000000D03*
G04 #@! TO.P,U1,19*
X150900000Y-93000000D03*
G04 #@! TO.P,U1,20*
X150900000Y-95000000D03*
G04 #@! TO.P,U1,10*
G04 #@! TO.N,/GND*
X172900000Y-77000000D03*
G04 #@! TO.P,U1,9*
G04 #@! TO.N,N/C*
X172900000Y-79000000D03*
G04 #@! TO.P,U1,8*
X172900000Y-81000000D03*
G04 #@! TO.P,U1,7*
X172900000Y-83000000D03*
G04 #@! TO.P,U1,6*
X172900000Y-85000000D03*
G04 #@! TO.P,U1,5*
X172900000Y-87000000D03*
G04 #@! TO.P,U1,4*
X172900000Y-89000000D03*
G04 #@! TO.P,U1,3*
G04 #@! TO.N,/DIN*
X172900000Y-91000000D03*
G04 #@! TO.P,U1,2*
G04 #@! TO.N,/DOUT*
X172900000Y-93000000D03*
D17*
G04 #@! TO.P,U1,1*
G04 #@! TO.N,/3V3*
X172900000Y-95000000D03*
G04 #@! TD*
D18*
G04 #@! TO.P,J1,3*
G04 #@! TO.N,N/C*
X156646000Y-70700000D03*
G04 #@! TO.P,J1,2*
G04 #@! TO.N,/GND_IN*
X153646000Y-66000000D03*
G04 #@! TO.P,J1,1*
G04 #@! TO.N,/5V_IN*
X159646000Y-66000000D03*
G04 #@! TD*
D14*
G04 #@! TO.P,JP2,1*
G04 #@! TO.N,/5V_IN*
X165000000Y-72000000D03*
D13*
G04 #@! TO.P,JP2,2*
G04 #@! TO.N,/5V*
X167540000Y-72000000D03*
G04 #@! TD*
D19*
G04 #@! TO.P,D2,4*
G04 #@! TO.N,Net-(D2-Pad4)*
X207192000Y-78808000D03*
G04 #@! TO.P,D2,1*
G04 #@! TO.N,N/C*
X190682000Y-74236000D03*
G04 #@! TO.P,D2,2*
G04 #@! TO.N,/GND_IN*
X199318000Y-107764000D03*
G04 #@! TO.P,D2,3*
G04 #@! TO.N,/5V_IN*
X182808000Y-103192000D03*
G04 #@! TD*
D12*
G04 #@! TO.P,RV1,2*
G04 #@! TO.N,Net-(LS1-Pad2)*
X209930000Y-71000000D03*
G04 #@! TO.P,RV1,3*
G04 #@! TO.N,/BUZZER*
X209930000Y-73540000D03*
G04 #@! TO.P,RV1,1*
G04 #@! TO.N,/GND*
X209930000Y-68460000D03*
G04 #@! TD*
D20*
G04 #@! TO.P,TOMATO_SHIELD1,AD5*
G04 #@! TO.N,N/C*
X212100000Y-111760000D03*
G04 #@! TO.P,TOMATO_SHIELD1,AD4*
X209560000Y-111760000D03*
G04 #@! TO.P,TOMATO_SHIELD1,AD3*
X207020000Y-111760000D03*
G04 #@! TO.P,TOMATO_SHIELD1,AD0*
G04 #@! TO.N,/BUZZER*
X199400000Y-111760000D03*
G04 #@! TO.P,TOMATO_SHIELD1,AD1*
G04 #@! TO.N,N/C*
X201940000Y-111760000D03*
G04 #@! TO.P,TOMATO_SHIELD1,AD2*
X204480000Y-111760000D03*
G04 #@! TO.P,TOMATO_SHIELD1,V_IN*
X194320000Y-111760000D03*
G04 #@! TO.P,TOMATO_SHIELD1,GND2*
G04 #@! TO.N,/GND*
X191780000Y-111760000D03*
G04 #@! TO.P,TOMATO_SHIELD1,GND1*
X189240000Y-111760000D03*
G04 #@! TO.P,TOMATO_SHIELD1,3V3*
G04 #@! TO.N,/3V3*
X184160000Y-111760000D03*
G04 #@! TO.P,TOMATO_SHIELD1,RST*
G04 #@! TO.N,/RESET*
X181620000Y-111760000D03*
G04 #@! TO.P,TOMATO_SHIELD1,0*
G04 #@! TO.N,/RX*
X212100000Y-63500000D03*
G04 #@! TO.P,TOMATO_SHIELD1,1*
G04 #@! TO.N,/TX*
X209560000Y-63500000D03*
G04 #@! TO.P,TOMATO_SHIELD1,2*
G04 #@! TO.N,/BTN_START*
X207020000Y-63500000D03*
G04 #@! TO.P,TOMATO_SHIELD1,3*
G04 #@! TO.N,/BTN_STOP*
X204480000Y-63500000D03*
G04 #@! TO.P,TOMATO_SHIELD1,4*
G04 #@! TO.N,N/C*
X201940000Y-63500000D03*
G04 #@! TO.P,TOMATO_SHIELD1,5*
X199400000Y-63500000D03*
G04 #@! TO.P,TOMATO_SHIELD1,6*
G04 #@! TO.N,/PIXEL_RING_PIN*
X196860000Y-63500000D03*
G04 #@! TO.P,TOMATO_SHIELD1,7*
G04 #@! TO.N,N/C*
X194320000Y-63500000D03*
G04 #@! TO.P,TOMATO_SHIELD1,8*
G04 #@! TO.N,/PIXEL_STRIP_PIN*
X190256000Y-63500000D03*
G04 #@! TO.P,TOMATO_SHIELD1,9*
G04 #@! TO.N,N/C*
X187716000Y-63500000D03*
G04 #@! TO.P,TOMATO_SHIELD1,10*
X185176000Y-63500000D03*
G04 #@! TO.P,TOMATO_SHIELD1,11*
X182636000Y-63500000D03*
G04 #@! TO.P,TOMATO_SHIELD1,12*
X180096000Y-63500000D03*
G04 #@! TO.P,TOMATO_SHIELD1,13*
X177556000Y-63500000D03*
G04 #@! TO.P,TOMATO_SHIELD1,GND3*
G04 #@! TO.N,/GND*
X175016000Y-63500000D03*
G04 #@! TO.P,TOMATO_SHIELD1,AREF*
G04 #@! TO.N,N/C*
X172476000Y-63500000D03*
G04 #@! TO.P,TOMATO_SHIELD1,5V*
G04 #@! TO.N,/5V*
X186700000Y-111760000D03*
G04 #@! TO.P,TOMATO_SHIELD1,SDA*
G04 #@! TO.N,N/C*
X169936000Y-63500000D03*
G04 #@! TO.P,TOMATO_SHIELD1,SCL*
X167396000Y-63500000D03*
G04 #@! TO.P,TOMATO_SHIELD1,IO_R*
X179080000Y-111760000D03*
G04 #@! TO.P,TOMATO_SHIELD1,NC*
X176540000Y-111760000D03*
D12*
G04 #@! TO.P,TOMATO_SHIELD1,SP1*
X212100000Y-83820000D03*
G04 #@! TO.P,TOMATO_SHIELD1,SP2*
X214640000Y-83820000D03*
G04 #@! TO.P,TOMATO_SHIELD1,SP3*
X212100000Y-86360000D03*
G04 #@! TO.P,TOMATO_SHIELD1,SP4*
X214640000Y-86360000D03*
G04 #@! TO.P,TOMATO_SHIELD1,SP5*
X212100000Y-88900000D03*
G04 #@! TO.P,TOMATO_SHIELD1,SP6*
X214640000Y-88900000D03*
G04 #@! TD*
D21*
G04 #@! TO.P,R5,2*
G04 #@! TO.N,/GND*
X202000000Y-67000000D03*
G04 #@! TO.P,R5,1*
G04 #@! TO.N,/BTN_START*
X206000000Y-67000000D03*
G04 #@! TD*
G04 #@! TO.P,R6,1*
G04 #@! TO.N,/BTN_STOP*
X158430000Y-97500000D03*
G04 #@! TO.P,R6,2*
G04 #@! TO.N,/GND*
X162430000Y-97500000D03*
G04 #@! TD*
D22*
G04 #@! TO.N,/3V3*
X176430000Y-104500000D03*
G04 #@! TO.N,/TX*
X174930000Y-75700000D03*
X188430000Y-79500000D03*
X182305000Y-79500000D03*
X169930000Y-76500000D03*
G04 #@! TO.N,/RX*
X188430000Y-80500000D03*
X182305000Y-80500000D03*
G04 #@! TO.N,/5V*
X166430000Y-77000000D03*
G04 #@! TO.N,/BTN_START*
X188430000Y-78500000D03*
X183930000Y-78500000D03*
G04 #@! TO.N,/BTN_STOP*
X188430000Y-77500000D03*
X183930000Y-77500000D03*
X161446000Y-105500000D03*
X158430000Y-99500000D03*
G04 #@! TO.N,/RESET*
X180430000Y-76000000D03*
X180430000Y-78875000D03*
X180430000Y-81500000D03*
X176328959Y-105601041D03*
X177930000Y-109000000D03*
G04 #@! TO.N,/PIXEL_RING_PIN*
X199930000Y-69375000D03*
X199930000Y-72125000D03*
G04 #@! TD*
D23*
G04 #@! TO.N,/3V3*
X184160000Y-109730000D02*
X184160000Y-111760000D01*
X182930000Y-108500000D02*
X184160000Y-109730000D01*
X176430000Y-104500000D02*
X180430000Y-108500000D01*
X180430000Y-108500000D02*
X182930000Y-108500000D01*
X172900000Y-95000000D02*
X170430000Y-95000000D01*
D24*
G04 #@! TO.N,/TX*
X188430000Y-79500000D02*
X182305000Y-79500000D01*
X174930000Y-75700000D02*
X173730000Y-74500000D01*
X173730000Y-74500000D02*
X171930000Y-74500000D01*
X171930000Y-74500000D02*
X171430000Y-75000000D01*
X171430000Y-75000000D02*
X169930000Y-76500000D01*
G04 #@! TO.N,/RX*
X188430000Y-80500000D02*
X182305000Y-80500000D01*
D23*
G04 #@! TO.N,/5V*
X167540000Y-75890000D02*
X167540000Y-72000000D01*
X166430000Y-77000000D02*
X167540000Y-75890000D01*
X186700000Y-108050000D02*
X186750000Y-108000000D01*
X186700000Y-111760000D02*
X186700000Y-108050000D01*
D24*
G04 #@! TO.N,/BTN_START*
X207020000Y-65980000D02*
X206000000Y-67000000D01*
X207020000Y-63500000D02*
X207020000Y-65980000D01*
X188430000Y-78500000D02*
X183930000Y-78500000D01*
G04 #@! TO.N,/BTN_STOP*
X188430000Y-77500000D02*
X183930000Y-77500000D01*
X161446000Y-105500000D02*
X159596000Y-105500000D01*
X159596000Y-105500000D02*
X159430000Y-105666000D01*
X159430000Y-105666000D02*
X157896000Y-107200000D01*
X158430000Y-97500000D02*
X158430000Y-99500000D01*
G04 #@! TO.N,/RESET*
X179500000Y-72000000D02*
X179500000Y-75070000D01*
X179500000Y-75070000D02*
X180430000Y-76000000D01*
X180430000Y-78875000D02*
X180430000Y-81500000D01*
X176328959Y-105601041D02*
X176328959Y-107398959D01*
X176328959Y-107398959D02*
X177930000Y-109000000D01*
G04 #@! TO.N,/PIXEL_RING_PIN*
X199930000Y-69375000D02*
X199930000Y-72125000D01*
D25*
G04 #@! TO.N,/GND_IN*
X164930000Y-69350000D02*
X164930000Y-67500000D01*
X164280000Y-70000000D02*
X164930000Y-69350000D01*
X153646000Y-66000000D02*
X153646000Y-73716000D01*
X161930000Y-70000000D02*
X164280000Y-70000000D01*
X154930000Y-75000000D02*
X158930000Y-75000000D01*
X160430000Y-71500000D02*
X161930000Y-70000000D01*
X153646000Y-73716000D02*
X154930000Y-75000000D01*
X158930000Y-75000000D02*
X160430000Y-73500000D01*
X160430000Y-73500000D02*
X160430000Y-71500000D01*
G04 #@! TD*
D26*
G04 #@! TO.N,/GND*
G36*
X193004056Y-62446919D02*
X192923000Y-62854413D01*
X192923000Y-64145588D01*
X193004056Y-64553082D01*
X193312821Y-65015180D01*
X193774919Y-65323944D01*
X194320000Y-65432368D01*
X194865082Y-65323944D01*
X195327180Y-65015180D01*
X195590000Y-64621842D01*
X195852821Y-65015180D01*
X196314919Y-65323944D01*
X196860000Y-65432368D01*
X197405082Y-65323944D01*
X197867180Y-65015180D01*
X198130000Y-64621842D01*
X198392821Y-65015180D01*
X198854919Y-65323944D01*
X199400000Y-65432368D01*
X199945082Y-65323944D01*
X200407180Y-65015180D01*
X200670000Y-64621842D01*
X200932821Y-65015180D01*
X201394919Y-65323944D01*
X201940000Y-65432368D01*
X202485082Y-65323944D01*
X202947180Y-65015180D01*
X203210000Y-64621842D01*
X203472821Y-65015180D01*
X203934919Y-65323944D01*
X204480000Y-65432368D01*
X205025082Y-65323944D01*
X205487180Y-65015180D01*
X205750000Y-64621842D01*
X206012821Y-65015180D01*
X206260001Y-65180340D01*
X206260001Y-65502560D01*
X205000000Y-65502560D01*
X204752235Y-65551843D01*
X204542191Y-65692191D01*
X204401843Y-65902235D01*
X204352560Y-66150000D01*
X204352560Y-67850000D01*
X204401843Y-68097765D01*
X204542191Y-68307809D01*
X204752235Y-68448157D01*
X205000000Y-68497440D01*
X207000000Y-68497440D01*
X207247765Y-68448157D01*
X207457809Y-68307809D01*
X207494897Y-68252302D01*
X208520856Y-68252302D01*
X208548638Y-68807368D01*
X208707603Y-69191143D01*
X208949787Y-69260608D01*
X209750395Y-68460000D01*
X210109605Y-68460000D01*
X210910213Y-69260608D01*
X211152397Y-69191143D01*
X211339144Y-68667698D01*
X211311362Y-68112632D01*
X211152397Y-67728857D01*
X210910213Y-67659392D01*
X210109605Y-68460000D01*
X209750395Y-68460000D01*
X208949787Y-67659392D01*
X208707603Y-67728857D01*
X208520856Y-68252302D01*
X207494897Y-68252302D01*
X207598157Y-68097765D01*
X207647440Y-67850000D01*
X207647440Y-67479787D01*
X209129392Y-67479787D01*
X209930000Y-68280395D01*
X210730608Y-67479787D01*
X210661143Y-67237603D01*
X210137698Y-67050856D01*
X209582632Y-67078638D01*
X209198857Y-67237603D01*
X209129392Y-67479787D01*
X207647440Y-67479787D01*
X207647440Y-66408933D01*
X207651915Y-66402235D01*
X207735904Y-66276538D01*
X207745488Y-66228355D01*
X207780000Y-66054852D01*
X207780000Y-66054848D01*
X207794888Y-65980000D01*
X207780000Y-65905152D01*
X207780000Y-65180340D01*
X208027180Y-65015180D01*
X208290000Y-64621842D01*
X208552821Y-65015180D01*
X209014919Y-65323944D01*
X209560000Y-65432368D01*
X210105082Y-65323944D01*
X210567180Y-65015180D01*
X210830000Y-64621842D01*
X211092821Y-65015180D01*
X211554919Y-65323944D01*
X212100000Y-65432368D01*
X212645082Y-65323944D01*
X212902402Y-65152008D01*
X213303000Y-65552606D01*
X213303000Y-75447394D01*
X207840197Y-80910197D01*
X207812667Y-80951399D01*
X207803000Y-81000000D01*
X207803000Y-107947394D01*
X205494547Y-110255847D01*
X205487179Y-110244820D01*
X205025081Y-109936056D01*
X204480000Y-109827632D01*
X203934918Y-109936056D01*
X203472820Y-110244821D01*
X203210000Y-110638159D01*
X202947179Y-110244820D01*
X202485081Y-109936056D01*
X201940000Y-109827632D01*
X201394918Y-109936056D01*
X200932820Y-110244821D01*
X200670000Y-110638159D01*
X200407179Y-110244820D01*
X199945081Y-109936056D01*
X199400000Y-109827632D01*
X198854918Y-109936056D01*
X198392820Y-110244821D01*
X198084056Y-110706919D01*
X198003000Y-111114413D01*
X198003000Y-112405588D01*
X198084056Y-112813082D01*
X198392821Y-113275180D01*
X198539219Y-113373000D01*
X195180782Y-113373000D01*
X195327180Y-113275180D01*
X195635944Y-112813082D01*
X195717000Y-112405588D01*
X195717000Y-111114412D01*
X195635944Y-110706918D01*
X195327179Y-110244820D01*
X194865081Y-109936056D01*
X194320000Y-109827632D01*
X193774918Y-109936056D01*
X193312820Y-110244821D01*
X193038420Y-110655490D01*
X193022059Y-110600059D01*
X192678026Y-110174370D01*
X192197277Y-109912740D01*
X192123070Y-109897780D01*
X191907000Y-110020280D01*
X191907000Y-111633000D01*
X191927000Y-111633000D01*
X191927000Y-111887000D01*
X191907000Y-111887000D01*
X191907000Y-111907000D01*
X191653000Y-111907000D01*
X191653000Y-111887000D01*
X189367000Y-111887000D01*
X189367000Y-111907000D01*
X189113000Y-111907000D01*
X189113000Y-111887000D01*
X189093000Y-111887000D01*
X189093000Y-111633000D01*
X189113000Y-111633000D01*
X189113000Y-110020280D01*
X189367000Y-110020280D01*
X189367000Y-111633000D01*
X191653000Y-111633000D01*
X191653000Y-110020280D01*
X191436930Y-109897780D01*
X191362723Y-109912740D01*
X190881974Y-110174370D01*
X190537941Y-110600059D01*
X190510000Y-110694723D01*
X190482059Y-110600059D01*
X190138026Y-110174370D01*
X189657277Y-109912740D01*
X189583070Y-109897780D01*
X189367000Y-110020280D01*
X189113000Y-110020280D01*
X188896930Y-109897780D01*
X188822723Y-109912740D01*
X188341974Y-110174370D01*
X187997941Y-110600059D01*
X187981580Y-110655489D01*
X187707179Y-110244820D01*
X187585000Y-110163183D01*
X187585000Y-109255533D01*
X187747765Y-109223157D01*
X187957809Y-109082809D01*
X187998654Y-109021680D01*
X188140302Y-109163327D01*
X188373691Y-109260000D01*
X188964250Y-109260000D01*
X189123000Y-109101250D01*
X189123000Y-108127000D01*
X189377000Y-108127000D01*
X189377000Y-109101250D01*
X189535750Y-109260000D01*
X190126309Y-109260000D01*
X190359698Y-109163327D01*
X190538327Y-108984699D01*
X190635000Y-108751310D01*
X190635000Y-108285750D01*
X190476250Y-108127000D01*
X189377000Y-108127000D01*
X189123000Y-108127000D01*
X189103000Y-108127000D01*
X189103000Y-107873000D01*
X189123000Y-107873000D01*
X189123000Y-106898750D01*
X189377000Y-106898750D01*
X189377000Y-107873000D01*
X190476250Y-107873000D01*
X190635000Y-107714250D01*
X190635000Y-107468615D01*
X197833000Y-107468615D01*
X197833000Y-108059385D01*
X198059078Y-108605185D01*
X198476815Y-109022922D01*
X199022615Y-109249000D01*
X199613385Y-109249000D01*
X200159185Y-109022922D01*
X200576922Y-108605185D01*
X200803000Y-108059385D01*
X200803000Y-107468615D01*
X200576922Y-106922815D01*
X200159185Y-106505078D01*
X199613385Y-106279000D01*
X199022615Y-106279000D01*
X198476815Y-106505078D01*
X198059078Y-106922815D01*
X197833000Y-107468615D01*
X190635000Y-107468615D01*
X190635000Y-107248690D01*
X190538327Y-107015301D01*
X190359698Y-106836673D01*
X190126309Y-106740000D01*
X189535750Y-106740000D01*
X189377000Y-106898750D01*
X189123000Y-106898750D01*
X188964250Y-106740000D01*
X188373691Y-106740000D01*
X188140302Y-106836673D01*
X187998654Y-106978320D01*
X187957809Y-106917191D01*
X187747765Y-106776843D01*
X187500000Y-106727560D01*
X186000000Y-106727560D01*
X185752235Y-106776843D01*
X185542191Y-106917191D01*
X185401843Y-107127235D01*
X185352560Y-107375000D01*
X185352560Y-108625000D01*
X185401843Y-108872765D01*
X185542191Y-109082809D01*
X185752235Y-109223157D01*
X185815001Y-109235642D01*
X185815000Y-110163182D01*
X185692820Y-110244821D01*
X185430000Y-110638159D01*
X185167179Y-110244820D01*
X185045000Y-110163183D01*
X185045000Y-109817161D01*
X185062337Y-109730000D01*
X185045000Y-109642839D01*
X185045000Y-109642835D01*
X184993652Y-109384690D01*
X184918649Y-109272440D01*
X184847424Y-109165845D01*
X184847423Y-109165844D01*
X184798049Y-109091951D01*
X184724156Y-109042577D01*
X183617425Y-107935847D01*
X183568049Y-107861951D01*
X183275310Y-107666348D01*
X183017165Y-107615000D01*
X183017161Y-107615000D01*
X182930000Y-107597663D01*
X182842839Y-107615000D01*
X180796579Y-107615000D01*
X177272656Y-104091078D01*
X177222655Y-103970365D01*
X176959635Y-103707345D01*
X176615983Y-103565000D01*
X176244017Y-103565000D01*
X175900365Y-103707345D01*
X175637345Y-103970365D01*
X175495000Y-104314017D01*
X175495000Y-104685983D01*
X175619985Y-104987725D01*
X175536304Y-105071406D01*
X175393959Y-105415058D01*
X175393959Y-105787024D01*
X175536304Y-106130676D01*
X175568959Y-106163331D01*
X175568960Y-107324107D01*
X175554071Y-107398959D01*
X175568960Y-107473811D01*
X175579186Y-107525222D01*
X175613056Y-107695496D01*
X175731661Y-107873000D01*
X175781031Y-107946888D01*
X175844487Y-107989288D01*
X176995000Y-109139802D01*
X176995000Y-109185983D01*
X177137345Y-109529635D01*
X177400365Y-109792655D01*
X177744017Y-109935000D01*
X178115983Y-109935000D01*
X178459635Y-109792655D01*
X178722655Y-109529635D01*
X178865000Y-109185983D01*
X178865000Y-108814017D01*
X178722655Y-108470365D01*
X178459635Y-108207345D01*
X178115983Y-108065000D01*
X178069802Y-108065000D01*
X177088959Y-107084158D01*
X177088959Y-106410537D01*
X179742577Y-109064156D01*
X179791951Y-109138049D01*
X179865844Y-109187423D01*
X179865845Y-109187424D01*
X179919323Y-109223157D01*
X180084690Y-109333652D01*
X180342835Y-109385000D01*
X180342839Y-109385000D01*
X180429999Y-109402337D01*
X180517159Y-109385000D01*
X182563422Y-109385000D01*
X183275000Y-110096579D01*
X183275000Y-110163183D01*
X183152820Y-110244821D01*
X182890000Y-110638159D01*
X182627179Y-110244820D01*
X182165081Y-109936056D01*
X181620000Y-109827632D01*
X181074918Y-109936056D01*
X180612820Y-110244821D01*
X180350000Y-110638159D01*
X180087179Y-110244820D01*
X179625081Y-109936056D01*
X179080000Y-109827632D01*
X178534918Y-109936056D01*
X178072820Y-110244821D01*
X177810000Y-110638159D01*
X177547179Y-110244820D01*
X177085081Y-109936056D01*
X176540000Y-109827632D01*
X175994918Y-109936056D01*
X175532820Y-110244821D01*
X175224056Y-110706919D01*
X175143000Y-111114413D01*
X175143000Y-112405588D01*
X175224056Y-112813082D01*
X175532821Y-113275180D01*
X175679219Y-113373000D01*
X164100089Y-113373000D01*
X164454144Y-113018945D01*
X164792500Y-112202083D01*
X164792500Y-111317917D01*
X164774632Y-111274778D01*
X165111000Y-111274778D01*
X165111000Y-111925222D01*
X165359914Y-112526153D01*
X165819847Y-112986086D01*
X166420778Y-113235000D01*
X167071222Y-113235000D01*
X167672153Y-112986086D01*
X168132086Y-112526153D01*
X168381000Y-111925222D01*
X168381000Y-111274778D01*
X171611000Y-111274778D01*
X171611000Y-111925222D01*
X171859914Y-112526153D01*
X172319847Y-112986086D01*
X172920778Y-113235000D01*
X173571222Y-113235000D01*
X174172153Y-112986086D01*
X174632086Y-112526153D01*
X174881000Y-111925222D01*
X174881000Y-111274778D01*
X174632086Y-110673847D01*
X174172153Y-110213914D01*
X173571222Y-109965000D01*
X172920778Y-109965000D01*
X172319847Y-110213914D01*
X171859914Y-110673847D01*
X171611000Y-111274778D01*
X168381000Y-111274778D01*
X168132086Y-110673847D01*
X167672153Y-110213914D01*
X167071222Y-109965000D01*
X166420778Y-109965000D01*
X165819847Y-110213914D01*
X165359914Y-110673847D01*
X165111000Y-111274778D01*
X164774632Y-111274778D01*
X164454144Y-110501055D01*
X163828945Y-109875856D01*
X163012083Y-109537500D01*
X162127917Y-109537500D01*
X161311055Y-109875856D01*
X160685856Y-110501055D01*
X160347500Y-111317917D01*
X160347500Y-112202083D01*
X160685856Y-113018945D01*
X161039911Y-113373000D01*
X149557000Y-113373000D01*
X149557000Y-111374778D01*
X149761000Y-111374778D01*
X149761000Y-112025222D01*
X150009914Y-112626153D01*
X150469847Y-113086086D01*
X151070778Y-113335000D01*
X151721222Y-113335000D01*
X152322153Y-113086086D01*
X152782086Y-112626153D01*
X153031000Y-112025222D01*
X153031000Y-111374778D01*
X156261000Y-111374778D01*
X156261000Y-112025222D01*
X156509914Y-112626153D01*
X156969847Y-113086086D01*
X157570778Y-113335000D01*
X158221222Y-113335000D01*
X158822153Y-113086086D01*
X159282086Y-112626153D01*
X159531000Y-112025222D01*
X159531000Y-111374778D01*
X159282086Y-110773847D01*
X158822153Y-110313914D01*
X158221222Y-110065000D01*
X157570778Y-110065000D01*
X156969847Y-110313914D01*
X156509914Y-110773847D01*
X156261000Y-111374778D01*
X153031000Y-111374778D01*
X152782086Y-110773847D01*
X152322153Y-110313914D01*
X151721222Y-110065000D01*
X151070778Y-110065000D01*
X150469847Y-110313914D01*
X150009914Y-110773847D01*
X149761000Y-111374778D01*
X149557000Y-111374778D01*
X149557000Y-106874778D01*
X149761000Y-106874778D01*
X149761000Y-107525222D01*
X150009914Y-108126153D01*
X150469847Y-108586086D01*
X151070778Y-108835000D01*
X151721222Y-108835000D01*
X152322153Y-108586086D01*
X152782086Y-108126153D01*
X153031000Y-107525222D01*
X153031000Y-106874778D01*
X156261000Y-106874778D01*
X156261000Y-107525222D01*
X156509914Y-108126153D01*
X156969847Y-108586086D01*
X157570778Y-108835000D01*
X158221222Y-108835000D01*
X158822153Y-108586086D01*
X159282086Y-108126153D01*
X159531000Y-107525222D01*
X159531000Y-106874778D01*
X159489579Y-106774778D01*
X165111000Y-106774778D01*
X165111000Y-107425222D01*
X165359914Y-108026153D01*
X165819847Y-108486086D01*
X166420778Y-108735000D01*
X167071222Y-108735000D01*
X167672153Y-108486086D01*
X168132086Y-108026153D01*
X168381000Y-107425222D01*
X168381000Y-106774778D01*
X171611000Y-106774778D01*
X171611000Y-107425222D01*
X171859914Y-108026153D01*
X172319847Y-108486086D01*
X172920778Y-108735000D01*
X173571222Y-108735000D01*
X174172153Y-108486086D01*
X174632086Y-108026153D01*
X174881000Y-107425222D01*
X174881000Y-106774778D01*
X174632086Y-106173847D01*
X174172153Y-105713914D01*
X173571222Y-105465000D01*
X172920778Y-105465000D01*
X172319847Y-105713914D01*
X171859914Y-106173847D01*
X171611000Y-106774778D01*
X168381000Y-106774778D01*
X168132086Y-106173847D01*
X167672153Y-105713914D01*
X167071222Y-105465000D01*
X166420778Y-105465000D01*
X165819847Y-105713914D01*
X165359914Y-106173847D01*
X165111000Y-106774778D01*
X159489579Y-106774778D01*
X159462177Y-106708625D01*
X159910802Y-106260000D01*
X160883710Y-106260000D01*
X160916365Y-106292655D01*
X161260017Y-106435000D01*
X161631983Y-106435000D01*
X161975635Y-106292655D01*
X162238655Y-106029635D01*
X162381000Y-105685983D01*
X162381000Y-105314017D01*
X162238655Y-104970365D01*
X161975635Y-104707345D01*
X161631983Y-104565000D01*
X161260017Y-104565000D01*
X160916365Y-104707345D01*
X160883710Y-104740000D01*
X159670846Y-104740000D01*
X159595999Y-104725112D01*
X159521152Y-104740000D01*
X159521148Y-104740000D01*
X159299463Y-104784096D01*
X159048071Y-104952071D01*
X159005670Y-105015528D01*
X158945529Y-105075670D01*
X158945527Y-105075671D01*
X158387375Y-105633823D01*
X158221222Y-105565000D01*
X157570778Y-105565000D01*
X156969847Y-105813914D01*
X156509914Y-106273847D01*
X156261000Y-106874778D01*
X153031000Y-106874778D01*
X152782086Y-106273847D01*
X152322153Y-105813914D01*
X151721222Y-105565000D01*
X151070778Y-105565000D01*
X150469847Y-105813914D01*
X150009914Y-106273847D01*
X149761000Y-106874778D01*
X149557000Y-106874778D01*
X149557000Y-102896615D01*
X181323000Y-102896615D01*
X181323000Y-103487385D01*
X181549078Y-104033185D01*
X181966815Y-104450922D01*
X182512615Y-104677000D01*
X183103385Y-104677000D01*
X183649185Y-104450922D01*
X184066922Y-104033185D01*
X184293000Y-103487385D01*
X184293000Y-102896615D01*
X184066922Y-102350815D01*
X183649185Y-101933078D01*
X183103385Y-101707000D01*
X182512615Y-101707000D01*
X181966815Y-101933078D01*
X181549078Y-102350815D01*
X181323000Y-102896615D01*
X149557000Y-102896615D01*
X149557000Y-100052606D01*
X152959606Y-96650000D01*
X156782560Y-96650000D01*
X156782560Y-98350000D01*
X156831843Y-98597765D01*
X156972191Y-98807809D01*
X157182235Y-98948157D01*
X157430000Y-98997440D01*
X157626130Y-98997440D01*
X157495000Y-99314017D01*
X157495000Y-99685983D01*
X157637345Y-100029635D01*
X157900365Y-100292655D01*
X158244017Y-100435000D01*
X158615983Y-100435000D01*
X158959635Y-100292655D01*
X159222655Y-100029635D01*
X159365000Y-99685983D01*
X159365000Y-99314017D01*
X159233870Y-98997440D01*
X159430000Y-98997440D01*
X159677765Y-98948157D01*
X159887809Y-98807809D01*
X160028157Y-98597765D01*
X160077440Y-98350000D01*
X160077440Y-97785750D01*
X160795000Y-97785750D01*
X160795000Y-98476310D01*
X160891673Y-98709699D01*
X161070302Y-98888327D01*
X161303691Y-98985000D01*
X162144250Y-98985000D01*
X162303000Y-98826250D01*
X162303000Y-97627000D01*
X162557000Y-97627000D01*
X162557000Y-98826250D01*
X162715750Y-98985000D01*
X163556309Y-98985000D01*
X163789698Y-98888327D01*
X163968327Y-98709699D01*
X164065000Y-98476310D01*
X164065000Y-97785750D01*
X163906250Y-97627000D01*
X162557000Y-97627000D01*
X162303000Y-97627000D01*
X160953750Y-97627000D01*
X160795000Y-97785750D01*
X160077440Y-97785750D01*
X160077440Y-96650000D01*
X160052316Y-96523690D01*
X160795000Y-96523690D01*
X160795000Y-97214250D01*
X160953750Y-97373000D01*
X162303000Y-97373000D01*
X162303000Y-96173750D01*
X162557000Y-96173750D01*
X162557000Y-97373000D01*
X163906250Y-97373000D01*
X164065000Y-97214250D01*
X164065000Y-96523690D01*
X163968327Y-96290301D01*
X163789698Y-96111673D01*
X163556309Y-96015000D01*
X162715750Y-96015000D01*
X162557000Y-96173750D01*
X162303000Y-96173750D01*
X162144250Y-96015000D01*
X161303691Y-96015000D01*
X161070302Y-96111673D01*
X160891673Y-96290301D01*
X160795000Y-96523690D01*
X160052316Y-96523690D01*
X160028157Y-96402235D01*
X159887809Y-96192191D01*
X159677765Y-96051843D01*
X159430000Y-96002560D01*
X157430000Y-96002560D01*
X157182235Y-96051843D01*
X156972191Y-96192191D01*
X156831843Y-96402235D01*
X156782560Y-96650000D01*
X152959606Y-96650000D01*
X154519803Y-95089803D01*
X154547333Y-95048601D01*
X154557000Y-95000000D01*
X154557000Y-94250000D01*
X169157560Y-94250000D01*
X169157560Y-95750000D01*
X169206843Y-95997765D01*
X169347191Y-96207809D01*
X169557235Y-96348157D01*
X169805000Y-96397440D01*
X171055000Y-96397440D01*
X171302765Y-96348157D01*
X171512809Y-96207809D01*
X171592491Y-96088558D01*
X171680191Y-96219809D01*
X171890235Y-96360157D01*
X172138000Y-96409440D01*
X173662000Y-96409440D01*
X173909765Y-96360157D01*
X174119809Y-96219809D01*
X174260157Y-96009765D01*
X174309440Y-95762000D01*
X174309440Y-94238000D01*
X174260157Y-93990235D01*
X174119809Y-93780191D01*
X174095629Y-93764034D01*
X174297000Y-93277881D01*
X174297000Y-92722119D01*
X174084320Y-92208663D01*
X173875657Y-92000000D01*
X173994779Y-91880878D01*
X191798727Y-91880878D01*
X191851325Y-92108890D01*
X192325056Y-92272717D01*
X192825420Y-92242785D01*
X193148675Y-92108890D01*
X193201273Y-91880878D01*
X192500000Y-91179605D01*
X191798727Y-91880878D01*
X173994779Y-91880878D01*
X174084320Y-91791337D01*
X174297000Y-91277881D01*
X174297000Y-90825056D01*
X191227283Y-90825056D01*
X191257215Y-91325420D01*
X191391110Y-91648675D01*
X191619122Y-91701273D01*
X192320395Y-91000000D01*
X192679605Y-91000000D01*
X193380878Y-91701273D01*
X193608890Y-91648675D01*
X193772717Y-91174944D01*
X193747259Y-90749370D01*
X196240000Y-90749370D01*
X196240000Y-91250630D01*
X196431823Y-91713733D01*
X196786267Y-92068177D01*
X197249370Y-92260000D01*
X197750630Y-92260000D01*
X198213733Y-92068177D01*
X198568177Y-91713733D01*
X198760000Y-91250630D01*
X198760000Y-90749370D01*
X198568177Y-90286267D01*
X198213733Y-89931823D01*
X197750630Y-89740000D01*
X197249370Y-89740000D01*
X196786267Y-89931823D01*
X196431823Y-90286267D01*
X196240000Y-90749370D01*
X193747259Y-90749370D01*
X193742785Y-90674580D01*
X193608890Y-90351325D01*
X193380878Y-90298727D01*
X192679605Y-91000000D01*
X192320395Y-91000000D01*
X191619122Y-90298727D01*
X191391110Y-90351325D01*
X191227283Y-90825056D01*
X174297000Y-90825056D01*
X174297000Y-90722119D01*
X174084320Y-90208663D01*
X173994779Y-90119122D01*
X191798727Y-90119122D01*
X192500000Y-90820395D01*
X193201273Y-90119122D01*
X193148675Y-89891110D01*
X192674944Y-89727283D01*
X192174580Y-89757215D01*
X191851325Y-89891110D01*
X191798727Y-90119122D01*
X173994779Y-90119122D01*
X173875657Y-90000000D01*
X174084320Y-89791337D01*
X174297000Y-89277881D01*
X174297000Y-88722119D01*
X174084320Y-88208663D01*
X173875657Y-88000000D01*
X174084320Y-87791337D01*
X174297000Y-87277881D01*
X174297000Y-86722119D01*
X174084320Y-86208663D01*
X173875657Y-86000000D01*
X174084320Y-85791337D01*
X174297000Y-85277881D01*
X174297000Y-84722119D01*
X174084320Y-84208663D01*
X173875657Y-84000000D01*
X174084320Y-83791337D01*
X174297000Y-83277881D01*
X174297000Y-82722119D01*
X174084320Y-82208663D01*
X173875657Y-82000000D01*
X174084320Y-81791337D01*
X174297000Y-81277881D01*
X174297000Y-80722119D01*
X174084320Y-80208663D01*
X173875657Y-80000000D01*
X174084320Y-79791337D01*
X174297000Y-79277881D01*
X174297000Y-78722119D01*
X174283289Y-78689017D01*
X179495000Y-78689017D01*
X179495000Y-79060983D01*
X179637345Y-79404635D01*
X179670000Y-79437290D01*
X179670001Y-80937709D01*
X179637345Y-80970365D01*
X179495000Y-81314017D01*
X179495000Y-81685983D01*
X179637345Y-82029635D01*
X179900365Y-82292655D01*
X180244017Y-82435000D01*
X180615983Y-82435000D01*
X180959635Y-82292655D01*
X181222655Y-82029635D01*
X181365000Y-81685983D01*
X181365000Y-81314017D01*
X181222655Y-80970365D01*
X181190000Y-80937710D01*
X181190000Y-79437290D01*
X181222655Y-79404635D01*
X181260190Y-79314017D01*
X181370000Y-79314017D01*
X181370000Y-79685983D01*
X181500070Y-80000000D01*
X181370000Y-80314017D01*
X181370000Y-80685983D01*
X181512345Y-81029635D01*
X181775365Y-81292655D01*
X182119017Y-81435000D01*
X182490983Y-81435000D01*
X182834635Y-81292655D01*
X182867290Y-81260000D01*
X187867710Y-81260000D01*
X187900365Y-81292655D01*
X188244017Y-81435000D01*
X188615983Y-81435000D01*
X188959635Y-81292655D01*
X189222655Y-81029635D01*
X189365000Y-80685983D01*
X189365000Y-80314017D01*
X189234930Y-80000000D01*
X189365000Y-79685983D01*
X189365000Y-79314017D01*
X189234930Y-79000000D01*
X189365000Y-78685983D01*
X189365000Y-78512615D01*
X205707000Y-78512615D01*
X205707000Y-79103385D01*
X205933078Y-79649185D01*
X206350815Y-80066922D01*
X206896615Y-80293000D01*
X207487385Y-80293000D01*
X208033185Y-80066922D01*
X208450922Y-79649185D01*
X208677000Y-79103385D01*
X208677000Y-78512615D01*
X208450922Y-77966815D01*
X208033185Y-77549078D01*
X207487385Y-77323000D01*
X206896615Y-77323000D01*
X206350815Y-77549078D01*
X205933078Y-77966815D01*
X205707000Y-78512615D01*
X189365000Y-78512615D01*
X189365000Y-78314017D01*
X189234930Y-78000000D01*
X189365000Y-77685983D01*
X189365000Y-77314017D01*
X189222655Y-76970365D01*
X188959635Y-76707345D01*
X188615983Y-76565000D01*
X188244017Y-76565000D01*
X187900365Y-76707345D01*
X187867710Y-76740000D01*
X184492290Y-76740000D01*
X184459635Y-76707345D01*
X184115983Y-76565000D01*
X183744017Y-76565000D01*
X183400365Y-76707345D01*
X183137345Y-76970365D01*
X182995000Y-77314017D01*
X182995000Y-77685983D01*
X183125070Y-78000000D01*
X182995000Y-78314017D01*
X182995000Y-78685983D01*
X183017375Y-78740000D01*
X182867290Y-78740000D01*
X182834635Y-78707345D01*
X182490983Y-78565000D01*
X182119017Y-78565000D01*
X181775365Y-78707345D01*
X181512345Y-78970365D01*
X181370000Y-79314017D01*
X181260190Y-79314017D01*
X181365000Y-79060983D01*
X181365000Y-78689017D01*
X181222655Y-78345365D01*
X180959635Y-78082345D01*
X180615983Y-77940000D01*
X180244017Y-77940000D01*
X179900365Y-78082345D01*
X179637345Y-78345365D01*
X179495000Y-78689017D01*
X174283289Y-78689017D01*
X174084320Y-78208663D01*
X173691337Y-77815680D01*
X173426289Y-77705894D01*
X172900000Y-77179605D01*
X172373711Y-77705894D01*
X172108663Y-77815680D01*
X171715680Y-78208663D01*
X171503000Y-78722119D01*
X171503000Y-79277881D01*
X171715680Y-79791337D01*
X171924343Y-80000000D01*
X171715680Y-80208663D01*
X171503000Y-80722119D01*
X171503000Y-81277881D01*
X171715680Y-81791337D01*
X171924343Y-82000000D01*
X171715680Y-82208663D01*
X171503000Y-82722119D01*
X171503000Y-83277881D01*
X171715680Y-83791337D01*
X171924343Y-84000000D01*
X171715680Y-84208663D01*
X171503000Y-84722119D01*
X171503000Y-85277881D01*
X171715680Y-85791337D01*
X171924343Y-86000000D01*
X171715680Y-86208663D01*
X171503000Y-86722119D01*
X171503000Y-87277881D01*
X171715680Y-87791337D01*
X171924343Y-88000000D01*
X171715680Y-88208663D01*
X171503000Y-88722119D01*
X171503000Y-89277881D01*
X171715680Y-89791337D01*
X171924343Y-90000000D01*
X171715680Y-90208663D01*
X171503000Y-90722119D01*
X171503000Y-91277881D01*
X171518622Y-91315597D01*
X171414699Y-91211673D01*
X171181310Y-91115000D01*
X170715750Y-91115000D01*
X170557000Y-91273750D01*
X170557000Y-92373000D01*
X170577000Y-92373000D01*
X170577000Y-92627000D01*
X170557000Y-92627000D01*
X170557000Y-92647000D01*
X170303000Y-92647000D01*
X170303000Y-92627000D01*
X169328750Y-92627000D01*
X169170000Y-92785750D01*
X169170000Y-93376309D01*
X169266673Y-93609698D01*
X169408320Y-93751346D01*
X169347191Y-93792191D01*
X169206843Y-94002235D01*
X169157560Y-94250000D01*
X154557000Y-94250000D01*
X154557000Y-91623691D01*
X169170000Y-91623691D01*
X169170000Y-92214250D01*
X169328750Y-92373000D01*
X170303000Y-92373000D01*
X170303000Y-91273750D01*
X170144250Y-91115000D01*
X169678690Y-91115000D01*
X169445301Y-91211673D01*
X169266673Y-91390302D01*
X169170000Y-91623691D01*
X154557000Y-91623691D01*
X154557000Y-85552606D01*
X166519803Y-73589803D01*
X166547333Y-73548601D01*
X166557000Y-73500000D01*
X166557000Y-73129174D01*
X166655001Y-73194656D01*
X166655000Y-75523421D01*
X166021077Y-76157344D01*
X165900365Y-76207345D01*
X165637345Y-76470365D01*
X165495000Y-76814017D01*
X165495000Y-77185983D01*
X165637345Y-77529635D01*
X165900365Y-77792655D01*
X166244017Y-77935000D01*
X166615983Y-77935000D01*
X166959635Y-77792655D01*
X167222655Y-77529635D01*
X167272656Y-77408923D01*
X168104156Y-76577423D01*
X168178049Y-76528049D01*
X168239658Y-76435846D01*
X168321061Y-76314017D01*
X168995000Y-76314017D01*
X168995000Y-76685983D01*
X169137345Y-77029635D01*
X169400365Y-77292655D01*
X169744017Y-77435000D01*
X170115983Y-77435000D01*
X170459635Y-77292655D01*
X170722655Y-77029635D01*
X170820961Y-76792302D01*
X171490856Y-76792302D01*
X171518638Y-77347368D01*
X171677603Y-77731143D01*
X171919787Y-77800608D01*
X172720395Y-77000000D01*
X173079605Y-77000000D01*
X173880213Y-77800608D01*
X174122397Y-77731143D01*
X174309144Y-77207698D01*
X174281362Y-76652632D01*
X174122397Y-76268857D01*
X173880213Y-76199392D01*
X173079605Y-77000000D01*
X172720395Y-77000000D01*
X171919787Y-76199392D01*
X171677603Y-76268857D01*
X171490856Y-76792302D01*
X170820961Y-76792302D01*
X170865000Y-76685983D01*
X170865000Y-76639802D01*
X171485015Y-76019787D01*
X172099392Y-76019787D01*
X172900000Y-76820395D01*
X173700608Y-76019787D01*
X173631143Y-75777603D01*
X173107698Y-75590856D01*
X172552632Y-75618638D01*
X172168857Y-75777603D01*
X172099392Y-76019787D01*
X171485015Y-76019787D01*
X172020329Y-75484474D01*
X172020333Y-75484468D01*
X172244802Y-75260000D01*
X173415199Y-75260000D01*
X173995000Y-75839802D01*
X173995000Y-75885983D01*
X174137345Y-76229635D01*
X174400365Y-76492655D01*
X174744017Y-76635000D01*
X175115983Y-76635000D01*
X175459635Y-76492655D01*
X175722655Y-76229635D01*
X175865000Y-75885983D01*
X175865000Y-75514017D01*
X175722655Y-75170365D01*
X175459635Y-74907345D01*
X175115983Y-74765000D01*
X175069802Y-74765000D01*
X174320331Y-74015530D01*
X174277929Y-73952071D01*
X174026537Y-73784096D01*
X173804852Y-73740000D01*
X173804847Y-73740000D01*
X173730000Y-73725112D01*
X173655153Y-73740000D01*
X172004848Y-73740000D01*
X171930000Y-73725112D01*
X171855152Y-73740000D01*
X171855148Y-73740000D01*
X171681605Y-73774520D01*
X171633462Y-73784096D01*
X171446418Y-73909076D01*
X171382071Y-73952071D01*
X171339671Y-74015528D01*
X170945532Y-74409667D01*
X170945526Y-74409671D01*
X169790198Y-75565000D01*
X169744017Y-75565000D01*
X169400365Y-75707345D01*
X169137345Y-75970365D01*
X168995000Y-76314017D01*
X168321061Y-76314017D01*
X168351236Y-76268857D01*
X168373652Y-76235310D01*
X168425000Y-75977165D01*
X168425000Y-75977160D01*
X168442337Y-75890001D01*
X168425000Y-75802841D01*
X168425000Y-73194656D01*
X168610625Y-73070625D01*
X168938839Y-72579418D01*
X169054092Y-72000000D01*
X168989402Y-71674778D01*
X171365000Y-71674778D01*
X171365000Y-72325222D01*
X171613914Y-72926153D01*
X172073847Y-73386086D01*
X172674778Y-73635000D01*
X173325222Y-73635000D01*
X173926153Y-73386086D01*
X174386086Y-72926153D01*
X174635000Y-72325222D01*
X174635000Y-71674778D01*
X177865000Y-71674778D01*
X177865000Y-72325222D01*
X178113914Y-72926153D01*
X178573847Y-73386086D01*
X178740000Y-73454909D01*
X178740001Y-74995148D01*
X178725112Y-75070000D01*
X178784097Y-75366537D01*
X178874331Y-75501581D01*
X178952072Y-75617929D01*
X179015528Y-75660329D01*
X179495000Y-76139802D01*
X179495000Y-76185983D01*
X179637345Y-76529635D01*
X179900365Y-76792655D01*
X180244017Y-76935000D01*
X180615983Y-76935000D01*
X180959635Y-76792655D01*
X181222655Y-76529635D01*
X181365000Y-76185983D01*
X181365000Y-75814017D01*
X181222655Y-75470365D01*
X180959635Y-75207345D01*
X180615983Y-75065000D01*
X180569802Y-75065000D01*
X180260000Y-74755199D01*
X180260000Y-73940615D01*
X189197000Y-73940615D01*
X189197000Y-74531385D01*
X189423078Y-75077185D01*
X189840815Y-75494922D01*
X190386615Y-75721000D01*
X190977385Y-75721000D01*
X191523185Y-75494922D01*
X191940922Y-75077185D01*
X192167000Y-74531385D01*
X192167000Y-73940615D01*
X191940922Y-73394815D01*
X191523185Y-72977078D01*
X190977385Y-72751000D01*
X190386615Y-72751000D01*
X189840815Y-72977078D01*
X189423078Y-73394815D01*
X189197000Y-73940615D01*
X180260000Y-73940615D01*
X180260000Y-73454909D01*
X180426153Y-73386086D01*
X180886086Y-72926153D01*
X181135000Y-72325222D01*
X181135000Y-71674778D01*
X180886086Y-71073847D01*
X180426153Y-70613914D01*
X179825222Y-70365000D01*
X179174778Y-70365000D01*
X178573847Y-70613914D01*
X178113914Y-71073847D01*
X177865000Y-71674778D01*
X174635000Y-71674778D01*
X174386086Y-71073847D01*
X173926153Y-70613914D01*
X173325222Y-70365000D01*
X172674778Y-70365000D01*
X172073847Y-70613914D01*
X171613914Y-71073847D01*
X171365000Y-71674778D01*
X168989402Y-71674778D01*
X168938839Y-71420582D01*
X168610625Y-70929375D01*
X168119418Y-70601161D01*
X167686256Y-70515000D01*
X167393744Y-70515000D01*
X167020329Y-70589277D01*
X167887487Y-69722119D01*
X183223000Y-69722119D01*
X183223000Y-70277881D01*
X183435680Y-70791337D01*
X183828663Y-71184320D01*
X184342119Y-71397000D01*
X184897881Y-71397000D01*
X185411337Y-71184320D01*
X185804320Y-70791337D01*
X185890000Y-70584487D01*
X185975680Y-70791337D01*
X186368663Y-71184320D01*
X186882119Y-71397000D01*
X187437881Y-71397000D01*
X187951337Y-71184320D01*
X188344320Y-70791337D01*
X188430000Y-70584487D01*
X188515680Y-70791337D01*
X188908663Y-71184320D01*
X189422119Y-71397000D01*
X189977881Y-71397000D01*
X190491337Y-71184320D01*
X190884320Y-70791337D01*
X190970000Y-70584487D01*
X191055680Y-70791337D01*
X191448663Y-71184320D01*
X191962119Y-71397000D01*
X192517881Y-71397000D01*
X193031337Y-71184320D01*
X193424320Y-70791337D01*
X193637000Y-70277881D01*
X193637000Y-69722119D01*
X193424320Y-69208663D01*
X193404674Y-69189017D01*
X198995000Y-69189017D01*
X198995000Y-69560983D01*
X199137345Y-69904635D01*
X199170000Y-69937290D01*
X199170001Y-71562709D01*
X199137345Y-71595365D01*
X198995000Y-71939017D01*
X198995000Y-72310983D01*
X199137345Y-72654635D01*
X199400365Y-72917655D01*
X199744017Y-73060000D01*
X200115983Y-73060000D01*
X200459635Y-72917655D01*
X200722655Y-72654635D01*
X200865000Y-72310983D01*
X200865000Y-71939017D01*
X200722655Y-71595365D01*
X200690000Y-71562710D01*
X200690000Y-70722119D01*
X208533000Y-70722119D01*
X208533000Y-71277881D01*
X208745680Y-71791337D01*
X209138663Y-72184320D01*
X209345513Y-72270000D01*
X209138663Y-72355680D01*
X208745680Y-72748663D01*
X208533000Y-73262119D01*
X208533000Y-73817881D01*
X208745680Y-74331337D01*
X209138663Y-74724320D01*
X209652119Y-74937000D01*
X210207881Y-74937000D01*
X210721337Y-74724320D01*
X211114320Y-74331337D01*
X211327000Y-73817881D01*
X211327000Y-73262119D01*
X211114320Y-72748663D01*
X210721337Y-72355680D01*
X210514487Y-72270000D01*
X210721337Y-72184320D01*
X211114320Y-71791337D01*
X211327000Y-71277881D01*
X211327000Y-70722119D01*
X211114320Y-70208663D01*
X210721337Y-69815680D01*
X210530353Y-69736572D01*
X210661143Y-69682397D01*
X210730608Y-69440213D01*
X209930000Y-68639605D01*
X209129392Y-69440213D01*
X209198857Y-69682397D01*
X209339393Y-69732535D01*
X209138663Y-69815680D01*
X208745680Y-70208663D01*
X208533000Y-70722119D01*
X200690000Y-70722119D01*
X200690000Y-69937290D01*
X200722655Y-69904635D01*
X200865000Y-69560983D01*
X200865000Y-69189017D01*
X200722655Y-68845365D01*
X200459635Y-68582345D01*
X200115983Y-68440000D01*
X199744017Y-68440000D01*
X199400365Y-68582345D01*
X199137345Y-68845365D01*
X198995000Y-69189017D01*
X193404674Y-69189017D01*
X193031337Y-68815680D01*
X192517881Y-68603000D01*
X191962119Y-68603000D01*
X191448663Y-68815680D01*
X191055680Y-69208663D01*
X190970000Y-69415513D01*
X190884320Y-69208663D01*
X190491337Y-68815680D01*
X189977881Y-68603000D01*
X189422119Y-68603000D01*
X188908663Y-68815680D01*
X188515680Y-69208663D01*
X188430000Y-69415513D01*
X188344320Y-69208663D01*
X187951337Y-68815680D01*
X187437881Y-68603000D01*
X186882119Y-68603000D01*
X186368663Y-68815680D01*
X185975680Y-69208663D01*
X185890000Y-69415513D01*
X185804320Y-69208663D01*
X185411337Y-68815680D01*
X184897881Y-68603000D01*
X184342119Y-68603000D01*
X183828663Y-68815680D01*
X183435680Y-69208663D01*
X183223000Y-69722119D01*
X167887487Y-69722119D01*
X168957074Y-68652532D01*
X172027073Y-68652532D01*
X172125736Y-68919387D01*
X172735461Y-69145908D01*
X173385460Y-69121856D01*
X173874264Y-68919387D01*
X173972927Y-68652532D01*
X178527073Y-68652532D01*
X178625736Y-68919387D01*
X179235461Y-69145908D01*
X179885460Y-69121856D01*
X180374264Y-68919387D01*
X180472927Y-68652532D01*
X179500000Y-67679605D01*
X178527073Y-68652532D01*
X173972927Y-68652532D01*
X173000000Y-67679605D01*
X172027073Y-68652532D01*
X168957074Y-68652532D01*
X170374145Y-67235461D01*
X171354092Y-67235461D01*
X171378144Y-67885460D01*
X171580613Y-68374264D01*
X171847468Y-68472927D01*
X172820395Y-67500000D01*
X173179605Y-67500000D01*
X174152532Y-68472927D01*
X174419387Y-68374264D01*
X174645908Y-67764539D01*
X174626331Y-67235461D01*
X177854092Y-67235461D01*
X177878144Y-67885460D01*
X178080613Y-68374264D01*
X178347468Y-68472927D01*
X179320395Y-67500000D01*
X179679605Y-67500000D01*
X180652532Y-68472927D01*
X180919387Y-68374264D01*
X181145908Y-67764539D01*
X181128192Y-67285750D01*
X200365000Y-67285750D01*
X200365000Y-67976310D01*
X200461673Y-68209699D01*
X200640302Y-68388327D01*
X200873691Y-68485000D01*
X201714250Y-68485000D01*
X201873000Y-68326250D01*
X201873000Y-67127000D01*
X202127000Y-67127000D01*
X202127000Y-68326250D01*
X202285750Y-68485000D01*
X203126309Y-68485000D01*
X203359698Y-68388327D01*
X203538327Y-68209699D01*
X203635000Y-67976310D01*
X203635000Y-67285750D01*
X203476250Y-67127000D01*
X202127000Y-67127000D01*
X201873000Y-67127000D01*
X200523750Y-67127000D01*
X200365000Y-67285750D01*
X181128192Y-67285750D01*
X181121856Y-67114540D01*
X180919387Y-66625736D01*
X180652532Y-66527073D01*
X179679605Y-67500000D01*
X179320395Y-67500000D01*
X178347468Y-66527073D01*
X178080613Y-66625736D01*
X177854092Y-67235461D01*
X174626331Y-67235461D01*
X174621856Y-67114540D01*
X174419387Y-66625736D01*
X174152532Y-66527073D01*
X173179605Y-67500000D01*
X172820395Y-67500000D01*
X171847468Y-66527073D01*
X171580613Y-66625736D01*
X171354092Y-67235461D01*
X170374145Y-67235461D01*
X171262138Y-66347468D01*
X172027073Y-66347468D01*
X173000000Y-67320395D01*
X173972927Y-66347468D01*
X178527073Y-66347468D01*
X179500000Y-67320395D01*
X180472927Y-66347468D01*
X180374264Y-66080613D01*
X180221045Y-66023690D01*
X200365000Y-66023690D01*
X200365000Y-66714250D01*
X200523750Y-66873000D01*
X201873000Y-66873000D01*
X201873000Y-65673750D01*
X202127000Y-65673750D01*
X202127000Y-66873000D01*
X203476250Y-66873000D01*
X203635000Y-66714250D01*
X203635000Y-66023690D01*
X203538327Y-65790301D01*
X203359698Y-65611673D01*
X203126309Y-65515000D01*
X202285750Y-65515000D01*
X202127000Y-65673750D01*
X201873000Y-65673750D01*
X201714250Y-65515000D01*
X200873691Y-65515000D01*
X200640302Y-65611673D01*
X200461673Y-65790301D01*
X200365000Y-66023690D01*
X180221045Y-66023690D01*
X179764539Y-65854092D01*
X179114540Y-65878144D01*
X178625736Y-66080613D01*
X178527073Y-66347468D01*
X173972927Y-66347468D01*
X173874264Y-66080613D01*
X173264539Y-65854092D01*
X172614540Y-65878144D01*
X172125736Y-66080613D01*
X172027073Y-66347468D01*
X171262138Y-66347468D01*
X172226806Y-65382800D01*
X172476000Y-65432368D01*
X173021082Y-65323944D01*
X173483180Y-65015180D01*
X173757580Y-64604511D01*
X173773941Y-64659941D01*
X174117974Y-65085630D01*
X174598723Y-65347260D01*
X174672930Y-65362220D01*
X174889000Y-65239720D01*
X174889000Y-63627000D01*
X174869000Y-63627000D01*
X174869000Y-63373000D01*
X174889000Y-63373000D01*
X174889000Y-63353000D01*
X175143000Y-63353000D01*
X175143000Y-63373000D01*
X175163000Y-63373000D01*
X175163000Y-63627000D01*
X175143000Y-63627000D01*
X175143000Y-65239720D01*
X175359070Y-65362220D01*
X175433277Y-65347260D01*
X175914026Y-65085630D01*
X176258059Y-64659941D01*
X176274420Y-64604511D01*
X176548821Y-65015180D01*
X177010919Y-65323944D01*
X177556000Y-65432368D01*
X178101082Y-65323944D01*
X178563180Y-65015180D01*
X178826000Y-64621842D01*
X179088821Y-65015180D01*
X179550919Y-65323944D01*
X180096000Y-65432368D01*
X180641082Y-65323944D01*
X181103180Y-65015180D01*
X181366000Y-64621842D01*
X181628821Y-65015180D01*
X182090919Y-65323944D01*
X182636000Y-65432368D01*
X183181082Y-65323944D01*
X183643180Y-65015180D01*
X183906000Y-64621842D01*
X184168821Y-65015180D01*
X184630919Y-65323944D01*
X185176000Y-65432368D01*
X185721082Y-65323944D01*
X186183180Y-65015180D01*
X186446000Y-64621842D01*
X186708821Y-65015180D01*
X187170919Y-65323944D01*
X187716000Y-65432368D01*
X188261082Y-65323944D01*
X188723180Y-65015180D01*
X188986000Y-64621842D01*
X189248821Y-65015180D01*
X189710919Y-65323944D01*
X190256000Y-65432368D01*
X190801082Y-65323944D01*
X191263180Y-65015180D01*
X191571944Y-64553082D01*
X191653000Y-64145588D01*
X191653000Y-62854412D01*
X191571944Y-62446918D01*
X191358181Y-62127000D01*
X193217819Y-62127000D01*
X193004056Y-62446919D01*
X193004056Y-62446919D01*
G37*
X193004056Y-62446919D02*
X192923000Y-62854413D01*
X192923000Y-64145588D01*
X193004056Y-64553082D01*
X193312821Y-65015180D01*
X193774919Y-65323944D01*
X194320000Y-65432368D01*
X194865082Y-65323944D01*
X195327180Y-65015180D01*
X195590000Y-64621842D01*
X195852821Y-65015180D01*
X196314919Y-65323944D01*
X196860000Y-65432368D01*
X197405082Y-65323944D01*
X197867180Y-65015180D01*
X198130000Y-64621842D01*
X198392821Y-65015180D01*
X198854919Y-65323944D01*
X199400000Y-65432368D01*
X199945082Y-65323944D01*
X200407180Y-65015180D01*
X200670000Y-64621842D01*
X200932821Y-65015180D01*
X201394919Y-65323944D01*
X201940000Y-65432368D01*
X202485082Y-65323944D01*
X202947180Y-65015180D01*
X203210000Y-64621842D01*
X203472821Y-65015180D01*
X203934919Y-65323944D01*
X204480000Y-65432368D01*
X205025082Y-65323944D01*
X205487180Y-65015180D01*
X205750000Y-64621842D01*
X206012821Y-65015180D01*
X206260001Y-65180340D01*
X206260001Y-65502560D01*
X205000000Y-65502560D01*
X204752235Y-65551843D01*
X204542191Y-65692191D01*
X204401843Y-65902235D01*
X204352560Y-66150000D01*
X204352560Y-67850000D01*
X204401843Y-68097765D01*
X204542191Y-68307809D01*
X204752235Y-68448157D01*
X205000000Y-68497440D01*
X207000000Y-68497440D01*
X207247765Y-68448157D01*
X207457809Y-68307809D01*
X207494897Y-68252302D01*
X208520856Y-68252302D01*
X208548638Y-68807368D01*
X208707603Y-69191143D01*
X208949787Y-69260608D01*
X209750395Y-68460000D01*
X210109605Y-68460000D01*
X210910213Y-69260608D01*
X211152397Y-69191143D01*
X211339144Y-68667698D01*
X211311362Y-68112632D01*
X211152397Y-67728857D01*
X210910213Y-67659392D01*
X210109605Y-68460000D01*
X209750395Y-68460000D01*
X208949787Y-67659392D01*
X208707603Y-67728857D01*
X208520856Y-68252302D01*
X207494897Y-68252302D01*
X207598157Y-68097765D01*
X207647440Y-67850000D01*
X207647440Y-67479787D01*
X209129392Y-67479787D01*
X209930000Y-68280395D01*
X210730608Y-67479787D01*
X210661143Y-67237603D01*
X210137698Y-67050856D01*
X209582632Y-67078638D01*
X209198857Y-67237603D01*
X209129392Y-67479787D01*
X207647440Y-67479787D01*
X207647440Y-66408933D01*
X207651915Y-66402235D01*
X207735904Y-66276538D01*
X207745488Y-66228355D01*
X207780000Y-66054852D01*
X207780000Y-66054848D01*
X207794888Y-65980000D01*
X207780000Y-65905152D01*
X207780000Y-65180340D01*
X208027180Y-65015180D01*
X208290000Y-64621842D01*
X208552821Y-65015180D01*
X209014919Y-65323944D01*
X209560000Y-65432368D01*
X210105082Y-65323944D01*
X210567180Y-65015180D01*
X210830000Y-64621842D01*
X211092821Y-65015180D01*
X211554919Y-65323944D01*
X212100000Y-65432368D01*
X212645082Y-65323944D01*
X212902402Y-65152008D01*
X213303000Y-65552606D01*
X213303000Y-75447394D01*
X207840197Y-80910197D01*
X207812667Y-80951399D01*
X207803000Y-81000000D01*
X207803000Y-107947394D01*
X205494547Y-110255847D01*
X205487179Y-110244820D01*
X205025081Y-109936056D01*
X204480000Y-109827632D01*
X203934918Y-109936056D01*
X203472820Y-110244821D01*
X203210000Y-110638159D01*
X202947179Y-110244820D01*
X202485081Y-109936056D01*
X201940000Y-109827632D01*
X201394918Y-109936056D01*
X200932820Y-110244821D01*
X200670000Y-110638159D01*
X200407179Y-110244820D01*
X199945081Y-109936056D01*
X199400000Y-109827632D01*
X198854918Y-109936056D01*
X198392820Y-110244821D01*
X198084056Y-110706919D01*
X198003000Y-111114413D01*
X198003000Y-112405588D01*
X198084056Y-112813082D01*
X198392821Y-113275180D01*
X198539219Y-113373000D01*
X195180782Y-113373000D01*
X195327180Y-113275180D01*
X195635944Y-112813082D01*
X195717000Y-112405588D01*
X195717000Y-111114412D01*
X195635944Y-110706918D01*
X195327179Y-110244820D01*
X194865081Y-109936056D01*
X194320000Y-109827632D01*
X193774918Y-109936056D01*
X193312820Y-110244821D01*
X193038420Y-110655490D01*
X193022059Y-110600059D01*
X192678026Y-110174370D01*
X192197277Y-109912740D01*
X192123070Y-109897780D01*
X191907000Y-110020280D01*
X191907000Y-111633000D01*
X191927000Y-111633000D01*
X191927000Y-111887000D01*
X191907000Y-111887000D01*
X191907000Y-111907000D01*
X191653000Y-111907000D01*
X191653000Y-111887000D01*
X189367000Y-111887000D01*
X189367000Y-111907000D01*
X189113000Y-111907000D01*
X189113000Y-111887000D01*
X189093000Y-111887000D01*
X189093000Y-111633000D01*
X189113000Y-111633000D01*
X189113000Y-110020280D01*
X189367000Y-110020280D01*
X189367000Y-111633000D01*
X191653000Y-111633000D01*
X191653000Y-110020280D01*
X191436930Y-109897780D01*
X191362723Y-109912740D01*
X190881974Y-110174370D01*
X190537941Y-110600059D01*
X190510000Y-110694723D01*
X190482059Y-110600059D01*
X190138026Y-110174370D01*
X189657277Y-109912740D01*
X189583070Y-109897780D01*
X189367000Y-110020280D01*
X189113000Y-110020280D01*
X188896930Y-109897780D01*
X188822723Y-109912740D01*
X188341974Y-110174370D01*
X187997941Y-110600059D01*
X187981580Y-110655489D01*
X187707179Y-110244820D01*
X187585000Y-110163183D01*
X187585000Y-109255533D01*
X187747765Y-109223157D01*
X187957809Y-109082809D01*
X187998654Y-109021680D01*
X188140302Y-109163327D01*
X188373691Y-109260000D01*
X188964250Y-109260000D01*
X189123000Y-109101250D01*
X189123000Y-108127000D01*
X189377000Y-108127000D01*
X189377000Y-109101250D01*
X189535750Y-109260000D01*
X190126309Y-109260000D01*
X190359698Y-109163327D01*
X190538327Y-108984699D01*
X190635000Y-108751310D01*
X190635000Y-108285750D01*
X190476250Y-108127000D01*
X189377000Y-108127000D01*
X189123000Y-108127000D01*
X189103000Y-108127000D01*
X189103000Y-107873000D01*
X189123000Y-107873000D01*
X189123000Y-106898750D01*
X189377000Y-106898750D01*
X189377000Y-107873000D01*
X190476250Y-107873000D01*
X190635000Y-107714250D01*
X190635000Y-107468615D01*
X197833000Y-107468615D01*
X197833000Y-108059385D01*
X198059078Y-108605185D01*
X198476815Y-109022922D01*
X199022615Y-109249000D01*
X199613385Y-109249000D01*
X200159185Y-109022922D01*
X200576922Y-108605185D01*
X200803000Y-108059385D01*
X200803000Y-107468615D01*
X200576922Y-106922815D01*
X200159185Y-106505078D01*
X199613385Y-106279000D01*
X199022615Y-106279000D01*
X198476815Y-106505078D01*
X198059078Y-106922815D01*
X197833000Y-107468615D01*
X190635000Y-107468615D01*
X190635000Y-107248690D01*
X190538327Y-107015301D01*
X190359698Y-106836673D01*
X190126309Y-106740000D01*
X189535750Y-106740000D01*
X189377000Y-106898750D01*
X189123000Y-106898750D01*
X188964250Y-106740000D01*
X188373691Y-106740000D01*
X188140302Y-106836673D01*
X187998654Y-106978320D01*
X187957809Y-106917191D01*
X187747765Y-106776843D01*
X187500000Y-106727560D01*
X186000000Y-106727560D01*
X185752235Y-106776843D01*
X185542191Y-106917191D01*
X185401843Y-107127235D01*
X185352560Y-107375000D01*
X185352560Y-108625000D01*
X185401843Y-108872765D01*
X185542191Y-109082809D01*
X185752235Y-109223157D01*
X185815001Y-109235642D01*
X185815000Y-110163182D01*
X185692820Y-110244821D01*
X185430000Y-110638159D01*
X185167179Y-110244820D01*
X185045000Y-110163183D01*
X185045000Y-109817161D01*
X185062337Y-109730000D01*
X185045000Y-109642839D01*
X185045000Y-109642835D01*
X184993652Y-109384690D01*
X184918649Y-109272440D01*
X184847424Y-109165845D01*
X184847423Y-109165844D01*
X184798049Y-109091951D01*
X184724156Y-109042577D01*
X183617425Y-107935847D01*
X183568049Y-107861951D01*
X183275310Y-107666348D01*
X183017165Y-107615000D01*
X183017161Y-107615000D01*
X182930000Y-107597663D01*
X182842839Y-107615000D01*
X180796579Y-107615000D01*
X177272656Y-104091078D01*
X177222655Y-103970365D01*
X176959635Y-103707345D01*
X176615983Y-103565000D01*
X176244017Y-103565000D01*
X175900365Y-103707345D01*
X175637345Y-103970365D01*
X175495000Y-104314017D01*
X175495000Y-104685983D01*
X175619985Y-104987725D01*
X175536304Y-105071406D01*
X175393959Y-105415058D01*
X175393959Y-105787024D01*
X175536304Y-106130676D01*
X175568959Y-106163331D01*
X175568960Y-107324107D01*
X175554071Y-107398959D01*
X175568960Y-107473811D01*
X175579186Y-107525222D01*
X175613056Y-107695496D01*
X175731661Y-107873000D01*
X175781031Y-107946888D01*
X175844487Y-107989288D01*
X176995000Y-109139802D01*
X176995000Y-109185983D01*
X177137345Y-109529635D01*
X177400365Y-109792655D01*
X177744017Y-109935000D01*
X178115983Y-109935000D01*
X178459635Y-109792655D01*
X178722655Y-109529635D01*
X178865000Y-109185983D01*
X178865000Y-108814017D01*
X178722655Y-108470365D01*
X178459635Y-108207345D01*
X178115983Y-108065000D01*
X178069802Y-108065000D01*
X177088959Y-107084158D01*
X177088959Y-106410537D01*
X179742577Y-109064156D01*
X179791951Y-109138049D01*
X179865844Y-109187423D01*
X179865845Y-109187424D01*
X179919323Y-109223157D01*
X180084690Y-109333652D01*
X180342835Y-109385000D01*
X180342839Y-109385000D01*
X180429999Y-109402337D01*
X180517159Y-109385000D01*
X182563422Y-109385000D01*
X183275000Y-110096579D01*
X183275000Y-110163183D01*
X183152820Y-110244821D01*
X182890000Y-110638159D01*
X182627179Y-110244820D01*
X182165081Y-109936056D01*
X181620000Y-109827632D01*
X181074918Y-109936056D01*
X180612820Y-110244821D01*
X180350000Y-110638159D01*
X180087179Y-110244820D01*
X179625081Y-109936056D01*
X179080000Y-109827632D01*
X178534918Y-109936056D01*
X178072820Y-110244821D01*
X177810000Y-110638159D01*
X177547179Y-110244820D01*
X177085081Y-109936056D01*
X176540000Y-109827632D01*
X175994918Y-109936056D01*
X175532820Y-110244821D01*
X175224056Y-110706919D01*
X175143000Y-111114413D01*
X175143000Y-112405588D01*
X175224056Y-112813082D01*
X175532821Y-113275180D01*
X175679219Y-113373000D01*
X164100089Y-113373000D01*
X164454144Y-113018945D01*
X164792500Y-112202083D01*
X164792500Y-111317917D01*
X164774632Y-111274778D01*
X165111000Y-111274778D01*
X165111000Y-111925222D01*
X165359914Y-112526153D01*
X165819847Y-112986086D01*
X166420778Y-113235000D01*
X167071222Y-113235000D01*
X167672153Y-112986086D01*
X168132086Y-112526153D01*
X168381000Y-111925222D01*
X168381000Y-111274778D01*
X171611000Y-111274778D01*
X171611000Y-111925222D01*
X171859914Y-112526153D01*
X172319847Y-112986086D01*
X172920778Y-113235000D01*
X173571222Y-113235000D01*
X174172153Y-112986086D01*
X174632086Y-112526153D01*
X174881000Y-111925222D01*
X174881000Y-111274778D01*
X174632086Y-110673847D01*
X174172153Y-110213914D01*
X173571222Y-109965000D01*
X172920778Y-109965000D01*
X172319847Y-110213914D01*
X171859914Y-110673847D01*
X171611000Y-111274778D01*
X168381000Y-111274778D01*
X168132086Y-110673847D01*
X167672153Y-110213914D01*
X167071222Y-109965000D01*
X166420778Y-109965000D01*
X165819847Y-110213914D01*
X165359914Y-110673847D01*
X165111000Y-111274778D01*
X164774632Y-111274778D01*
X164454144Y-110501055D01*
X163828945Y-109875856D01*
X163012083Y-109537500D01*
X162127917Y-109537500D01*
X161311055Y-109875856D01*
X160685856Y-110501055D01*
X160347500Y-111317917D01*
X160347500Y-112202083D01*
X160685856Y-113018945D01*
X161039911Y-113373000D01*
X149557000Y-113373000D01*
X149557000Y-111374778D01*
X149761000Y-111374778D01*
X149761000Y-112025222D01*
X150009914Y-112626153D01*
X150469847Y-113086086D01*
X151070778Y-113335000D01*
X151721222Y-113335000D01*
X152322153Y-113086086D01*
X152782086Y-112626153D01*
X153031000Y-112025222D01*
X153031000Y-111374778D01*
X156261000Y-111374778D01*
X156261000Y-112025222D01*
X156509914Y-112626153D01*
X156969847Y-113086086D01*
X157570778Y-113335000D01*
X158221222Y-113335000D01*
X158822153Y-113086086D01*
X159282086Y-112626153D01*
X159531000Y-112025222D01*
X159531000Y-111374778D01*
X159282086Y-110773847D01*
X158822153Y-110313914D01*
X158221222Y-110065000D01*
X157570778Y-110065000D01*
X156969847Y-110313914D01*
X156509914Y-110773847D01*
X156261000Y-111374778D01*
X153031000Y-111374778D01*
X152782086Y-110773847D01*
X152322153Y-110313914D01*
X151721222Y-110065000D01*
X151070778Y-110065000D01*
X150469847Y-110313914D01*
X150009914Y-110773847D01*
X149761000Y-111374778D01*
X149557000Y-111374778D01*
X149557000Y-106874778D01*
X149761000Y-106874778D01*
X149761000Y-107525222D01*
X150009914Y-108126153D01*
X150469847Y-108586086D01*
X151070778Y-108835000D01*
X151721222Y-108835000D01*
X152322153Y-108586086D01*
X152782086Y-108126153D01*
X153031000Y-107525222D01*
X153031000Y-106874778D01*
X156261000Y-106874778D01*
X156261000Y-107525222D01*
X156509914Y-108126153D01*
X156969847Y-108586086D01*
X157570778Y-108835000D01*
X158221222Y-108835000D01*
X158822153Y-108586086D01*
X159282086Y-108126153D01*
X159531000Y-107525222D01*
X159531000Y-106874778D01*
X159489579Y-106774778D01*
X165111000Y-106774778D01*
X165111000Y-107425222D01*
X165359914Y-108026153D01*
X165819847Y-108486086D01*
X166420778Y-108735000D01*
X167071222Y-108735000D01*
X167672153Y-108486086D01*
X168132086Y-108026153D01*
X168381000Y-107425222D01*
X168381000Y-106774778D01*
X171611000Y-106774778D01*
X171611000Y-107425222D01*
X171859914Y-108026153D01*
X172319847Y-108486086D01*
X172920778Y-108735000D01*
X173571222Y-108735000D01*
X174172153Y-108486086D01*
X174632086Y-108026153D01*
X174881000Y-107425222D01*
X174881000Y-106774778D01*
X174632086Y-106173847D01*
X174172153Y-105713914D01*
X173571222Y-105465000D01*
X172920778Y-105465000D01*
X172319847Y-105713914D01*
X171859914Y-106173847D01*
X171611000Y-106774778D01*
X168381000Y-106774778D01*
X168132086Y-106173847D01*
X167672153Y-105713914D01*
X167071222Y-105465000D01*
X166420778Y-105465000D01*
X165819847Y-105713914D01*
X165359914Y-106173847D01*
X165111000Y-106774778D01*
X159489579Y-106774778D01*
X159462177Y-106708625D01*
X159910802Y-106260000D01*
X160883710Y-106260000D01*
X160916365Y-106292655D01*
X161260017Y-106435000D01*
X161631983Y-106435000D01*
X161975635Y-106292655D01*
X162238655Y-106029635D01*
X162381000Y-105685983D01*
X162381000Y-105314017D01*
X162238655Y-104970365D01*
X161975635Y-104707345D01*
X161631983Y-104565000D01*
X161260017Y-104565000D01*
X160916365Y-104707345D01*
X160883710Y-104740000D01*
X159670846Y-104740000D01*
X159595999Y-104725112D01*
X159521152Y-104740000D01*
X159521148Y-104740000D01*
X159299463Y-104784096D01*
X159048071Y-104952071D01*
X159005670Y-105015528D01*
X158945529Y-105075670D01*
X158945527Y-105075671D01*
X158387375Y-105633823D01*
X158221222Y-105565000D01*
X157570778Y-105565000D01*
X156969847Y-105813914D01*
X156509914Y-106273847D01*
X156261000Y-106874778D01*
X153031000Y-106874778D01*
X152782086Y-106273847D01*
X152322153Y-105813914D01*
X151721222Y-105565000D01*
X151070778Y-105565000D01*
X150469847Y-105813914D01*
X150009914Y-106273847D01*
X149761000Y-106874778D01*
X149557000Y-106874778D01*
X149557000Y-102896615D01*
X181323000Y-102896615D01*
X181323000Y-103487385D01*
X181549078Y-104033185D01*
X181966815Y-104450922D01*
X182512615Y-104677000D01*
X183103385Y-104677000D01*
X183649185Y-104450922D01*
X184066922Y-104033185D01*
X184293000Y-103487385D01*
X184293000Y-102896615D01*
X184066922Y-102350815D01*
X183649185Y-101933078D01*
X183103385Y-101707000D01*
X182512615Y-101707000D01*
X181966815Y-101933078D01*
X181549078Y-102350815D01*
X181323000Y-102896615D01*
X149557000Y-102896615D01*
X149557000Y-100052606D01*
X152959606Y-96650000D01*
X156782560Y-96650000D01*
X156782560Y-98350000D01*
X156831843Y-98597765D01*
X156972191Y-98807809D01*
X157182235Y-98948157D01*
X157430000Y-98997440D01*
X157626130Y-98997440D01*
X157495000Y-99314017D01*
X157495000Y-99685983D01*
X157637345Y-100029635D01*
X157900365Y-100292655D01*
X158244017Y-100435000D01*
X158615983Y-100435000D01*
X158959635Y-100292655D01*
X159222655Y-100029635D01*
X159365000Y-99685983D01*
X159365000Y-99314017D01*
X159233870Y-98997440D01*
X159430000Y-98997440D01*
X159677765Y-98948157D01*
X159887809Y-98807809D01*
X160028157Y-98597765D01*
X160077440Y-98350000D01*
X160077440Y-97785750D01*
X160795000Y-97785750D01*
X160795000Y-98476310D01*
X160891673Y-98709699D01*
X161070302Y-98888327D01*
X161303691Y-98985000D01*
X162144250Y-98985000D01*
X162303000Y-98826250D01*
X162303000Y-97627000D01*
X162557000Y-97627000D01*
X162557000Y-98826250D01*
X162715750Y-98985000D01*
X163556309Y-98985000D01*
X163789698Y-98888327D01*
X163968327Y-98709699D01*
X164065000Y-98476310D01*
X164065000Y-97785750D01*
X163906250Y-97627000D01*
X162557000Y-97627000D01*
X162303000Y-97627000D01*
X160953750Y-97627000D01*
X160795000Y-97785750D01*
X160077440Y-97785750D01*
X160077440Y-96650000D01*
X160052316Y-96523690D01*
X160795000Y-96523690D01*
X160795000Y-97214250D01*
X160953750Y-97373000D01*
X162303000Y-97373000D01*
X162303000Y-96173750D01*
X162557000Y-96173750D01*
X162557000Y-97373000D01*
X163906250Y-97373000D01*
X164065000Y-97214250D01*
X164065000Y-96523690D01*
X163968327Y-96290301D01*
X163789698Y-96111673D01*
X163556309Y-96015000D01*
X162715750Y-96015000D01*
X162557000Y-96173750D01*
X162303000Y-96173750D01*
X162144250Y-96015000D01*
X161303691Y-96015000D01*
X161070302Y-96111673D01*
X160891673Y-96290301D01*
X160795000Y-96523690D01*
X160052316Y-96523690D01*
X160028157Y-96402235D01*
X159887809Y-96192191D01*
X159677765Y-96051843D01*
X159430000Y-96002560D01*
X157430000Y-96002560D01*
X157182235Y-96051843D01*
X156972191Y-96192191D01*
X156831843Y-96402235D01*
X156782560Y-96650000D01*
X152959606Y-96650000D01*
X154519803Y-95089803D01*
X154547333Y-95048601D01*
X154557000Y-95000000D01*
X154557000Y-94250000D01*
X169157560Y-94250000D01*
X169157560Y-95750000D01*
X169206843Y-95997765D01*
X169347191Y-96207809D01*
X169557235Y-96348157D01*
X169805000Y-96397440D01*
X171055000Y-96397440D01*
X171302765Y-96348157D01*
X171512809Y-96207809D01*
X171592491Y-96088558D01*
X171680191Y-96219809D01*
X171890235Y-96360157D01*
X172138000Y-96409440D01*
X173662000Y-96409440D01*
X173909765Y-96360157D01*
X174119809Y-96219809D01*
X174260157Y-96009765D01*
X174309440Y-95762000D01*
X174309440Y-94238000D01*
X174260157Y-93990235D01*
X174119809Y-93780191D01*
X174095629Y-93764034D01*
X174297000Y-93277881D01*
X174297000Y-92722119D01*
X174084320Y-92208663D01*
X173875657Y-92000000D01*
X173994779Y-91880878D01*
X191798727Y-91880878D01*
X191851325Y-92108890D01*
X192325056Y-92272717D01*
X192825420Y-92242785D01*
X193148675Y-92108890D01*
X193201273Y-91880878D01*
X192500000Y-91179605D01*
X191798727Y-91880878D01*
X173994779Y-91880878D01*
X174084320Y-91791337D01*
X174297000Y-91277881D01*
X174297000Y-90825056D01*
X191227283Y-90825056D01*
X191257215Y-91325420D01*
X191391110Y-91648675D01*
X191619122Y-91701273D01*
X192320395Y-91000000D01*
X192679605Y-91000000D01*
X193380878Y-91701273D01*
X193608890Y-91648675D01*
X193772717Y-91174944D01*
X193747259Y-90749370D01*
X196240000Y-90749370D01*
X196240000Y-91250630D01*
X196431823Y-91713733D01*
X196786267Y-92068177D01*
X197249370Y-92260000D01*
X197750630Y-92260000D01*
X198213733Y-92068177D01*
X198568177Y-91713733D01*
X198760000Y-91250630D01*
X198760000Y-90749370D01*
X198568177Y-90286267D01*
X198213733Y-89931823D01*
X197750630Y-89740000D01*
X197249370Y-89740000D01*
X196786267Y-89931823D01*
X196431823Y-90286267D01*
X196240000Y-90749370D01*
X193747259Y-90749370D01*
X193742785Y-90674580D01*
X193608890Y-90351325D01*
X193380878Y-90298727D01*
X192679605Y-91000000D01*
X192320395Y-91000000D01*
X191619122Y-90298727D01*
X191391110Y-90351325D01*
X191227283Y-90825056D01*
X174297000Y-90825056D01*
X174297000Y-90722119D01*
X174084320Y-90208663D01*
X173994779Y-90119122D01*
X191798727Y-90119122D01*
X192500000Y-90820395D01*
X193201273Y-90119122D01*
X193148675Y-89891110D01*
X192674944Y-89727283D01*
X192174580Y-89757215D01*
X191851325Y-89891110D01*
X191798727Y-90119122D01*
X173994779Y-90119122D01*
X173875657Y-90000000D01*
X174084320Y-89791337D01*
X174297000Y-89277881D01*
X174297000Y-88722119D01*
X174084320Y-88208663D01*
X173875657Y-88000000D01*
X174084320Y-87791337D01*
X174297000Y-87277881D01*
X174297000Y-86722119D01*
X174084320Y-86208663D01*
X173875657Y-86000000D01*
X174084320Y-85791337D01*
X174297000Y-85277881D01*
X174297000Y-84722119D01*
X174084320Y-84208663D01*
X173875657Y-84000000D01*
X174084320Y-83791337D01*
X174297000Y-83277881D01*
X174297000Y-82722119D01*
X174084320Y-82208663D01*
X173875657Y-82000000D01*
X174084320Y-81791337D01*
X174297000Y-81277881D01*
X174297000Y-80722119D01*
X174084320Y-80208663D01*
X173875657Y-80000000D01*
X174084320Y-79791337D01*
X174297000Y-79277881D01*
X174297000Y-78722119D01*
X174283289Y-78689017D01*
X179495000Y-78689017D01*
X179495000Y-79060983D01*
X179637345Y-79404635D01*
X179670000Y-79437290D01*
X179670001Y-80937709D01*
X179637345Y-80970365D01*
X179495000Y-81314017D01*
X179495000Y-81685983D01*
X179637345Y-82029635D01*
X179900365Y-82292655D01*
X180244017Y-82435000D01*
X180615983Y-82435000D01*
X180959635Y-82292655D01*
X181222655Y-82029635D01*
X181365000Y-81685983D01*
X181365000Y-81314017D01*
X181222655Y-80970365D01*
X181190000Y-80937710D01*
X181190000Y-79437290D01*
X181222655Y-79404635D01*
X181260190Y-79314017D01*
X181370000Y-79314017D01*
X181370000Y-79685983D01*
X181500070Y-80000000D01*
X181370000Y-80314017D01*
X181370000Y-80685983D01*
X181512345Y-81029635D01*
X181775365Y-81292655D01*
X182119017Y-81435000D01*
X182490983Y-81435000D01*
X182834635Y-81292655D01*
X182867290Y-81260000D01*
X187867710Y-81260000D01*
X187900365Y-81292655D01*
X188244017Y-81435000D01*
X188615983Y-81435000D01*
X188959635Y-81292655D01*
X189222655Y-81029635D01*
X189365000Y-80685983D01*
X189365000Y-80314017D01*
X189234930Y-80000000D01*
X189365000Y-79685983D01*
X189365000Y-79314017D01*
X189234930Y-79000000D01*
X189365000Y-78685983D01*
X189365000Y-78512615D01*
X205707000Y-78512615D01*
X205707000Y-79103385D01*
X205933078Y-79649185D01*
X206350815Y-80066922D01*
X206896615Y-80293000D01*
X207487385Y-80293000D01*
X208033185Y-80066922D01*
X208450922Y-79649185D01*
X208677000Y-79103385D01*
X208677000Y-78512615D01*
X208450922Y-77966815D01*
X208033185Y-77549078D01*
X207487385Y-77323000D01*
X206896615Y-77323000D01*
X206350815Y-77549078D01*
X205933078Y-77966815D01*
X205707000Y-78512615D01*
X189365000Y-78512615D01*
X189365000Y-78314017D01*
X189234930Y-78000000D01*
X189365000Y-77685983D01*
X189365000Y-77314017D01*
X189222655Y-76970365D01*
X188959635Y-76707345D01*
X188615983Y-76565000D01*
X188244017Y-76565000D01*
X187900365Y-76707345D01*
X187867710Y-76740000D01*
X184492290Y-76740000D01*
X184459635Y-76707345D01*
X184115983Y-76565000D01*
X183744017Y-76565000D01*
X183400365Y-76707345D01*
X183137345Y-76970365D01*
X182995000Y-77314017D01*
X182995000Y-77685983D01*
X183125070Y-78000000D01*
X182995000Y-78314017D01*
X182995000Y-78685983D01*
X183017375Y-78740000D01*
X182867290Y-78740000D01*
X182834635Y-78707345D01*
X182490983Y-78565000D01*
X182119017Y-78565000D01*
X181775365Y-78707345D01*
X181512345Y-78970365D01*
X181370000Y-79314017D01*
X181260190Y-79314017D01*
X181365000Y-79060983D01*
X181365000Y-78689017D01*
X181222655Y-78345365D01*
X180959635Y-78082345D01*
X180615983Y-77940000D01*
X180244017Y-77940000D01*
X179900365Y-78082345D01*
X179637345Y-78345365D01*
X179495000Y-78689017D01*
X174283289Y-78689017D01*
X174084320Y-78208663D01*
X173691337Y-77815680D01*
X173426289Y-77705894D01*
X172900000Y-77179605D01*
X172373711Y-77705894D01*
X172108663Y-77815680D01*
X171715680Y-78208663D01*
X171503000Y-78722119D01*
X171503000Y-79277881D01*
X171715680Y-79791337D01*
X171924343Y-80000000D01*
X171715680Y-80208663D01*
X171503000Y-80722119D01*
X171503000Y-81277881D01*
X171715680Y-81791337D01*
X171924343Y-82000000D01*
X171715680Y-82208663D01*
X171503000Y-82722119D01*
X171503000Y-83277881D01*
X171715680Y-83791337D01*
X171924343Y-84000000D01*
X171715680Y-84208663D01*
X171503000Y-84722119D01*
X171503000Y-85277881D01*
X171715680Y-85791337D01*
X171924343Y-86000000D01*
X171715680Y-86208663D01*
X171503000Y-86722119D01*
X171503000Y-87277881D01*
X171715680Y-87791337D01*
X171924343Y-88000000D01*
X171715680Y-88208663D01*
X171503000Y-88722119D01*
X171503000Y-89277881D01*
X171715680Y-89791337D01*
X171924343Y-90000000D01*
X171715680Y-90208663D01*
X171503000Y-90722119D01*
X171503000Y-91277881D01*
X171518622Y-91315597D01*
X171414699Y-91211673D01*
X171181310Y-91115000D01*
X170715750Y-91115000D01*
X170557000Y-91273750D01*
X170557000Y-92373000D01*
X170577000Y-92373000D01*
X170577000Y-92627000D01*
X170557000Y-92627000D01*
X170557000Y-92647000D01*
X170303000Y-92647000D01*
X170303000Y-92627000D01*
X169328750Y-92627000D01*
X169170000Y-92785750D01*
X169170000Y-93376309D01*
X169266673Y-93609698D01*
X169408320Y-93751346D01*
X169347191Y-93792191D01*
X169206843Y-94002235D01*
X169157560Y-94250000D01*
X154557000Y-94250000D01*
X154557000Y-91623691D01*
X169170000Y-91623691D01*
X169170000Y-92214250D01*
X169328750Y-92373000D01*
X170303000Y-92373000D01*
X170303000Y-91273750D01*
X170144250Y-91115000D01*
X169678690Y-91115000D01*
X169445301Y-91211673D01*
X169266673Y-91390302D01*
X169170000Y-91623691D01*
X154557000Y-91623691D01*
X154557000Y-85552606D01*
X166519803Y-73589803D01*
X166547333Y-73548601D01*
X166557000Y-73500000D01*
X166557000Y-73129174D01*
X166655001Y-73194656D01*
X166655000Y-75523421D01*
X166021077Y-76157344D01*
X165900365Y-76207345D01*
X165637345Y-76470365D01*
X165495000Y-76814017D01*
X165495000Y-77185983D01*
X165637345Y-77529635D01*
X165900365Y-77792655D01*
X166244017Y-77935000D01*
X166615983Y-77935000D01*
X166959635Y-77792655D01*
X167222655Y-77529635D01*
X167272656Y-77408923D01*
X168104156Y-76577423D01*
X168178049Y-76528049D01*
X168239658Y-76435846D01*
X168321061Y-76314017D01*
X168995000Y-76314017D01*
X168995000Y-76685983D01*
X169137345Y-77029635D01*
X169400365Y-77292655D01*
X169744017Y-77435000D01*
X170115983Y-77435000D01*
X170459635Y-77292655D01*
X170722655Y-77029635D01*
X170820961Y-76792302D01*
X171490856Y-76792302D01*
X171518638Y-77347368D01*
X171677603Y-77731143D01*
X171919787Y-77800608D01*
X172720395Y-77000000D01*
X173079605Y-77000000D01*
X173880213Y-77800608D01*
X174122397Y-77731143D01*
X174309144Y-77207698D01*
X174281362Y-76652632D01*
X174122397Y-76268857D01*
X173880213Y-76199392D01*
X173079605Y-77000000D01*
X172720395Y-77000000D01*
X171919787Y-76199392D01*
X171677603Y-76268857D01*
X171490856Y-76792302D01*
X170820961Y-76792302D01*
X170865000Y-76685983D01*
X170865000Y-76639802D01*
X171485015Y-76019787D01*
X172099392Y-76019787D01*
X172900000Y-76820395D01*
X173700608Y-76019787D01*
X173631143Y-75777603D01*
X173107698Y-75590856D01*
X172552632Y-75618638D01*
X172168857Y-75777603D01*
X172099392Y-76019787D01*
X171485015Y-76019787D01*
X172020329Y-75484474D01*
X172020333Y-75484468D01*
X172244802Y-75260000D01*
X173415199Y-75260000D01*
X173995000Y-75839802D01*
X173995000Y-75885983D01*
X174137345Y-76229635D01*
X174400365Y-76492655D01*
X174744017Y-76635000D01*
X175115983Y-76635000D01*
X175459635Y-76492655D01*
X175722655Y-76229635D01*
X175865000Y-75885983D01*
X175865000Y-75514017D01*
X175722655Y-75170365D01*
X175459635Y-74907345D01*
X175115983Y-74765000D01*
X175069802Y-74765000D01*
X174320331Y-74015530D01*
X174277929Y-73952071D01*
X174026537Y-73784096D01*
X173804852Y-73740000D01*
X173804847Y-73740000D01*
X173730000Y-73725112D01*
X173655153Y-73740000D01*
X172004848Y-73740000D01*
X171930000Y-73725112D01*
X171855152Y-73740000D01*
X171855148Y-73740000D01*
X171681605Y-73774520D01*
X171633462Y-73784096D01*
X171446418Y-73909076D01*
X171382071Y-73952071D01*
X171339671Y-74015528D01*
X170945532Y-74409667D01*
X170945526Y-74409671D01*
X169790198Y-75565000D01*
X169744017Y-75565000D01*
X169400365Y-75707345D01*
X169137345Y-75970365D01*
X168995000Y-76314017D01*
X168321061Y-76314017D01*
X168351236Y-76268857D01*
X168373652Y-76235310D01*
X168425000Y-75977165D01*
X168425000Y-75977160D01*
X168442337Y-75890001D01*
X168425000Y-75802841D01*
X168425000Y-73194656D01*
X168610625Y-73070625D01*
X168938839Y-72579418D01*
X169054092Y-72000000D01*
X168989402Y-71674778D01*
X171365000Y-71674778D01*
X171365000Y-72325222D01*
X171613914Y-72926153D01*
X172073847Y-73386086D01*
X172674778Y-73635000D01*
X173325222Y-73635000D01*
X173926153Y-73386086D01*
X174386086Y-72926153D01*
X174635000Y-72325222D01*
X174635000Y-71674778D01*
X177865000Y-71674778D01*
X177865000Y-72325222D01*
X178113914Y-72926153D01*
X178573847Y-73386086D01*
X178740000Y-73454909D01*
X178740001Y-74995148D01*
X178725112Y-75070000D01*
X178784097Y-75366537D01*
X178874331Y-75501581D01*
X178952072Y-75617929D01*
X179015528Y-75660329D01*
X179495000Y-76139802D01*
X179495000Y-76185983D01*
X179637345Y-76529635D01*
X179900365Y-76792655D01*
X180244017Y-76935000D01*
X180615983Y-76935000D01*
X180959635Y-76792655D01*
X181222655Y-76529635D01*
X181365000Y-76185983D01*
X181365000Y-75814017D01*
X181222655Y-75470365D01*
X180959635Y-75207345D01*
X180615983Y-75065000D01*
X180569802Y-75065000D01*
X180260000Y-74755199D01*
X180260000Y-73940615D01*
X189197000Y-73940615D01*
X189197000Y-74531385D01*
X189423078Y-75077185D01*
X189840815Y-75494922D01*
X190386615Y-75721000D01*
X190977385Y-75721000D01*
X191523185Y-75494922D01*
X191940922Y-75077185D01*
X192167000Y-74531385D01*
X192167000Y-73940615D01*
X191940922Y-73394815D01*
X191523185Y-72977078D01*
X190977385Y-72751000D01*
X190386615Y-72751000D01*
X189840815Y-72977078D01*
X189423078Y-73394815D01*
X189197000Y-73940615D01*
X180260000Y-73940615D01*
X180260000Y-73454909D01*
X180426153Y-73386086D01*
X180886086Y-72926153D01*
X181135000Y-72325222D01*
X181135000Y-71674778D01*
X180886086Y-71073847D01*
X180426153Y-70613914D01*
X179825222Y-70365000D01*
X179174778Y-70365000D01*
X178573847Y-70613914D01*
X178113914Y-71073847D01*
X177865000Y-71674778D01*
X174635000Y-71674778D01*
X174386086Y-71073847D01*
X173926153Y-70613914D01*
X173325222Y-70365000D01*
X172674778Y-70365000D01*
X172073847Y-70613914D01*
X171613914Y-71073847D01*
X171365000Y-71674778D01*
X168989402Y-71674778D01*
X168938839Y-71420582D01*
X168610625Y-70929375D01*
X168119418Y-70601161D01*
X167686256Y-70515000D01*
X167393744Y-70515000D01*
X167020329Y-70589277D01*
X167887487Y-69722119D01*
X183223000Y-69722119D01*
X183223000Y-70277881D01*
X183435680Y-70791337D01*
X183828663Y-71184320D01*
X184342119Y-71397000D01*
X184897881Y-71397000D01*
X185411337Y-71184320D01*
X185804320Y-70791337D01*
X185890000Y-70584487D01*
X185975680Y-70791337D01*
X186368663Y-71184320D01*
X186882119Y-71397000D01*
X187437881Y-71397000D01*
X187951337Y-71184320D01*
X188344320Y-70791337D01*
X188430000Y-70584487D01*
X188515680Y-70791337D01*
X188908663Y-71184320D01*
X189422119Y-71397000D01*
X189977881Y-71397000D01*
X190491337Y-71184320D01*
X190884320Y-70791337D01*
X190970000Y-70584487D01*
X191055680Y-70791337D01*
X191448663Y-71184320D01*
X191962119Y-71397000D01*
X192517881Y-71397000D01*
X193031337Y-71184320D01*
X193424320Y-70791337D01*
X193637000Y-70277881D01*
X193637000Y-69722119D01*
X193424320Y-69208663D01*
X193404674Y-69189017D01*
X198995000Y-69189017D01*
X198995000Y-69560983D01*
X199137345Y-69904635D01*
X199170000Y-69937290D01*
X199170001Y-71562709D01*
X199137345Y-71595365D01*
X198995000Y-71939017D01*
X198995000Y-72310983D01*
X199137345Y-72654635D01*
X199400365Y-72917655D01*
X199744017Y-73060000D01*
X200115983Y-73060000D01*
X200459635Y-72917655D01*
X200722655Y-72654635D01*
X200865000Y-72310983D01*
X200865000Y-71939017D01*
X200722655Y-71595365D01*
X200690000Y-71562710D01*
X200690000Y-70722119D01*
X208533000Y-70722119D01*
X208533000Y-71277881D01*
X208745680Y-71791337D01*
X209138663Y-72184320D01*
X209345513Y-72270000D01*
X209138663Y-72355680D01*
X208745680Y-72748663D01*
X208533000Y-73262119D01*
X208533000Y-73817881D01*
X208745680Y-74331337D01*
X209138663Y-74724320D01*
X209652119Y-74937000D01*
X210207881Y-74937000D01*
X210721337Y-74724320D01*
X211114320Y-74331337D01*
X211327000Y-73817881D01*
X211327000Y-73262119D01*
X211114320Y-72748663D01*
X210721337Y-72355680D01*
X210514487Y-72270000D01*
X210721337Y-72184320D01*
X211114320Y-71791337D01*
X211327000Y-71277881D01*
X211327000Y-70722119D01*
X211114320Y-70208663D01*
X210721337Y-69815680D01*
X210530353Y-69736572D01*
X210661143Y-69682397D01*
X210730608Y-69440213D01*
X209930000Y-68639605D01*
X209129392Y-69440213D01*
X209198857Y-69682397D01*
X209339393Y-69732535D01*
X209138663Y-69815680D01*
X208745680Y-70208663D01*
X208533000Y-70722119D01*
X200690000Y-70722119D01*
X200690000Y-69937290D01*
X200722655Y-69904635D01*
X200865000Y-69560983D01*
X200865000Y-69189017D01*
X200722655Y-68845365D01*
X200459635Y-68582345D01*
X200115983Y-68440000D01*
X199744017Y-68440000D01*
X199400365Y-68582345D01*
X199137345Y-68845365D01*
X198995000Y-69189017D01*
X193404674Y-69189017D01*
X193031337Y-68815680D01*
X192517881Y-68603000D01*
X191962119Y-68603000D01*
X191448663Y-68815680D01*
X191055680Y-69208663D01*
X190970000Y-69415513D01*
X190884320Y-69208663D01*
X190491337Y-68815680D01*
X189977881Y-68603000D01*
X189422119Y-68603000D01*
X188908663Y-68815680D01*
X188515680Y-69208663D01*
X188430000Y-69415513D01*
X188344320Y-69208663D01*
X187951337Y-68815680D01*
X187437881Y-68603000D01*
X186882119Y-68603000D01*
X186368663Y-68815680D01*
X185975680Y-69208663D01*
X185890000Y-69415513D01*
X185804320Y-69208663D01*
X185411337Y-68815680D01*
X184897881Y-68603000D01*
X184342119Y-68603000D01*
X183828663Y-68815680D01*
X183435680Y-69208663D01*
X183223000Y-69722119D01*
X167887487Y-69722119D01*
X168957074Y-68652532D01*
X172027073Y-68652532D01*
X172125736Y-68919387D01*
X172735461Y-69145908D01*
X173385460Y-69121856D01*
X173874264Y-68919387D01*
X173972927Y-68652532D01*
X178527073Y-68652532D01*
X178625736Y-68919387D01*
X179235461Y-69145908D01*
X179885460Y-69121856D01*
X180374264Y-68919387D01*
X180472927Y-68652532D01*
X179500000Y-67679605D01*
X178527073Y-68652532D01*
X173972927Y-68652532D01*
X173000000Y-67679605D01*
X172027073Y-68652532D01*
X168957074Y-68652532D01*
X170374145Y-67235461D01*
X171354092Y-67235461D01*
X171378144Y-67885460D01*
X171580613Y-68374264D01*
X171847468Y-68472927D01*
X172820395Y-67500000D01*
X173179605Y-67500000D01*
X174152532Y-68472927D01*
X174419387Y-68374264D01*
X174645908Y-67764539D01*
X174626331Y-67235461D01*
X177854092Y-67235461D01*
X177878144Y-67885460D01*
X178080613Y-68374264D01*
X178347468Y-68472927D01*
X179320395Y-67500000D01*
X179679605Y-67500000D01*
X180652532Y-68472927D01*
X180919387Y-68374264D01*
X181145908Y-67764539D01*
X181128192Y-67285750D01*
X200365000Y-67285750D01*
X200365000Y-67976310D01*
X200461673Y-68209699D01*
X200640302Y-68388327D01*
X200873691Y-68485000D01*
X201714250Y-68485000D01*
X201873000Y-68326250D01*
X201873000Y-67127000D01*
X202127000Y-67127000D01*
X202127000Y-68326250D01*
X202285750Y-68485000D01*
X203126309Y-68485000D01*
X203359698Y-68388327D01*
X203538327Y-68209699D01*
X203635000Y-67976310D01*
X203635000Y-67285750D01*
X203476250Y-67127000D01*
X202127000Y-67127000D01*
X201873000Y-67127000D01*
X200523750Y-67127000D01*
X200365000Y-67285750D01*
X181128192Y-67285750D01*
X181121856Y-67114540D01*
X180919387Y-66625736D01*
X180652532Y-66527073D01*
X179679605Y-67500000D01*
X179320395Y-67500000D01*
X178347468Y-66527073D01*
X178080613Y-66625736D01*
X177854092Y-67235461D01*
X174626331Y-67235461D01*
X174621856Y-67114540D01*
X174419387Y-66625736D01*
X174152532Y-66527073D01*
X173179605Y-67500000D01*
X172820395Y-67500000D01*
X171847468Y-66527073D01*
X171580613Y-66625736D01*
X171354092Y-67235461D01*
X170374145Y-67235461D01*
X171262138Y-66347468D01*
X172027073Y-66347468D01*
X173000000Y-67320395D01*
X173972927Y-66347468D01*
X178527073Y-66347468D01*
X179500000Y-67320395D01*
X180472927Y-66347468D01*
X180374264Y-66080613D01*
X180221045Y-66023690D01*
X200365000Y-66023690D01*
X200365000Y-66714250D01*
X200523750Y-66873000D01*
X201873000Y-66873000D01*
X201873000Y-65673750D01*
X202127000Y-65673750D01*
X202127000Y-66873000D01*
X203476250Y-66873000D01*
X203635000Y-66714250D01*
X203635000Y-66023690D01*
X203538327Y-65790301D01*
X203359698Y-65611673D01*
X203126309Y-65515000D01*
X202285750Y-65515000D01*
X202127000Y-65673750D01*
X201873000Y-65673750D01*
X201714250Y-65515000D01*
X200873691Y-65515000D01*
X200640302Y-65611673D01*
X200461673Y-65790301D01*
X200365000Y-66023690D01*
X180221045Y-66023690D01*
X179764539Y-65854092D01*
X179114540Y-65878144D01*
X178625736Y-66080613D01*
X178527073Y-66347468D01*
X173972927Y-66347468D01*
X173874264Y-66080613D01*
X173264539Y-65854092D01*
X172614540Y-65878144D01*
X172125736Y-66080613D01*
X172027073Y-66347468D01*
X171262138Y-66347468D01*
X172226806Y-65382800D01*
X172476000Y-65432368D01*
X173021082Y-65323944D01*
X173483180Y-65015180D01*
X173757580Y-64604511D01*
X173773941Y-64659941D01*
X174117974Y-65085630D01*
X174598723Y-65347260D01*
X174672930Y-65362220D01*
X174889000Y-65239720D01*
X174889000Y-63627000D01*
X174869000Y-63627000D01*
X174869000Y-63373000D01*
X174889000Y-63373000D01*
X174889000Y-63353000D01*
X175143000Y-63353000D01*
X175143000Y-63373000D01*
X175163000Y-63373000D01*
X175163000Y-63627000D01*
X175143000Y-63627000D01*
X175143000Y-65239720D01*
X175359070Y-65362220D01*
X175433277Y-65347260D01*
X175914026Y-65085630D01*
X176258059Y-64659941D01*
X176274420Y-64604511D01*
X176548821Y-65015180D01*
X177010919Y-65323944D01*
X177556000Y-65432368D01*
X178101082Y-65323944D01*
X178563180Y-65015180D01*
X178826000Y-64621842D01*
X179088821Y-65015180D01*
X179550919Y-65323944D01*
X180096000Y-65432368D01*
X180641082Y-65323944D01*
X181103180Y-65015180D01*
X181366000Y-64621842D01*
X181628821Y-65015180D01*
X182090919Y-65323944D01*
X182636000Y-65432368D01*
X183181082Y-65323944D01*
X183643180Y-65015180D01*
X183906000Y-64621842D01*
X184168821Y-65015180D01*
X184630919Y-65323944D01*
X185176000Y-65432368D01*
X185721082Y-65323944D01*
X186183180Y-65015180D01*
X186446000Y-64621842D01*
X186708821Y-65015180D01*
X187170919Y-65323944D01*
X187716000Y-65432368D01*
X188261082Y-65323944D01*
X188723180Y-65015180D01*
X188986000Y-64621842D01*
X189248821Y-65015180D01*
X189710919Y-65323944D01*
X190256000Y-65432368D01*
X190801082Y-65323944D01*
X191263180Y-65015180D01*
X191571944Y-64553082D01*
X191653000Y-64145588D01*
X191653000Y-62854412D01*
X191571944Y-62446918D01*
X191358181Y-62127000D01*
X193217819Y-62127000D01*
X193004056Y-62446919D01*
G36*
X171468821Y-65015180D02*
X171928240Y-65322154D01*
X166557000Y-70693394D01*
X166557000Y-68638521D01*
X166703076Y-68771645D01*
X167113110Y-68941476D01*
X167343000Y-68820155D01*
X167343000Y-67627000D01*
X167597000Y-67627000D01*
X167597000Y-68820155D01*
X167826890Y-68941476D01*
X168236924Y-68771645D01*
X168665183Y-68381358D01*
X168911486Y-67856892D01*
X168790819Y-67627000D01*
X167597000Y-67627000D01*
X167343000Y-67627000D01*
X167323000Y-67627000D01*
X167323000Y-67373000D01*
X167343000Y-67373000D01*
X167343000Y-66179845D01*
X167597000Y-66179845D01*
X167597000Y-67373000D01*
X168790819Y-67373000D01*
X168911486Y-67143108D01*
X168665183Y-66618642D01*
X168236924Y-66228355D01*
X167826890Y-66058524D01*
X167597000Y-66179845D01*
X167343000Y-66179845D01*
X167113110Y-66058524D01*
X166703076Y-66228355D01*
X166557000Y-66361479D01*
X166557000Y-66052606D01*
X167213533Y-65396073D01*
X167396000Y-65432368D01*
X167941082Y-65323944D01*
X168403180Y-65015180D01*
X168666000Y-64621842D01*
X168928821Y-65015180D01*
X169390919Y-65323944D01*
X169936000Y-65432368D01*
X170481082Y-65323944D01*
X170943180Y-65015180D01*
X171206000Y-64621842D01*
X171468821Y-65015180D01*
X171468821Y-65015180D01*
G37*
X171468821Y-65015180D02*
X171928240Y-65322154D01*
X166557000Y-70693394D01*
X166557000Y-68638521D01*
X166703076Y-68771645D01*
X167113110Y-68941476D01*
X167343000Y-68820155D01*
X167343000Y-67627000D01*
X167597000Y-67627000D01*
X167597000Y-68820155D01*
X167826890Y-68941476D01*
X168236924Y-68771645D01*
X168665183Y-68381358D01*
X168911486Y-67856892D01*
X168790819Y-67627000D01*
X167597000Y-67627000D01*
X167343000Y-67627000D01*
X167323000Y-67627000D01*
X167323000Y-67373000D01*
X167343000Y-67373000D01*
X167343000Y-66179845D01*
X167597000Y-66179845D01*
X167597000Y-67373000D01*
X168790819Y-67373000D01*
X168911486Y-67143108D01*
X168665183Y-66618642D01*
X168236924Y-66228355D01*
X167826890Y-66058524D01*
X167597000Y-66179845D01*
X167343000Y-66179845D01*
X167113110Y-66058524D01*
X166703076Y-66228355D01*
X166557000Y-66361479D01*
X166557000Y-66052606D01*
X167213533Y-65396073D01*
X167396000Y-65432368D01*
X167941082Y-65323944D01*
X168403180Y-65015180D01*
X168666000Y-64621842D01*
X168928821Y-65015180D01*
X169390919Y-65323944D01*
X169936000Y-65432368D01*
X170481082Y-65323944D01*
X170943180Y-65015180D01*
X171206000Y-64621842D01*
X171468821Y-65015180D01*
G04 #@! TD*
M02*
