G04 #@! TF.GenerationSoftware,KiCad,Pcbnew,5.0.1*
G04 #@! TF.CreationDate,2019-02-15T13:26:15-06:00*
G04 #@! TF.ProjectId,tomato_timer,746F6D61746F5F74696D65722E6B6963,rev?*
G04 #@! TF.SameCoordinates,Original*
G04 #@! TF.FileFunction,Legend,Top*
G04 #@! TF.FilePolarity,Positive*
%FSLAX46Y46*%
G04 Gerber Fmt 4.6, Leading zero omitted, Abs format (unit mm)*
G04 Created by KiCad (PCBNEW 5.0.1) date Fri 15 Feb 2019 01:26:15 PM CST*
%MOMM*%
%LPD*%
G01*
G04 APERTURE LIST*
%ADD10C,0.300000*%
%ADD11C,0.200000*%
%ADD12C,0.120000*%
%ADD13C,0.150000*%
G04 APERTURE END LIST*
D10*
X150044285Y-71378571D02*
X149330000Y-71378571D01*
X149258571Y-72092857D01*
X149330000Y-72021428D01*
X149472857Y-71950000D01*
X149830000Y-71950000D01*
X149972857Y-72021428D01*
X150044285Y-72092857D01*
X150115714Y-72235714D01*
X150115714Y-72592857D01*
X150044285Y-72735714D01*
X149972857Y-72807142D01*
X149830000Y-72878571D01*
X149472857Y-72878571D01*
X149330000Y-72807142D01*
X149258571Y-72735714D01*
X150544285Y-71378571D02*
X151044285Y-72878571D01*
X151544285Y-71378571D01*
D11*
X189382380Y-71639523D02*
X188382380Y-71639523D01*
X188382380Y-71401428D01*
X188430000Y-71258571D01*
X188525238Y-71163333D01*
X188620476Y-71115714D01*
X188810952Y-71068095D01*
X188953809Y-71068095D01*
X189144285Y-71115714D01*
X189239523Y-71163333D01*
X189334761Y-71258571D01*
X189382380Y-71401428D01*
X189382380Y-71639523D01*
X188382380Y-70449047D02*
X188382380Y-70258571D01*
X188430000Y-70163333D01*
X188525238Y-70068095D01*
X188715714Y-70020476D01*
X189049047Y-70020476D01*
X189239523Y-70068095D01*
X189334761Y-70163333D01*
X189382380Y-70258571D01*
X189382380Y-70449047D01*
X189334761Y-70544285D01*
X189239523Y-70639523D01*
X189049047Y-70687142D01*
X188715714Y-70687142D01*
X188525238Y-70639523D01*
X188430000Y-70544285D01*
X188382380Y-70449047D01*
D10*
X212858571Y-65607142D02*
X214001428Y-65607142D01*
X212858571Y-75607142D02*
X214001428Y-75607142D01*
X213430000Y-76178571D02*
X213430000Y-75035714D01*
X201949285Y-69678571D02*
X202449285Y-71178571D01*
X202949285Y-69678571D01*
X203663571Y-71178571D02*
X203520714Y-71107142D01*
X203449285Y-71035714D01*
X203377857Y-70892857D01*
X203377857Y-70464285D01*
X203449285Y-70321428D01*
X203520714Y-70250000D01*
X203663571Y-70178571D01*
X203877857Y-70178571D01*
X204020714Y-70250000D01*
X204092142Y-70321428D01*
X204163571Y-70464285D01*
X204163571Y-70892857D01*
X204092142Y-71035714D01*
X204020714Y-71107142D01*
X203877857Y-71178571D01*
X203663571Y-71178571D01*
X205020714Y-71178571D02*
X204877857Y-71107142D01*
X204806428Y-70964285D01*
X204806428Y-69678571D01*
D11*
X184430000Y-72315714D02*
X184382380Y-72410952D01*
X184382380Y-72553809D01*
X184430000Y-72696666D01*
X184525238Y-72791904D01*
X184620476Y-72839523D01*
X184810952Y-72887142D01*
X184953809Y-72887142D01*
X185144285Y-72839523D01*
X185239523Y-72791904D01*
X185334761Y-72696666D01*
X185382380Y-72553809D01*
X185382380Y-72458571D01*
X185334761Y-72315714D01*
X185287142Y-72268095D01*
X184953809Y-72268095D01*
X184953809Y-72458571D01*
X185382380Y-71839523D02*
X184382380Y-71839523D01*
X185382380Y-71268095D01*
X184382380Y-71268095D01*
X185382380Y-70791904D02*
X184382380Y-70791904D01*
X184382380Y-70553809D01*
X184430000Y-70410952D01*
X184525238Y-70315714D01*
X184620476Y-70268095D01*
X184810952Y-70220476D01*
X184953809Y-70220476D01*
X185144285Y-70268095D01*
X185239523Y-70315714D01*
X185334761Y-70410952D01*
X185382380Y-70553809D01*
X185382380Y-70791904D01*
X186482380Y-71125238D02*
X186482380Y-71601428D01*
X186958571Y-71649047D01*
X186910952Y-71601428D01*
X186863333Y-71506190D01*
X186863333Y-71268095D01*
X186910952Y-71172857D01*
X186958571Y-71125238D01*
X187053809Y-71077619D01*
X187291904Y-71077619D01*
X187387142Y-71125238D01*
X187434761Y-71172857D01*
X187482380Y-71268095D01*
X187482380Y-71506190D01*
X187434761Y-71601428D01*
X187387142Y-71649047D01*
X186482380Y-70791904D02*
X187482380Y-70458571D01*
X186482380Y-70125238D01*
D10*
X176142857Y-75078571D02*
X175642857Y-74364285D01*
X175285714Y-75078571D02*
X175285714Y-73578571D01*
X175857142Y-73578571D01*
X176000000Y-73650000D01*
X176071428Y-73721428D01*
X176142857Y-73864285D01*
X176142857Y-74078571D01*
X176071428Y-74221428D01*
X176000000Y-74292857D01*
X175857142Y-74364285D01*
X175285714Y-74364285D01*
X177357142Y-75007142D02*
X177214285Y-75078571D01*
X176928571Y-75078571D01*
X176785714Y-75007142D01*
X176714285Y-74864285D01*
X176714285Y-74292857D01*
X176785714Y-74150000D01*
X176928571Y-74078571D01*
X177214285Y-74078571D01*
X177357142Y-74150000D01*
X177428571Y-74292857D01*
X177428571Y-74435714D01*
X176714285Y-74578571D01*
X178000000Y-75007142D02*
X178142857Y-75078571D01*
X178428571Y-75078571D01*
X178571428Y-75007142D01*
X178642857Y-74864285D01*
X178642857Y-74792857D01*
X178571428Y-74650000D01*
X178428571Y-74578571D01*
X178214285Y-74578571D01*
X178071428Y-74507142D01*
X178000000Y-74364285D01*
X178000000Y-74292857D01*
X178071428Y-74150000D01*
X178214285Y-74078571D01*
X178428571Y-74078571D01*
X178571428Y-74150000D01*
X179857142Y-75007142D02*
X179714285Y-75078571D01*
X179428571Y-75078571D01*
X179285714Y-75007142D01*
X179214285Y-74864285D01*
X179214285Y-74292857D01*
X179285714Y-74150000D01*
X179428571Y-74078571D01*
X179714285Y-74078571D01*
X179857142Y-74150000D01*
X179928571Y-74292857D01*
X179928571Y-74435714D01*
X179214285Y-74578571D01*
X180357142Y-74078571D02*
X180928571Y-74078571D01*
X180571428Y-73578571D02*
X180571428Y-74864285D01*
X180642857Y-75007142D01*
X180785714Y-75078571D01*
X180928571Y-75078571D01*
X175001428Y-108107142D02*
X175215714Y-108178571D01*
X175572857Y-108178571D01*
X175715714Y-108107142D01*
X175787142Y-108035714D01*
X175858571Y-107892857D01*
X175858571Y-107750000D01*
X175787142Y-107607142D01*
X175715714Y-107535714D01*
X175572857Y-107464285D01*
X175287142Y-107392857D01*
X175144285Y-107321428D01*
X175072857Y-107250000D01*
X175001428Y-107107142D01*
X175001428Y-106964285D01*
X175072857Y-106821428D01*
X175144285Y-106750000D01*
X175287142Y-106678571D01*
X175644285Y-106678571D01*
X175858571Y-106750000D01*
X176287142Y-107178571D02*
X176858571Y-107178571D01*
X176501428Y-106678571D02*
X176501428Y-107964285D01*
X176572857Y-108107142D01*
X176715714Y-108178571D01*
X176858571Y-108178571D01*
X178001428Y-108178571D02*
X178001428Y-107392857D01*
X177930000Y-107250000D01*
X177787142Y-107178571D01*
X177501428Y-107178571D01*
X177358571Y-107250000D01*
X178001428Y-108107142D02*
X177858571Y-108178571D01*
X177501428Y-108178571D01*
X177358571Y-108107142D01*
X177287142Y-107964285D01*
X177287142Y-107821428D01*
X177358571Y-107678571D01*
X177501428Y-107607142D01*
X177858571Y-107607142D01*
X178001428Y-107535714D01*
X178715714Y-108178571D02*
X178715714Y-107178571D01*
X178715714Y-107464285D02*
X178787142Y-107321428D01*
X178858571Y-107250000D01*
X179001428Y-107178571D01*
X179144285Y-107178571D01*
X179430000Y-107178571D02*
X180001428Y-107178571D01*
X179644285Y-106678571D02*
X179644285Y-107964285D01*
X179715714Y-108107142D01*
X179858571Y-108178571D01*
X180001428Y-108178571D01*
X159715714Y-108107142D02*
X159930000Y-108178571D01*
X160287142Y-108178571D01*
X160430000Y-108107142D01*
X160501428Y-108035714D01*
X160572857Y-107892857D01*
X160572857Y-107750000D01*
X160501428Y-107607142D01*
X160430000Y-107535714D01*
X160287142Y-107464285D01*
X160001428Y-107392857D01*
X159858571Y-107321428D01*
X159787142Y-107250000D01*
X159715714Y-107107142D01*
X159715714Y-106964285D01*
X159787142Y-106821428D01*
X159858571Y-106750000D01*
X160001428Y-106678571D01*
X160358571Y-106678571D01*
X160572857Y-106750000D01*
X161001428Y-107178571D02*
X161572857Y-107178571D01*
X161215714Y-106678571D02*
X161215714Y-107964285D01*
X161287142Y-108107142D01*
X161430000Y-108178571D01*
X161572857Y-108178571D01*
X162287142Y-108178571D02*
X162144285Y-108107142D01*
X162072857Y-108035714D01*
X162001428Y-107892857D01*
X162001428Y-107464285D01*
X162072857Y-107321428D01*
X162144285Y-107250000D01*
X162287142Y-107178571D01*
X162501428Y-107178571D01*
X162644285Y-107250000D01*
X162715714Y-107321428D01*
X162787142Y-107464285D01*
X162787142Y-107892857D01*
X162715714Y-108035714D01*
X162644285Y-108107142D01*
X162501428Y-108178571D01*
X162287142Y-108178571D01*
X163430000Y-107178571D02*
X163430000Y-108678571D01*
X163430000Y-107250000D02*
X163572857Y-107178571D01*
X163858571Y-107178571D01*
X164001428Y-107250000D01*
X164072857Y-107321428D01*
X164144285Y-107464285D01*
X164144285Y-107892857D01*
X164072857Y-108035714D01*
X164001428Y-108107142D01*
X163858571Y-108178571D01*
X163572857Y-108178571D01*
X163430000Y-108107142D01*
D12*
G04 #@! TO.C,R7*
X200330000Y-76295000D02*
X198330000Y-76295000D01*
X198330000Y-74155000D02*
X200330000Y-74155000D01*
G04 #@! TO.C,R4*
X175030019Y-101442801D02*
X173030019Y-101442801D01*
X173030019Y-99302801D02*
X175030019Y-99302801D01*
D13*
G04 #@! TO.C,C2*
X157330019Y-81772801D02*
X154730019Y-81772801D01*
X157330019Y-81772801D02*
X159930019Y-81772801D01*
X157330019Y-75572801D02*
X154730019Y-75572801D01*
X157330019Y-75572801D02*
X159930019Y-75572801D01*
D12*
G04 #@! TO.C,SW2*
X178500000Y-66500000D02*
X174000000Y-66500000D01*
X179750000Y-70500000D02*
X179750000Y-69000000D01*
X174000000Y-73000000D02*
X178500000Y-73000000D01*
X172750000Y-69000000D02*
X172750000Y-70500000D01*
G04 #@! TO.C,R10*
X209360000Y-96000000D02*
X209360000Y-94000000D01*
X211500000Y-94000000D02*
X211500000Y-96000000D01*
G04 #@! TO.C,SW3*
X172246000Y-106100000D02*
X167746000Y-106100000D01*
X173496000Y-110100000D02*
X173496000Y-108600000D01*
X167746000Y-112600000D02*
X172246000Y-112600000D01*
X166496000Y-108600000D02*
X166496000Y-110100000D01*
G04 #@! TO.C,SW4*
X156896000Y-106200000D02*
X152396000Y-106200000D01*
X158146000Y-110200000D02*
X158146000Y-108700000D01*
X152396000Y-112700000D02*
X156896000Y-112700000D01*
X151146000Y-108700000D02*
X151146000Y-110200000D01*
D13*
G04 #@! TO.C,LS1*
X201100820Y-91000000D02*
G75*
G03X201100820Y-91000000I-6100820J0D01*
G01*
G04 #@! TO.C,U1*
X157310000Y-102310000D02*
X166510000Y-102310000D01*
X174100000Y-95780000D02*
X174100000Y-74700000D01*
X166510000Y-102310000D02*
X174100000Y-95780000D01*
X149720000Y-95780000D02*
X157310000Y-102310000D01*
X174100000Y-74700000D02*
X149720000Y-74700000D01*
X149720000Y-74700000D02*
X149720000Y-95780000D01*
X178450000Y-68640000D02*
X178390000Y-68640000D01*
D12*
G04 #@! TO.C,J1*
X159753000Y-61400000D02*
X159753000Y-64000000D01*
X145053000Y-61400000D02*
X159753000Y-61400000D01*
X159753000Y-70600000D02*
X157853000Y-70600000D01*
X159753000Y-67900000D02*
X159753000Y-70600000D01*
X145053000Y-70600000D02*
X145053000Y-61400000D01*
X153853000Y-70600000D02*
X145053000Y-70600000D01*
G04 #@! TO.C,JP2*
X164170000Y-72704000D02*
X166830000Y-72704000D01*
X164170000Y-70104000D02*
X164170000Y-72704000D01*
X166830000Y-70104000D02*
X166830000Y-72704000D01*
X164170000Y-70104000D02*
X166830000Y-70104000D01*
X164170000Y-68834000D02*
X164170000Y-67504000D01*
X164170000Y-67504000D02*
X165500000Y-67504000D01*
D13*
G04 #@! TO.C,D2*
X207700000Y-91000000D02*
G75*
G03X207700000Y-91000000I-12700000J0D01*
G01*
X214050000Y-91000000D02*
G75*
G03X214050000Y-91000000I-19050000J0D01*
G01*
G04 #@! TO.C,RV1*
X215375000Y-70500000D02*
G75*
G03X215375000Y-70500000I-4445000J0D01*
G01*
X205850000Y-66690000D02*
X205850000Y-74310000D01*
X205850000Y-66690000D02*
X208390000Y-66690000D01*
X205850000Y-74310000D02*
X208390000Y-74310000D01*
D12*
G04 #@! TO.C,R1*
X168500000Y-80570000D02*
X166500000Y-80570000D01*
X166500000Y-78430000D02*
X168500000Y-78430000D01*
G04 #@! TO.C,R2*
X180000000Y-92000000D02*
X180000000Y-94000000D01*
X177860000Y-94000000D02*
X177860000Y-92000000D01*
G04 #@! TO.C,R3*
X166230019Y-84742801D02*
X164230019Y-84742801D01*
X164230019Y-82602801D02*
X166230019Y-82602801D01*
G04 #@! TO.C,R8*
X195390000Y-67500000D02*
X195390000Y-69500000D01*
X193250000Y-69500000D02*
X193250000Y-67500000D01*
G04 #@! TO.C,Q1*
X169080000Y-87240000D02*
X169080000Y-88700000D01*
X165920000Y-87240000D02*
X165920000Y-90400000D01*
X165920000Y-87240000D02*
X166850000Y-87240000D01*
X169080000Y-87240000D02*
X168150000Y-87240000D01*
G04 #@! TO.C,Q2*
X163010000Y-87240000D02*
X162080000Y-87240000D01*
X159850000Y-87240000D02*
X160780000Y-87240000D01*
X159850000Y-87240000D02*
X159850000Y-90400000D01*
X163010000Y-87240000D02*
X163010000Y-88700000D01*
G04 #@! TO.C,Q3*
X209010000Y-100240000D02*
X209010000Y-101700000D01*
X205850000Y-100240000D02*
X205850000Y-103400000D01*
X205850000Y-100240000D02*
X206780000Y-100240000D01*
X209010000Y-100240000D02*
X208080000Y-100240000D01*
G04 #@! TO.C,R9*
X203030019Y-105742801D02*
X201030019Y-105742801D01*
X201030019Y-103602801D02*
X203030019Y-103602801D01*
G04 #@! TO.C,D1*
X189730000Y-68350000D02*
X189730000Y-69550000D01*
X189730000Y-64400000D02*
X189730000Y-62150000D01*
X189230000Y-64400000D02*
X189230000Y-62150000D01*
X184630000Y-66000000D02*
X183630000Y-66000000D01*
X184630000Y-64400000D02*
X184630000Y-66000000D01*
X183630000Y-64400000D02*
X184630000Y-64400000D01*
X183630000Y-66000000D02*
X183630000Y-64400000D01*
X189230000Y-66000000D02*
X190230000Y-66000000D01*
X189230000Y-64400000D02*
X189230000Y-66000000D01*
X190230000Y-64400000D02*
X189230000Y-64400000D01*
X190230000Y-66000000D02*
X190230000Y-64400000D01*
X182880000Y-68350000D02*
X183780000Y-68350000D01*
X190980000Y-68350000D02*
X190080000Y-68350000D01*
X183780000Y-68350000D02*
X184130000Y-68350000D01*
X183780000Y-69950000D02*
X183780000Y-68350000D01*
X182880000Y-69950000D02*
X183780000Y-69950000D01*
X182880000Y-62150000D02*
X182880000Y-69950000D01*
X190980000Y-62150000D02*
X182880000Y-62150000D01*
X190980000Y-69950000D02*
X190980000Y-62150000D01*
X190080000Y-69950000D02*
X190980000Y-69950000D01*
X190080000Y-68350000D02*
X190080000Y-69950000D01*
X189730000Y-68350000D02*
X190080000Y-68350000D01*
X185430000Y-66500000D02*
X185430000Y-62150000D01*
X188430000Y-66500000D02*
X185430000Y-66500000D01*
X188430000Y-62150000D02*
X188430000Y-66500000D01*
G04 #@! TO.C,C2*
D13*
X158879066Y-82744229D02*
X159640971Y-82744229D01*
X159260019Y-83125181D02*
X159260019Y-82363277D01*
G04 #@! TD*
M02*
