G04 #@! TF.GenerationSoftware,KiCad,Pcbnew,5.0.1*
G04 #@! TF.CreationDate,2019-02-08T09:42:00-06:00*
G04 #@! TF.ProjectId,tomato_timer,746F6D61746F5F74696D65722E6B6963,rev?*
G04 #@! TF.SameCoordinates,Original*
G04 #@! TF.FileFunction,Other,Fab,Bot*
%FSLAX46Y46*%
G04 Gerber Fmt 4.6, Leading zero omitted, Abs format (unit mm)*
G04 Created by KiCad (PCBNEW 5.0.1) date Fri 08 Feb 2019 09:42:00 AM CST*
%MOMM*%
%LPD*%
G01*
G04 APERTURE LIST*
%ADD10C,0.100000*%
%ADD11C,0.150000*%
%ADD12C,0.105000*%
G04 APERTURE END LIST*
D10*
G04 #@! TO.C,C3*
X189000000Y-108620000D02*
X189000000Y-107380000D01*
X187000000Y-108620000D02*
X189000000Y-108620000D01*
X187000000Y-107380000D02*
X187000000Y-108620000D01*
X189000000Y-107380000D02*
X187000000Y-107380000D01*
G04 #@! TO.C,C1*
X171050000Y-92750000D02*
X169810000Y-92750000D01*
X171050000Y-94750000D02*
X171050000Y-92750000D01*
X169810000Y-94750000D02*
X171050000Y-94750000D01*
X169810000Y-92750000D02*
X169810000Y-94750000D01*
G04 #@! TO.C,R5*
X205600000Y-66200000D02*
X202400000Y-66200000D01*
X202400000Y-66200000D02*
X202400000Y-67800000D01*
X202400000Y-67800000D02*
X205600000Y-67800000D01*
X205600000Y-67800000D02*
X205600000Y-66200000D01*
G04 #@! TO.C,R6*
X158830000Y-96700000D02*
X158830000Y-98300000D01*
X162030000Y-96700000D02*
X158830000Y-96700000D01*
X162030000Y-98300000D02*
X162030000Y-96700000D01*
X158830000Y-98300000D02*
X162030000Y-98300000D01*
G04 #@! TD*
G04 #@! TO.C,C3*
D11*
X189642857Y-109202380D02*
X189547619Y-109202380D01*
X189452380Y-109250000D01*
X189404761Y-109297619D01*
X189357142Y-109392857D01*
X189309523Y-109583333D01*
X189309523Y-109821428D01*
X189357142Y-110011904D01*
X189404761Y-110107142D01*
X189452380Y-110154761D01*
X189547619Y-110202380D01*
X189642857Y-110202380D01*
X189738095Y-110154761D01*
X189785714Y-110107142D01*
X189833333Y-110011904D01*
X189880952Y-109821428D01*
X189880952Y-109583333D01*
X189833333Y-109392857D01*
X189785714Y-109297619D01*
X189738095Y-109250000D01*
X189642857Y-109202380D01*
X188880952Y-110107142D02*
X188833333Y-110154761D01*
X188880952Y-110202380D01*
X188928571Y-110154761D01*
X188880952Y-110107142D01*
X188880952Y-110202380D01*
X187880952Y-110202380D02*
X188452380Y-110202380D01*
X188166666Y-110202380D02*
X188166666Y-109202380D01*
X188261904Y-109345238D01*
X188357142Y-109440476D01*
X188452380Y-109488095D01*
X187023809Y-109535714D02*
X187023809Y-110202380D01*
X187452380Y-109535714D02*
X187452380Y-110059523D01*
X187404761Y-110154761D01*
X187309523Y-110202380D01*
X187166666Y-110202380D01*
X187071428Y-110154761D01*
X187023809Y-110107142D01*
X186214285Y-109678571D02*
X186547619Y-109678571D01*
X186547619Y-110202380D02*
X186547619Y-109202380D01*
X186071428Y-109202380D01*
X188166666Y-106607142D02*
X188214285Y-106654761D01*
X188357142Y-106702380D01*
X188452380Y-106702380D01*
X188595238Y-106654761D01*
X188690476Y-106559523D01*
X188738095Y-106464285D01*
X188785714Y-106273809D01*
X188785714Y-106130952D01*
X188738095Y-105940476D01*
X188690476Y-105845238D01*
X188595238Y-105750000D01*
X188452380Y-105702380D01*
X188357142Y-105702380D01*
X188214285Y-105750000D01*
X188166666Y-105797619D01*
X187833333Y-105702380D02*
X187214285Y-105702380D01*
X187547619Y-106083333D01*
X187404761Y-106083333D01*
X187309523Y-106130952D01*
X187261904Y-106178571D01*
X187214285Y-106273809D01*
X187214285Y-106511904D01*
X187261904Y-106607142D01*
X187309523Y-106654761D01*
X187404761Y-106702380D01*
X187690476Y-106702380D01*
X187785714Y-106654761D01*
X187833333Y-106607142D01*
G04 #@! TO.C,C1*
X171632380Y-92107142D02*
X171632380Y-92202380D01*
X171680000Y-92297619D01*
X171727619Y-92345238D01*
X171822857Y-92392857D01*
X172013333Y-92440476D01*
X172251428Y-92440476D01*
X172441904Y-92392857D01*
X172537142Y-92345238D01*
X172584761Y-92297619D01*
X172632380Y-92202380D01*
X172632380Y-92107142D01*
X172584761Y-92011904D01*
X172537142Y-91964285D01*
X172441904Y-91916666D01*
X172251428Y-91869047D01*
X172013333Y-91869047D01*
X171822857Y-91916666D01*
X171727619Y-91964285D01*
X171680000Y-92011904D01*
X171632380Y-92107142D01*
X172537142Y-92869047D02*
X172584761Y-92916666D01*
X172632380Y-92869047D01*
X172584761Y-92821428D01*
X172537142Y-92869047D01*
X172632380Y-92869047D01*
X172632380Y-93869047D02*
X172632380Y-93297619D01*
X172632380Y-93583333D02*
X171632380Y-93583333D01*
X171775238Y-93488095D01*
X171870476Y-93392857D01*
X171918095Y-93297619D01*
X171965714Y-94726190D02*
X172632380Y-94726190D01*
X171965714Y-94297619D02*
X172489523Y-94297619D01*
X172584761Y-94345238D01*
X172632380Y-94440476D01*
X172632380Y-94583333D01*
X172584761Y-94678571D01*
X172537142Y-94726190D01*
X172108571Y-95535714D02*
X172108571Y-95202380D01*
X172632380Y-95202380D02*
X171632380Y-95202380D01*
X171632380Y-95678571D01*
X169037142Y-93583333D02*
X169084761Y-93535714D01*
X169132380Y-93392857D01*
X169132380Y-93297619D01*
X169084761Y-93154761D01*
X168989523Y-93059523D01*
X168894285Y-93011904D01*
X168703809Y-92964285D01*
X168560952Y-92964285D01*
X168370476Y-93011904D01*
X168275238Y-93059523D01*
X168180000Y-93154761D01*
X168132380Y-93297619D01*
X168132380Y-93392857D01*
X168180000Y-93535714D01*
X168227619Y-93583333D01*
X169132380Y-94535714D02*
X169132380Y-93964285D01*
X169132380Y-94250000D02*
X168132380Y-94250000D01*
X168275238Y-94154761D01*
X168370476Y-94059523D01*
X168418095Y-93964285D01*
G04 #@! TO.C,R5*
X204690476Y-69352380D02*
X205261904Y-69352380D01*
X204976190Y-69352380D02*
X204976190Y-68352380D01*
X205071428Y-68495238D01*
X205166666Y-68590476D01*
X205261904Y-68638095D01*
X204071428Y-68352380D02*
X203976190Y-68352380D01*
X203880952Y-68400000D01*
X203833333Y-68447619D01*
X203785714Y-68542857D01*
X203738095Y-68733333D01*
X203738095Y-68971428D01*
X203785714Y-69161904D01*
X203833333Y-69257142D01*
X203880952Y-69304761D01*
X203976190Y-69352380D01*
X204071428Y-69352380D01*
X204166666Y-69304761D01*
X204214285Y-69257142D01*
X204261904Y-69161904D01*
X204309523Y-68971428D01*
X204309523Y-68733333D01*
X204261904Y-68542857D01*
X204214285Y-68447619D01*
X204166666Y-68400000D01*
X204071428Y-68352380D01*
X203309523Y-69352380D02*
X203309523Y-68352380D01*
X202738095Y-69352380D02*
X203166666Y-68780952D01*
X202738095Y-68352380D02*
X203309523Y-68923809D01*
D12*
X204116666Y-67316666D02*
X204350000Y-66983333D01*
X204516666Y-67316666D02*
X204516666Y-66616666D01*
X204250000Y-66616666D01*
X204183333Y-66650000D01*
X204150000Y-66683333D01*
X204116666Y-66750000D01*
X204116666Y-66850000D01*
X204150000Y-66916666D01*
X204183333Y-66950000D01*
X204250000Y-66983333D01*
X204516666Y-66983333D01*
X203483333Y-66616666D02*
X203816666Y-66616666D01*
X203850000Y-66950000D01*
X203816666Y-66916666D01*
X203750000Y-66883333D01*
X203583333Y-66883333D01*
X203516666Y-66916666D01*
X203483333Y-66950000D01*
X203450000Y-67016666D01*
X203450000Y-67183333D01*
X203483333Y-67250000D01*
X203516666Y-67283333D01*
X203583333Y-67316666D01*
X203750000Y-67316666D01*
X203816666Y-67283333D01*
X203850000Y-67250000D01*
G04 #@! TO.C,R6*
D11*
X161120476Y-96052380D02*
X161691904Y-96052380D01*
X161406190Y-96052380D02*
X161406190Y-95052380D01*
X161501428Y-95195238D01*
X161596666Y-95290476D01*
X161691904Y-95338095D01*
X160501428Y-95052380D02*
X160406190Y-95052380D01*
X160310952Y-95100000D01*
X160263333Y-95147619D01*
X160215714Y-95242857D01*
X160168095Y-95433333D01*
X160168095Y-95671428D01*
X160215714Y-95861904D01*
X160263333Y-95957142D01*
X160310952Y-96004761D01*
X160406190Y-96052380D01*
X160501428Y-96052380D01*
X160596666Y-96004761D01*
X160644285Y-95957142D01*
X160691904Y-95861904D01*
X160739523Y-95671428D01*
X160739523Y-95433333D01*
X160691904Y-95242857D01*
X160644285Y-95147619D01*
X160596666Y-95100000D01*
X160501428Y-95052380D01*
X159739523Y-96052380D02*
X159739523Y-95052380D01*
X159168095Y-96052380D02*
X159596666Y-95480952D01*
X159168095Y-95052380D02*
X159739523Y-95623809D01*
D12*
X160546666Y-97816666D02*
X160780000Y-97483333D01*
X160946666Y-97816666D02*
X160946666Y-97116666D01*
X160680000Y-97116666D01*
X160613333Y-97150000D01*
X160580000Y-97183333D01*
X160546666Y-97250000D01*
X160546666Y-97350000D01*
X160580000Y-97416666D01*
X160613333Y-97450000D01*
X160680000Y-97483333D01*
X160946666Y-97483333D01*
X159946666Y-97116666D02*
X160080000Y-97116666D01*
X160146666Y-97150000D01*
X160180000Y-97183333D01*
X160246666Y-97283333D01*
X160280000Y-97416666D01*
X160280000Y-97683333D01*
X160246666Y-97750000D01*
X160213333Y-97783333D01*
X160146666Y-97816666D01*
X160013333Y-97816666D01*
X159946666Y-97783333D01*
X159913333Y-97750000D01*
X159880000Y-97683333D01*
X159880000Y-97516666D01*
X159913333Y-97450000D01*
X159946666Y-97416666D01*
X160013333Y-97383333D01*
X160146666Y-97383333D01*
X160213333Y-97416666D01*
X160246666Y-97450000D01*
X160280000Y-97516666D01*
G04 #@! TD*
M02*
