G04 #@! TF.GenerationSoftware,KiCad,Pcbnew,5.0.1*
G04 #@! TF.CreationDate,2019-02-15T13:26:15-06:00*
G04 #@! TF.ProjectId,tomato_timer,746F6D61746F5F74696D65722E6B6963,rev?*
G04 #@! TF.SameCoordinates,Original*
G04 #@! TF.FileFunction,Copper,L2,Bot,Signal*
G04 #@! TF.FilePolarity,Positive*
%FSLAX46Y46*%
G04 Gerber Fmt 4.6, Leading zero omitted, Abs format (unit mm)*
G04 Created by KiCad (PCBNEW 5.0.1) date Fri 15 Feb 2019 01:26:15 PM CST*
%MOMM*%
%LPD*%
G01*
G04 APERTURE LIST*
G04 #@! TA.AperFunction,ComponentPad*
%ADD10O,1.524000X2.540000*%
G04 #@! TD*
G04 #@! TA.AperFunction,ComponentPad*
%ADD11C,1.524000*%
G04 #@! TD*
G04 #@! TA.AperFunction,ComponentPad*
%ADD12C,2.000000*%
G04 #@! TD*
G04 #@! TA.AperFunction,SMDPad,CuDef*
%ADD13R,1.250000X1.500000*%
G04 #@! TD*
G04 #@! TA.AperFunction,SMDPad,CuDef*
%ADD14R,1.500000X1.250000*%
G04 #@! TD*
G04 #@! TA.AperFunction,ComponentPad*
%ADD15C,1.250000*%
G04 #@! TD*
G04 #@! TA.AperFunction,ComponentPad*
%ADD16R,1.524000X1.524000*%
G04 #@! TD*
G04 #@! TA.AperFunction,ComponentPad*
%ADD17R,3.500000X3.500000*%
G04 #@! TD*
G04 #@! TA.AperFunction,ComponentPad*
%ADD18R,1.700000X1.700000*%
G04 #@! TD*
G04 #@! TA.AperFunction,ComponentPad*
%ADD19O,1.700000X1.700000*%
G04 #@! TD*
G04 #@! TA.AperFunction,ComponentPad*
%ADD20C,1.700000*%
G04 #@! TD*
G04 #@! TA.AperFunction,SMDPad,CuDef*
%ADD21R,1.700000X2.000000*%
G04 #@! TD*
G04 #@! TA.AperFunction,SMDPad,CuDef*
%ADD22R,2.000000X1.700000*%
G04 #@! TD*
G04 #@! TA.AperFunction,ComponentPad*
%ADD23O,1.200000X1.700000*%
G04 #@! TD*
G04 #@! TA.AperFunction,ComponentPad*
%ADD24R,1.200000X1.700000*%
G04 #@! TD*
G04 #@! TA.AperFunction,ViaPad*
%ADD25C,0.600000*%
G04 #@! TD*
G04 #@! TA.AperFunction,Conductor*
%ADD26C,0.500000*%
G04 #@! TD*
G04 #@! TA.AperFunction,Conductor*
%ADD27C,0.250000*%
G04 #@! TD*
G04 #@! TA.AperFunction,Conductor*
%ADD28C,0.254000*%
G04 #@! TD*
G04 APERTURE END LIST*
D10*
G04 #@! TO.P,TOMATO_SHIELD1,AD5*
G04 #@! TO.N,N/C*
X212100000Y-111760000D03*
G04 #@! TO.P,TOMATO_SHIELD1,AD4*
G04 #@! TO.N,/VOL_IN*
X209560000Y-111760000D03*
G04 #@! TO.P,TOMATO_SHIELD1,AD3*
G04 #@! TO.N,N/C*
X207020000Y-111760000D03*
G04 #@! TO.P,TOMATO_SHIELD1,AD0*
X199400000Y-111760000D03*
G04 #@! TO.P,TOMATO_SHIELD1,AD1*
G04 #@! TO.N,/BUZZER*
X201940000Y-111760000D03*
G04 #@! TO.P,TOMATO_SHIELD1,AD2*
G04 #@! TO.N,N/C*
X204480000Y-111760000D03*
G04 #@! TO.P,TOMATO_SHIELD1,V_IN*
X194320000Y-111760000D03*
G04 #@! TO.P,TOMATO_SHIELD1,GND2*
G04 #@! TO.N,/GND*
X191780000Y-111760000D03*
G04 #@! TO.P,TOMATO_SHIELD1,GND1*
X189240000Y-111760000D03*
G04 #@! TO.P,TOMATO_SHIELD1,3V3*
G04 #@! TO.N,/3V3*
X184160000Y-111760000D03*
G04 #@! TO.P,TOMATO_SHIELD1,RST*
G04 #@! TO.N,/RESET*
X181620000Y-111760000D03*
G04 #@! TO.P,TOMATO_SHIELD1,0*
G04 #@! TO.N,/RX*
X212100000Y-63500000D03*
G04 #@! TO.P,TOMATO_SHIELD1,1*
G04 #@! TO.N,/TX*
X209560000Y-63500000D03*
G04 #@! TO.P,TOMATO_SHIELD1,2*
G04 #@! TO.N,/BTN_START*
X207020000Y-63500000D03*
G04 #@! TO.P,TOMATO_SHIELD1,3*
G04 #@! TO.N,/BTN_STOP*
X204480000Y-63500000D03*
G04 #@! TO.P,TOMATO_SHIELD1,4*
G04 #@! TO.N,N/C*
X201940000Y-63500000D03*
G04 #@! TO.P,TOMATO_SHIELD1,5*
X199400000Y-63500000D03*
G04 #@! TO.P,TOMATO_SHIELD1,6*
G04 #@! TO.N,/PIXEL_RING_PIN*
X196860000Y-63500000D03*
G04 #@! TO.P,TOMATO_SHIELD1,7*
G04 #@! TO.N,/PIXEL_STRIP_PIN*
X194320000Y-63500000D03*
G04 #@! TO.P,TOMATO_SHIELD1,8*
G04 #@! TO.N,N/C*
X190256000Y-63500000D03*
G04 #@! TO.P,TOMATO_SHIELD1,9*
X187716000Y-63500000D03*
G04 #@! TO.P,TOMATO_SHIELD1,10*
X185176000Y-63500000D03*
G04 #@! TO.P,TOMATO_SHIELD1,11*
X182636000Y-63500000D03*
G04 #@! TO.P,TOMATO_SHIELD1,12*
X180096000Y-63500000D03*
G04 #@! TO.P,TOMATO_SHIELD1,13*
X177556000Y-63500000D03*
G04 #@! TO.P,TOMATO_SHIELD1,GND3*
G04 #@! TO.N,/GND*
X175016000Y-63500000D03*
G04 #@! TO.P,TOMATO_SHIELD1,AREF*
G04 #@! TO.N,N/C*
X172476000Y-63500000D03*
G04 #@! TO.P,TOMATO_SHIELD1,5V*
G04 #@! TO.N,/5V*
X186700000Y-111760000D03*
G04 #@! TO.P,TOMATO_SHIELD1,SDA*
G04 #@! TO.N,N/C*
X169936000Y-63500000D03*
G04 #@! TO.P,TOMATO_SHIELD1,SCL*
X167396000Y-63500000D03*
G04 #@! TO.P,TOMATO_SHIELD1,IO_R*
X179080000Y-111760000D03*
G04 #@! TO.P,TOMATO_SHIELD1,NC*
X176540000Y-111760000D03*
D11*
G04 #@! TO.P,TOMATO_SHIELD1,SP1*
X212100000Y-83820000D03*
G04 #@! TO.P,TOMATO_SHIELD1,SP2*
X214640000Y-83820000D03*
G04 #@! TO.P,TOMATO_SHIELD1,SP3*
X212100000Y-86360000D03*
G04 #@! TO.P,TOMATO_SHIELD1,SP4*
X214640000Y-86360000D03*
G04 #@! TO.P,TOMATO_SHIELD1,SP5*
X212100000Y-88900000D03*
G04 #@! TO.P,TOMATO_SHIELD1,SP6*
X214640000Y-88900000D03*
G04 #@! TD*
D12*
G04 #@! TO.P,SW2,2*
G04 #@! TO.N,/GND*
X179500000Y-67500000D03*
G04 #@! TO.P,SW2,1*
G04 #@! TO.N,/RESET*
X179500000Y-72000000D03*
G04 #@! TO.P,SW2,2*
G04 #@! TO.N,/GND*
X173000000Y-67500000D03*
G04 #@! TO.P,SW2,1*
G04 #@! TO.N,/RESET*
X173000000Y-72000000D03*
G04 #@! TD*
D13*
G04 #@! TO.P,C3,1*
G04 #@! TO.N,/GND*
X187430000Y-105500000D03*
G04 #@! TO.P,C3,2*
G04 #@! TO.N,/5V*
X187430000Y-108000000D03*
G04 #@! TD*
D14*
G04 #@! TO.P,C1,1*
G04 #@! TO.N,/GND*
X177680000Y-95000000D03*
G04 #@! TO.P,C1,2*
G04 #@! TO.N,/3V3*
X175180000Y-95000000D03*
G04 #@! TD*
D12*
G04 #@! TO.P,SW3,2*
G04 #@! TO.N,/BTN_START*
X173246000Y-107100000D03*
G04 #@! TO.P,SW3,1*
G04 #@! TO.N,/5V*
X173246000Y-111600000D03*
G04 #@! TO.P,SW3,2*
G04 #@! TO.N,/BTN_START*
X166746000Y-107100000D03*
G04 #@! TO.P,SW3,1*
G04 #@! TO.N,/5V*
X166746000Y-111600000D03*
G04 #@! TD*
G04 #@! TO.P,SW4,2*
G04 #@! TO.N,/BTN_STOP*
X157896000Y-107200000D03*
G04 #@! TO.P,SW4,1*
G04 #@! TO.N,/5V*
X157896000Y-111700000D03*
G04 #@! TO.P,SW4,2*
G04 #@! TO.N,/BTN_STOP*
X151396000Y-107200000D03*
G04 #@! TO.P,SW4,1*
G04 #@! TO.N,/5V*
X151396000Y-111700000D03*
G04 #@! TD*
D15*
G04 #@! TO.P,LS1,1*
G04 #@! TO.N,Net-(LS1-Pad1)*
X192500000Y-91000000D03*
G04 #@! TO.P,LS1,2*
G04 #@! TO.N,/VOL_IN*
X197500000Y-91000000D03*
G04 #@! TD*
D11*
G04 #@! TO.P,U1,11*
G04 #@! TO.N,N/C*
X150900000Y-77000000D03*
G04 #@! TO.P,U1,12*
X150900000Y-79000000D03*
G04 #@! TO.P,U1,13*
X150900000Y-81000000D03*
G04 #@! TO.P,U1,14*
X150900000Y-83000000D03*
G04 #@! TO.P,U1,15*
X150900000Y-85000000D03*
G04 #@! TO.P,U1,16*
X150900000Y-87000000D03*
G04 #@! TO.P,U1,17*
X150900000Y-89000000D03*
G04 #@! TO.P,U1,18*
X150900000Y-91000000D03*
G04 #@! TO.P,U1,19*
X150900000Y-93000000D03*
G04 #@! TO.P,U1,20*
X150900000Y-95000000D03*
G04 #@! TO.P,U1,10*
G04 #@! TO.N,/GND*
X172900000Y-77000000D03*
G04 #@! TO.P,U1,9*
G04 #@! TO.N,N/C*
X172900000Y-79000000D03*
G04 #@! TO.P,U1,8*
X172900000Y-81000000D03*
G04 #@! TO.P,U1,7*
X172900000Y-83000000D03*
G04 #@! TO.P,U1,6*
X172900000Y-85000000D03*
G04 #@! TO.P,U1,5*
X172900000Y-87000000D03*
G04 #@! TO.P,U1,4*
X172900000Y-89000000D03*
G04 #@! TO.P,U1,3*
G04 #@! TO.N,/DIN*
X172900000Y-91000000D03*
G04 #@! TO.P,U1,2*
G04 #@! TO.N,/DOUT*
X172900000Y-93000000D03*
D16*
G04 #@! TO.P,U1,1*
G04 #@! TO.N,/3V3*
X172900000Y-95000000D03*
G04 #@! TD*
D17*
G04 #@! TO.P,J1,3*
G04 #@! TO.N,N/C*
X155853000Y-70700000D03*
G04 #@! TO.P,J1,2*
G04 #@! TO.N,/GND*
X152853000Y-66000000D03*
G04 #@! TO.P,J1,1*
G04 #@! TO.N,/5V_IN*
X158853000Y-66000000D03*
G04 #@! TD*
D18*
G04 #@! TO.P,JP2,1*
G04 #@! TO.N,/5V_IN*
X165500000Y-68834000D03*
D19*
G04 #@! TO.P,JP2,2*
G04 #@! TO.N,/5V*
X165500000Y-71374000D03*
G04 #@! TD*
D20*
G04 #@! TO.P,D2,4*
G04 #@! TO.N,Net-(D2-Pad4)*
X207192000Y-78808000D03*
G04 #@! TO.P,D2,1*
G04 #@! TO.N,N/C*
X190682000Y-74236000D03*
G04 #@! TO.P,D2,2*
G04 #@! TO.N,/GND*
X199318000Y-107764000D03*
G04 #@! TO.P,D2,3*
G04 #@! TO.N,/5V_IN*
X182808000Y-103192000D03*
G04 #@! TD*
D11*
G04 #@! TO.P,RV1,2*
G04 #@! TO.N,/VOL_IN*
X208060000Y-70500000D03*
G04 #@! TO.P,RV1,3*
G04 #@! TO.N,/5V*
X208060000Y-73040000D03*
G04 #@! TO.P,RV1,1*
G04 #@! TO.N,Net-(LS1-Pad1)*
X208060000Y-67960000D03*
G04 #@! TD*
D21*
G04 #@! TO.P,R5,2*
G04 #@! TO.N,/GND*
X203930000Y-72500000D03*
G04 #@! TO.P,R5,1*
G04 #@! TO.N,/BTN_START*
X203930000Y-68500000D03*
G04 #@! TD*
D22*
G04 #@! TO.P,R6,1*
G04 #@! TO.N,/BTN_STOP*
X158430000Y-97500000D03*
G04 #@! TO.P,R6,2*
G04 #@! TO.N,/GND*
X162430000Y-97500000D03*
G04 #@! TD*
D23*
G04 #@! TO.P,D1,3*
G04 #@! TO.N,/GND*
X184930000Y-68500000D03*
G04 #@! TO.P,D1,2*
G04 #@! TO.N,/5V_IN*
X186930000Y-68500000D03*
D24*
G04 #@! TO.P,D1,1*
G04 #@! TO.N,Net-(D1-Pad1)*
X188930000Y-68500000D03*
G04 #@! TD*
D25*
G04 #@! TO.N,/3V3*
X176430000Y-104500000D03*
G04 #@! TO.N,/TX*
X186630000Y-75700000D03*
X183230000Y-75700000D03*
G04 #@! TO.N,/RX*
X188030000Y-76325000D03*
X183230000Y-74900000D03*
G04 #@! TO.N,/BTN_START*
X186630000Y-73300000D03*
X184230000Y-73300000D03*
G04 #@! TO.N,/BTN_STOP*
X161446000Y-105500000D03*
X158430000Y-99500000D03*
X186630000Y-72500000D03*
X183805736Y-72500000D03*
G04 #@! TO.N,/RESET*
X177930000Y-109000000D03*
X176328959Y-105601041D03*
X179500000Y-76000000D03*
G04 #@! TO.N,/PIXEL_RING_PIN*
X197960000Y-69375000D03*
X197960000Y-72125000D03*
G04 #@! TO.N,/GND*
X206430000Y-104500000D03*
G04 #@! TD*
D26*
G04 #@! TO.N,/3V3*
X184160000Y-109730000D02*
X184160000Y-111760000D01*
X182930000Y-108500000D02*
X184160000Y-109730000D01*
X176430000Y-104500000D02*
X180430000Y-108500000D01*
X180430000Y-108500000D02*
X182930000Y-108500000D01*
X172900000Y-95000000D02*
X175180000Y-95000000D01*
D27*
G04 #@! TO.N,/TX*
X184430000Y-75700000D02*
X184430000Y-75700000D01*
X186630000Y-75700000D02*
X183230000Y-75700000D01*
G04 #@! TO.N,/RX*
X187430000Y-75725000D02*
X188030000Y-76325000D01*
X187430000Y-75500000D02*
X187430000Y-75725000D01*
X186830000Y-74900000D02*
X187430000Y-75500000D01*
X183230000Y-74900000D02*
X186830000Y-74900000D01*
D26*
G04 #@! TO.N,/5V*
X187430000Y-108000000D02*
X187430000Y-109250000D01*
X187430000Y-109250000D02*
X186700000Y-109980000D01*
X186700000Y-109980000D02*
X186700000Y-111760000D01*
D27*
G04 #@! TO.N,/BTN_START*
X207020000Y-63500000D02*
X207020000Y-65410000D01*
X207020000Y-65410000D02*
X203930000Y-68500000D01*
X186630000Y-73300000D02*
X184230000Y-73300000D01*
G04 #@! TO.N,/BTN_STOP*
X161446000Y-105500000D02*
X159596000Y-105500000D01*
X159596000Y-105500000D02*
X159430000Y-105666000D01*
X159430000Y-105666000D02*
X157896000Y-107200000D01*
X158430000Y-97500000D02*
X158430000Y-99500000D01*
X186630000Y-72500000D02*
X183805736Y-72500000D01*
G04 #@! TO.N,/RESET*
X176328959Y-107398959D02*
X177930000Y-109000000D01*
X176328959Y-105601041D02*
X176328959Y-107398959D01*
X179500000Y-72000000D02*
X179500000Y-76000000D01*
G04 #@! TO.N,/PIXEL_RING_PIN*
X197960000Y-69375000D02*
X197960000Y-72125000D01*
G04 #@! TD*
D28*
G04 #@! TO.N,/GND*
G36*
X162079537Y-62117374D02*
X161955856Y-62241055D01*
X161617500Y-63057917D01*
X161617500Y-63942083D01*
X161955856Y-64758945D01*
X162581055Y-65384144D01*
X163397917Y-65722500D01*
X164282083Y-65722500D01*
X165098945Y-65384144D01*
X165724144Y-64758945D01*
X165999000Y-64095385D01*
X165999000Y-64145588D01*
X166080056Y-64553082D01*
X166388821Y-65015180D01*
X166850919Y-65323944D01*
X167396000Y-65432368D01*
X167941082Y-65323944D01*
X168403180Y-65015180D01*
X168666000Y-64621842D01*
X168928821Y-65015180D01*
X169390919Y-65323944D01*
X169936000Y-65432368D01*
X170481082Y-65323944D01*
X170943180Y-65015180D01*
X171206000Y-64621842D01*
X171468821Y-65015180D01*
X171930919Y-65323944D01*
X172476000Y-65432368D01*
X173021082Y-65323944D01*
X173483180Y-65015180D01*
X173757580Y-64604511D01*
X173773941Y-64659941D01*
X174117974Y-65085630D01*
X174598723Y-65347260D01*
X174672930Y-65362220D01*
X174889000Y-65239720D01*
X174889000Y-63627000D01*
X174869000Y-63627000D01*
X174869000Y-63373000D01*
X174889000Y-63373000D01*
X174889000Y-63353000D01*
X175143000Y-63353000D01*
X175143000Y-63373000D01*
X175163000Y-63373000D01*
X175163000Y-63627000D01*
X175143000Y-63627000D01*
X175143000Y-65239720D01*
X175359070Y-65362220D01*
X175433277Y-65347260D01*
X175914026Y-65085630D01*
X176258059Y-64659941D01*
X176274420Y-64604511D01*
X176548821Y-65015180D01*
X177010919Y-65323944D01*
X177556000Y-65432368D01*
X178101082Y-65323944D01*
X178563180Y-65015180D01*
X178826000Y-64621842D01*
X179088821Y-65015180D01*
X179550919Y-65323944D01*
X180096000Y-65432368D01*
X180641082Y-65323944D01*
X181103180Y-65015180D01*
X181366000Y-64621842D01*
X181628821Y-65015180D01*
X182090919Y-65323944D01*
X182636000Y-65432368D01*
X183181082Y-65323944D01*
X183643180Y-65015180D01*
X183906000Y-64621842D01*
X184168821Y-65015180D01*
X184630919Y-65323944D01*
X185176000Y-65432368D01*
X185721082Y-65323944D01*
X186183180Y-65015180D01*
X186446000Y-64621842D01*
X186708821Y-65015180D01*
X187170919Y-65323944D01*
X187716000Y-65432368D01*
X188261082Y-65323944D01*
X188723180Y-65015180D01*
X188986000Y-64621842D01*
X189248821Y-65015180D01*
X189710919Y-65323944D01*
X190256000Y-65432368D01*
X190801082Y-65323944D01*
X191263180Y-65015180D01*
X191571944Y-64553082D01*
X191653000Y-64145588D01*
X191653000Y-62854412D01*
X191571944Y-62446918D01*
X191358181Y-62127000D01*
X193217819Y-62127000D01*
X193004056Y-62446919D01*
X192923000Y-62854413D01*
X192923000Y-64145588D01*
X193004056Y-64553082D01*
X193312821Y-65015180D01*
X193774919Y-65323944D01*
X194320000Y-65432368D01*
X194865082Y-65323944D01*
X195327180Y-65015180D01*
X195590000Y-64621842D01*
X195852821Y-65015180D01*
X196314919Y-65323944D01*
X196860000Y-65432368D01*
X197405082Y-65323944D01*
X197867180Y-65015180D01*
X198130000Y-64621842D01*
X198392821Y-65015180D01*
X198854919Y-65323944D01*
X199400000Y-65432368D01*
X199945082Y-65323944D01*
X200407180Y-65015180D01*
X200670000Y-64621842D01*
X200932821Y-65015180D01*
X201394919Y-65323944D01*
X201940000Y-65432368D01*
X202485082Y-65323944D01*
X202947180Y-65015180D01*
X203210000Y-64621842D01*
X203472821Y-65015180D01*
X203934919Y-65323944D01*
X204480000Y-65432368D01*
X205025082Y-65323944D01*
X205487180Y-65015180D01*
X205750000Y-64621842D01*
X206012821Y-65015180D01*
X206208961Y-65146237D01*
X204502639Y-66852560D01*
X203080000Y-66852560D01*
X202832235Y-66901843D01*
X202622191Y-67042191D01*
X202481843Y-67252235D01*
X202432560Y-67500000D01*
X202432560Y-69500000D01*
X202481843Y-69747765D01*
X202622191Y-69957809D01*
X202832235Y-70098157D01*
X203080000Y-70147440D01*
X204780000Y-70147440D01*
X205027765Y-70098157D01*
X205237809Y-69957809D01*
X205378157Y-69747765D01*
X205427440Y-69500000D01*
X205427440Y-68077361D01*
X205822682Y-67682119D01*
X206663000Y-67682119D01*
X206663000Y-68237881D01*
X206875680Y-68751337D01*
X207268663Y-69144320D01*
X207475513Y-69230000D01*
X207268663Y-69315680D01*
X206875680Y-69708663D01*
X206663000Y-70222119D01*
X206663000Y-70777881D01*
X206875680Y-71291337D01*
X207268663Y-71684320D01*
X207475513Y-71770000D01*
X207268663Y-71855680D01*
X206875680Y-72248663D01*
X206663000Y-72762119D01*
X206663000Y-73317881D01*
X206875680Y-73831337D01*
X207268663Y-74224320D01*
X207782119Y-74437000D01*
X208337881Y-74437000D01*
X208851337Y-74224320D01*
X209244320Y-73831337D01*
X209457000Y-73317881D01*
X209457000Y-72762119D01*
X209244320Y-72248663D01*
X208851337Y-71855680D01*
X208644487Y-71770000D01*
X208851337Y-71684320D01*
X209244320Y-71291337D01*
X209457000Y-70777881D01*
X209457000Y-70222119D01*
X209244320Y-69708663D01*
X208851337Y-69315680D01*
X208644487Y-69230000D01*
X208851337Y-69144320D01*
X209244320Y-68751337D01*
X209457000Y-68237881D01*
X209457000Y-67682119D01*
X209244320Y-67168663D01*
X208851337Y-66775680D01*
X208337881Y-66563000D01*
X207782119Y-66563000D01*
X207268663Y-66775680D01*
X206875680Y-67168663D01*
X206663000Y-67682119D01*
X205822682Y-67682119D01*
X207504473Y-66000329D01*
X207567929Y-65957929D01*
X207735904Y-65706537D01*
X207780000Y-65484852D01*
X207780000Y-65484847D01*
X207794888Y-65410000D01*
X207780000Y-65335153D01*
X207780000Y-65180340D01*
X208027180Y-65015180D01*
X208290000Y-64621842D01*
X208552821Y-65015180D01*
X209014919Y-65323944D01*
X209560000Y-65432368D01*
X210105082Y-65323944D01*
X210567180Y-65015180D01*
X210830000Y-64621842D01*
X211092821Y-65015180D01*
X211554919Y-65323944D01*
X212100000Y-65432368D01*
X212645082Y-65323944D01*
X212902402Y-65152008D01*
X213303000Y-65552606D01*
X213303000Y-75447394D01*
X207840197Y-80910197D01*
X207812667Y-80951399D01*
X207803000Y-81000000D01*
X207803000Y-107947394D01*
X205494547Y-110255847D01*
X205487179Y-110244820D01*
X205025081Y-109936056D01*
X204480000Y-109827632D01*
X203934918Y-109936056D01*
X203472820Y-110244821D01*
X203210000Y-110638159D01*
X202947179Y-110244820D01*
X202485081Y-109936056D01*
X201940000Y-109827632D01*
X201394918Y-109936056D01*
X200932820Y-110244821D01*
X200670000Y-110638159D01*
X200407179Y-110244820D01*
X199945081Y-109936056D01*
X199400000Y-109827632D01*
X198854918Y-109936056D01*
X198392820Y-110244821D01*
X198084056Y-110706919D01*
X198003000Y-111114413D01*
X198003000Y-112405588D01*
X198084056Y-112813082D01*
X198392821Y-113275180D01*
X198539219Y-113373000D01*
X195180782Y-113373000D01*
X195327180Y-113275180D01*
X195635944Y-112813082D01*
X195717000Y-112405588D01*
X195717000Y-111114412D01*
X195635944Y-110706918D01*
X195327179Y-110244820D01*
X194865081Y-109936056D01*
X194320000Y-109827632D01*
X193774918Y-109936056D01*
X193312820Y-110244821D01*
X193038420Y-110655490D01*
X193022059Y-110600059D01*
X192678026Y-110174370D01*
X192197277Y-109912740D01*
X192123070Y-109897780D01*
X191907000Y-110020280D01*
X191907000Y-111633000D01*
X191927000Y-111633000D01*
X191927000Y-111887000D01*
X191907000Y-111887000D01*
X191907000Y-111907000D01*
X191653000Y-111907000D01*
X191653000Y-111887000D01*
X189367000Y-111887000D01*
X189367000Y-111907000D01*
X189113000Y-111907000D01*
X189113000Y-111887000D01*
X189093000Y-111887000D01*
X189093000Y-111633000D01*
X189113000Y-111633000D01*
X189113000Y-110020280D01*
X189367000Y-110020280D01*
X189367000Y-111633000D01*
X191653000Y-111633000D01*
X191653000Y-110020280D01*
X191436930Y-109897780D01*
X191362723Y-109912740D01*
X190881974Y-110174370D01*
X190537941Y-110600059D01*
X190510000Y-110694723D01*
X190482059Y-110600059D01*
X190138026Y-110174370D01*
X189657277Y-109912740D01*
X189583070Y-109897780D01*
X189367000Y-110020280D01*
X189113000Y-110020280D01*
X188896930Y-109897780D01*
X188822723Y-109912740D01*
X188341974Y-110174370D01*
X187997941Y-110600059D01*
X187981580Y-110655489D01*
X187707179Y-110244820D01*
X187694938Y-110236641D01*
X187994156Y-109937423D01*
X188068049Y-109888049D01*
X188263652Y-109595310D01*
X188314354Y-109340414D01*
X188512809Y-109207809D01*
X188653157Y-108997765D01*
X188690911Y-108807958D01*
X198453647Y-108807958D01*
X198533920Y-109059259D01*
X199089279Y-109260718D01*
X199679458Y-109234315D01*
X200102080Y-109059259D01*
X200182353Y-108807958D01*
X199318000Y-107943605D01*
X198453647Y-108807958D01*
X188690911Y-108807958D01*
X188702440Y-108750000D01*
X188702440Y-107535279D01*
X197821282Y-107535279D01*
X197847685Y-108125458D01*
X198022741Y-108548080D01*
X198274042Y-108628353D01*
X199138395Y-107764000D01*
X199497605Y-107764000D01*
X200361958Y-108628353D01*
X200613259Y-108548080D01*
X200814718Y-107992721D01*
X200788315Y-107402542D01*
X200613259Y-106979920D01*
X200361958Y-106899647D01*
X199497605Y-107764000D01*
X199138395Y-107764000D01*
X198274042Y-106899647D01*
X198022741Y-106979920D01*
X197821282Y-107535279D01*
X188702440Y-107535279D01*
X188702440Y-107250000D01*
X188653157Y-107002235D01*
X188512809Y-106792191D01*
X188451680Y-106751346D01*
X188482983Y-106720042D01*
X198453647Y-106720042D01*
X199318000Y-107584395D01*
X200182353Y-106720042D01*
X200102080Y-106468741D01*
X199546721Y-106267282D01*
X198956542Y-106293685D01*
X198533920Y-106468741D01*
X198453647Y-106720042D01*
X188482983Y-106720042D01*
X188593327Y-106609698D01*
X188690000Y-106376309D01*
X188690000Y-105785750D01*
X188531250Y-105627000D01*
X187557000Y-105627000D01*
X187557000Y-105647000D01*
X187303000Y-105647000D01*
X187303000Y-105627000D01*
X186328750Y-105627000D01*
X186170000Y-105785750D01*
X186170000Y-106376309D01*
X186266673Y-106609698D01*
X186408320Y-106751346D01*
X186347191Y-106792191D01*
X186206843Y-107002235D01*
X186157560Y-107250000D01*
X186157560Y-108750000D01*
X186206843Y-108997765D01*
X186296491Y-109131931D01*
X186135847Y-109292575D01*
X186061951Y-109341951D01*
X185866348Y-109634691D01*
X185815000Y-109892836D01*
X185815000Y-109892839D01*
X185797663Y-109980000D01*
X185815000Y-110067161D01*
X185815000Y-110163183D01*
X185692820Y-110244821D01*
X185430000Y-110638159D01*
X185167179Y-110244820D01*
X185045000Y-110163183D01*
X185045000Y-109817161D01*
X185062337Y-109730000D01*
X185045000Y-109642839D01*
X185045000Y-109642835D01*
X184993652Y-109384690D01*
X184934750Y-109296537D01*
X184847424Y-109165845D01*
X184847423Y-109165844D01*
X184798049Y-109091951D01*
X184724156Y-109042577D01*
X183617425Y-107935847D01*
X183568049Y-107861951D01*
X183275310Y-107666348D01*
X183017165Y-107615000D01*
X183017161Y-107615000D01*
X182930000Y-107597663D01*
X182842839Y-107615000D01*
X180796579Y-107615000D01*
X177272656Y-104091078D01*
X177222655Y-103970365D01*
X176959635Y-103707345D01*
X176615983Y-103565000D01*
X176244017Y-103565000D01*
X175900365Y-103707345D01*
X175637345Y-103970365D01*
X175495000Y-104314017D01*
X175495000Y-104685983D01*
X175619985Y-104987725D01*
X175536304Y-105071406D01*
X175393959Y-105415058D01*
X175393959Y-105787024D01*
X175536304Y-106130676D01*
X175568959Y-106163331D01*
X175568960Y-107324107D01*
X175554071Y-107398959D01*
X175568960Y-107473811D01*
X175613056Y-107695496D01*
X175781031Y-107946888D01*
X175844487Y-107989288D01*
X176995000Y-109139802D01*
X176995000Y-109185983D01*
X177137345Y-109529635D01*
X177400365Y-109792655D01*
X177744017Y-109935000D01*
X178115983Y-109935000D01*
X178459635Y-109792655D01*
X178722655Y-109529635D01*
X178865000Y-109185983D01*
X178865000Y-108814017D01*
X178722655Y-108470365D01*
X178459635Y-108207345D01*
X178115983Y-108065000D01*
X178069802Y-108065000D01*
X177088959Y-107084158D01*
X177088959Y-106410537D01*
X179742577Y-109064156D01*
X179791951Y-109138049D01*
X179865844Y-109187423D01*
X179865845Y-109187424D01*
X179936022Y-109234315D01*
X180084690Y-109333652D01*
X180342835Y-109385000D01*
X180342839Y-109385000D01*
X180429999Y-109402337D01*
X180517159Y-109385000D01*
X182563422Y-109385000D01*
X183275000Y-110096579D01*
X183275000Y-110163183D01*
X183152820Y-110244821D01*
X182890000Y-110638159D01*
X182627179Y-110244820D01*
X182165081Y-109936056D01*
X181620000Y-109827632D01*
X181074918Y-109936056D01*
X180612820Y-110244821D01*
X180350000Y-110638159D01*
X180087179Y-110244820D01*
X179625081Y-109936056D01*
X179080000Y-109827632D01*
X178534918Y-109936056D01*
X178072820Y-110244821D01*
X177810000Y-110638159D01*
X177547179Y-110244820D01*
X177085081Y-109936056D01*
X176540000Y-109827632D01*
X175994918Y-109936056D01*
X175532820Y-110244821D01*
X175224056Y-110706919D01*
X175143000Y-111114413D01*
X175143000Y-112405588D01*
X175224056Y-112813082D01*
X175532821Y-113275180D01*
X175679219Y-113373000D01*
X164100089Y-113373000D01*
X164454144Y-113018945D01*
X164792500Y-112202083D01*
X164792500Y-111317917D01*
X164774632Y-111274778D01*
X165111000Y-111274778D01*
X165111000Y-111925222D01*
X165359914Y-112526153D01*
X165819847Y-112986086D01*
X166420778Y-113235000D01*
X167071222Y-113235000D01*
X167672153Y-112986086D01*
X168132086Y-112526153D01*
X168381000Y-111925222D01*
X168381000Y-111274778D01*
X171611000Y-111274778D01*
X171611000Y-111925222D01*
X171859914Y-112526153D01*
X172319847Y-112986086D01*
X172920778Y-113235000D01*
X173571222Y-113235000D01*
X174172153Y-112986086D01*
X174632086Y-112526153D01*
X174881000Y-111925222D01*
X174881000Y-111274778D01*
X174632086Y-110673847D01*
X174172153Y-110213914D01*
X173571222Y-109965000D01*
X172920778Y-109965000D01*
X172319847Y-110213914D01*
X171859914Y-110673847D01*
X171611000Y-111274778D01*
X168381000Y-111274778D01*
X168132086Y-110673847D01*
X167672153Y-110213914D01*
X167071222Y-109965000D01*
X166420778Y-109965000D01*
X165819847Y-110213914D01*
X165359914Y-110673847D01*
X165111000Y-111274778D01*
X164774632Y-111274778D01*
X164454144Y-110501055D01*
X163828945Y-109875856D01*
X163012083Y-109537500D01*
X162127917Y-109537500D01*
X161311055Y-109875856D01*
X160685856Y-110501055D01*
X160347500Y-111317917D01*
X160347500Y-112202083D01*
X160685856Y-113018945D01*
X161039911Y-113373000D01*
X155982606Y-113373000D01*
X153984384Y-111374778D01*
X156261000Y-111374778D01*
X156261000Y-112025222D01*
X156509914Y-112626153D01*
X156969847Y-113086086D01*
X157570778Y-113335000D01*
X158221222Y-113335000D01*
X158822153Y-113086086D01*
X159282086Y-112626153D01*
X159531000Y-112025222D01*
X159531000Y-111374778D01*
X159282086Y-110773847D01*
X158822153Y-110313914D01*
X158221222Y-110065000D01*
X157570778Y-110065000D01*
X156969847Y-110313914D01*
X156509914Y-110773847D01*
X156261000Y-111374778D01*
X153984384Y-111374778D01*
X151444606Y-108835000D01*
X151721222Y-108835000D01*
X152322153Y-108586086D01*
X152782086Y-108126153D01*
X153031000Y-107525222D01*
X153031000Y-106874778D01*
X156261000Y-106874778D01*
X156261000Y-107525222D01*
X156509914Y-108126153D01*
X156969847Y-108586086D01*
X157570778Y-108835000D01*
X158221222Y-108835000D01*
X158822153Y-108586086D01*
X159282086Y-108126153D01*
X159531000Y-107525222D01*
X159531000Y-106874778D01*
X159489579Y-106774778D01*
X165111000Y-106774778D01*
X165111000Y-107425222D01*
X165359914Y-108026153D01*
X165819847Y-108486086D01*
X166420778Y-108735000D01*
X167071222Y-108735000D01*
X167672153Y-108486086D01*
X168132086Y-108026153D01*
X168381000Y-107425222D01*
X168381000Y-106774778D01*
X171611000Y-106774778D01*
X171611000Y-107425222D01*
X171859914Y-108026153D01*
X172319847Y-108486086D01*
X172920778Y-108735000D01*
X173571222Y-108735000D01*
X174172153Y-108486086D01*
X174632086Y-108026153D01*
X174881000Y-107425222D01*
X174881000Y-106774778D01*
X174632086Y-106173847D01*
X174172153Y-105713914D01*
X173571222Y-105465000D01*
X172920778Y-105465000D01*
X172319847Y-105713914D01*
X171859914Y-106173847D01*
X171611000Y-106774778D01*
X168381000Y-106774778D01*
X168132086Y-106173847D01*
X167672153Y-105713914D01*
X167071222Y-105465000D01*
X166420778Y-105465000D01*
X165819847Y-105713914D01*
X165359914Y-106173847D01*
X165111000Y-106774778D01*
X159489579Y-106774778D01*
X159462177Y-106708625D01*
X159910802Y-106260000D01*
X160883710Y-106260000D01*
X160916365Y-106292655D01*
X161260017Y-106435000D01*
X161631983Y-106435000D01*
X161975635Y-106292655D01*
X162238655Y-106029635D01*
X162381000Y-105685983D01*
X162381000Y-105314017D01*
X162238655Y-104970365D01*
X161975635Y-104707345D01*
X161631983Y-104565000D01*
X161260017Y-104565000D01*
X160916365Y-104707345D01*
X160883710Y-104740000D01*
X159670846Y-104740000D01*
X159595999Y-104725112D01*
X159521152Y-104740000D01*
X159521148Y-104740000D01*
X159299463Y-104784096D01*
X159048071Y-104952071D01*
X159005670Y-105015528D01*
X158945529Y-105075670D01*
X158945527Y-105075671D01*
X158387375Y-105633823D01*
X158221222Y-105565000D01*
X157570778Y-105565000D01*
X156969847Y-105813914D01*
X156509914Y-106273847D01*
X156261000Y-106874778D01*
X153031000Y-106874778D01*
X152782086Y-106273847D01*
X152322153Y-105813914D01*
X151721222Y-105565000D01*
X151070778Y-105565000D01*
X150469847Y-105813914D01*
X150009914Y-106273847D01*
X149761000Y-106874778D01*
X149761000Y-107151394D01*
X149557000Y-106947394D01*
X149557000Y-102896615D01*
X181323000Y-102896615D01*
X181323000Y-103487385D01*
X181549078Y-104033185D01*
X181966815Y-104450922D01*
X182512615Y-104677000D01*
X183103385Y-104677000D01*
X183232084Y-104623691D01*
X186170000Y-104623691D01*
X186170000Y-105214250D01*
X186328750Y-105373000D01*
X187303000Y-105373000D01*
X187303000Y-104273750D01*
X187557000Y-104273750D01*
X187557000Y-105373000D01*
X188531250Y-105373000D01*
X188690000Y-105214250D01*
X188690000Y-104623691D01*
X188593327Y-104390302D01*
X188414699Y-104211673D01*
X188181310Y-104115000D01*
X187715750Y-104115000D01*
X187557000Y-104273750D01*
X187303000Y-104273750D01*
X187144250Y-104115000D01*
X186678690Y-104115000D01*
X186445301Y-104211673D01*
X186266673Y-104390302D01*
X186170000Y-104623691D01*
X183232084Y-104623691D01*
X183649185Y-104450922D01*
X184066922Y-104033185D01*
X184293000Y-103487385D01*
X184293000Y-102896615D01*
X184066922Y-102350815D01*
X183649185Y-101933078D01*
X183103385Y-101707000D01*
X182512615Y-101707000D01*
X181966815Y-101933078D01*
X181549078Y-102350815D01*
X181323000Y-102896615D01*
X149557000Y-102896615D01*
X149557000Y-100052606D01*
X152959606Y-96650000D01*
X156782560Y-96650000D01*
X156782560Y-98350000D01*
X156831843Y-98597765D01*
X156972191Y-98807809D01*
X157182235Y-98948157D01*
X157430000Y-98997440D01*
X157626130Y-98997440D01*
X157495000Y-99314017D01*
X157495000Y-99685983D01*
X157637345Y-100029635D01*
X157900365Y-100292655D01*
X158244017Y-100435000D01*
X158615983Y-100435000D01*
X158959635Y-100292655D01*
X159222655Y-100029635D01*
X159365000Y-99685983D01*
X159365000Y-99314017D01*
X159233870Y-98997440D01*
X159430000Y-98997440D01*
X159677765Y-98948157D01*
X159887809Y-98807809D01*
X160028157Y-98597765D01*
X160077440Y-98350000D01*
X160077440Y-97785750D01*
X160795000Y-97785750D01*
X160795000Y-98476310D01*
X160891673Y-98709699D01*
X161070302Y-98888327D01*
X161303691Y-98985000D01*
X162144250Y-98985000D01*
X162303000Y-98826250D01*
X162303000Y-97627000D01*
X162557000Y-97627000D01*
X162557000Y-98826250D01*
X162715750Y-98985000D01*
X163556309Y-98985000D01*
X163789698Y-98888327D01*
X163968327Y-98709699D01*
X164065000Y-98476310D01*
X164065000Y-97785750D01*
X163906250Y-97627000D01*
X162557000Y-97627000D01*
X162303000Y-97627000D01*
X160953750Y-97627000D01*
X160795000Y-97785750D01*
X160077440Y-97785750D01*
X160077440Y-96650000D01*
X160052316Y-96523690D01*
X160795000Y-96523690D01*
X160795000Y-97214250D01*
X160953750Y-97373000D01*
X162303000Y-97373000D01*
X162303000Y-96173750D01*
X162557000Y-96173750D01*
X162557000Y-97373000D01*
X163906250Y-97373000D01*
X164065000Y-97214250D01*
X164065000Y-96523690D01*
X163968327Y-96290301D01*
X163789698Y-96111673D01*
X163556309Y-96015000D01*
X162715750Y-96015000D01*
X162557000Y-96173750D01*
X162303000Y-96173750D01*
X162144250Y-96015000D01*
X161303691Y-96015000D01*
X161070302Y-96111673D01*
X160891673Y-96290301D01*
X160795000Y-96523690D01*
X160052316Y-96523690D01*
X160028157Y-96402235D01*
X159887809Y-96192191D01*
X159677765Y-96051843D01*
X159430000Y-96002560D01*
X157430000Y-96002560D01*
X157182235Y-96051843D01*
X156972191Y-96192191D01*
X156831843Y-96402235D01*
X156782560Y-96650000D01*
X152959606Y-96650000D01*
X154519803Y-95089803D01*
X154547333Y-95048601D01*
X154557000Y-95000000D01*
X154557000Y-94238000D01*
X171490560Y-94238000D01*
X171490560Y-95762000D01*
X171539843Y-96009765D01*
X171680191Y-96219809D01*
X171890235Y-96360157D01*
X172138000Y-96409440D01*
X173662000Y-96409440D01*
X173909765Y-96360157D01*
X174119809Y-96219809D01*
X174137531Y-96193286D01*
X174182235Y-96223157D01*
X174430000Y-96272440D01*
X175930000Y-96272440D01*
X176177765Y-96223157D01*
X176387809Y-96082809D01*
X176428654Y-96021680D01*
X176570302Y-96163327D01*
X176803691Y-96260000D01*
X177394250Y-96260000D01*
X177553000Y-96101250D01*
X177553000Y-95127000D01*
X177807000Y-95127000D01*
X177807000Y-96101250D01*
X177965750Y-96260000D01*
X178556309Y-96260000D01*
X178789698Y-96163327D01*
X178968327Y-95984699D01*
X179065000Y-95751310D01*
X179065000Y-95285750D01*
X178906250Y-95127000D01*
X177807000Y-95127000D01*
X177553000Y-95127000D01*
X177533000Y-95127000D01*
X177533000Y-94873000D01*
X177553000Y-94873000D01*
X177553000Y-93898750D01*
X177807000Y-93898750D01*
X177807000Y-94873000D01*
X178906250Y-94873000D01*
X179065000Y-94714250D01*
X179065000Y-94248690D01*
X178968327Y-94015301D01*
X178789698Y-93836673D01*
X178556309Y-93740000D01*
X177965750Y-93740000D01*
X177807000Y-93898750D01*
X177553000Y-93898750D01*
X177394250Y-93740000D01*
X176803691Y-93740000D01*
X176570302Y-93836673D01*
X176428654Y-93978320D01*
X176387809Y-93917191D01*
X176177765Y-93776843D01*
X175930000Y-93727560D01*
X174430000Y-93727560D01*
X174182235Y-93776843D01*
X174137531Y-93806714D01*
X174119809Y-93780191D01*
X174095629Y-93764034D01*
X174297000Y-93277881D01*
X174297000Y-92722119D01*
X174084320Y-92208663D01*
X173875657Y-92000000D01*
X174084320Y-91791337D01*
X174297000Y-91277881D01*
X174297000Y-90749370D01*
X191240000Y-90749370D01*
X191240000Y-91250630D01*
X191431823Y-91713733D01*
X191786267Y-92068177D01*
X192249370Y-92260000D01*
X192750630Y-92260000D01*
X193213733Y-92068177D01*
X193568177Y-91713733D01*
X193760000Y-91250630D01*
X193760000Y-90749370D01*
X196240000Y-90749370D01*
X196240000Y-91250630D01*
X196431823Y-91713733D01*
X196786267Y-92068177D01*
X197249370Y-92260000D01*
X197750630Y-92260000D01*
X198213733Y-92068177D01*
X198568177Y-91713733D01*
X198760000Y-91250630D01*
X198760000Y-90749370D01*
X198568177Y-90286267D01*
X198213733Y-89931823D01*
X197750630Y-89740000D01*
X197249370Y-89740000D01*
X196786267Y-89931823D01*
X196431823Y-90286267D01*
X196240000Y-90749370D01*
X193760000Y-90749370D01*
X193568177Y-90286267D01*
X193213733Y-89931823D01*
X192750630Y-89740000D01*
X192249370Y-89740000D01*
X191786267Y-89931823D01*
X191431823Y-90286267D01*
X191240000Y-90749370D01*
X174297000Y-90749370D01*
X174297000Y-90722119D01*
X174084320Y-90208663D01*
X173875657Y-90000000D01*
X174084320Y-89791337D01*
X174297000Y-89277881D01*
X174297000Y-88722119D01*
X174084320Y-88208663D01*
X173875657Y-88000000D01*
X174084320Y-87791337D01*
X174297000Y-87277881D01*
X174297000Y-86722119D01*
X174084320Y-86208663D01*
X173875657Y-86000000D01*
X174084320Y-85791337D01*
X174297000Y-85277881D01*
X174297000Y-84722119D01*
X174084320Y-84208663D01*
X173875657Y-84000000D01*
X174084320Y-83791337D01*
X174297000Y-83277881D01*
X174297000Y-82722119D01*
X174084320Y-82208663D01*
X173875657Y-82000000D01*
X174084320Y-81791337D01*
X174297000Y-81277881D01*
X174297000Y-80722119D01*
X174084320Y-80208663D01*
X173875657Y-80000000D01*
X174084320Y-79791337D01*
X174297000Y-79277881D01*
X174297000Y-78722119D01*
X174210221Y-78512615D01*
X205707000Y-78512615D01*
X205707000Y-79103385D01*
X205933078Y-79649185D01*
X206350815Y-80066922D01*
X206896615Y-80293000D01*
X207487385Y-80293000D01*
X208033185Y-80066922D01*
X208450922Y-79649185D01*
X208677000Y-79103385D01*
X208677000Y-78512615D01*
X208450922Y-77966815D01*
X208033185Y-77549078D01*
X207487385Y-77323000D01*
X206896615Y-77323000D01*
X206350815Y-77549078D01*
X205933078Y-77966815D01*
X205707000Y-78512615D01*
X174210221Y-78512615D01*
X174084320Y-78208663D01*
X173691337Y-77815680D01*
X173426289Y-77705894D01*
X172900000Y-77179605D01*
X172373711Y-77705894D01*
X172108663Y-77815680D01*
X171715680Y-78208663D01*
X171503000Y-78722119D01*
X171503000Y-79277881D01*
X171715680Y-79791337D01*
X171924343Y-80000000D01*
X171715680Y-80208663D01*
X171503000Y-80722119D01*
X171503000Y-81277881D01*
X171715680Y-81791337D01*
X171924343Y-82000000D01*
X171715680Y-82208663D01*
X171503000Y-82722119D01*
X171503000Y-83277881D01*
X171715680Y-83791337D01*
X171924343Y-84000000D01*
X171715680Y-84208663D01*
X171503000Y-84722119D01*
X171503000Y-85277881D01*
X171715680Y-85791337D01*
X171924343Y-86000000D01*
X171715680Y-86208663D01*
X171503000Y-86722119D01*
X171503000Y-87277881D01*
X171715680Y-87791337D01*
X171924343Y-88000000D01*
X171715680Y-88208663D01*
X171503000Y-88722119D01*
X171503000Y-89277881D01*
X171715680Y-89791337D01*
X171924343Y-90000000D01*
X171715680Y-90208663D01*
X171503000Y-90722119D01*
X171503000Y-91277881D01*
X171715680Y-91791337D01*
X171924343Y-92000000D01*
X171715680Y-92208663D01*
X171503000Y-92722119D01*
X171503000Y-93277881D01*
X171704371Y-93764034D01*
X171680191Y-93780191D01*
X171539843Y-93990235D01*
X171490560Y-94238000D01*
X154557000Y-94238000D01*
X154557000Y-85500101D01*
X154563923Y-76792302D01*
X171490856Y-76792302D01*
X171518638Y-77347368D01*
X171677603Y-77731143D01*
X171919787Y-77800608D01*
X172720395Y-77000000D01*
X173079605Y-77000000D01*
X173880213Y-77800608D01*
X174122397Y-77731143D01*
X174309144Y-77207698D01*
X174281362Y-76652632D01*
X174122397Y-76268857D01*
X173880213Y-76199392D01*
X173079605Y-77000000D01*
X172720395Y-77000000D01*
X171919787Y-76199392D01*
X171677603Y-76268857D01*
X171490856Y-76792302D01*
X154563923Y-76792302D01*
X154564537Y-76019787D01*
X172099392Y-76019787D01*
X172900000Y-76820395D01*
X173700608Y-76019787D01*
X173631143Y-75777603D01*
X173107698Y-75590856D01*
X172552632Y-75618638D01*
X172168857Y-75777603D01*
X172099392Y-76019787D01*
X154564537Y-76019787D01*
X154565000Y-75438101D01*
X154555371Y-75389493D01*
X154527803Y-75348197D01*
X149739000Y-70559394D01*
X149739000Y-66285750D01*
X150468000Y-66285750D01*
X150468000Y-67876310D01*
X150564673Y-68109699D01*
X150743302Y-68288327D01*
X150976691Y-68385000D01*
X152567250Y-68385000D01*
X152726000Y-68226250D01*
X152726000Y-66127000D01*
X152980000Y-66127000D01*
X152980000Y-68226250D01*
X153138750Y-68385000D01*
X153805612Y-68385000D01*
X153645191Y-68492191D01*
X153504843Y-68702235D01*
X153455560Y-68950000D01*
X153455560Y-72450000D01*
X153504843Y-72697765D01*
X153645191Y-72907809D01*
X153855235Y-73048157D01*
X154103000Y-73097440D01*
X157603000Y-73097440D01*
X157850765Y-73048157D01*
X158060809Y-72907809D01*
X158201157Y-72697765D01*
X158250440Y-72450000D01*
X158250440Y-71374000D01*
X163985908Y-71374000D01*
X164101161Y-71953418D01*
X164429375Y-72444625D01*
X164920582Y-72772839D01*
X165353744Y-72859000D01*
X165646256Y-72859000D01*
X166079418Y-72772839D01*
X166570625Y-72444625D01*
X166898839Y-71953418D01*
X166954263Y-71674778D01*
X171365000Y-71674778D01*
X171365000Y-72325222D01*
X171613914Y-72926153D01*
X172073847Y-73386086D01*
X172674778Y-73635000D01*
X173325222Y-73635000D01*
X173926153Y-73386086D01*
X174386086Y-72926153D01*
X174635000Y-72325222D01*
X174635000Y-71674778D01*
X177865000Y-71674778D01*
X177865000Y-72325222D01*
X178113914Y-72926153D01*
X178573847Y-73386086D01*
X178740000Y-73454909D01*
X178740001Y-75437709D01*
X178707345Y-75470365D01*
X178565000Y-75814017D01*
X178565000Y-76185983D01*
X178707345Y-76529635D01*
X178970365Y-76792655D01*
X179314017Y-76935000D01*
X179685983Y-76935000D01*
X180029635Y-76792655D01*
X180292655Y-76529635D01*
X180435000Y-76185983D01*
X180435000Y-75814017D01*
X180292655Y-75470365D01*
X180260000Y-75437710D01*
X180260000Y-74714017D01*
X182295000Y-74714017D01*
X182295000Y-75085983D01*
X182383649Y-75300000D01*
X182295000Y-75514017D01*
X182295000Y-75885983D01*
X182437345Y-76229635D01*
X182700365Y-76492655D01*
X183044017Y-76635000D01*
X183415983Y-76635000D01*
X183759635Y-76492655D01*
X183792290Y-76460000D01*
X186067710Y-76460000D01*
X186100365Y-76492655D01*
X186444017Y-76635000D01*
X186815983Y-76635000D01*
X187097986Y-76518191D01*
X187237345Y-76854635D01*
X187500365Y-77117655D01*
X187844017Y-77260000D01*
X188215983Y-77260000D01*
X188559635Y-77117655D01*
X188822655Y-76854635D01*
X188965000Y-76510983D01*
X188965000Y-76139017D01*
X188822655Y-75795365D01*
X188559635Y-75532345D01*
X188215983Y-75390000D01*
X188183009Y-75390000D01*
X188145904Y-75203463D01*
X187977929Y-74952071D01*
X187914473Y-74909671D01*
X187420331Y-74415530D01*
X187377929Y-74352071D01*
X187126537Y-74184096D01*
X186999758Y-74158878D01*
X187159635Y-74092655D01*
X187311675Y-73940615D01*
X189197000Y-73940615D01*
X189197000Y-74531385D01*
X189423078Y-75077185D01*
X189840815Y-75494922D01*
X190386615Y-75721000D01*
X190977385Y-75721000D01*
X191523185Y-75494922D01*
X191940922Y-75077185D01*
X192167000Y-74531385D01*
X192167000Y-73940615D01*
X191940922Y-73394815D01*
X191523185Y-72977078D01*
X190977385Y-72751000D01*
X190386615Y-72751000D01*
X189840815Y-72977078D01*
X189423078Y-73394815D01*
X189197000Y-73940615D01*
X187311675Y-73940615D01*
X187422655Y-73829635D01*
X187565000Y-73485983D01*
X187565000Y-73114017D01*
X187476351Y-72900000D01*
X187565000Y-72685983D01*
X187565000Y-72314017D01*
X187422655Y-71970365D01*
X187159635Y-71707345D01*
X186815983Y-71565000D01*
X186444017Y-71565000D01*
X186100365Y-71707345D01*
X186067710Y-71740000D01*
X184368026Y-71740000D01*
X184335371Y-71707345D01*
X183991719Y-71565000D01*
X183619753Y-71565000D01*
X183276101Y-71707345D01*
X183013081Y-71970365D01*
X182870736Y-72314017D01*
X182870736Y-72685983D01*
X183013081Y-73029635D01*
X183276101Y-73292655D01*
X183295000Y-73300483D01*
X183295000Y-73485983D01*
X183437345Y-73829635D01*
X183683532Y-74075822D01*
X183415983Y-73965000D01*
X183044017Y-73965000D01*
X182700365Y-74107345D01*
X182437345Y-74370365D01*
X182295000Y-74714017D01*
X180260000Y-74714017D01*
X180260000Y-73454909D01*
X180426153Y-73386086D01*
X180886086Y-72926153D01*
X181135000Y-72325222D01*
X181135000Y-71674778D01*
X180886086Y-71073847D01*
X180426153Y-70613914D01*
X179825222Y-70365000D01*
X179174778Y-70365000D01*
X178573847Y-70613914D01*
X178113914Y-71073847D01*
X177865000Y-71674778D01*
X174635000Y-71674778D01*
X174386086Y-71073847D01*
X173926153Y-70613914D01*
X173325222Y-70365000D01*
X172674778Y-70365000D01*
X172073847Y-70613914D01*
X171613914Y-71073847D01*
X171365000Y-71674778D01*
X166954263Y-71674778D01*
X167014092Y-71374000D01*
X166898839Y-70794582D01*
X166570625Y-70303375D01*
X166552381Y-70291184D01*
X166597765Y-70282157D01*
X166807809Y-70141809D01*
X166948157Y-69931765D01*
X166997440Y-69684000D01*
X166997440Y-68652532D01*
X172027073Y-68652532D01*
X172125736Y-68919387D01*
X172735461Y-69145908D01*
X173385460Y-69121856D01*
X173874264Y-68919387D01*
X173972927Y-68652532D01*
X178527073Y-68652532D01*
X178625736Y-68919387D01*
X179235461Y-69145908D01*
X179885460Y-69121856D01*
X180374264Y-68919387D01*
X180410013Y-68822696D01*
X183684744Y-68822696D01*
X183807353Y-69293701D01*
X184100875Y-69681933D01*
X184520624Y-69928286D01*
X184612391Y-69943462D01*
X184803000Y-69818731D01*
X184803000Y-68627000D01*
X183847453Y-68627000D01*
X183684744Y-68822696D01*
X180410013Y-68822696D01*
X180472927Y-68652532D01*
X179500000Y-67679605D01*
X178527073Y-68652532D01*
X173972927Y-68652532D01*
X173000000Y-67679605D01*
X172027073Y-68652532D01*
X166997440Y-68652532D01*
X166997440Y-67984000D01*
X166948157Y-67736235D01*
X166807809Y-67526191D01*
X166597765Y-67385843D01*
X166350000Y-67336560D01*
X164650000Y-67336560D01*
X164402235Y-67385843D01*
X164192191Y-67526191D01*
X164051843Y-67736235D01*
X164002560Y-67984000D01*
X164002560Y-69684000D01*
X164051843Y-69931765D01*
X164192191Y-70141809D01*
X164402235Y-70282157D01*
X164447619Y-70291184D01*
X164429375Y-70303375D01*
X164101161Y-70794582D01*
X163985908Y-71374000D01*
X158250440Y-71374000D01*
X158250440Y-68950000D01*
X158201157Y-68702235D01*
X158060809Y-68492191D01*
X157919005Y-68397440D01*
X160603000Y-68397440D01*
X160850765Y-68348157D01*
X161060809Y-68207809D01*
X161201157Y-67997765D01*
X161250440Y-67750000D01*
X161250440Y-67235461D01*
X171354092Y-67235461D01*
X171378144Y-67885460D01*
X171580613Y-68374264D01*
X171847468Y-68472927D01*
X172820395Y-67500000D01*
X173179605Y-67500000D01*
X174152532Y-68472927D01*
X174419387Y-68374264D01*
X174645908Y-67764539D01*
X174626331Y-67235461D01*
X177854092Y-67235461D01*
X177878144Y-67885460D01*
X178080613Y-68374264D01*
X178347468Y-68472927D01*
X179320395Y-67500000D01*
X179679605Y-67500000D01*
X180652532Y-68472927D01*
X180919387Y-68374264D01*
X180992560Y-68177304D01*
X183684744Y-68177304D01*
X183847453Y-68373000D01*
X184803000Y-68373000D01*
X184803000Y-67181269D01*
X185057000Y-67181269D01*
X185057000Y-68373000D01*
X185077000Y-68373000D01*
X185077000Y-68627000D01*
X185057000Y-68627000D01*
X185057000Y-69818731D01*
X185247609Y-69943462D01*
X185339376Y-69928286D01*
X185759125Y-69681933D01*
X185922760Y-69465498D01*
X186039615Y-69640385D01*
X186448127Y-69913344D01*
X186930000Y-70009195D01*
X187411872Y-69913344D01*
X187778860Y-69668131D01*
X187872191Y-69807809D01*
X188082235Y-69948157D01*
X188330000Y-69997440D01*
X189530000Y-69997440D01*
X189777765Y-69948157D01*
X189987809Y-69807809D01*
X190128157Y-69597765D01*
X190177440Y-69350000D01*
X190177440Y-69189017D01*
X197025000Y-69189017D01*
X197025000Y-69560983D01*
X197167345Y-69904635D01*
X197200000Y-69937290D01*
X197200001Y-71562709D01*
X197167345Y-71595365D01*
X197025000Y-71939017D01*
X197025000Y-72310983D01*
X197167345Y-72654635D01*
X197430365Y-72917655D01*
X197774017Y-73060000D01*
X198145983Y-73060000D01*
X198489635Y-72917655D01*
X198621540Y-72785750D01*
X202445000Y-72785750D01*
X202445000Y-73626309D01*
X202541673Y-73859698D01*
X202720301Y-74038327D01*
X202953690Y-74135000D01*
X203644250Y-74135000D01*
X203803000Y-73976250D01*
X203803000Y-72627000D01*
X204057000Y-72627000D01*
X204057000Y-73976250D01*
X204215750Y-74135000D01*
X204906310Y-74135000D01*
X205139699Y-74038327D01*
X205318327Y-73859698D01*
X205415000Y-73626309D01*
X205415000Y-72785750D01*
X205256250Y-72627000D01*
X204057000Y-72627000D01*
X203803000Y-72627000D01*
X202603750Y-72627000D01*
X202445000Y-72785750D01*
X198621540Y-72785750D01*
X198752655Y-72654635D01*
X198895000Y-72310983D01*
X198895000Y-71939017D01*
X198752655Y-71595365D01*
X198720000Y-71562710D01*
X198720000Y-71373691D01*
X202445000Y-71373691D01*
X202445000Y-72214250D01*
X202603750Y-72373000D01*
X203803000Y-72373000D01*
X203803000Y-71023750D01*
X204057000Y-71023750D01*
X204057000Y-72373000D01*
X205256250Y-72373000D01*
X205415000Y-72214250D01*
X205415000Y-71373691D01*
X205318327Y-71140302D01*
X205139699Y-70961673D01*
X204906310Y-70865000D01*
X204215750Y-70865000D01*
X204057000Y-71023750D01*
X203803000Y-71023750D01*
X203644250Y-70865000D01*
X202953690Y-70865000D01*
X202720301Y-70961673D01*
X202541673Y-71140302D01*
X202445000Y-71373691D01*
X198720000Y-71373691D01*
X198720000Y-69937290D01*
X198752655Y-69904635D01*
X198895000Y-69560983D01*
X198895000Y-69189017D01*
X198752655Y-68845365D01*
X198489635Y-68582345D01*
X198145983Y-68440000D01*
X197774017Y-68440000D01*
X197430365Y-68582345D01*
X197167345Y-68845365D01*
X197025000Y-69189017D01*
X190177440Y-69189017D01*
X190177440Y-67650000D01*
X190128157Y-67402235D01*
X189987809Y-67192191D01*
X189777765Y-67051843D01*
X189530000Y-67002560D01*
X188330000Y-67002560D01*
X188082235Y-67051843D01*
X187872191Y-67192191D01*
X187778860Y-67331869D01*
X187411873Y-67086656D01*
X186930000Y-66990805D01*
X186448128Y-67086656D01*
X186039616Y-67359615D01*
X185922760Y-67534502D01*
X185759125Y-67318067D01*
X185339376Y-67071714D01*
X185247609Y-67056538D01*
X185057000Y-67181269D01*
X184803000Y-67181269D01*
X184612391Y-67056538D01*
X184520624Y-67071714D01*
X184100875Y-67318067D01*
X183807353Y-67706299D01*
X183684744Y-68177304D01*
X180992560Y-68177304D01*
X181145908Y-67764539D01*
X181121856Y-67114540D01*
X180919387Y-66625736D01*
X180652532Y-66527073D01*
X179679605Y-67500000D01*
X179320395Y-67500000D01*
X178347468Y-66527073D01*
X178080613Y-66625736D01*
X177854092Y-67235461D01*
X174626331Y-67235461D01*
X174621856Y-67114540D01*
X174419387Y-66625736D01*
X174152532Y-66527073D01*
X173179605Y-67500000D01*
X172820395Y-67500000D01*
X171847468Y-66527073D01*
X171580613Y-66625736D01*
X171354092Y-67235461D01*
X161250440Y-67235461D01*
X161250440Y-66347468D01*
X172027073Y-66347468D01*
X173000000Y-67320395D01*
X173972927Y-66347468D01*
X178527073Y-66347468D01*
X179500000Y-67320395D01*
X180472927Y-66347468D01*
X180374264Y-66080613D01*
X179764539Y-65854092D01*
X179114540Y-65878144D01*
X178625736Y-66080613D01*
X178527073Y-66347468D01*
X173972927Y-66347468D01*
X173874264Y-66080613D01*
X173264539Y-65854092D01*
X172614540Y-65878144D01*
X172125736Y-66080613D01*
X172027073Y-66347468D01*
X161250440Y-66347468D01*
X161250440Y-64250000D01*
X161201157Y-64002235D01*
X161060809Y-63792191D01*
X160850765Y-63651843D01*
X160603000Y-63602560D01*
X157103000Y-63602560D01*
X156855235Y-63651843D01*
X156645191Y-63792191D01*
X156504843Y-64002235D01*
X156455560Y-64250000D01*
X156455560Y-67750000D01*
X156504843Y-67997765D01*
X156645191Y-68207809D01*
X156786995Y-68302560D01*
X154928337Y-68302560D01*
X154962698Y-68288327D01*
X155141327Y-68109699D01*
X155238000Y-67876310D01*
X155238000Y-66285750D01*
X155079250Y-66127000D01*
X152980000Y-66127000D01*
X152726000Y-66127000D01*
X150626750Y-66127000D01*
X150468000Y-66285750D01*
X149739000Y-66285750D01*
X149739000Y-64123690D01*
X150468000Y-64123690D01*
X150468000Y-65714250D01*
X150626750Y-65873000D01*
X152726000Y-65873000D01*
X152726000Y-63773750D01*
X152980000Y-63773750D01*
X152980000Y-65873000D01*
X155079250Y-65873000D01*
X155238000Y-65714250D01*
X155238000Y-64123690D01*
X155141327Y-63890301D01*
X154962698Y-63711673D01*
X154729309Y-63615000D01*
X153138750Y-63615000D01*
X152980000Y-63773750D01*
X152726000Y-63773750D01*
X152567250Y-63615000D01*
X150976691Y-63615000D01*
X150743302Y-63711673D01*
X150564673Y-63890301D01*
X150468000Y-64123690D01*
X149739000Y-64123690D01*
X149739000Y-62103147D01*
X162079537Y-62117374D01*
X162079537Y-62117374D01*
G37*
X162079537Y-62117374D02*
X161955856Y-62241055D01*
X161617500Y-63057917D01*
X161617500Y-63942083D01*
X161955856Y-64758945D01*
X162581055Y-65384144D01*
X163397917Y-65722500D01*
X164282083Y-65722500D01*
X165098945Y-65384144D01*
X165724144Y-64758945D01*
X165999000Y-64095385D01*
X165999000Y-64145588D01*
X166080056Y-64553082D01*
X166388821Y-65015180D01*
X166850919Y-65323944D01*
X167396000Y-65432368D01*
X167941082Y-65323944D01*
X168403180Y-65015180D01*
X168666000Y-64621842D01*
X168928821Y-65015180D01*
X169390919Y-65323944D01*
X169936000Y-65432368D01*
X170481082Y-65323944D01*
X170943180Y-65015180D01*
X171206000Y-64621842D01*
X171468821Y-65015180D01*
X171930919Y-65323944D01*
X172476000Y-65432368D01*
X173021082Y-65323944D01*
X173483180Y-65015180D01*
X173757580Y-64604511D01*
X173773941Y-64659941D01*
X174117974Y-65085630D01*
X174598723Y-65347260D01*
X174672930Y-65362220D01*
X174889000Y-65239720D01*
X174889000Y-63627000D01*
X174869000Y-63627000D01*
X174869000Y-63373000D01*
X174889000Y-63373000D01*
X174889000Y-63353000D01*
X175143000Y-63353000D01*
X175143000Y-63373000D01*
X175163000Y-63373000D01*
X175163000Y-63627000D01*
X175143000Y-63627000D01*
X175143000Y-65239720D01*
X175359070Y-65362220D01*
X175433277Y-65347260D01*
X175914026Y-65085630D01*
X176258059Y-64659941D01*
X176274420Y-64604511D01*
X176548821Y-65015180D01*
X177010919Y-65323944D01*
X177556000Y-65432368D01*
X178101082Y-65323944D01*
X178563180Y-65015180D01*
X178826000Y-64621842D01*
X179088821Y-65015180D01*
X179550919Y-65323944D01*
X180096000Y-65432368D01*
X180641082Y-65323944D01*
X181103180Y-65015180D01*
X181366000Y-64621842D01*
X181628821Y-65015180D01*
X182090919Y-65323944D01*
X182636000Y-65432368D01*
X183181082Y-65323944D01*
X183643180Y-65015180D01*
X183906000Y-64621842D01*
X184168821Y-65015180D01*
X184630919Y-65323944D01*
X185176000Y-65432368D01*
X185721082Y-65323944D01*
X186183180Y-65015180D01*
X186446000Y-64621842D01*
X186708821Y-65015180D01*
X187170919Y-65323944D01*
X187716000Y-65432368D01*
X188261082Y-65323944D01*
X188723180Y-65015180D01*
X188986000Y-64621842D01*
X189248821Y-65015180D01*
X189710919Y-65323944D01*
X190256000Y-65432368D01*
X190801082Y-65323944D01*
X191263180Y-65015180D01*
X191571944Y-64553082D01*
X191653000Y-64145588D01*
X191653000Y-62854412D01*
X191571944Y-62446918D01*
X191358181Y-62127000D01*
X193217819Y-62127000D01*
X193004056Y-62446919D01*
X192923000Y-62854413D01*
X192923000Y-64145588D01*
X193004056Y-64553082D01*
X193312821Y-65015180D01*
X193774919Y-65323944D01*
X194320000Y-65432368D01*
X194865082Y-65323944D01*
X195327180Y-65015180D01*
X195590000Y-64621842D01*
X195852821Y-65015180D01*
X196314919Y-65323944D01*
X196860000Y-65432368D01*
X197405082Y-65323944D01*
X197867180Y-65015180D01*
X198130000Y-64621842D01*
X198392821Y-65015180D01*
X198854919Y-65323944D01*
X199400000Y-65432368D01*
X199945082Y-65323944D01*
X200407180Y-65015180D01*
X200670000Y-64621842D01*
X200932821Y-65015180D01*
X201394919Y-65323944D01*
X201940000Y-65432368D01*
X202485082Y-65323944D01*
X202947180Y-65015180D01*
X203210000Y-64621842D01*
X203472821Y-65015180D01*
X203934919Y-65323944D01*
X204480000Y-65432368D01*
X205025082Y-65323944D01*
X205487180Y-65015180D01*
X205750000Y-64621842D01*
X206012821Y-65015180D01*
X206208961Y-65146237D01*
X204502639Y-66852560D01*
X203080000Y-66852560D01*
X202832235Y-66901843D01*
X202622191Y-67042191D01*
X202481843Y-67252235D01*
X202432560Y-67500000D01*
X202432560Y-69500000D01*
X202481843Y-69747765D01*
X202622191Y-69957809D01*
X202832235Y-70098157D01*
X203080000Y-70147440D01*
X204780000Y-70147440D01*
X205027765Y-70098157D01*
X205237809Y-69957809D01*
X205378157Y-69747765D01*
X205427440Y-69500000D01*
X205427440Y-68077361D01*
X205822682Y-67682119D01*
X206663000Y-67682119D01*
X206663000Y-68237881D01*
X206875680Y-68751337D01*
X207268663Y-69144320D01*
X207475513Y-69230000D01*
X207268663Y-69315680D01*
X206875680Y-69708663D01*
X206663000Y-70222119D01*
X206663000Y-70777881D01*
X206875680Y-71291337D01*
X207268663Y-71684320D01*
X207475513Y-71770000D01*
X207268663Y-71855680D01*
X206875680Y-72248663D01*
X206663000Y-72762119D01*
X206663000Y-73317881D01*
X206875680Y-73831337D01*
X207268663Y-74224320D01*
X207782119Y-74437000D01*
X208337881Y-74437000D01*
X208851337Y-74224320D01*
X209244320Y-73831337D01*
X209457000Y-73317881D01*
X209457000Y-72762119D01*
X209244320Y-72248663D01*
X208851337Y-71855680D01*
X208644487Y-71770000D01*
X208851337Y-71684320D01*
X209244320Y-71291337D01*
X209457000Y-70777881D01*
X209457000Y-70222119D01*
X209244320Y-69708663D01*
X208851337Y-69315680D01*
X208644487Y-69230000D01*
X208851337Y-69144320D01*
X209244320Y-68751337D01*
X209457000Y-68237881D01*
X209457000Y-67682119D01*
X209244320Y-67168663D01*
X208851337Y-66775680D01*
X208337881Y-66563000D01*
X207782119Y-66563000D01*
X207268663Y-66775680D01*
X206875680Y-67168663D01*
X206663000Y-67682119D01*
X205822682Y-67682119D01*
X207504473Y-66000329D01*
X207567929Y-65957929D01*
X207735904Y-65706537D01*
X207780000Y-65484852D01*
X207780000Y-65484847D01*
X207794888Y-65410000D01*
X207780000Y-65335153D01*
X207780000Y-65180340D01*
X208027180Y-65015180D01*
X208290000Y-64621842D01*
X208552821Y-65015180D01*
X209014919Y-65323944D01*
X209560000Y-65432368D01*
X210105082Y-65323944D01*
X210567180Y-65015180D01*
X210830000Y-64621842D01*
X211092821Y-65015180D01*
X211554919Y-65323944D01*
X212100000Y-65432368D01*
X212645082Y-65323944D01*
X212902402Y-65152008D01*
X213303000Y-65552606D01*
X213303000Y-75447394D01*
X207840197Y-80910197D01*
X207812667Y-80951399D01*
X207803000Y-81000000D01*
X207803000Y-107947394D01*
X205494547Y-110255847D01*
X205487179Y-110244820D01*
X205025081Y-109936056D01*
X204480000Y-109827632D01*
X203934918Y-109936056D01*
X203472820Y-110244821D01*
X203210000Y-110638159D01*
X202947179Y-110244820D01*
X202485081Y-109936056D01*
X201940000Y-109827632D01*
X201394918Y-109936056D01*
X200932820Y-110244821D01*
X200670000Y-110638159D01*
X200407179Y-110244820D01*
X199945081Y-109936056D01*
X199400000Y-109827632D01*
X198854918Y-109936056D01*
X198392820Y-110244821D01*
X198084056Y-110706919D01*
X198003000Y-111114413D01*
X198003000Y-112405588D01*
X198084056Y-112813082D01*
X198392821Y-113275180D01*
X198539219Y-113373000D01*
X195180782Y-113373000D01*
X195327180Y-113275180D01*
X195635944Y-112813082D01*
X195717000Y-112405588D01*
X195717000Y-111114412D01*
X195635944Y-110706918D01*
X195327179Y-110244820D01*
X194865081Y-109936056D01*
X194320000Y-109827632D01*
X193774918Y-109936056D01*
X193312820Y-110244821D01*
X193038420Y-110655490D01*
X193022059Y-110600059D01*
X192678026Y-110174370D01*
X192197277Y-109912740D01*
X192123070Y-109897780D01*
X191907000Y-110020280D01*
X191907000Y-111633000D01*
X191927000Y-111633000D01*
X191927000Y-111887000D01*
X191907000Y-111887000D01*
X191907000Y-111907000D01*
X191653000Y-111907000D01*
X191653000Y-111887000D01*
X189367000Y-111887000D01*
X189367000Y-111907000D01*
X189113000Y-111907000D01*
X189113000Y-111887000D01*
X189093000Y-111887000D01*
X189093000Y-111633000D01*
X189113000Y-111633000D01*
X189113000Y-110020280D01*
X189367000Y-110020280D01*
X189367000Y-111633000D01*
X191653000Y-111633000D01*
X191653000Y-110020280D01*
X191436930Y-109897780D01*
X191362723Y-109912740D01*
X190881974Y-110174370D01*
X190537941Y-110600059D01*
X190510000Y-110694723D01*
X190482059Y-110600059D01*
X190138026Y-110174370D01*
X189657277Y-109912740D01*
X189583070Y-109897780D01*
X189367000Y-110020280D01*
X189113000Y-110020280D01*
X188896930Y-109897780D01*
X188822723Y-109912740D01*
X188341974Y-110174370D01*
X187997941Y-110600059D01*
X187981580Y-110655489D01*
X187707179Y-110244820D01*
X187694938Y-110236641D01*
X187994156Y-109937423D01*
X188068049Y-109888049D01*
X188263652Y-109595310D01*
X188314354Y-109340414D01*
X188512809Y-109207809D01*
X188653157Y-108997765D01*
X188690911Y-108807958D01*
X198453647Y-108807958D01*
X198533920Y-109059259D01*
X199089279Y-109260718D01*
X199679458Y-109234315D01*
X200102080Y-109059259D01*
X200182353Y-108807958D01*
X199318000Y-107943605D01*
X198453647Y-108807958D01*
X188690911Y-108807958D01*
X188702440Y-108750000D01*
X188702440Y-107535279D01*
X197821282Y-107535279D01*
X197847685Y-108125458D01*
X198022741Y-108548080D01*
X198274042Y-108628353D01*
X199138395Y-107764000D01*
X199497605Y-107764000D01*
X200361958Y-108628353D01*
X200613259Y-108548080D01*
X200814718Y-107992721D01*
X200788315Y-107402542D01*
X200613259Y-106979920D01*
X200361958Y-106899647D01*
X199497605Y-107764000D01*
X199138395Y-107764000D01*
X198274042Y-106899647D01*
X198022741Y-106979920D01*
X197821282Y-107535279D01*
X188702440Y-107535279D01*
X188702440Y-107250000D01*
X188653157Y-107002235D01*
X188512809Y-106792191D01*
X188451680Y-106751346D01*
X188482983Y-106720042D01*
X198453647Y-106720042D01*
X199318000Y-107584395D01*
X200182353Y-106720042D01*
X200102080Y-106468741D01*
X199546721Y-106267282D01*
X198956542Y-106293685D01*
X198533920Y-106468741D01*
X198453647Y-106720042D01*
X188482983Y-106720042D01*
X188593327Y-106609698D01*
X188690000Y-106376309D01*
X188690000Y-105785750D01*
X188531250Y-105627000D01*
X187557000Y-105627000D01*
X187557000Y-105647000D01*
X187303000Y-105647000D01*
X187303000Y-105627000D01*
X186328750Y-105627000D01*
X186170000Y-105785750D01*
X186170000Y-106376309D01*
X186266673Y-106609698D01*
X186408320Y-106751346D01*
X186347191Y-106792191D01*
X186206843Y-107002235D01*
X186157560Y-107250000D01*
X186157560Y-108750000D01*
X186206843Y-108997765D01*
X186296491Y-109131931D01*
X186135847Y-109292575D01*
X186061951Y-109341951D01*
X185866348Y-109634691D01*
X185815000Y-109892836D01*
X185815000Y-109892839D01*
X185797663Y-109980000D01*
X185815000Y-110067161D01*
X185815000Y-110163183D01*
X185692820Y-110244821D01*
X185430000Y-110638159D01*
X185167179Y-110244820D01*
X185045000Y-110163183D01*
X185045000Y-109817161D01*
X185062337Y-109730000D01*
X185045000Y-109642839D01*
X185045000Y-109642835D01*
X184993652Y-109384690D01*
X184934750Y-109296537D01*
X184847424Y-109165845D01*
X184847423Y-109165844D01*
X184798049Y-109091951D01*
X184724156Y-109042577D01*
X183617425Y-107935847D01*
X183568049Y-107861951D01*
X183275310Y-107666348D01*
X183017165Y-107615000D01*
X183017161Y-107615000D01*
X182930000Y-107597663D01*
X182842839Y-107615000D01*
X180796579Y-107615000D01*
X177272656Y-104091078D01*
X177222655Y-103970365D01*
X176959635Y-103707345D01*
X176615983Y-103565000D01*
X176244017Y-103565000D01*
X175900365Y-103707345D01*
X175637345Y-103970365D01*
X175495000Y-104314017D01*
X175495000Y-104685983D01*
X175619985Y-104987725D01*
X175536304Y-105071406D01*
X175393959Y-105415058D01*
X175393959Y-105787024D01*
X175536304Y-106130676D01*
X175568959Y-106163331D01*
X175568960Y-107324107D01*
X175554071Y-107398959D01*
X175568960Y-107473811D01*
X175613056Y-107695496D01*
X175781031Y-107946888D01*
X175844487Y-107989288D01*
X176995000Y-109139802D01*
X176995000Y-109185983D01*
X177137345Y-109529635D01*
X177400365Y-109792655D01*
X177744017Y-109935000D01*
X178115983Y-109935000D01*
X178459635Y-109792655D01*
X178722655Y-109529635D01*
X178865000Y-109185983D01*
X178865000Y-108814017D01*
X178722655Y-108470365D01*
X178459635Y-108207345D01*
X178115983Y-108065000D01*
X178069802Y-108065000D01*
X177088959Y-107084158D01*
X177088959Y-106410537D01*
X179742577Y-109064156D01*
X179791951Y-109138049D01*
X179865844Y-109187423D01*
X179865845Y-109187424D01*
X179936022Y-109234315D01*
X180084690Y-109333652D01*
X180342835Y-109385000D01*
X180342839Y-109385000D01*
X180429999Y-109402337D01*
X180517159Y-109385000D01*
X182563422Y-109385000D01*
X183275000Y-110096579D01*
X183275000Y-110163183D01*
X183152820Y-110244821D01*
X182890000Y-110638159D01*
X182627179Y-110244820D01*
X182165081Y-109936056D01*
X181620000Y-109827632D01*
X181074918Y-109936056D01*
X180612820Y-110244821D01*
X180350000Y-110638159D01*
X180087179Y-110244820D01*
X179625081Y-109936056D01*
X179080000Y-109827632D01*
X178534918Y-109936056D01*
X178072820Y-110244821D01*
X177810000Y-110638159D01*
X177547179Y-110244820D01*
X177085081Y-109936056D01*
X176540000Y-109827632D01*
X175994918Y-109936056D01*
X175532820Y-110244821D01*
X175224056Y-110706919D01*
X175143000Y-111114413D01*
X175143000Y-112405588D01*
X175224056Y-112813082D01*
X175532821Y-113275180D01*
X175679219Y-113373000D01*
X164100089Y-113373000D01*
X164454144Y-113018945D01*
X164792500Y-112202083D01*
X164792500Y-111317917D01*
X164774632Y-111274778D01*
X165111000Y-111274778D01*
X165111000Y-111925222D01*
X165359914Y-112526153D01*
X165819847Y-112986086D01*
X166420778Y-113235000D01*
X167071222Y-113235000D01*
X167672153Y-112986086D01*
X168132086Y-112526153D01*
X168381000Y-111925222D01*
X168381000Y-111274778D01*
X171611000Y-111274778D01*
X171611000Y-111925222D01*
X171859914Y-112526153D01*
X172319847Y-112986086D01*
X172920778Y-113235000D01*
X173571222Y-113235000D01*
X174172153Y-112986086D01*
X174632086Y-112526153D01*
X174881000Y-111925222D01*
X174881000Y-111274778D01*
X174632086Y-110673847D01*
X174172153Y-110213914D01*
X173571222Y-109965000D01*
X172920778Y-109965000D01*
X172319847Y-110213914D01*
X171859914Y-110673847D01*
X171611000Y-111274778D01*
X168381000Y-111274778D01*
X168132086Y-110673847D01*
X167672153Y-110213914D01*
X167071222Y-109965000D01*
X166420778Y-109965000D01*
X165819847Y-110213914D01*
X165359914Y-110673847D01*
X165111000Y-111274778D01*
X164774632Y-111274778D01*
X164454144Y-110501055D01*
X163828945Y-109875856D01*
X163012083Y-109537500D01*
X162127917Y-109537500D01*
X161311055Y-109875856D01*
X160685856Y-110501055D01*
X160347500Y-111317917D01*
X160347500Y-112202083D01*
X160685856Y-113018945D01*
X161039911Y-113373000D01*
X155982606Y-113373000D01*
X153984384Y-111374778D01*
X156261000Y-111374778D01*
X156261000Y-112025222D01*
X156509914Y-112626153D01*
X156969847Y-113086086D01*
X157570778Y-113335000D01*
X158221222Y-113335000D01*
X158822153Y-113086086D01*
X159282086Y-112626153D01*
X159531000Y-112025222D01*
X159531000Y-111374778D01*
X159282086Y-110773847D01*
X158822153Y-110313914D01*
X158221222Y-110065000D01*
X157570778Y-110065000D01*
X156969847Y-110313914D01*
X156509914Y-110773847D01*
X156261000Y-111374778D01*
X153984384Y-111374778D01*
X151444606Y-108835000D01*
X151721222Y-108835000D01*
X152322153Y-108586086D01*
X152782086Y-108126153D01*
X153031000Y-107525222D01*
X153031000Y-106874778D01*
X156261000Y-106874778D01*
X156261000Y-107525222D01*
X156509914Y-108126153D01*
X156969847Y-108586086D01*
X157570778Y-108835000D01*
X158221222Y-108835000D01*
X158822153Y-108586086D01*
X159282086Y-108126153D01*
X159531000Y-107525222D01*
X159531000Y-106874778D01*
X159489579Y-106774778D01*
X165111000Y-106774778D01*
X165111000Y-107425222D01*
X165359914Y-108026153D01*
X165819847Y-108486086D01*
X166420778Y-108735000D01*
X167071222Y-108735000D01*
X167672153Y-108486086D01*
X168132086Y-108026153D01*
X168381000Y-107425222D01*
X168381000Y-106774778D01*
X171611000Y-106774778D01*
X171611000Y-107425222D01*
X171859914Y-108026153D01*
X172319847Y-108486086D01*
X172920778Y-108735000D01*
X173571222Y-108735000D01*
X174172153Y-108486086D01*
X174632086Y-108026153D01*
X174881000Y-107425222D01*
X174881000Y-106774778D01*
X174632086Y-106173847D01*
X174172153Y-105713914D01*
X173571222Y-105465000D01*
X172920778Y-105465000D01*
X172319847Y-105713914D01*
X171859914Y-106173847D01*
X171611000Y-106774778D01*
X168381000Y-106774778D01*
X168132086Y-106173847D01*
X167672153Y-105713914D01*
X167071222Y-105465000D01*
X166420778Y-105465000D01*
X165819847Y-105713914D01*
X165359914Y-106173847D01*
X165111000Y-106774778D01*
X159489579Y-106774778D01*
X159462177Y-106708625D01*
X159910802Y-106260000D01*
X160883710Y-106260000D01*
X160916365Y-106292655D01*
X161260017Y-106435000D01*
X161631983Y-106435000D01*
X161975635Y-106292655D01*
X162238655Y-106029635D01*
X162381000Y-105685983D01*
X162381000Y-105314017D01*
X162238655Y-104970365D01*
X161975635Y-104707345D01*
X161631983Y-104565000D01*
X161260017Y-104565000D01*
X160916365Y-104707345D01*
X160883710Y-104740000D01*
X159670846Y-104740000D01*
X159595999Y-104725112D01*
X159521152Y-104740000D01*
X159521148Y-104740000D01*
X159299463Y-104784096D01*
X159048071Y-104952071D01*
X159005670Y-105015528D01*
X158945529Y-105075670D01*
X158945527Y-105075671D01*
X158387375Y-105633823D01*
X158221222Y-105565000D01*
X157570778Y-105565000D01*
X156969847Y-105813914D01*
X156509914Y-106273847D01*
X156261000Y-106874778D01*
X153031000Y-106874778D01*
X152782086Y-106273847D01*
X152322153Y-105813914D01*
X151721222Y-105565000D01*
X151070778Y-105565000D01*
X150469847Y-105813914D01*
X150009914Y-106273847D01*
X149761000Y-106874778D01*
X149761000Y-107151394D01*
X149557000Y-106947394D01*
X149557000Y-102896615D01*
X181323000Y-102896615D01*
X181323000Y-103487385D01*
X181549078Y-104033185D01*
X181966815Y-104450922D01*
X182512615Y-104677000D01*
X183103385Y-104677000D01*
X183232084Y-104623691D01*
X186170000Y-104623691D01*
X186170000Y-105214250D01*
X186328750Y-105373000D01*
X187303000Y-105373000D01*
X187303000Y-104273750D01*
X187557000Y-104273750D01*
X187557000Y-105373000D01*
X188531250Y-105373000D01*
X188690000Y-105214250D01*
X188690000Y-104623691D01*
X188593327Y-104390302D01*
X188414699Y-104211673D01*
X188181310Y-104115000D01*
X187715750Y-104115000D01*
X187557000Y-104273750D01*
X187303000Y-104273750D01*
X187144250Y-104115000D01*
X186678690Y-104115000D01*
X186445301Y-104211673D01*
X186266673Y-104390302D01*
X186170000Y-104623691D01*
X183232084Y-104623691D01*
X183649185Y-104450922D01*
X184066922Y-104033185D01*
X184293000Y-103487385D01*
X184293000Y-102896615D01*
X184066922Y-102350815D01*
X183649185Y-101933078D01*
X183103385Y-101707000D01*
X182512615Y-101707000D01*
X181966815Y-101933078D01*
X181549078Y-102350815D01*
X181323000Y-102896615D01*
X149557000Y-102896615D01*
X149557000Y-100052606D01*
X152959606Y-96650000D01*
X156782560Y-96650000D01*
X156782560Y-98350000D01*
X156831843Y-98597765D01*
X156972191Y-98807809D01*
X157182235Y-98948157D01*
X157430000Y-98997440D01*
X157626130Y-98997440D01*
X157495000Y-99314017D01*
X157495000Y-99685983D01*
X157637345Y-100029635D01*
X157900365Y-100292655D01*
X158244017Y-100435000D01*
X158615983Y-100435000D01*
X158959635Y-100292655D01*
X159222655Y-100029635D01*
X159365000Y-99685983D01*
X159365000Y-99314017D01*
X159233870Y-98997440D01*
X159430000Y-98997440D01*
X159677765Y-98948157D01*
X159887809Y-98807809D01*
X160028157Y-98597765D01*
X160077440Y-98350000D01*
X160077440Y-97785750D01*
X160795000Y-97785750D01*
X160795000Y-98476310D01*
X160891673Y-98709699D01*
X161070302Y-98888327D01*
X161303691Y-98985000D01*
X162144250Y-98985000D01*
X162303000Y-98826250D01*
X162303000Y-97627000D01*
X162557000Y-97627000D01*
X162557000Y-98826250D01*
X162715750Y-98985000D01*
X163556309Y-98985000D01*
X163789698Y-98888327D01*
X163968327Y-98709699D01*
X164065000Y-98476310D01*
X164065000Y-97785750D01*
X163906250Y-97627000D01*
X162557000Y-97627000D01*
X162303000Y-97627000D01*
X160953750Y-97627000D01*
X160795000Y-97785750D01*
X160077440Y-97785750D01*
X160077440Y-96650000D01*
X160052316Y-96523690D01*
X160795000Y-96523690D01*
X160795000Y-97214250D01*
X160953750Y-97373000D01*
X162303000Y-97373000D01*
X162303000Y-96173750D01*
X162557000Y-96173750D01*
X162557000Y-97373000D01*
X163906250Y-97373000D01*
X164065000Y-97214250D01*
X164065000Y-96523690D01*
X163968327Y-96290301D01*
X163789698Y-96111673D01*
X163556309Y-96015000D01*
X162715750Y-96015000D01*
X162557000Y-96173750D01*
X162303000Y-96173750D01*
X162144250Y-96015000D01*
X161303691Y-96015000D01*
X161070302Y-96111673D01*
X160891673Y-96290301D01*
X160795000Y-96523690D01*
X160052316Y-96523690D01*
X160028157Y-96402235D01*
X159887809Y-96192191D01*
X159677765Y-96051843D01*
X159430000Y-96002560D01*
X157430000Y-96002560D01*
X157182235Y-96051843D01*
X156972191Y-96192191D01*
X156831843Y-96402235D01*
X156782560Y-96650000D01*
X152959606Y-96650000D01*
X154519803Y-95089803D01*
X154547333Y-95048601D01*
X154557000Y-95000000D01*
X154557000Y-94238000D01*
X171490560Y-94238000D01*
X171490560Y-95762000D01*
X171539843Y-96009765D01*
X171680191Y-96219809D01*
X171890235Y-96360157D01*
X172138000Y-96409440D01*
X173662000Y-96409440D01*
X173909765Y-96360157D01*
X174119809Y-96219809D01*
X174137531Y-96193286D01*
X174182235Y-96223157D01*
X174430000Y-96272440D01*
X175930000Y-96272440D01*
X176177765Y-96223157D01*
X176387809Y-96082809D01*
X176428654Y-96021680D01*
X176570302Y-96163327D01*
X176803691Y-96260000D01*
X177394250Y-96260000D01*
X177553000Y-96101250D01*
X177553000Y-95127000D01*
X177807000Y-95127000D01*
X177807000Y-96101250D01*
X177965750Y-96260000D01*
X178556309Y-96260000D01*
X178789698Y-96163327D01*
X178968327Y-95984699D01*
X179065000Y-95751310D01*
X179065000Y-95285750D01*
X178906250Y-95127000D01*
X177807000Y-95127000D01*
X177553000Y-95127000D01*
X177533000Y-95127000D01*
X177533000Y-94873000D01*
X177553000Y-94873000D01*
X177553000Y-93898750D01*
X177807000Y-93898750D01*
X177807000Y-94873000D01*
X178906250Y-94873000D01*
X179065000Y-94714250D01*
X179065000Y-94248690D01*
X178968327Y-94015301D01*
X178789698Y-93836673D01*
X178556309Y-93740000D01*
X177965750Y-93740000D01*
X177807000Y-93898750D01*
X177553000Y-93898750D01*
X177394250Y-93740000D01*
X176803691Y-93740000D01*
X176570302Y-93836673D01*
X176428654Y-93978320D01*
X176387809Y-93917191D01*
X176177765Y-93776843D01*
X175930000Y-93727560D01*
X174430000Y-93727560D01*
X174182235Y-93776843D01*
X174137531Y-93806714D01*
X174119809Y-93780191D01*
X174095629Y-93764034D01*
X174297000Y-93277881D01*
X174297000Y-92722119D01*
X174084320Y-92208663D01*
X173875657Y-92000000D01*
X174084320Y-91791337D01*
X174297000Y-91277881D01*
X174297000Y-90749370D01*
X191240000Y-90749370D01*
X191240000Y-91250630D01*
X191431823Y-91713733D01*
X191786267Y-92068177D01*
X192249370Y-92260000D01*
X192750630Y-92260000D01*
X193213733Y-92068177D01*
X193568177Y-91713733D01*
X193760000Y-91250630D01*
X193760000Y-90749370D01*
X196240000Y-90749370D01*
X196240000Y-91250630D01*
X196431823Y-91713733D01*
X196786267Y-92068177D01*
X197249370Y-92260000D01*
X197750630Y-92260000D01*
X198213733Y-92068177D01*
X198568177Y-91713733D01*
X198760000Y-91250630D01*
X198760000Y-90749370D01*
X198568177Y-90286267D01*
X198213733Y-89931823D01*
X197750630Y-89740000D01*
X197249370Y-89740000D01*
X196786267Y-89931823D01*
X196431823Y-90286267D01*
X196240000Y-90749370D01*
X193760000Y-90749370D01*
X193568177Y-90286267D01*
X193213733Y-89931823D01*
X192750630Y-89740000D01*
X192249370Y-89740000D01*
X191786267Y-89931823D01*
X191431823Y-90286267D01*
X191240000Y-90749370D01*
X174297000Y-90749370D01*
X174297000Y-90722119D01*
X174084320Y-90208663D01*
X173875657Y-90000000D01*
X174084320Y-89791337D01*
X174297000Y-89277881D01*
X174297000Y-88722119D01*
X174084320Y-88208663D01*
X173875657Y-88000000D01*
X174084320Y-87791337D01*
X174297000Y-87277881D01*
X174297000Y-86722119D01*
X174084320Y-86208663D01*
X173875657Y-86000000D01*
X174084320Y-85791337D01*
X174297000Y-85277881D01*
X174297000Y-84722119D01*
X174084320Y-84208663D01*
X173875657Y-84000000D01*
X174084320Y-83791337D01*
X174297000Y-83277881D01*
X174297000Y-82722119D01*
X174084320Y-82208663D01*
X173875657Y-82000000D01*
X174084320Y-81791337D01*
X174297000Y-81277881D01*
X174297000Y-80722119D01*
X174084320Y-80208663D01*
X173875657Y-80000000D01*
X174084320Y-79791337D01*
X174297000Y-79277881D01*
X174297000Y-78722119D01*
X174210221Y-78512615D01*
X205707000Y-78512615D01*
X205707000Y-79103385D01*
X205933078Y-79649185D01*
X206350815Y-80066922D01*
X206896615Y-80293000D01*
X207487385Y-80293000D01*
X208033185Y-80066922D01*
X208450922Y-79649185D01*
X208677000Y-79103385D01*
X208677000Y-78512615D01*
X208450922Y-77966815D01*
X208033185Y-77549078D01*
X207487385Y-77323000D01*
X206896615Y-77323000D01*
X206350815Y-77549078D01*
X205933078Y-77966815D01*
X205707000Y-78512615D01*
X174210221Y-78512615D01*
X174084320Y-78208663D01*
X173691337Y-77815680D01*
X173426289Y-77705894D01*
X172900000Y-77179605D01*
X172373711Y-77705894D01*
X172108663Y-77815680D01*
X171715680Y-78208663D01*
X171503000Y-78722119D01*
X171503000Y-79277881D01*
X171715680Y-79791337D01*
X171924343Y-80000000D01*
X171715680Y-80208663D01*
X171503000Y-80722119D01*
X171503000Y-81277881D01*
X171715680Y-81791337D01*
X171924343Y-82000000D01*
X171715680Y-82208663D01*
X171503000Y-82722119D01*
X171503000Y-83277881D01*
X171715680Y-83791337D01*
X171924343Y-84000000D01*
X171715680Y-84208663D01*
X171503000Y-84722119D01*
X171503000Y-85277881D01*
X171715680Y-85791337D01*
X171924343Y-86000000D01*
X171715680Y-86208663D01*
X171503000Y-86722119D01*
X171503000Y-87277881D01*
X171715680Y-87791337D01*
X171924343Y-88000000D01*
X171715680Y-88208663D01*
X171503000Y-88722119D01*
X171503000Y-89277881D01*
X171715680Y-89791337D01*
X171924343Y-90000000D01*
X171715680Y-90208663D01*
X171503000Y-90722119D01*
X171503000Y-91277881D01*
X171715680Y-91791337D01*
X171924343Y-92000000D01*
X171715680Y-92208663D01*
X171503000Y-92722119D01*
X171503000Y-93277881D01*
X171704371Y-93764034D01*
X171680191Y-93780191D01*
X171539843Y-93990235D01*
X171490560Y-94238000D01*
X154557000Y-94238000D01*
X154557000Y-85500101D01*
X154563923Y-76792302D01*
X171490856Y-76792302D01*
X171518638Y-77347368D01*
X171677603Y-77731143D01*
X171919787Y-77800608D01*
X172720395Y-77000000D01*
X173079605Y-77000000D01*
X173880213Y-77800608D01*
X174122397Y-77731143D01*
X174309144Y-77207698D01*
X174281362Y-76652632D01*
X174122397Y-76268857D01*
X173880213Y-76199392D01*
X173079605Y-77000000D01*
X172720395Y-77000000D01*
X171919787Y-76199392D01*
X171677603Y-76268857D01*
X171490856Y-76792302D01*
X154563923Y-76792302D01*
X154564537Y-76019787D01*
X172099392Y-76019787D01*
X172900000Y-76820395D01*
X173700608Y-76019787D01*
X173631143Y-75777603D01*
X173107698Y-75590856D01*
X172552632Y-75618638D01*
X172168857Y-75777603D01*
X172099392Y-76019787D01*
X154564537Y-76019787D01*
X154565000Y-75438101D01*
X154555371Y-75389493D01*
X154527803Y-75348197D01*
X149739000Y-70559394D01*
X149739000Y-66285750D01*
X150468000Y-66285750D01*
X150468000Y-67876310D01*
X150564673Y-68109699D01*
X150743302Y-68288327D01*
X150976691Y-68385000D01*
X152567250Y-68385000D01*
X152726000Y-68226250D01*
X152726000Y-66127000D01*
X152980000Y-66127000D01*
X152980000Y-68226250D01*
X153138750Y-68385000D01*
X153805612Y-68385000D01*
X153645191Y-68492191D01*
X153504843Y-68702235D01*
X153455560Y-68950000D01*
X153455560Y-72450000D01*
X153504843Y-72697765D01*
X153645191Y-72907809D01*
X153855235Y-73048157D01*
X154103000Y-73097440D01*
X157603000Y-73097440D01*
X157850765Y-73048157D01*
X158060809Y-72907809D01*
X158201157Y-72697765D01*
X158250440Y-72450000D01*
X158250440Y-71374000D01*
X163985908Y-71374000D01*
X164101161Y-71953418D01*
X164429375Y-72444625D01*
X164920582Y-72772839D01*
X165353744Y-72859000D01*
X165646256Y-72859000D01*
X166079418Y-72772839D01*
X166570625Y-72444625D01*
X166898839Y-71953418D01*
X166954263Y-71674778D01*
X171365000Y-71674778D01*
X171365000Y-72325222D01*
X171613914Y-72926153D01*
X172073847Y-73386086D01*
X172674778Y-73635000D01*
X173325222Y-73635000D01*
X173926153Y-73386086D01*
X174386086Y-72926153D01*
X174635000Y-72325222D01*
X174635000Y-71674778D01*
X177865000Y-71674778D01*
X177865000Y-72325222D01*
X178113914Y-72926153D01*
X178573847Y-73386086D01*
X178740000Y-73454909D01*
X178740001Y-75437709D01*
X178707345Y-75470365D01*
X178565000Y-75814017D01*
X178565000Y-76185983D01*
X178707345Y-76529635D01*
X178970365Y-76792655D01*
X179314017Y-76935000D01*
X179685983Y-76935000D01*
X180029635Y-76792655D01*
X180292655Y-76529635D01*
X180435000Y-76185983D01*
X180435000Y-75814017D01*
X180292655Y-75470365D01*
X180260000Y-75437710D01*
X180260000Y-74714017D01*
X182295000Y-74714017D01*
X182295000Y-75085983D01*
X182383649Y-75300000D01*
X182295000Y-75514017D01*
X182295000Y-75885983D01*
X182437345Y-76229635D01*
X182700365Y-76492655D01*
X183044017Y-76635000D01*
X183415983Y-76635000D01*
X183759635Y-76492655D01*
X183792290Y-76460000D01*
X186067710Y-76460000D01*
X186100365Y-76492655D01*
X186444017Y-76635000D01*
X186815983Y-76635000D01*
X187097986Y-76518191D01*
X187237345Y-76854635D01*
X187500365Y-77117655D01*
X187844017Y-77260000D01*
X188215983Y-77260000D01*
X188559635Y-77117655D01*
X188822655Y-76854635D01*
X188965000Y-76510983D01*
X188965000Y-76139017D01*
X188822655Y-75795365D01*
X188559635Y-75532345D01*
X188215983Y-75390000D01*
X188183009Y-75390000D01*
X188145904Y-75203463D01*
X187977929Y-74952071D01*
X187914473Y-74909671D01*
X187420331Y-74415530D01*
X187377929Y-74352071D01*
X187126537Y-74184096D01*
X186999758Y-74158878D01*
X187159635Y-74092655D01*
X187311675Y-73940615D01*
X189197000Y-73940615D01*
X189197000Y-74531385D01*
X189423078Y-75077185D01*
X189840815Y-75494922D01*
X190386615Y-75721000D01*
X190977385Y-75721000D01*
X191523185Y-75494922D01*
X191940922Y-75077185D01*
X192167000Y-74531385D01*
X192167000Y-73940615D01*
X191940922Y-73394815D01*
X191523185Y-72977078D01*
X190977385Y-72751000D01*
X190386615Y-72751000D01*
X189840815Y-72977078D01*
X189423078Y-73394815D01*
X189197000Y-73940615D01*
X187311675Y-73940615D01*
X187422655Y-73829635D01*
X187565000Y-73485983D01*
X187565000Y-73114017D01*
X187476351Y-72900000D01*
X187565000Y-72685983D01*
X187565000Y-72314017D01*
X187422655Y-71970365D01*
X187159635Y-71707345D01*
X186815983Y-71565000D01*
X186444017Y-71565000D01*
X186100365Y-71707345D01*
X186067710Y-71740000D01*
X184368026Y-71740000D01*
X184335371Y-71707345D01*
X183991719Y-71565000D01*
X183619753Y-71565000D01*
X183276101Y-71707345D01*
X183013081Y-71970365D01*
X182870736Y-72314017D01*
X182870736Y-72685983D01*
X183013081Y-73029635D01*
X183276101Y-73292655D01*
X183295000Y-73300483D01*
X183295000Y-73485983D01*
X183437345Y-73829635D01*
X183683532Y-74075822D01*
X183415983Y-73965000D01*
X183044017Y-73965000D01*
X182700365Y-74107345D01*
X182437345Y-74370365D01*
X182295000Y-74714017D01*
X180260000Y-74714017D01*
X180260000Y-73454909D01*
X180426153Y-73386086D01*
X180886086Y-72926153D01*
X181135000Y-72325222D01*
X181135000Y-71674778D01*
X180886086Y-71073847D01*
X180426153Y-70613914D01*
X179825222Y-70365000D01*
X179174778Y-70365000D01*
X178573847Y-70613914D01*
X178113914Y-71073847D01*
X177865000Y-71674778D01*
X174635000Y-71674778D01*
X174386086Y-71073847D01*
X173926153Y-70613914D01*
X173325222Y-70365000D01*
X172674778Y-70365000D01*
X172073847Y-70613914D01*
X171613914Y-71073847D01*
X171365000Y-71674778D01*
X166954263Y-71674778D01*
X167014092Y-71374000D01*
X166898839Y-70794582D01*
X166570625Y-70303375D01*
X166552381Y-70291184D01*
X166597765Y-70282157D01*
X166807809Y-70141809D01*
X166948157Y-69931765D01*
X166997440Y-69684000D01*
X166997440Y-68652532D01*
X172027073Y-68652532D01*
X172125736Y-68919387D01*
X172735461Y-69145908D01*
X173385460Y-69121856D01*
X173874264Y-68919387D01*
X173972927Y-68652532D01*
X178527073Y-68652532D01*
X178625736Y-68919387D01*
X179235461Y-69145908D01*
X179885460Y-69121856D01*
X180374264Y-68919387D01*
X180410013Y-68822696D01*
X183684744Y-68822696D01*
X183807353Y-69293701D01*
X184100875Y-69681933D01*
X184520624Y-69928286D01*
X184612391Y-69943462D01*
X184803000Y-69818731D01*
X184803000Y-68627000D01*
X183847453Y-68627000D01*
X183684744Y-68822696D01*
X180410013Y-68822696D01*
X180472927Y-68652532D01*
X179500000Y-67679605D01*
X178527073Y-68652532D01*
X173972927Y-68652532D01*
X173000000Y-67679605D01*
X172027073Y-68652532D01*
X166997440Y-68652532D01*
X166997440Y-67984000D01*
X166948157Y-67736235D01*
X166807809Y-67526191D01*
X166597765Y-67385843D01*
X166350000Y-67336560D01*
X164650000Y-67336560D01*
X164402235Y-67385843D01*
X164192191Y-67526191D01*
X164051843Y-67736235D01*
X164002560Y-67984000D01*
X164002560Y-69684000D01*
X164051843Y-69931765D01*
X164192191Y-70141809D01*
X164402235Y-70282157D01*
X164447619Y-70291184D01*
X164429375Y-70303375D01*
X164101161Y-70794582D01*
X163985908Y-71374000D01*
X158250440Y-71374000D01*
X158250440Y-68950000D01*
X158201157Y-68702235D01*
X158060809Y-68492191D01*
X157919005Y-68397440D01*
X160603000Y-68397440D01*
X160850765Y-68348157D01*
X161060809Y-68207809D01*
X161201157Y-67997765D01*
X161250440Y-67750000D01*
X161250440Y-67235461D01*
X171354092Y-67235461D01*
X171378144Y-67885460D01*
X171580613Y-68374264D01*
X171847468Y-68472927D01*
X172820395Y-67500000D01*
X173179605Y-67500000D01*
X174152532Y-68472927D01*
X174419387Y-68374264D01*
X174645908Y-67764539D01*
X174626331Y-67235461D01*
X177854092Y-67235461D01*
X177878144Y-67885460D01*
X178080613Y-68374264D01*
X178347468Y-68472927D01*
X179320395Y-67500000D01*
X179679605Y-67500000D01*
X180652532Y-68472927D01*
X180919387Y-68374264D01*
X180992560Y-68177304D01*
X183684744Y-68177304D01*
X183847453Y-68373000D01*
X184803000Y-68373000D01*
X184803000Y-67181269D01*
X185057000Y-67181269D01*
X185057000Y-68373000D01*
X185077000Y-68373000D01*
X185077000Y-68627000D01*
X185057000Y-68627000D01*
X185057000Y-69818731D01*
X185247609Y-69943462D01*
X185339376Y-69928286D01*
X185759125Y-69681933D01*
X185922760Y-69465498D01*
X186039615Y-69640385D01*
X186448127Y-69913344D01*
X186930000Y-70009195D01*
X187411872Y-69913344D01*
X187778860Y-69668131D01*
X187872191Y-69807809D01*
X188082235Y-69948157D01*
X188330000Y-69997440D01*
X189530000Y-69997440D01*
X189777765Y-69948157D01*
X189987809Y-69807809D01*
X190128157Y-69597765D01*
X190177440Y-69350000D01*
X190177440Y-69189017D01*
X197025000Y-69189017D01*
X197025000Y-69560983D01*
X197167345Y-69904635D01*
X197200000Y-69937290D01*
X197200001Y-71562709D01*
X197167345Y-71595365D01*
X197025000Y-71939017D01*
X197025000Y-72310983D01*
X197167345Y-72654635D01*
X197430365Y-72917655D01*
X197774017Y-73060000D01*
X198145983Y-73060000D01*
X198489635Y-72917655D01*
X198621540Y-72785750D01*
X202445000Y-72785750D01*
X202445000Y-73626309D01*
X202541673Y-73859698D01*
X202720301Y-74038327D01*
X202953690Y-74135000D01*
X203644250Y-74135000D01*
X203803000Y-73976250D01*
X203803000Y-72627000D01*
X204057000Y-72627000D01*
X204057000Y-73976250D01*
X204215750Y-74135000D01*
X204906310Y-74135000D01*
X205139699Y-74038327D01*
X205318327Y-73859698D01*
X205415000Y-73626309D01*
X205415000Y-72785750D01*
X205256250Y-72627000D01*
X204057000Y-72627000D01*
X203803000Y-72627000D01*
X202603750Y-72627000D01*
X202445000Y-72785750D01*
X198621540Y-72785750D01*
X198752655Y-72654635D01*
X198895000Y-72310983D01*
X198895000Y-71939017D01*
X198752655Y-71595365D01*
X198720000Y-71562710D01*
X198720000Y-71373691D01*
X202445000Y-71373691D01*
X202445000Y-72214250D01*
X202603750Y-72373000D01*
X203803000Y-72373000D01*
X203803000Y-71023750D01*
X204057000Y-71023750D01*
X204057000Y-72373000D01*
X205256250Y-72373000D01*
X205415000Y-72214250D01*
X205415000Y-71373691D01*
X205318327Y-71140302D01*
X205139699Y-70961673D01*
X204906310Y-70865000D01*
X204215750Y-70865000D01*
X204057000Y-71023750D01*
X203803000Y-71023750D01*
X203644250Y-70865000D01*
X202953690Y-70865000D01*
X202720301Y-70961673D01*
X202541673Y-71140302D01*
X202445000Y-71373691D01*
X198720000Y-71373691D01*
X198720000Y-69937290D01*
X198752655Y-69904635D01*
X198895000Y-69560983D01*
X198895000Y-69189017D01*
X198752655Y-68845365D01*
X198489635Y-68582345D01*
X198145983Y-68440000D01*
X197774017Y-68440000D01*
X197430365Y-68582345D01*
X197167345Y-68845365D01*
X197025000Y-69189017D01*
X190177440Y-69189017D01*
X190177440Y-67650000D01*
X190128157Y-67402235D01*
X189987809Y-67192191D01*
X189777765Y-67051843D01*
X189530000Y-67002560D01*
X188330000Y-67002560D01*
X188082235Y-67051843D01*
X187872191Y-67192191D01*
X187778860Y-67331869D01*
X187411873Y-67086656D01*
X186930000Y-66990805D01*
X186448128Y-67086656D01*
X186039616Y-67359615D01*
X185922760Y-67534502D01*
X185759125Y-67318067D01*
X185339376Y-67071714D01*
X185247609Y-67056538D01*
X185057000Y-67181269D01*
X184803000Y-67181269D01*
X184612391Y-67056538D01*
X184520624Y-67071714D01*
X184100875Y-67318067D01*
X183807353Y-67706299D01*
X183684744Y-68177304D01*
X180992560Y-68177304D01*
X181145908Y-67764539D01*
X181121856Y-67114540D01*
X180919387Y-66625736D01*
X180652532Y-66527073D01*
X179679605Y-67500000D01*
X179320395Y-67500000D01*
X178347468Y-66527073D01*
X178080613Y-66625736D01*
X177854092Y-67235461D01*
X174626331Y-67235461D01*
X174621856Y-67114540D01*
X174419387Y-66625736D01*
X174152532Y-66527073D01*
X173179605Y-67500000D01*
X172820395Y-67500000D01*
X171847468Y-66527073D01*
X171580613Y-66625736D01*
X171354092Y-67235461D01*
X161250440Y-67235461D01*
X161250440Y-66347468D01*
X172027073Y-66347468D01*
X173000000Y-67320395D01*
X173972927Y-66347468D01*
X178527073Y-66347468D01*
X179500000Y-67320395D01*
X180472927Y-66347468D01*
X180374264Y-66080613D01*
X179764539Y-65854092D01*
X179114540Y-65878144D01*
X178625736Y-66080613D01*
X178527073Y-66347468D01*
X173972927Y-66347468D01*
X173874264Y-66080613D01*
X173264539Y-65854092D01*
X172614540Y-65878144D01*
X172125736Y-66080613D01*
X172027073Y-66347468D01*
X161250440Y-66347468D01*
X161250440Y-64250000D01*
X161201157Y-64002235D01*
X161060809Y-63792191D01*
X160850765Y-63651843D01*
X160603000Y-63602560D01*
X157103000Y-63602560D01*
X156855235Y-63651843D01*
X156645191Y-63792191D01*
X156504843Y-64002235D01*
X156455560Y-64250000D01*
X156455560Y-67750000D01*
X156504843Y-67997765D01*
X156645191Y-68207809D01*
X156786995Y-68302560D01*
X154928337Y-68302560D01*
X154962698Y-68288327D01*
X155141327Y-68109699D01*
X155238000Y-67876310D01*
X155238000Y-66285750D01*
X155079250Y-66127000D01*
X152980000Y-66127000D01*
X152726000Y-66127000D01*
X150626750Y-66127000D01*
X150468000Y-66285750D01*
X149739000Y-66285750D01*
X149739000Y-64123690D01*
X150468000Y-64123690D01*
X150468000Y-65714250D01*
X150626750Y-65873000D01*
X152726000Y-65873000D01*
X152726000Y-63773750D01*
X152980000Y-63773750D01*
X152980000Y-65873000D01*
X155079250Y-65873000D01*
X155238000Y-65714250D01*
X155238000Y-64123690D01*
X155141327Y-63890301D01*
X154962698Y-63711673D01*
X154729309Y-63615000D01*
X153138750Y-63615000D01*
X152980000Y-63773750D01*
X152726000Y-63773750D01*
X152567250Y-63615000D01*
X150976691Y-63615000D01*
X150743302Y-63711673D01*
X150564673Y-63890301D01*
X150468000Y-64123690D01*
X149739000Y-64123690D01*
X149739000Y-62103147D01*
X162079537Y-62117374D01*
G04 #@! TD*
M02*
