G04 #@! TF.GenerationSoftware,KiCad,Pcbnew,5.0.1*
G04 #@! TF.CreationDate,2019-02-08T09:42:00-06:00*
G04 #@! TF.ProjectId,tomato_timer,746F6D61746F5F74696D65722E6B6963,rev?*
G04 #@! TF.SameCoordinates,Original*
G04 #@! TF.FileFunction,Legend,Top*
G04 #@! TF.FilePolarity,Positive*
%FSLAX46Y46*%
G04 Gerber Fmt 4.6, Leading zero omitted, Abs format (unit mm)*
G04 Created by KiCad (PCBNEW 5.0.1) date Fri 08 Feb 2019 09:42:00 AM CST*
%MOMM*%
%LPD*%
G01*
G04 APERTURE LIST*
%ADD10C,0.300000*%
%ADD11C,0.200000*%
%ADD12C,0.152400*%
%ADD13C,0.120000*%
%ADD14C,0.150000*%
G04 APERTURE END LIST*
D10*
X203306428Y-67678571D02*
X203806428Y-69178571D01*
X204306428Y-67678571D01*
X205092142Y-67678571D02*
X205377857Y-67678571D01*
X205520714Y-67750000D01*
X205663571Y-67892857D01*
X205735000Y-68178571D01*
X205735000Y-68678571D01*
X205663571Y-68964285D01*
X205520714Y-69107142D01*
X205377857Y-69178571D01*
X205092142Y-69178571D01*
X204949285Y-69107142D01*
X204806428Y-68964285D01*
X204735000Y-68678571D01*
X204735000Y-68178571D01*
X204806428Y-67892857D01*
X204949285Y-67750000D01*
X205092142Y-67678571D01*
X207092142Y-69178571D02*
X206377857Y-69178571D01*
X206377857Y-67678571D01*
X150644285Y-71678571D02*
X149930000Y-71678571D01*
X149858571Y-72392857D01*
X149930000Y-72321428D01*
X150072857Y-72250000D01*
X150430000Y-72250000D01*
X150572857Y-72321428D01*
X150644285Y-72392857D01*
X150715714Y-72535714D01*
X150715714Y-72892857D01*
X150644285Y-73035714D01*
X150572857Y-73107142D01*
X150430000Y-73178571D01*
X150072857Y-73178571D01*
X149930000Y-73107142D01*
X149858571Y-73035714D01*
X151144285Y-71678571D02*
X151644285Y-73178571D01*
X152144285Y-71678571D01*
D11*
X189182380Y-73758571D02*
X189182380Y-73568095D01*
X189230000Y-73472857D01*
X189325238Y-73377619D01*
X189515714Y-73330000D01*
X189849047Y-73330000D01*
X190039523Y-73377619D01*
X190134761Y-73472857D01*
X190182380Y-73568095D01*
X190182380Y-73758571D01*
X190134761Y-73853809D01*
X190039523Y-73949047D01*
X189849047Y-73996666D01*
X189515714Y-73996666D01*
X189325238Y-73949047D01*
X189230000Y-73853809D01*
X189182380Y-73758571D01*
X189182380Y-72901428D02*
X189991904Y-72901428D01*
X190087142Y-72853809D01*
X190134761Y-72806190D01*
X190182380Y-72710952D01*
X190182380Y-72520476D01*
X190134761Y-72425238D01*
X190087142Y-72377619D01*
X189991904Y-72330000D01*
X189182380Y-72330000D01*
X189182380Y-71996666D02*
X189182380Y-71425238D01*
X190182380Y-71710952D02*
X189182380Y-71710952D01*
X192682380Y-72515714D02*
X191682380Y-72515714D01*
X192682380Y-72039523D02*
X191682380Y-72039523D01*
X192682380Y-71468095D01*
X191682380Y-71468095D01*
X186730000Y-73461904D02*
X186682380Y-73557142D01*
X186682380Y-73700000D01*
X186730000Y-73842857D01*
X186825238Y-73938095D01*
X186920476Y-73985714D01*
X187110952Y-74033333D01*
X187253809Y-74033333D01*
X187444285Y-73985714D01*
X187539523Y-73938095D01*
X187634761Y-73842857D01*
X187682380Y-73700000D01*
X187682380Y-73604761D01*
X187634761Y-73461904D01*
X187587142Y-73414285D01*
X187253809Y-73414285D01*
X187253809Y-73604761D01*
X187682380Y-72985714D02*
X186682380Y-72985714D01*
X187682380Y-72414285D01*
X186682380Y-72414285D01*
X187682380Y-71938095D02*
X186682380Y-71938095D01*
X186682380Y-71700000D01*
X186730000Y-71557142D01*
X186825238Y-71461904D01*
X186920476Y-71414285D01*
X187110952Y-71366666D01*
X187253809Y-71366666D01*
X187444285Y-71414285D01*
X187539523Y-71461904D01*
X187634761Y-71557142D01*
X187682380Y-71700000D01*
X187682380Y-71938095D01*
X184082380Y-72390476D02*
X184082380Y-72866666D01*
X184558571Y-72914285D01*
X184510952Y-72866666D01*
X184463333Y-72771428D01*
X184463333Y-72533333D01*
X184510952Y-72438095D01*
X184558571Y-72390476D01*
X184653809Y-72342857D01*
X184891904Y-72342857D01*
X184987142Y-72390476D01*
X185034761Y-72438095D01*
X185082380Y-72533333D01*
X185082380Y-72771428D01*
X185034761Y-72866666D01*
X184987142Y-72914285D01*
X184082380Y-72057142D02*
X185082380Y-71723809D01*
X184082380Y-71390476D01*
D10*
X176142857Y-75678571D02*
X175642857Y-74964285D01*
X175285714Y-75678571D02*
X175285714Y-74178571D01*
X175857142Y-74178571D01*
X176000000Y-74250000D01*
X176071428Y-74321428D01*
X176142857Y-74464285D01*
X176142857Y-74678571D01*
X176071428Y-74821428D01*
X176000000Y-74892857D01*
X175857142Y-74964285D01*
X175285714Y-74964285D01*
X177357142Y-75607142D02*
X177214285Y-75678571D01*
X176928571Y-75678571D01*
X176785714Y-75607142D01*
X176714285Y-75464285D01*
X176714285Y-74892857D01*
X176785714Y-74750000D01*
X176928571Y-74678571D01*
X177214285Y-74678571D01*
X177357142Y-74750000D01*
X177428571Y-74892857D01*
X177428571Y-75035714D01*
X176714285Y-75178571D01*
X178000000Y-75607142D02*
X178142857Y-75678571D01*
X178428571Y-75678571D01*
X178571428Y-75607142D01*
X178642857Y-75464285D01*
X178642857Y-75392857D01*
X178571428Y-75250000D01*
X178428571Y-75178571D01*
X178214285Y-75178571D01*
X178071428Y-75107142D01*
X178000000Y-74964285D01*
X178000000Y-74892857D01*
X178071428Y-74750000D01*
X178214285Y-74678571D01*
X178428571Y-74678571D01*
X178571428Y-74750000D01*
X179857142Y-75607142D02*
X179714285Y-75678571D01*
X179428571Y-75678571D01*
X179285714Y-75607142D01*
X179214285Y-75464285D01*
X179214285Y-74892857D01*
X179285714Y-74750000D01*
X179428571Y-74678571D01*
X179714285Y-74678571D01*
X179857142Y-74750000D01*
X179928571Y-74892857D01*
X179928571Y-75035714D01*
X179214285Y-75178571D01*
X180357142Y-74678571D02*
X180928571Y-74678571D01*
X180571428Y-74178571D02*
X180571428Y-75464285D01*
X180642857Y-75607142D01*
X180785714Y-75678571D01*
X180928571Y-75678571D01*
X175001428Y-108107142D02*
X175215714Y-108178571D01*
X175572857Y-108178571D01*
X175715714Y-108107142D01*
X175787142Y-108035714D01*
X175858571Y-107892857D01*
X175858571Y-107750000D01*
X175787142Y-107607142D01*
X175715714Y-107535714D01*
X175572857Y-107464285D01*
X175287142Y-107392857D01*
X175144285Y-107321428D01*
X175072857Y-107250000D01*
X175001428Y-107107142D01*
X175001428Y-106964285D01*
X175072857Y-106821428D01*
X175144285Y-106750000D01*
X175287142Y-106678571D01*
X175644285Y-106678571D01*
X175858571Y-106750000D01*
X176287142Y-107178571D02*
X176858571Y-107178571D01*
X176501428Y-106678571D02*
X176501428Y-107964285D01*
X176572857Y-108107142D01*
X176715714Y-108178571D01*
X176858571Y-108178571D01*
X178001428Y-108178571D02*
X178001428Y-107392857D01*
X177930000Y-107250000D01*
X177787142Y-107178571D01*
X177501428Y-107178571D01*
X177358571Y-107250000D01*
X178001428Y-108107142D02*
X177858571Y-108178571D01*
X177501428Y-108178571D01*
X177358571Y-108107142D01*
X177287142Y-107964285D01*
X177287142Y-107821428D01*
X177358571Y-107678571D01*
X177501428Y-107607142D01*
X177858571Y-107607142D01*
X178001428Y-107535714D01*
X178715714Y-108178571D02*
X178715714Y-107178571D01*
X178715714Y-107464285D02*
X178787142Y-107321428D01*
X178858571Y-107250000D01*
X179001428Y-107178571D01*
X179144285Y-107178571D01*
X179430000Y-107178571D02*
X180001428Y-107178571D01*
X179644285Y-106678571D02*
X179644285Y-107964285D01*
X179715714Y-108107142D01*
X179858571Y-108178571D01*
X180001428Y-108178571D01*
X159715714Y-108107142D02*
X159930000Y-108178571D01*
X160287142Y-108178571D01*
X160430000Y-108107142D01*
X160501428Y-108035714D01*
X160572857Y-107892857D01*
X160572857Y-107750000D01*
X160501428Y-107607142D01*
X160430000Y-107535714D01*
X160287142Y-107464285D01*
X160001428Y-107392857D01*
X159858571Y-107321428D01*
X159787142Y-107250000D01*
X159715714Y-107107142D01*
X159715714Y-106964285D01*
X159787142Y-106821428D01*
X159858571Y-106750000D01*
X160001428Y-106678571D01*
X160358571Y-106678571D01*
X160572857Y-106750000D01*
X161001428Y-107178571D02*
X161572857Y-107178571D01*
X161215714Y-106678571D02*
X161215714Y-107964285D01*
X161287142Y-108107142D01*
X161430000Y-108178571D01*
X161572857Y-108178571D01*
X162287142Y-108178571D02*
X162144285Y-108107142D01*
X162072857Y-108035714D01*
X162001428Y-107892857D01*
X162001428Y-107464285D01*
X162072857Y-107321428D01*
X162144285Y-107250000D01*
X162287142Y-107178571D01*
X162501428Y-107178571D01*
X162644285Y-107250000D01*
X162715714Y-107321428D01*
X162787142Y-107464285D01*
X162787142Y-107892857D01*
X162715714Y-108035714D01*
X162644285Y-108107142D01*
X162501428Y-108178571D01*
X162287142Y-108178571D01*
X163430000Y-107178571D02*
X163430000Y-108678571D01*
X163430000Y-107250000D02*
X163572857Y-107178571D01*
X163858571Y-107178571D01*
X164001428Y-107250000D01*
X164072857Y-107321428D01*
X164144285Y-107464285D01*
X164144285Y-107892857D01*
X164072857Y-108035714D01*
X164001428Y-108107142D01*
X163858571Y-108178571D01*
X163572857Y-108178571D01*
X163430000Y-108107142D01*
D12*
G04 #@! TO.C,D1*
X182969000Y-70127000D02*
X183532652Y-70127000D01*
X193891000Y-70127000D02*
X193891000Y-59840000D01*
X193891000Y-59840000D02*
X182969000Y-59840000D01*
X182969000Y-59840000D02*
X182969000Y-70127000D01*
X185707348Y-70127000D02*
X186072652Y-70127000D01*
X188247348Y-70127000D02*
X188612652Y-70127000D01*
X190787348Y-70127000D02*
X191152652Y-70127000D01*
X193327348Y-70127000D02*
X193891000Y-70127000D01*
D13*
G04 #@! TO.C,JP1*
X163600000Y-68830000D02*
X163600000Y-67500000D01*
X164930000Y-68830000D02*
X163600000Y-68830000D01*
X166200000Y-68830000D02*
X166200000Y-66170000D01*
X166200000Y-66170000D02*
X168800000Y-66170000D01*
X166200000Y-68830000D02*
X168800000Y-68830000D01*
X168800000Y-68830000D02*
X168800000Y-66170000D01*
G04 #@! TO.C,Q1*
X169080000Y-85740000D02*
X168150000Y-85740000D01*
X165920000Y-85740000D02*
X166850000Y-85740000D01*
X165920000Y-85740000D02*
X165920000Y-87900000D01*
X169080000Y-85740000D02*
X169080000Y-87200000D01*
G04 #@! TO.C,Q2*
X162580000Y-86740000D02*
X161650000Y-86740000D01*
X159420000Y-86740000D02*
X160350000Y-86740000D01*
X159420000Y-86740000D02*
X159420000Y-88900000D01*
X162580000Y-86740000D02*
X162580000Y-88200000D01*
G04 #@! TO.C,SW2*
X178500000Y-66500000D02*
X174000000Y-66500000D01*
X179750000Y-70500000D02*
X179750000Y-69000000D01*
X174000000Y-73000000D02*
X178500000Y-73000000D01*
X172750000Y-69000000D02*
X172750000Y-70500000D01*
G04 #@! TO.C,SW3*
X172246000Y-106100000D02*
X167746000Y-106100000D01*
X173496000Y-110100000D02*
X173496000Y-108600000D01*
X167746000Y-112600000D02*
X172246000Y-112600000D01*
X166496000Y-108600000D02*
X166496000Y-110100000D01*
G04 #@! TO.C,SW4*
X156896000Y-106200000D02*
X152396000Y-106200000D01*
X158146000Y-110200000D02*
X158146000Y-108700000D01*
X152396000Y-112700000D02*
X156896000Y-112700000D01*
X151146000Y-108700000D02*
X151146000Y-110200000D01*
D14*
G04 #@! TO.C,LS1*
X201100820Y-91000000D02*
G75*
G03X201100820Y-91000000I-6100820J0D01*
G01*
G04 #@! TO.C,U1*
X157310000Y-102310000D02*
X166510000Y-102310000D01*
X174100000Y-95780000D02*
X174100000Y-74700000D01*
X166510000Y-102310000D02*
X174100000Y-95780000D01*
X149720000Y-95780000D02*
X157310000Y-102310000D01*
X174100000Y-74700000D02*
X149720000Y-74700000D01*
X149720000Y-74700000D02*
X149720000Y-95780000D01*
X178450000Y-68640000D02*
X178390000Y-68640000D01*
D13*
G04 #@! TO.C,J1*
X160546000Y-61400000D02*
X160546000Y-64000000D01*
X145846000Y-61400000D02*
X160546000Y-61400000D01*
X160546000Y-70600000D02*
X158646000Y-70600000D01*
X160546000Y-67900000D02*
X160546000Y-70600000D01*
X145846000Y-70600000D02*
X145846000Y-61400000D01*
X154646000Y-70600000D02*
X145846000Y-70600000D01*
G04 #@! TO.C,JP2*
X168870000Y-73330000D02*
X168870000Y-70670000D01*
X166270000Y-73330000D02*
X168870000Y-73330000D01*
X166270000Y-70670000D02*
X168870000Y-70670000D01*
X166270000Y-73330000D02*
X166270000Y-70670000D01*
X165000000Y-73330000D02*
X163670000Y-73330000D01*
X163670000Y-73330000D02*
X163670000Y-72000000D01*
D14*
G04 #@! TO.C,D2*
X207700000Y-91000000D02*
G75*
G03X207700000Y-91000000I-12700000J0D01*
G01*
X214050000Y-91000000D02*
G75*
G03X214050000Y-91000000I-19050000J0D01*
G01*
G04 #@! TO.C,RV1*
X217245000Y-71000000D02*
G75*
G03X217245000Y-71000000I-4445000J0D01*
G01*
X207720000Y-67190000D02*
X207720000Y-74810000D01*
X207720000Y-67190000D02*
X210260000Y-67190000D01*
X207720000Y-74810000D02*
X210260000Y-74810000D01*
G04 #@! TO.C,C2*
X158000000Y-80600000D02*
X155400000Y-80600000D01*
X158000000Y-80600000D02*
X160600000Y-80600000D01*
X158000000Y-74400000D02*
X155400000Y-74400000D01*
X158000000Y-74400000D02*
X160600000Y-74400000D01*
D13*
G04 #@! TO.C,R1*
X168500000Y-80570000D02*
X166500000Y-80570000D01*
X166500000Y-78430000D02*
X168500000Y-78430000D01*
G04 #@! TO.C,R2*
X180000000Y-92000000D02*
X180000000Y-94000000D01*
X177860000Y-94000000D02*
X177860000Y-92000000D01*
G04 #@! TO.C,R3*
X166430000Y-84070000D02*
X164430000Y-84070000D01*
X164430000Y-81930000D02*
X166430000Y-81930000D01*
G04 #@! TO.C,R4*
X176000000Y-100070000D02*
X174000000Y-100070000D01*
X174000000Y-97930000D02*
X176000000Y-97930000D01*
G04 #@! TO.C,R7*
X202430000Y-78000000D02*
X202430000Y-76000000D01*
X204570000Y-76000000D02*
X204570000Y-78000000D01*
G04 #@! TO.C,R8*
X196500000Y-72500000D02*
X196500000Y-74500000D01*
X194360000Y-74500000D02*
X194360000Y-72500000D01*
G04 #@! TO.C,D1*
D14*
X188430000Y-69452380D02*
X188430000Y-69690476D01*
X188191904Y-69595238D02*
X188430000Y-69690476D01*
X188668095Y-69595238D01*
X188287142Y-69880952D02*
X188430000Y-69690476D01*
X188572857Y-69880952D01*
G04 #@! TO.C,C2*
X159549047Y-81571428D02*
X160310952Y-81571428D01*
X159930000Y-81952380D02*
X159930000Y-81190476D01*
G04 #@! TD*
M02*
