G04 #@! TF.GenerationSoftware,KiCad,Pcbnew,5.0.1*
G04 #@! TF.CreationDate,2019-02-08T09:42:00-06:00*
G04 #@! TF.ProjectId,tomato_timer,746F6D61746F5F74696D65722E6B6963,rev?*
G04 #@! TF.SameCoordinates,Original*
G04 #@! TF.FileFunction,Copper,L1,Top,Signal*
G04 #@! TF.FilePolarity,Positive*
%FSLAX46Y46*%
G04 Gerber Fmt 4.6, Leading zero omitted, Abs format (unit mm)*
G04 Created by KiCad (PCBNEW 5.0.1) date Fri 08 Feb 2019 09:42:00 AM CST*
%MOMM*%
%LPD*%
G01*
G04 APERTURE LIST*
G04 #@! TA.AperFunction,ComponentPad*
%ADD10C,1.524000*%
G04 #@! TD*
G04 #@! TA.AperFunction,ComponentPad*
%ADD11O,1.700000X1.700000*%
G04 #@! TD*
G04 #@! TA.AperFunction,ComponentPad*
%ADD12R,1.700000X1.700000*%
G04 #@! TD*
G04 #@! TA.AperFunction,SMDPad,CuDef*
%ADD13R,0.800000X0.900000*%
G04 #@! TD*
G04 #@! TA.AperFunction,ComponentPad*
%ADD14C,2.000000*%
G04 #@! TD*
G04 #@! TA.AperFunction,ComponentPad*
%ADD15C,1.250000*%
G04 #@! TD*
G04 #@! TA.AperFunction,ComponentPad*
%ADD16R,1.524000X1.524000*%
G04 #@! TD*
G04 #@! TA.AperFunction,ComponentPad*
%ADD17R,3.500000X3.500000*%
G04 #@! TD*
G04 #@! TA.AperFunction,ComponentPad*
%ADD18C,1.700000*%
G04 #@! TD*
G04 #@! TA.AperFunction,ComponentPad*
%ADD19O,1.524000X2.540000*%
G04 #@! TD*
G04 #@! TA.AperFunction,SMDPad,CuDef*
%ADD20R,2.000000X6.300000*%
G04 #@! TD*
G04 #@! TA.AperFunction,SMDPad,CuDef*
%ADD21R,2.000000X1.700000*%
G04 #@! TD*
G04 #@! TA.AperFunction,SMDPad,CuDef*
%ADD22R,1.700000X2.000000*%
G04 #@! TD*
G04 #@! TA.AperFunction,ViaPad*
%ADD23C,0.600000*%
G04 #@! TD*
G04 #@! TA.AperFunction,Conductor*
%ADD24C,0.250000*%
G04 #@! TD*
G04 #@! TA.AperFunction,Conductor*
%ADD25C,0.500000*%
G04 #@! TD*
G04 #@! TA.AperFunction,Conductor*
%ADD26C,1.000000*%
G04 #@! TD*
G04 APERTURE END LIST*
D10*
G04 #@! TO.P,D1,3*
G04 #@! TO.N,/5V_IN*
X184620000Y-70000000D03*
G04 #@! TO.P,D1,2*
G04 #@! TO.N,/GND_IN*
X187160000Y-70000000D03*
G04 #@! TO.P,D1,4*
G04 #@! TO.N,Net-(D1-Pad4)*
X189700000Y-70000000D03*
G04 #@! TO.P,D1,1*
G04 #@! TO.N,N/C*
X192240000Y-70000000D03*
G04 #@! TD*
D11*
G04 #@! TO.P,JP1,2*
G04 #@! TO.N,/GND*
X167470000Y-67500000D03*
D12*
G04 #@! TO.P,JP1,1*
G04 #@! TO.N,/GND_IN*
X164930000Y-67500000D03*
G04 #@! TD*
D13*
G04 #@! TO.P,Q1,1*
G04 #@! TO.N,/3V3*
X166550000Y-87500000D03*
G04 #@! TO.P,Q1,2*
G04 #@! TO.N,/DIN*
X168450000Y-87500000D03*
G04 #@! TO.P,Q1,3*
G04 #@! TO.N,/TX*
X167500000Y-85500000D03*
G04 #@! TD*
G04 #@! TO.P,Q2,1*
G04 #@! TO.N,/3V3*
X160050000Y-88500000D03*
G04 #@! TO.P,Q2,2*
G04 #@! TO.N,/DOUT*
X161950000Y-88500000D03*
G04 #@! TO.P,Q2,3*
G04 #@! TO.N,/RX*
X161000000Y-86500000D03*
G04 #@! TD*
D14*
G04 #@! TO.P,SW2,2*
G04 #@! TO.N,/GND*
X179500000Y-67500000D03*
G04 #@! TO.P,SW2,1*
G04 #@! TO.N,/RESET*
X179500000Y-72000000D03*
G04 #@! TO.P,SW2,2*
G04 #@! TO.N,/GND*
X173000000Y-67500000D03*
G04 #@! TO.P,SW2,1*
G04 #@! TO.N,/RESET*
X173000000Y-72000000D03*
G04 #@! TD*
G04 #@! TO.P,SW3,2*
G04 #@! TO.N,/BTN_START*
X173246000Y-107100000D03*
G04 #@! TO.P,SW3,1*
G04 #@! TO.N,/5V*
X173246000Y-111600000D03*
G04 #@! TO.P,SW3,2*
G04 #@! TO.N,/BTN_START*
X166746000Y-107100000D03*
G04 #@! TO.P,SW3,1*
G04 #@! TO.N,/5V*
X166746000Y-111600000D03*
G04 #@! TD*
G04 #@! TO.P,SW4,2*
G04 #@! TO.N,/BTN_STOP*
X157896000Y-107200000D03*
G04 #@! TO.P,SW4,1*
G04 #@! TO.N,/5V*
X157896000Y-111700000D03*
G04 #@! TO.P,SW4,2*
G04 #@! TO.N,/BTN_STOP*
X151396000Y-107200000D03*
G04 #@! TO.P,SW4,1*
G04 #@! TO.N,/5V*
X151396000Y-111700000D03*
G04 #@! TD*
D15*
G04 #@! TO.P,LS1,1*
G04 #@! TO.N,/GND*
X192500000Y-91000000D03*
G04 #@! TO.P,LS1,2*
G04 #@! TO.N,Net-(LS1-Pad2)*
X197500000Y-91000000D03*
G04 #@! TD*
D10*
G04 #@! TO.P,U1,11*
G04 #@! TO.N,N/C*
X150900000Y-77000000D03*
G04 #@! TO.P,U1,12*
X150900000Y-79000000D03*
G04 #@! TO.P,U1,13*
X150900000Y-81000000D03*
G04 #@! TO.P,U1,14*
X150900000Y-83000000D03*
G04 #@! TO.P,U1,15*
X150900000Y-85000000D03*
G04 #@! TO.P,U1,16*
X150900000Y-87000000D03*
G04 #@! TO.P,U1,17*
X150900000Y-89000000D03*
G04 #@! TO.P,U1,18*
X150900000Y-91000000D03*
G04 #@! TO.P,U1,19*
X150900000Y-93000000D03*
G04 #@! TO.P,U1,20*
X150900000Y-95000000D03*
G04 #@! TO.P,U1,10*
G04 #@! TO.N,/GND*
X172900000Y-77000000D03*
G04 #@! TO.P,U1,9*
G04 #@! TO.N,N/C*
X172900000Y-79000000D03*
G04 #@! TO.P,U1,8*
X172900000Y-81000000D03*
G04 #@! TO.P,U1,7*
X172900000Y-83000000D03*
G04 #@! TO.P,U1,6*
X172900000Y-85000000D03*
G04 #@! TO.P,U1,5*
X172900000Y-87000000D03*
G04 #@! TO.P,U1,4*
X172900000Y-89000000D03*
G04 #@! TO.P,U1,3*
G04 #@! TO.N,/DIN*
X172900000Y-91000000D03*
G04 #@! TO.P,U1,2*
G04 #@! TO.N,/DOUT*
X172900000Y-93000000D03*
D16*
G04 #@! TO.P,U1,1*
G04 #@! TO.N,/3V3*
X172900000Y-95000000D03*
G04 #@! TD*
D17*
G04 #@! TO.P,J1,3*
G04 #@! TO.N,N/C*
X156646000Y-70700000D03*
G04 #@! TO.P,J1,2*
G04 #@! TO.N,/GND_IN*
X153646000Y-66000000D03*
G04 #@! TO.P,J1,1*
G04 #@! TO.N,/5V_IN*
X159646000Y-66000000D03*
G04 #@! TD*
D12*
G04 #@! TO.P,JP2,1*
G04 #@! TO.N,/5V_IN*
X165000000Y-72000000D03*
D11*
G04 #@! TO.P,JP2,2*
G04 #@! TO.N,/5V*
X167540000Y-72000000D03*
G04 #@! TD*
D18*
G04 #@! TO.P,D2,4*
G04 #@! TO.N,Net-(D2-Pad4)*
X207192000Y-78808000D03*
G04 #@! TO.P,D2,1*
G04 #@! TO.N,N/C*
X190682000Y-74236000D03*
G04 #@! TO.P,D2,2*
G04 #@! TO.N,/GND_IN*
X199318000Y-107764000D03*
G04 #@! TO.P,D2,3*
G04 #@! TO.N,/5V_IN*
X182808000Y-103192000D03*
G04 #@! TD*
D10*
G04 #@! TO.P,RV1,2*
G04 #@! TO.N,Net-(LS1-Pad2)*
X209930000Y-71000000D03*
G04 #@! TO.P,RV1,3*
G04 #@! TO.N,/BUZZER*
X209930000Y-73540000D03*
G04 #@! TO.P,RV1,1*
G04 #@! TO.N,/GND*
X209930000Y-68460000D03*
G04 #@! TD*
D19*
G04 #@! TO.P,TOMATO_SHIELD1,AD5*
G04 #@! TO.N,N/C*
X212100000Y-111760000D03*
G04 #@! TO.P,TOMATO_SHIELD1,AD4*
X209560000Y-111760000D03*
G04 #@! TO.P,TOMATO_SHIELD1,AD3*
X207020000Y-111760000D03*
G04 #@! TO.P,TOMATO_SHIELD1,AD0*
G04 #@! TO.N,/BUZZER*
X199400000Y-111760000D03*
G04 #@! TO.P,TOMATO_SHIELD1,AD1*
G04 #@! TO.N,N/C*
X201940000Y-111760000D03*
G04 #@! TO.P,TOMATO_SHIELD1,AD2*
X204480000Y-111760000D03*
G04 #@! TO.P,TOMATO_SHIELD1,V_IN*
X194320000Y-111760000D03*
G04 #@! TO.P,TOMATO_SHIELD1,GND2*
G04 #@! TO.N,/GND*
X191780000Y-111760000D03*
G04 #@! TO.P,TOMATO_SHIELD1,GND1*
X189240000Y-111760000D03*
G04 #@! TO.P,TOMATO_SHIELD1,3V3*
G04 #@! TO.N,/3V3*
X184160000Y-111760000D03*
G04 #@! TO.P,TOMATO_SHIELD1,RST*
G04 #@! TO.N,/RESET*
X181620000Y-111760000D03*
G04 #@! TO.P,TOMATO_SHIELD1,0*
G04 #@! TO.N,/RX*
X212100000Y-63500000D03*
G04 #@! TO.P,TOMATO_SHIELD1,1*
G04 #@! TO.N,/TX*
X209560000Y-63500000D03*
G04 #@! TO.P,TOMATO_SHIELD1,2*
G04 #@! TO.N,/BTN_START*
X207020000Y-63500000D03*
G04 #@! TO.P,TOMATO_SHIELD1,3*
G04 #@! TO.N,/BTN_STOP*
X204480000Y-63500000D03*
G04 #@! TO.P,TOMATO_SHIELD1,4*
G04 #@! TO.N,N/C*
X201940000Y-63500000D03*
G04 #@! TO.P,TOMATO_SHIELD1,5*
X199400000Y-63500000D03*
G04 #@! TO.P,TOMATO_SHIELD1,6*
G04 #@! TO.N,/PIXEL_RING_PIN*
X196860000Y-63500000D03*
G04 #@! TO.P,TOMATO_SHIELD1,7*
G04 #@! TO.N,N/C*
X194320000Y-63500000D03*
G04 #@! TO.P,TOMATO_SHIELD1,8*
G04 #@! TO.N,/PIXEL_STRIP_PIN*
X190256000Y-63500000D03*
G04 #@! TO.P,TOMATO_SHIELD1,9*
G04 #@! TO.N,N/C*
X187716000Y-63500000D03*
G04 #@! TO.P,TOMATO_SHIELD1,10*
X185176000Y-63500000D03*
G04 #@! TO.P,TOMATO_SHIELD1,11*
X182636000Y-63500000D03*
G04 #@! TO.P,TOMATO_SHIELD1,12*
X180096000Y-63500000D03*
G04 #@! TO.P,TOMATO_SHIELD1,13*
X177556000Y-63500000D03*
G04 #@! TO.P,TOMATO_SHIELD1,GND3*
G04 #@! TO.N,/GND*
X175016000Y-63500000D03*
G04 #@! TO.P,TOMATO_SHIELD1,AREF*
G04 #@! TO.N,N/C*
X172476000Y-63500000D03*
G04 #@! TO.P,TOMATO_SHIELD1,5V*
G04 #@! TO.N,/5V*
X186700000Y-111760000D03*
G04 #@! TO.P,TOMATO_SHIELD1,SDA*
G04 #@! TO.N,N/C*
X169936000Y-63500000D03*
G04 #@! TO.P,TOMATO_SHIELD1,SCL*
X167396000Y-63500000D03*
G04 #@! TO.P,TOMATO_SHIELD1,IO_R*
X179080000Y-111760000D03*
G04 #@! TO.P,TOMATO_SHIELD1,NC*
X176540000Y-111760000D03*
D10*
G04 #@! TO.P,TOMATO_SHIELD1,SP1*
X212100000Y-83820000D03*
G04 #@! TO.P,TOMATO_SHIELD1,SP2*
X214640000Y-83820000D03*
G04 #@! TO.P,TOMATO_SHIELD1,SP3*
X212100000Y-86360000D03*
G04 #@! TO.P,TOMATO_SHIELD1,SP4*
X214640000Y-86360000D03*
G04 #@! TO.P,TOMATO_SHIELD1,SP5*
X212100000Y-88900000D03*
G04 #@! TO.P,TOMATO_SHIELD1,SP6*
X214640000Y-88900000D03*
G04 #@! TD*
D20*
G04 #@! TO.P,C2,2*
G04 #@! TO.N,/GND_IN*
X154250000Y-77500000D03*
G04 #@! TO.P,C2,1*
G04 #@! TO.N,/5V_IN*
X161750000Y-77500000D03*
G04 #@! TD*
D21*
G04 #@! TO.P,R1,1*
G04 #@! TO.N,/5V*
X165500000Y-79500000D03*
G04 #@! TO.P,R1,2*
G04 #@! TO.N,/TX*
X169500000Y-79500000D03*
G04 #@! TD*
D22*
G04 #@! TO.P,R2,2*
G04 #@! TO.N,/3V3*
X178930000Y-95000000D03*
G04 #@! TO.P,R2,1*
G04 #@! TO.N,/DIN*
X178930000Y-91000000D03*
G04 #@! TD*
D21*
G04 #@! TO.P,R3,1*
G04 #@! TO.N,/5V*
X163430000Y-83000000D03*
G04 #@! TO.P,R3,2*
G04 #@! TO.N,/RX*
X167430000Y-83000000D03*
G04 #@! TD*
G04 #@! TO.P,R4,2*
G04 #@! TO.N,/3V3*
X173000000Y-99000000D03*
G04 #@! TO.P,R4,1*
G04 #@! TO.N,/DOUT*
X177000000Y-99000000D03*
G04 #@! TD*
D22*
G04 #@! TO.P,R7,2*
G04 #@! TO.N,/PIXEL_RING_PIN*
X203500000Y-75000000D03*
G04 #@! TO.P,R7,1*
G04 #@! TO.N,Net-(D2-Pad4)*
X203500000Y-79000000D03*
G04 #@! TD*
G04 #@! TO.P,R8,1*
G04 #@! TO.N,Net-(D1-Pad4)*
X195430000Y-75500000D03*
G04 #@! TO.P,R8,2*
G04 #@! TO.N,/PIXEL_STRIP_PIN*
X195430000Y-71500000D03*
G04 #@! TD*
D23*
G04 #@! TO.N,/3V3*
X176430000Y-104500000D03*
G04 #@! TO.N,/TX*
X174930000Y-75700000D03*
X188430000Y-79500000D03*
X182305000Y-79500000D03*
X169930000Y-76500000D03*
G04 #@! TO.N,/RX*
X188430000Y-80500000D03*
X182305000Y-80500000D03*
G04 #@! TO.N,/5V*
X166430000Y-77000000D03*
G04 #@! TO.N,/BTN_START*
X188430000Y-78500000D03*
X183930000Y-78500000D03*
G04 #@! TO.N,/BTN_STOP*
X188430000Y-77500000D03*
X183930000Y-77500000D03*
X161446000Y-105500000D03*
X158430000Y-99500000D03*
G04 #@! TO.N,/RESET*
X180430000Y-76000000D03*
X180430000Y-78875000D03*
X180430000Y-81500000D03*
X176328959Y-105601041D03*
X177930000Y-109000000D03*
G04 #@! TO.N,/PIXEL_RING_PIN*
X199930000Y-69375000D03*
X199930000Y-72125000D03*
G04 #@! TD*
D24*
G04 #@! TO.N,Net-(LS1-Pad2)*
X211430000Y-79500000D02*
X208930000Y-82000000D01*
X208930000Y-82000000D02*
X208930000Y-89500000D01*
X207430000Y-91000000D02*
X197500000Y-91000000D01*
X208930000Y-89500000D02*
X207430000Y-91000000D01*
X211430000Y-79500000D02*
X211430000Y-76000000D01*
X211430000Y-76000000D02*
X210430000Y-75000000D01*
X210430000Y-75000000D02*
X209430000Y-75000000D01*
X209430000Y-75000000D02*
X208430000Y-74000000D01*
X208430000Y-72500000D02*
X209930000Y-71000000D01*
X208430000Y-74000000D02*
X208430000Y-72500000D01*
D25*
G04 #@! TO.N,/3V3*
X176500000Y-95000000D02*
X172900000Y-95000000D01*
X172900000Y-98900000D02*
X173000000Y-99000000D01*
X172900000Y-95000000D02*
X172900000Y-98900000D01*
X160050000Y-88450000D02*
X160050000Y-88500000D01*
X161000000Y-87500000D02*
X160050000Y-88450000D01*
X166550000Y-87500000D02*
X161000000Y-87500000D01*
X172900000Y-95000000D02*
X161930000Y-95000000D01*
X160050000Y-93120000D02*
X160050000Y-88500000D01*
X161930000Y-95000000D02*
X160050000Y-93120000D01*
X173000000Y-99000000D02*
X173000000Y-101070000D01*
X173000000Y-101070000D02*
X176430000Y-104500000D01*
X176500000Y-95000000D02*
X178930000Y-95000000D01*
D24*
G04 #@! TO.N,/TX*
X198430000Y-71500000D02*
X198430000Y-74000000D01*
X198430000Y-76772820D02*
X196702820Y-78500000D01*
X174930000Y-75700000D02*
X175430000Y-76200000D01*
X198930000Y-71000000D02*
X198430000Y-71500000D01*
X203930000Y-71000000D02*
X198930000Y-71000000D01*
X175430000Y-79000000D02*
X175930000Y-79500000D01*
X196702820Y-78500000D02*
X189430000Y-78500000D01*
X198430000Y-74000000D02*
X198430000Y-76772820D01*
X175930000Y-79500000D02*
X182305000Y-79500000D01*
X209560000Y-65370000D02*
X203930000Y-71000000D01*
X189430000Y-78500000D02*
X188430000Y-79500000D01*
X175430000Y-76200000D02*
X175430000Y-79000000D01*
X209560000Y-63500000D02*
X209560000Y-65370000D01*
X169500000Y-76930000D02*
X169930000Y-76500000D01*
X169500000Y-79500000D02*
X169500000Y-76930000D01*
X168150000Y-85500000D02*
X167500000Y-85500000D01*
X169500000Y-84150000D02*
X168150000Y-85500000D01*
X169500000Y-79500000D02*
X169500000Y-84150000D01*
G04 #@! TO.N,/RX*
X208930000Y-67000000D02*
X204430000Y-71500000D01*
X212100000Y-65830000D02*
X210930000Y-67000000D01*
X198930000Y-72000000D02*
X198930000Y-74000000D01*
X204430000Y-71500000D02*
X199430000Y-71500000D01*
X210930000Y-67000000D02*
X208930000Y-67000000D01*
X198930000Y-74000000D02*
X198930000Y-76909230D01*
X198930000Y-76909230D02*
X196839230Y-79000000D01*
X196839230Y-79000000D02*
X189930000Y-79000000D01*
X212100000Y-63500000D02*
X212100000Y-65830000D01*
X199430000Y-71500000D02*
X198930000Y-72000000D01*
X189930000Y-79000000D02*
X188430000Y-80500000D01*
X175430000Y-80500000D02*
X174430000Y-79500000D01*
X182305000Y-80500000D02*
X175430000Y-80500000D01*
X174430000Y-79500000D02*
X174430000Y-76500000D01*
X174430000Y-76500000D02*
X173455010Y-75525010D01*
X173455010Y-75525010D02*
X169404990Y-75525010D01*
X167430000Y-77500000D02*
X167430000Y-83000000D01*
X169404990Y-75525010D02*
X167430000Y-77500000D01*
X163930000Y-86500000D02*
X161000000Y-86500000D01*
X167430000Y-83000000D02*
X163930000Y-86500000D01*
D25*
G04 #@! TO.N,/5V*
X166746000Y-111600000D02*
X173246000Y-111600000D01*
X157896000Y-111700000D02*
X151396000Y-111700000D01*
X157896000Y-111700000D02*
X160596000Y-109000000D01*
X164146000Y-109000000D02*
X166746000Y-111600000D01*
X160596000Y-109000000D02*
X164146000Y-109000000D01*
X165500000Y-77930000D02*
X165500000Y-79500000D01*
X166430000Y-77000000D02*
X165500000Y-77930000D01*
X165500000Y-80930000D02*
X163430000Y-83000000D01*
X165500000Y-79500000D02*
X165500000Y-80930000D01*
X158930000Y-93500000D02*
X160596000Y-95166000D01*
X158930000Y-86000000D02*
X158930000Y-93500000D01*
X163430000Y-83000000D02*
X161930000Y-83000000D01*
X160596000Y-95166000D02*
X160596000Y-109000000D01*
X161930000Y-83000000D02*
X158930000Y-86000000D01*
X174245999Y-110600001D02*
X174245999Y-109184001D01*
X173246000Y-111600000D02*
X174245999Y-110600001D01*
X174245999Y-109184001D02*
X175654990Y-107775010D01*
X175654990Y-107775010D02*
X185205010Y-107775010D01*
X186700000Y-109270000D02*
X186700000Y-111760000D01*
X185205010Y-107775010D02*
X186700000Y-109270000D01*
D24*
G04 #@! TO.N,/BTN_START*
X198430000Y-70500000D02*
X203430000Y-70500000D01*
X197930000Y-74000000D02*
X197930000Y-71000000D01*
X207020000Y-66910000D02*
X207020000Y-63500000D01*
X203430000Y-70500000D02*
X207020000Y-66910000D01*
X197930000Y-71000000D02*
X198430000Y-70500000D01*
X197930000Y-76636410D02*
X196566410Y-78000000D01*
X197930000Y-74000000D02*
X197930000Y-76636410D01*
X196566410Y-78000000D02*
X188930000Y-78000000D01*
X188930000Y-78000000D02*
X188430000Y-78500000D01*
X166746000Y-107100000D02*
X173246000Y-107100000D01*
X180930000Y-106000000D02*
X179830000Y-107100000D01*
X180930000Y-102500000D02*
X180930000Y-106000000D01*
X183430000Y-100000000D02*
X180930000Y-102500000D01*
X183930000Y-78500000D02*
X183430000Y-79000000D01*
X179830000Y-107100000D02*
X173246000Y-107100000D01*
X183430000Y-79000000D02*
X183430000Y-100000000D01*
G04 #@! TO.N,/BTN_STOP*
X197430000Y-70500000D02*
X197430000Y-74000000D01*
X197430000Y-74000000D02*
X197430000Y-76000000D01*
X204480000Y-68450000D02*
X202930000Y-70000000D01*
X197430000Y-76000000D02*
X197430000Y-76500000D01*
X197430000Y-76500000D02*
X196430000Y-77500000D01*
X204480000Y-63500000D02*
X204480000Y-68450000D01*
X197930000Y-70000000D02*
X197430000Y-70500000D01*
X202930000Y-70000000D02*
X197930000Y-70000000D01*
X196430000Y-77500000D02*
X188430000Y-77500000D01*
X152810213Y-107200000D02*
X157896000Y-107200000D01*
X151396000Y-107200000D02*
X152810213Y-107200000D01*
X180430000Y-102363590D02*
X180430000Y-105500000D01*
X182930000Y-99863590D02*
X180430000Y-102363590D01*
X180430000Y-105500000D02*
X179430000Y-106500000D01*
X183930000Y-77500000D02*
X182930000Y-78500000D01*
X182930000Y-78500000D02*
X182930000Y-99863590D01*
X179430000Y-106500000D02*
X175930000Y-106500000D01*
X175930000Y-106500000D02*
X174930000Y-105500000D01*
X174930000Y-105500000D02*
X165930000Y-105500000D01*
X165930000Y-105500000D02*
X161446000Y-105500000D01*
X158430000Y-99500000D02*
X158430000Y-101000000D01*
X157896000Y-101534000D02*
X157896000Y-107200000D01*
X158430000Y-101000000D02*
X157896000Y-101534000D01*
G04 #@! TO.N,/BUZZER*
X212000000Y-80000000D02*
X209500000Y-82500000D01*
X209500000Y-82500000D02*
X209500000Y-103000000D01*
X209500000Y-103000000D02*
X203500000Y-109000000D01*
X199400000Y-110240000D02*
X199400000Y-111760000D01*
X200640000Y-109000000D02*
X199400000Y-110240000D01*
X203500000Y-109000000D02*
X200640000Y-109000000D01*
X212000000Y-75610000D02*
X209930000Y-73540000D01*
X212000000Y-80000000D02*
X212000000Y-75610000D01*
G04 #@! TO.N,/RESET*
X173000000Y-72000000D02*
X179500000Y-72000000D01*
X180430000Y-76000000D02*
X180430000Y-78875000D01*
X182430000Y-99500000D02*
X179930000Y-102000000D01*
X180430000Y-81500000D02*
X182430000Y-83500000D01*
X182430000Y-83500000D02*
X182430000Y-99500000D01*
X176401961Y-105601041D02*
X176328959Y-105601041D01*
X179930000Y-102000000D02*
X179930000Y-102073002D01*
X179930000Y-102073002D02*
X176401961Y-105601041D01*
X177930000Y-109000000D02*
X178430000Y-109500000D01*
X181620000Y-111252000D02*
X181620000Y-111760000D01*
X179868000Y-109500000D02*
X181620000Y-111252000D01*
X178430000Y-109500000D02*
X179868000Y-109500000D01*
G04 #@! TO.N,/DIN*
X172900000Y-91000000D02*
X176500000Y-91000000D01*
X171430000Y-89530000D02*
X172900000Y-91000000D01*
X168450000Y-87500000D02*
X170930000Y-87500000D01*
X171430000Y-88000000D02*
X171430000Y-89530000D01*
X170930000Y-87500000D02*
X171430000Y-88000000D01*
X176500000Y-91000000D02*
X178930000Y-91000000D01*
G04 #@! TO.N,/DOUT*
X171430000Y-92500000D02*
X171930000Y-93000000D01*
X171430000Y-91000000D02*
X171430000Y-92500000D01*
X161950000Y-88500000D02*
X168930000Y-88500000D01*
X171930000Y-93000000D02*
X172900000Y-93000000D01*
X168930000Y-88500000D02*
X171430000Y-91000000D01*
X181930000Y-98000000D02*
X180930000Y-99000000D01*
X180930000Y-99000000D02*
X177000000Y-99000000D01*
X172900000Y-93000000D02*
X180930000Y-93000000D01*
X181930000Y-94000000D02*
X181930000Y-98000000D01*
X180930000Y-93000000D02*
X181930000Y-94000000D01*
G04 #@! TO.N,/PIXEL_RING_PIN*
X196860000Y-64008000D02*
X199930000Y-67078000D01*
X196860000Y-63500000D02*
X196860000Y-64008000D01*
X199930000Y-67078000D02*
X199930000Y-69375000D01*
X201293590Y-75000000D02*
X203500000Y-75000000D01*
X199930000Y-72125000D02*
X199930000Y-73636410D01*
X199930000Y-73636410D02*
X201293590Y-75000000D01*
G04 #@! TO.N,/PIXEL_STRIP_PIN*
X195430000Y-70194000D02*
X195430000Y-71500000D01*
X190256000Y-63500000D02*
X190256000Y-65020000D01*
X190256000Y-65020000D02*
X195430000Y-70194000D01*
G04 #@! TO.N,Net-(D2-Pad4)*
X203692000Y-78808000D02*
X203500000Y-79000000D01*
X207192000Y-78808000D02*
X203692000Y-78808000D01*
D26*
G04 #@! TO.N,/5V_IN*
X159646000Y-75396000D02*
X161750000Y-77500000D01*
X159646000Y-66000000D02*
X159646000Y-75396000D01*
X164750000Y-74500000D02*
X161750000Y-77500000D01*
X165930000Y-74500000D02*
X164750000Y-74500000D01*
X182808000Y-103192000D02*
X185430000Y-100570000D01*
X185430000Y-77000000D02*
X182930000Y-74500000D01*
X182930000Y-74500000D02*
X171930000Y-74500000D01*
X185430000Y-100570000D02*
X185430000Y-77000000D01*
X165930000Y-74500000D02*
X169930000Y-74500000D01*
X171930000Y-74500000D02*
X169930000Y-74500000D01*
X169930000Y-74500000D02*
X168930000Y-74500000D01*
X184620000Y-72810000D02*
X182930000Y-74500000D01*
X184620000Y-70000000D02*
X184620000Y-72810000D01*
X165000000Y-74250000D02*
X164750000Y-74500000D01*
X165000000Y-72000000D02*
X165000000Y-74250000D01*
G04 #@! TO.N,/GND_IN*
X153646000Y-76896000D02*
X154250000Y-77500000D01*
X153646000Y-66000000D02*
X153646000Y-76896000D01*
X187230000Y-70000000D02*
X187230000Y-101300000D01*
X193694000Y-107764000D02*
X199318000Y-107764000D01*
X187230000Y-101300000D02*
X193694000Y-107764000D01*
X164930000Y-69350000D02*
X165580000Y-70000000D01*
X164930000Y-67500000D02*
X164930000Y-69350000D01*
X180930000Y-70000000D02*
X182930000Y-68000000D01*
X165580000Y-70000000D02*
X180930000Y-70000000D01*
X182930000Y-68000000D02*
X186430000Y-68000000D01*
X187160000Y-68730000D02*
X187160000Y-70000000D01*
X186430000Y-68000000D02*
X187160000Y-68730000D01*
D24*
G04 #@! TO.N,Net-(D1-Pad4)*
X190080000Y-70000000D02*
X189700000Y-70000000D01*
X195430000Y-75350000D02*
X190080000Y-70000000D01*
X195430000Y-75500000D02*
X195430000Y-75350000D01*
G04 #@! TD*
M02*
